<?xml version="1.0" encoding="UTF-8" standalone="no"?>
<!-- Created with Inkscape (http://www.inkscape.org/) -->

<svg
   xmlns:dc="http://purl.org/dc/elements/1.1/"
   xmlns:cc="http://creativecommons.org/ns#"
   xmlns:rdf="http://www.w3.org/1999/02/22-rdf-syntax-ns#"
   xmlns:svg="http://www.w3.org/2000/svg"
   xmlns="http://www.w3.org/2000/svg"
   xmlns:sodipodi="http://sodipodi.sourceforge.net/DTD/sodipodi-0.dtd"
   xmlns:inkscape="http://www.inkscape.org/namespaces/inkscape"
   width="940"
   height="75"
   id="svg2"
   version="1.1"
   inkscape:version="0.48.4 r9939"
   sodipodi:docname="header.svg"
   inkscape:export-filename="/home/andreasn/development/guadec-web/wordcamp-base/images/logo.png"
   inkscape:export-xdpi="90"
   inkscape:export-ydpi="90">
  <defs
     id="defs4" />
  <sodipodi:namedview
     id="base"
     pagecolor="#ffffff"
     bordercolor="#666666"
     borderopacity="1.0"
     inkscape:pageopacity="0.0"
     inkscape:pageshadow="2"
     inkscape:zoom="1.4142136"
     inkscape:cx="555.89244"
     inkscape:cy="-105.56493"
     inkscape:document-units="px"
     inkscape:current-layer="g11408"
     showgrid="false"
     inkscape:snap-nodes="false"
     inkscape:snap-bbox="true"
     inkscape:window-width="1600"
     inkscape:window-height="841"
     inkscape:window-x="0"
     inkscape:window-y="27"
     inkscape:window-maximized="1"
     inkscape:snap-global="false"
     showborder="true"
     inkscape:showpageshadow="false">
    <inkscape:grid
       type="xygrid"
       id="grid6061"
       empspacing="5"
       visible="true"
       enabled="true"
       snapvisiblegridlinesonly="true" />
  </sodipodi:namedview>
  <metadata
     id="metadata7">
    <rdf:RDF>
      <cc:Work
         rdf:about="">
        <dc:format>image/svg+xml</dc:format>
        <dc:type
           rdf:resource="http://purl.org/dc/dcmitype/StillImage" />
        <dc:title />
      </cc:Work>
    </rdf:RDF>
  </metadata>
  <g
     inkscape:label="Layer 1"
     inkscape:groupmode="layer"
     id="layer1"
     transform="translate(0,-977.3622)">
    <g
       id="g11408"
       transform="translate(0.47351109,0)">
      <g
         inkscape:export-ydpi="90"
         inkscape:export-xdpi="90"
         inkscape:export-filename="/home/andreasn/SparkleShare/gnome-web/guadec/2013/Brno/website-full.png"
         transform="matrix(0.5545702,0,0,0.5545702,272.09034,732.4472)"
         id="g7159-5-0-1">
        <g
           style="font-size:79.21905518px;font-style:normal;font-variant:normal;font-weight:bold;font-stretch:normal;text-align:start;line-height:125%;letter-spacing:0px;word-spacing:0px;writing-mode:lr-tb;text-anchor:start;fill:#6b8e9f;fill-opacity:1;stroke:none;font-family:Cantarell;-inkscape-font-specification:Cantarell Bold"
           id="text3000-5-67-4-4">
          <path
             d="m 242.61314,534.05619 0,-22.57743 -25.03323,0 0,8.55565 15.44772,0 0,10.53614 c -2.37657,1.90125 -5.86221,3.24798 -10.45691,3.24798 -11.88285,0 -20.43852,-8.15957 -20.43852,-19.56711 0,-11.7244 9.34786,-18.61647 19.17101,-18.61647 5.54533,0 10.85301,1.98047 13.86334,3.56485 l 1.42594,0.79219 4.04017,-7.68424 -1.34672,-0.7922 c -4.67392,-2.61422 -11.01146,-4.83236 -18.37882,-4.83236 -18.45803,0 -28.59808,13.54648 -28.59808,27.96433 0,13.54644 9.03099,28.20198 28.75651,28.20198 13.22957,0 19.48789,-6.57518 21.54759,-8.79331"
             style=""
             id="path6073" />
          <path
             d="m 277.06228,542.8495 c 21.54756,0 22.49821,-13.94256 22.49821,-20.59695 0,-3.56486 -0.0792,-4e-5 -0.0792,-35.17326 l -9.66473,0 0,34.85638 c 0,1.6636 -0.15844,3.24798 -0.55453,4.67393 -1.18829,4.75313 -5.70378,7.36737 -12.19974,7.36737 -6.33751,0 -9.34785,-2.53501 -10.29847,-3.56486 -2.21814,-2.37657 -2.45579,-5.14924 -2.45579,-8.47644 l 0,-34.85638 -9.74395,0 0,35.72779 0,0.47532 c 0,6.09986 0.3169,19.5671 22.49821,19.5671"
             style=""
             id="path6075" />
          <path
             d="m 328.04098,487.07929 -20.51773,54.97802 9.50628,0 5.46612,-14.41787 20.20086,0 5.54533,14.41787 10.06082,0 -20.59695,-54.97802 -9.66473,0 m 11.56598,31.68762 -14.02177,0 7.0505,-20.43852 6.97127,20.43852"
             style=""
             id="path6077" />
          <path
             d="m 384.97101,496.03104 c 1.6636,0 3.24798,0.0792 4.75314,0.31688 6.57518,1.02984 14.33865,6.1791 14.33865,17.9035 0,5.14924 -1.42594,8.47644 -2.37657,10.29848 -4.51548,8.31799 -13.30881,8.55566 -19.32945,8.55566 l -6.33752,0 0,-37.07452 8.95175,0 m -0.23766,-8.95175 -18.45804,0 0,54.97802 13.7049,0 c 4.5947,0 9.42707,0 14.10099,-1.18828 15.28927,-3.64408 19.72555,-16.71524 19.72555,-27.88511 0,-12.1205 -6.33755,-25.90463 -29.0734,-25.90463"
             style=""
             id="path6079" />
          <path
             d="m 424.14236,542.05731 36.51999,0 0,-8.95175 -26.77604,0 0,-14.89318 24.71634,0 0,-8.95176 -24.71634,0 0,-13.22958 26.77604,0 0,-8.95175 -36.51999,0 0,54.97802"
             style=""
             id="path6081" />
          <path
             d="m 496.87165,486.68319 c -17.82427,0 -29.15261,12.12053 -29.15261,27.96433 0,15.60614 10.85303,28.20198 28.6773,28.20198 5.07001,0 11.01145,-1.18829 16.79444,-3.64407 l 1.42594,-0.55454 -3.16876,-7.76346 -1.42594,0.47531 c -4.27783,1.50516 -8.39723,2.29735 -11.88286,2.29735 -12.83348,0 -20.59696,-8.87254 -20.59696,-19.09179 0,-9.90237 7.20895,-18.85414 19.17101,-18.85414 2.45579,0 6.49597,0.31688 12.59583,2.4558 l 1.50517,0.55453 3.01032,-8.39722 -1.42594,-0.55453 c -5.78299,-2.29735 -11.24911,-3.08955 -15.52694,-3.08955"
             style=""
             id="path6083" />
        </g>
        <g
           inkscape:export-ydpi="90"
           inkscape:export-xdpi="90"
           inkscape:export-filename="/home/andreasn/SparkleShare/gnome-web/guadec/2013/Brno/website-full.png"
           transform="translate(-600.81303,115.28571)"
           style="fill:#6b8e9f;fill-opacity:1"
           id="g5813-7-9-5-1">
          <text
             xml:space="preserve"
             style="font-size:29.50051689px;font-style:normal;font-variant:normal;font-weight:normal;font-stretch:normal;text-align:start;line-height:125%;letter-spacing:0px;word-spacing:0px;writing-mode:lr-tb;text-anchor:start;fill:#6b8e9f;fill-opacity:1;stroke:none;font-family:Cantarell;-inkscape-font-specification:Cantarell"
             x="792.4502"
             y="357.88382"
             id="text5815-4-9-5-0"
             sodipodi:linespacing="125%"><tspan
               sodipodi:role="line"
               id="tspan5817-2-1-6-2"
               x="792.4502"
               y="357.88382">The</tspan></text>
          <g
             style="font-size:29.50051689px;font-style:normal;font-variant:normal;font-weight:normal;font-stretch:normal;text-align:start;line-height:125%;letter-spacing:0px;word-spacing:0px;writing-mode:lr-tb;text-anchor:start;fill:#6b8e9f;stroke:none;font-family:Cantarell;-inkscape-font-specification:Cantarell"
             id="text5819-6-8-4-0">
            <path
               d="m 990.18975,340.27201 0.67851,-2.03553 c -1.94703,-0.70802 -3.48107,-1.06202 -6.16561,-1.06202 -2.97955,0 -5.6346,1.32752 -7.19813,2.95005 -1.62252,1.68153 -2.83205,4.33658 -2.83205,7.52263 0,3.12705 0.94402,5.6346 2.77305,7.61113 1.68153,1.71103 4.24808,2.92055 7.52263,2.92055 2.30104,0 4.33658,-0.413 6.16561,-1.23902 l -0.61951,-1.94703 c -1.62252,0.64901 -3.21556,0.97352 -4.83808,0.97352 -1.59303,0 -3.03856,-0.32451 -4.27758,-1.03252 -2.33054,-1.32752 -3.95307,-3.83507 -3.95307,-7.31613 0,-2.38954 0.73752,-4.30708 2.15354,-5.8706 1.18002,-1.26852 3.24506,-2.36004 5.5461,-2.36004 2.33054,0 3.18606,0.236 5.04459,0.88501"
               style=""
               id="path6052" />
            <path
               d="m 1000.5278,345.3166 c 2.8911,0 4.3956,2.47805 4.3956,5.4871 0,3.06805 -1.5045,5.45759 -4.3956,5.45759 -2.89101,0 -4.39554,-2.44854 -4.39554,-5.45759 0,-2.97955 1.50453,-5.4871 4.39554,-5.4871 m -0.059,12.86222 c 4.3366,0 6.9032,-2.95005 6.9032,-7.40462 0,-4.42508 -2.4486,-7.34563 -6.8147,-7.34563 -4.36604,0 -6.87359,2.95005 -6.87359,7.37513 0,4.45457 2.41905,7.37512 6.78509,7.37512"
               style=""
               id="path6054" />
            <path
               d="m 1017.2062,345.4051 c 1.121,0 1.8881,0.26551 2.3601,0.79651 0.472,0.53101 0.708,1.41603 0.708,2.62555 l 0,9.05666 2.3895,0 0,-9.64667 c 0,-1.53402 -0.3835,-2.71405 -1.18,-3.56956 -0.7965,-0.85552 -1.9175,-1.29802 -3.4221,-1.29802 -1.5045,0 -3.245,0.472 -5.0445,1.41602 l -0.4721,-1.06202 -1.6815,0 0,14.16025 2.4191,0 0,-11.4462 c 1.4455,-0.67851 2.8025,-1.03252 3.9235,-1.03252"
               style=""
               id="path6056" />
            <path
               d="m 1032.6802,339.26899 c 0.649,0 1.416,0.11801 2.3305,0.35401 l 0.3835,-1.77003 c -1.003,-0.29501 -2.242,-0.53101 -3.4515,-0.53101 -2.0061,0 -3.4516,0.73751 -4.2776,2.21254 -0.295,0.53101 -0.4425,1.44552 -0.4425,2.68455 l 0,1.44552 -2.0651,0 0,1.85853 2.0651,0 0.029,12.36072 2.3895,0 -0.029,-12.36072 4.7496,0 0,-1.85853 -4.7496,0 0,-1.35702 c 0,-0.38351 0.029,-0.70802 0.059,-0.91452 0.177,-1.18002 1.357,-2.12404 3.0091,-2.12404"
               style=""
               id="path6058" />
            <path
               d="m 1043.5686,343.42857 c -2.065,0 -3.658,0.73751 -4.8086,2.21254 -1.0915,1.47502 -1.652,3.24505 -1.652,5.36909 0,4.60208 2.5076,7.13912 7.1686,7.13912 1.5931,0 3.1271,-0.2655 4.5726,-0.76701 l 0,-1.91753 c -1.3865,0.4425 -2.6845,0.64901 -3.9235,0.64901 -1.7996,0 -3.1271,-0.41301 -3.9531,-1.29802 -0.826,-0.88502 -1.298,-2.00604 -1.3865,-3.36306 l 9.6761,0 0.1475,-0.23601 0,-1.29802 c 0,-4.07107 -2.0945,-6.49011 -5.8411,-6.49011 m 3.4221,6.1656 -7.3456,0 c 0.2655,-2.27153 1.475,-4.24807 4.13,-4.24807 2.2126,0 3.2156,1.94704 3.2156,4.24807"
               style=""
               id="path6060" />
            <path
               d="m 1059.6003,343.42857 c -1.3865,0 -2.6845,0.47201 -3.9531,1.44552 l -0.472,-1.18002 -1.77,0 0,14.18975 2.4485,0 0,-11.2987 c 1.0326,-0.67851 2.0946,-1.03252 3.2451,-1.03252 0.708,0 1.416,0.17701 2.1535,0.47201 l 0.295,0 0,-2.33054 c -0.6195,-0.177 -1.2685,-0.2655 -1.947,-0.2655"
               style=""
               id="path6062" />
            <path
               d="m 1070.5339,343.42857 c -2.065,0 -3.658,0.73751 -4.8085,2.21254 -1.0916,1.47502 -1.6521,3.24505 -1.6521,5.36909 0,4.60208 2.5076,7.13912 7.1687,7.13912 1.593,0 3.127,-0.2655 4.5725,-0.76701 l 0,-1.91753 c -1.3865,0.4425 -2.6845,0.64901 -3.9235,0.64901 -1.7996,0 -3.1271,-0.41301 -3.9531,-1.29802 -0.826,-0.88502 -1.298,-2.00604 -1.3865,-3.36306 l 9.6761,0 0.1475,-0.23601 0,-1.29802 c 0,-4.07107 -2.0945,-6.49011 -5.8411,-6.49011 m 3.4221,6.1656 -7.3456,0 c 0.2655,-2.27153 1.475,-4.24807 4.13,-4.24807 2.2126,0 3.2156,1.94704 3.2156,4.24807"
               style=""
               id="path6064" />
            <path
               d="m 1085.8871,345.4051 c 1.121,0 1.8881,0.26551 2.3601,0.79651 0.472,0.53101 0.708,1.41603 0.708,2.62555 l 0,9.05666 2.3895,0 0,-9.64667 c 0,-1.53402 -0.3835,-2.71405 -1.18,-3.56956 -0.7965,-0.85552 -1.9175,-1.29802 -3.4221,-1.29802 -1.5045,0 -3.245,0.472 -5.0446,1.41602 l -0.472,-1.06202 -1.6815,0 0,14.16025 2.419,0 0,-11.4462 c 1.4456,-0.67851 2.8026,-1.03252 3.9236,-1.03252"
               style=""
               id="path6066" />
            <path
               d="m 1101.5086,358.20833 c 0.03,0 0.089,0 0.118,-0.0295 1.239,0 2.5075,-0.2655 3.8645,-0.79651 l -0.5605,-1.62253 c -0.9145,0.32451 -1.77,0.50151 -2.5665,0.50151 -0.236,0 -0.472,-0.0295 -0.6785,-0.059 -3.1271,-0.35401 -4.6021,-2.12404 -4.6021,-5.6051 0,-3.33355 1.652,-5.19209 5.0446,-5.19209 0.8555,0 1.8585,0.177 2.95,0.56051 l 0.59,-1.71103 c -1.298,-0.56051 -2.5075,-0.85551 -3.658,-0.85551 -2.4781,0 -4.3071,0.70801 -5.5166,2.15353 -1.1505,1.38653 -1.7405,3.21556 -1.7405,5.4871 0,4.48407 2.36,7.16863 6.7556,7.16863"
               style=""
               id="path6068" />
            <path
               d="m 1115.0728,343.42857 c -2.065,0 -3.658,0.73751 -4.8086,2.21254 -1.0915,1.47502 -1.652,3.24505 -1.652,5.36909 0,4.60208 2.5076,7.13912 7.1686,7.13912 1.5931,0 3.1271,-0.2655 4.5726,-0.76701 l 0,-1.91753 c -1.3865,0.4425 -2.6845,0.64901 -3.9236,0.64901 -1.7995,0 -3.127,-0.41301 -3.953,-1.29802 -0.826,-0.88502 -1.2981,-2.00604 -1.3866,-3.36306 l 9.6762,0 0.1475,-0.23601 0,-1.29802 c 0,-4.07107 -2.0945,-6.49011 -5.8411,-6.49011 m 3.4221,6.1656 -7.3457,0 c 0.2656,-2.27153 1.4751,-4.24807 4.1301,-4.24807 2.2126,0 3.2156,1.94704 3.2156,4.24807"
               style=""
               id="path6070" />
          </g>
          <g
             style="fill:#6b8e9f;fill-opacity:1"
             transform="matrix(0.92337906,0,0,0.92337906,65.460957,27.451834)"
             id="g5823-9-0-4-0">
            <g
               style="fill:#6b8e9f;fill-opacity:1"
               transform="matrix(0.11840388,0,0,0.11840388,865.19335,299.21794)"
               id="g5825-0-72-0-8">
              <g
                 style="fill:#6b8e9f;fill-opacity:1"
                 transform="matrix(1.293235,0,0,1.293235,-4878.321,-1224.915)"
                 id="g5827-6-1-4-2">
                <g
                   transform="matrix(2.438586,0,0,2.438586,3659.952,1113.451)"
                   style="fill:#6b8e9f;fill-opacity:1;fill-rule:nonzero;stroke:none"
                   id="g5829-3-5-5-5">
                  <g
                     style="fill:#6b8e9f;fill-opacity:1"
                     id="g5831-9-9-9-9">
                    <path
                       inkscape:connector-curvature="0"
                       d="M 86.068,0 C 61.466,0 56.851,35.041 70.691,35.041 84.529,35.041 110.671,0 86.068,0 z"
                       style="fill:#6b8e9f;fill-opacity:1"
                       id="path5833-6-0-5-3" />
                    <path
                       inkscape:connector-curvature="0"
                       d="M 45.217,30.699 C 52.586,31.149 60.671,2.577 46.821,4.374 32.976,6.171 37.845,30.249 45.217,30.699 z"
                       style="fill:#6b8e9f;fill-opacity:1"
                       id="path5835-8-9-6-1" />
                    <path
                       inkscape:connector-curvature="0"
                       d="M 11.445,48.453 C 16.686,46.146 12.12,23.581 3.208,29.735 -5.7,35.89 6.204,50.759 11.445,48.453 z"
                       style="fill:#6b8e9f;fill-opacity:1"
                       id="path5837-7-5-9-8" />
                    <path
                       inkscape:connector-curvature="0"
                       d="M 26.212,36.642 C 32.451,35.37 32.793,9.778 21.667,14.369 10.539,18.961 19.978,37.916 26.212,36.642 l 0,0 z"
                       style="fill:#6b8e9f;fill-opacity:1"
                       id="path5839-9-1-5-2" />
                    <path
                       inkscape:connector-curvature="0"
                       d="m 58.791,93.913 c 1.107,8.454 -6.202,12.629 -13.36,7.179 C 22.644,83.743 83.16,75.088 79.171,51.386 75.86,31.712 15.495,37.769 8.621,68.553 3.968,89.374 27.774,118.26 52.614,118.26 c 12.22,0 26.315,-11.034 28.952,-25.012 C 83.58,82.589 57.867,86.86 58.791,93.913 l 0,0 z"
                       style="fill:#6b8e9f;fill-opacity:1"
                       id="path5841-6-3-1-4" />
                  </g>
                </g>
                <g
                   style="fill:#6b8e9f;fill-opacity:1"
                   id="g5843-8-4-8-3">
                  <path
                     inkscape:connector-curvature="0"
                     d="m 4176.2963,1214.4401 c -15.1078,0.4069 -27.0386,5.8367 -35.8126,16.25 -9.0861,10.8369 -13.6562,25.8104 -13.6562,44.9063 0,19.0432 4.5703,33.9757 13.6562,44.8124 9.1305,10.8369 21.6664,16.25 37.6563,16.25 16.034,0 28.6014,-5.4131 37.6875,-16.25 9.0859,-10.8367 13.6251,-25.7692 13.625,-44.8124 -1e-4,-19.0959 -4.5391,-34.0694 -13.625,-44.9063 -9.0861,-10.8366 -21.6536,-16.2499 -37.6875,-16.25 -0.6246,0 -1.2296,-0.016 -1.8437,0 z m 1.125,22 c 0.2415,-0.01 0.4737,0 0.7187,0 7.8833,10e-5 13.9919,3.4114 18.3125,10.25 4.3203,6.8388 6.4999,16.4913 6.5,28.9063 0,12.3623 -2.1799,21.9427 -6.5,28.7812 -4.3204,6.8389 -10.4293,10.2812 -18.3125,10.2812 -7.8391,0 -13.8983,-3.4423 -18.2187,-10.2812 -4.3204,-6.8385 -6.4999,-16.4189 -6.5,-28.7812 0,-12.4149 2.1798,-22.0675 6.5,-28.9063 4.1852,-6.6249 10.0123,-10.0428 17.5,-10.25 z"
                     style="font-size:148.699646px;font-style:normal;font-variant:normal;font-weight:bold;font-stretch:normal;text-align:start;line-height:125%;writing-mode:lr-tb;text-anchor:start;fill:#6b8e9f;fill-opacity:1;stroke:none;font-family:Bitstream Vera Sans"
                     id="path5845-0-0-5-5" />
                  <path
                     inkscape:connector-curvature="0"
                     d="m 4005.6293,1325.612 c -13.3076,11.1757 -33.1067,11.0472 -41.3549,11.0472 -16.6133,0 -29.7747,-5.471 -39.4842,-16.413 -9.7097,-10.9946 -14.5644,-25.8819 -14.5644,-44.6622 0,-18.9906 4.9438,-33.9305 14.8316,-44.82 9.8878,-10.8892 23.4277,-16.3339 40.62,-16.334 6.6363,10e-5 12.9831,0.7366 19.0406,2.2094 6.1019,1.473 11.8475,3.6562 17.2368,6.5494 l -6.921,20.4608 c -3.0298,-1.6586 -6.4987,-3.2932 -9.7145,-4.4424 -5.4784,-1.8411 -10.979,-2.7617 -16.5018,-2.7618 -10.2442,10e-5 -18.15,3.3932 -23.7173,10.1792 -5.523,6.7336 -8.2844,16.3867 -8.2844,28.9594 0,12.4676 2.6723,22.0945 8.0172,28.8806 5.3446,6.7861 13.3768,10.1791 22.7818,10.1791 9.5548,0 15.4728,-2.4084 18.6291,-4.9461 l 0,-20.3835 -20.7001,0 0,-20.3584 40.0855,0"
                     style="font-size:148.699646px;font-style:normal;font-variant:normal;font-weight:bold;font-stretch:normal;text-align:start;line-height:125%;writing-mode:lr-tb;text-anchor:start;fill:#6b8e9f;fill-opacity:1;stroke:none;font-family:Bitstream Vera Sans"
                     id="path5847-4-6-1-7" />
                  <path
                     inkscape:connector-curvature="0"
                     d="m 4023.2108,1216.5605 16.2279,0 51.2775,70.8022 0,-70.8022 21.8853,0 0,117.8103 -16.2279,0 -51.2774,-70.8022 0,70.8022 -21.8854,0 0,-117.8103"
                     style="font-size:148.699646px;font-style:normal;font-variant:normal;font-weight:bold;font-stretch:normal;text-align:start;line-height:125%;writing-mode:lr-tb;text-anchor:start;fill:#6b8e9f;fill-opacity:1;stroke:none;font-family:Bitstream Vera Sans"
                     id="path5849-2-6-6-7" />
                  <path
                     inkscape:connector-curvature="0"
                     d="m 4246.3361,1216.5605 32.7366,0 22.7151,73.5479 22.8487,-73.5479 27.6698,0 12.5,117.8103 -24.3186,0 -7.5,-73.668 -22.9823,74.0213 -16.3015,0 -22.9824,-76.5213 -7.5,76.168 -24.3854,0 12.5,-117.8103"
                     style="font-size:148.699646px;font-style:normal;font-variant:normal;font-weight:bold;font-stretch:normal;text-align:start;line-height:125%;writing-mode:lr-tb;text-anchor:start;fill:#6b8e9f;fill-opacity:1;stroke:none;font-family:Bitstream Vera Sans"
                     id="path5851-0-2-0-6" />
                  <path
                     inkscape:connector-curvature="0"
                     d="m 4382.3597,1216.5605 69.4147,0 0,22.9624 -43.6933,0 0,24.4365 33.5877,0 0,20.4623 -33.5877,0 0,26.9868 45.1631,0 0,22.9623 -70.8845,0 0,-117.8103"
                     style="font-size:148.699646px;font-style:normal;font-variant:normal;font-weight:bold;font-stretch:normal;text-align:start;line-height:125%;writing-mode:lr-tb;text-anchor:start;fill:#6b8e9f;fill-opacity:1;stroke:none;font-family:Bitstream Vera Sans"
                     id="path5853-8-1-9-9" />
                  <text
                     x="4474.6182"
                     y="1215.743"
                     style="font-size:30.68958855px;font-style:normal;font-weight:normal;fill:#6b8e9f;fill-opacity:1;stroke:none;font-family:Bitstream Vera Sans"
                     id="text5855-1-9-0-9"
                     xml:space="preserve"><tspan
                       x="4474.6182"
                       y="1215.743"
                       style="letter-spacing:11.06259632;fill:#6b8e9f;fill-opacity:1"
                       id="tspan5857-8-2-5-5"><tspan
                         style="letter-spacing:0.2523815;fill:#6b8e9f;fill-opacity:1"
                         id="tspan5859-5-2-3-3">TM</tspan></tspan></text>
                </g>
              </g>
            </g>
          </g>
        </g>
      </g>
      <path
         transform="matrix(1.0325641,0,0,1.0325641,170.38995,1148.9184)"
         style="fill:#6b8e9f;fill-opacity:1;stroke:none"
         d="m 396.68691,-125.95975 c 0,1.85499 -1.50376,3.35876 -3.35875,3.35876 -1.85499,0 -3.35876,-1.50377 -3.35876,-3.35876 0,-1.85499 1.50377,-3.35875 3.35876,-3.35875 1.85499,0 3.35875,1.50376 3.35875,3.35875 z"
         id="path12318-0-1-6-0" />
      <path
         transform="matrix(1.0325641,0,0,1.0325641,-43.610038,1148.9184)"
         style="fill:#6b8e9f;fill-opacity:1;stroke:none"
         d="m 396.68691,-125.95975 c 0,1.85499 -1.50376,3.35876 -3.35875,3.35876 -1.85499,0 -3.35876,-1.50377 -3.35876,-3.35876 0,-1.85499 1.50377,-3.35875 3.35876,-3.35875 1.85499,0 3.35875,1.50376 3.35875,3.35875 z"
         id="path12318-0-1-6-4-6" />
    </g>
    <path
       style="fill:none;stroke:#6b8e9f;stroke-width:0.99999988px;stroke-linecap:butt;stroke-linejoin:miter;stroke-opacity:1"
       d="m 353.00445,1018.8798 -353.02197296,0"
       id="path10761-1"
       inkscape:connector-curvature="0"
       sodipodi:nodetypes="cc" />
    <path
       style="fill:none;stroke:#6b8e9f;stroke-width:0.99999988px;stroke-linecap:butt;stroke-linejoin:miter;stroke-opacity:1"
       d="m 940.06513,1018.8173 -353.02197,0"
       id="path10761-1-0"
       inkscape:connector-curvature="0"
       sodipodi:nodetypes="cc" />
  </g>
</svg>
