<?xml version="1.0" encoding="UTF-8" standalone="no"?>
<!-- Created with Inkscape (http://www.inkscape.org/) -->

<svg
   xmlns:dc="http://purl.org/dc/elements/1.1/"
   xmlns:cc="http://creativecommons.org/ns#"
   xmlns:rdf="http://www.w3.org/1999/02/22-rdf-syntax-ns#"
   xmlns:svg="http://www.w3.org/2000/svg"
   xmlns="http://www.w3.org/2000/svg"
   xmlns:xlink="http://www.w3.org/1999/xlink"
   xmlns:sodipodi="http://sodipodi.sourceforge.net/DTD/sodipodi-0.dtd"
   xmlns:inkscape="http://www.inkscape.org/namespaces/inkscape"
   width="125"
   height="125"
   id="svg19724"
   version="1.1"
   inkscape:version="0.48.2 r9819"
   sodipodi:docname="New document 19">
  <defs
     id="defs19726">
    <linearGradient
       inkscape:collect="always"
       id="linearGradient3778-0">
      <stop
         style="stop-color:#688c9d;stop-opacity:1"
         offset="0"
         id="stop3780-4" />
      <stop
         style="stop-color:#93adb9;stop-opacity:1"
         offset="1"
         id="stop3782-9" />
    </linearGradient>
    <linearGradient
       y2="299.80432"
       x2="512.5"
       y1="610.86218"
       x1="512.5"
       gradientTransform="matrix(1.6581939,0,0,1.4687459,-220.53981,-939.06051)"
       gradientUnits="userSpaceOnUse"
       id="linearGradient19808"
       xlink:href="#linearGradient3778-0"
       inkscape:collect="always" />
    <linearGradient
       inkscape:collect="always"
       xlink:href="#linearGradient3778-0"
       id="linearGradient20336"
       gradientUnits="userSpaceOnUse"
       gradientTransform="matrix(2.0147946,0,0,1.7846051,-298.13062,-1046.1306)"
       x1="176.42822"
       y1="1112.6799"
       x2="176.42822"
       y2="1165.1056" />
    <linearGradient
       inkscape:collect="always"
       xlink:href="#linearGradient3778-0"
       id="linearGradient20370"
       gradientUnits="userSpaceOnUse"
       gradientTransform="matrix(2.0147946,0,0,1.7846051,-298.13062,-1971.4928)"
       x1="176.42822"
       y1="1112.6799"
       x2="176.42822"
       y2="1165.1056" />
    <inkscape:path-effect
       effect="spiro"
       id="path-effect4866"
       is_visible="true" />
    <inkscape:path-effect
       effect="spiro"
       id="path-effect4870"
       is_visible="true" />
    <inkscape:path-effect
       effect="spiro"
       id="path-effect4874"
       is_visible="true" />
    <filter
       inkscape:collect="always"
       id="filter20439">
      <feGaussianBlur
         inkscape:collect="always"
         stdDeviation="0.90763052"
         id="feGaussianBlur20441" />
    </filter>
    <filter
       inkscape:collect="always"
       id="filter20451">
      <feGaussianBlur
         inkscape:collect="always"
         stdDeviation="2.2690763"
         id="feGaussianBlur20453" />
    </filter>
  </defs>
  <sodipodi:namedview
     id="base"
     pagecolor="#ffffff"
     bordercolor="#666666"
     borderopacity="1.0"
     inkscape:pageopacity="0.0"
     inkscape:pageshadow="2"
     inkscape:zoom="1"
     inkscape:cx="46.270703"
     inkscape:cy="67.725594"
     inkscape:document-units="px"
     inkscape:current-layer="layer1"
     showgrid="false"
     borderlayer="true"
     inkscape:showpageshadow="false"
     inkscape:window-width="1290"
     inkscape:window-height="1107"
     inkscape:window-x="1601"
     inkscape:window-y="91"
     inkscape:window-maximized="0" />
  <metadata
     id="metadata19729">
    <rdf:RDF>
      <cc:Work
         rdf:about="">
        <dc:format>image/svg+xml</dc:format>
        <dc:type
           rdf:resource="http://purl.org/dc/dcmitype/StillImage" />
        <dc:title></dc:title>
      </cc:Work>
    </rdf:RDF>
  </metadata>
  <g
     inkscape:label="Layer 1"
     inkscape:groupmode="layer"
     id="layer1"
     transform="translate(0,-927.36218)">
    <path
       transform="translate(0,2)"
       d="m 62.5,941.375 c -25.681241,0 -46.5,20.81876 -46.5,46.5 0,25.6812 20.818759,46.5 46.5,46.5 25.681241,0 46.5,-20.8188 46.5,-46.5 0,-25.68124 -20.818759,-46.5 -46.5,-46.5 z"
       inkscape:href="#path19779"
       id="path20421"
       style="color:#000000;fill:#000000;fill-opacity:1;fill-rule:nonzero;stroke:#000000;stroke-width:5;stroke-miterlimit:4;stroke-opacity:1;stroke-dasharray:none;marker:none;visibility:visible;display:inline;overflow:visible;enable-background:new;opacity:0.56326531;filter:url(#filter20451)"
       xlink:href="#path19779"
       inkscape:original="M 62.5 931.375 C 31.295913 931.375 6 956.67091 6 987.875 C 6 1019.079 31.295913 1044.375 62.5 1044.375 C 93.704087 1044.375 119 1019.079 119 987.875 C 119 956.67091 93.704087 931.375 62.5 931.375 z "
       inkscape:radius="0"
       sodipodi:type="inkscape:offset" />
    <path
       sodipodi:type="inkscape:offset"
       inkscape:radius="0"
       inkscape:original="M 62.5 931.375 C 31.295913 931.375 6 956.67091 6 987.875 C 6 1019.079 31.295913 1044.375 62.5 1044.375 C 93.704087 1044.375 119 1019.079 119 987.875 C 119 956.67091 93.704087 931.375 62.5 931.375 z "
       xlink:href="#path19779"
       style="opacity:0.60816327;color:#000000;fill:#000000;fill-opacity:1;fill-rule:nonzero;stroke:#000000;stroke-width:5;stroke-miterlimit:4;stroke-opacity:1;stroke-dasharray:none;marker:none;visibility:visible;display:inline;overflow:visible;filter:url(#filter20439);enable-background:new"
       id="path20334"
       inkscape:href="#path19779"
       d="m 62.5,931.375 c -31.204087,0 -56.5,25.29591 -56.5,56.5 0,31.204 25.295913,56.5 56.5,56.5 31.204087,0 56.5,-25.296 56.5,-56.5 0,-31.20409 -25.295913,-56.5 -56.5,-56.5 z"
       transform="translate(0,1)" />
    <path
       style="color:#000000;fill:url(#linearGradient20336);fill-opacity:1;fill-rule:nonzero;stroke:#ffffff;stroke-width:5;stroke-miterlimit:4;stroke-opacity:1;stroke-dasharray:none;marker:none;visibility:visible;display:inline;overflow:visible;enable-background:new"
       d="m 119,987.86216 c 0,31.20404 -25.295914,56.50004 -56.500001,56.50004 -31.204087,0 -56.4999968,-25.296 -56.4999968,-56.50004 0,-31.20409 25.2959098,-56.5 56.4999968,-56.5 31.204087,0 56.500001,25.29591 56.500001,56.5 z"
       id="path19779"
       inkscape:connector-curvature="0" />
    <path
       style="color:#000000;fill:#ffffff;fill-opacity:1;fill-rule:nonzero;stroke:none;stroke-width:5;marker:none;visibility:visible;display:inline;overflow:visible;enable-background:new"
       d="M 10.96875,39.125 C 5.4318603,48.212185 6,51.748627 6,62.5 6,68.992614 7.0961473,75.236044 9.1125759,81.047681 L 114.57701,81.674837 C 116.15248,76.47532 119,68.208992 119,62.5 c 0,-10.751373 0.0681,-14.287815 -5.46875,-23.375 z"
       transform="translate(0,927.36218)"
       id="path20366"
       inkscape:connector-curvature="0"
       sodipodi:nodetypes="csccscc" />
    <g
       transform="matrix(0.28161679,0,0,0.28161679,-39.980715,926.14688)"
       id="text5755"
       style="font-size:85.01324463px;font-style:normal;font-variant:normal;font-weight:normal;font-stretch:normal;text-align:start;line-height:125%;letter-spacing:0px;word-spacing:0px;writing-mode:lr-tb;text-anchor:start;fill:#000000;fill-opacity:1;stroke:none;font-family:Gill Sans ExtraBoldDisplay;-inkscape-font-specification:Gill Sans ExtraBoldDisplay">
      <path
         inkscape:connector-curvature="0"
         id="path5800"
         style="line-height:125%;letter-spacing:-6.07060289;font-family:Gill Sans ExtraBoldDisplay;-inkscape-font-specification:Gill Sans ExtraBoldDisplay"
         d="m 244.89163,166.61867 0,14.87732 c -5.27087,-3.28714 -10.59837,-4.93072 -15.98249,-4.93077 -5.55424,5e-5 -9.91824,1.6153 -13.09204,4.84576 -2.94715,3.00383 -4.42071,6.82943 -4.42069,11.47678 -2e-5,3.74061 0.9918,6.99945 2.97546,9.77653 2.7204,3.91062 7.02773,5.86592 12.92202,5.86591 0.73674,1e-5 1.61521,-0.0567 2.63541,-0.17003 l 0,-6.80106 -6.03594,0 0,-12.58196 21.93341,0 0,31.62493 c -6.3477,1.64359 -13.74385,2.46538 -22.18845,2.46539 -12.01523,-10e-6 -20.96995,-3.57056 -26.86419,-10.71167 -4.36402,-5.32748 -6.54602,-11.6468 -6.54602,-18.95796 0,-10.7683 4.42068,-19.09959 13.26207,-24.99389 5.66753,-3.7972 13.007,-5.69583 22.01843,-5.69589 6.91436,6e-5 13.37536,1.3036 19.38302,3.91061" />
      <path
         inkscape:connector-curvature="0"
         id="path5802"
         style="line-height:125%;letter-spacing:-6.07060289;font-family:Gill Sans ExtraBoldDisplay;-inkscape-font-specification:Gill Sans ExtraBoldDisplay"
         d="m 291.12808,163.47318 20.91326,0 0,29.32957 c -7e-5,9.46483 -2.29542,16.60593 -6.88607,21.42334 -5.61093,5.89425 -13.88555,8.84137 -24.82387,8.84138 -10.54167,-10e-6 -18.70293,-2.94713 -24.48382,-8.84138 -4.59072,-4.64738 -6.88607,-11.78849 -6.88607,-21.42334 l 0,-29.32957 20.91326,0 0,25.58899 c -3e-5,5.95095 0.3967,10.03158 1.19018,12.2419 1.47354,3.96731 4.61903,5.95095 9.43647,5.95093 4.70403,2e-5 7.82118,-2.06864 9.35146,-6.20596 0.85009,-2.32368 1.27515,-6.31929 1.2752,-11.98687 l 0,-25.58899" />
      <path
         inkscape:connector-curvature="0"
         id="path5804"
         style="line-height:125%;letter-spacing:-6.07060289;font-family:Gill Sans ExtraBoldDisplay;-inkscape-font-specification:Gill Sans ExtraBoldDisplay"
         d="m 356.72099,222.38736 -3.31552,-9.09642 -21.8484,0 -3.48555,9.09642 -21.42334,0 24.90889,-58.91418 21.8484,0 24.82387,58.91418 -21.50835,0 m -14.19722,-39.53116 -6.63103,18.19284 13.09204,0 -6.46101,-18.19284" />
      <path
         inkscape:connector-curvature="0"
         id="path5806"
         style="line-height:125%;letter-spacing:-6.07060289;font-family:Gill Sans ExtraBoldDisplay;-inkscape-font-specification:Gill Sans ExtraBoldDisplay"
         d="m 377.72046,222.38736 0,-58.91418 25.33394,0 c 10.88166,6e-5 19.29796,2.74882 25.24894,8.24629 6.12089,5.66759 9.18136,12.92205 9.18143,21.76339 -7e-5,5.55422 -1.36028,10.74002 -4.08064,15.55742 -2.89051,4.98745 -6.74444,8.558 -11.5618,10.71167 -2.77715,1.24686 -6.09266,2.04032 -9.94655,2.38037 -1.98368,0.17003 -5.41254,0.25504 -10.2866,0.25504 l -23.88872,0 m 20.91325,-44.80198 0,30.51975 2.89045,0 c 5.15744,2e-5 8.84134,-1.13349 11.05173,-3.40053 2.6637,-2.77707 3.99558,-6.631 3.99562,-11.5618 -4e-5,-5.15743 -1.38859,-9.15305 -4.16565,-11.98686 -2.32373,-2.38033 -6.14932,-3.57052 -11.47679,-3.57056 l -2.29536,0" />
      <path
         inkscape:connector-curvature="0"
         id="path5808"
         style="line-height:125%;letter-spacing:-6.07060289;font-family:Gill Sans ExtraBoldDisplay;-inkscape-font-specification:Gill Sans ExtraBoldDisplay"
         d="m 481.83631,209.12529 0,13.26207 -43.27174,0 0,-58.91418 42.84668,0 0,13.26207 -21.93342,0 0,9.18143 20.65822,0 0,13.26206 -20.65822,0 0,9.94655 22.35848,0" />
      <path
         inkscape:connector-curvature="0"
         id="path5810"
         style="line-height:125%;letter-spacing:-6.07060289;font-family:Gill Sans ExtraBoldDisplay;-inkscape-font-specification:Gill Sans ExtraBoldDisplay"
         d="m 532.62229,202.15421 0,16.0675 c -3.45725,1.64359 -6.29102,2.7771 -8.50132,3.40053 -3.45725,0.96348 -7.33952,1.44522 -11.64682,1.44523 -10.08826,-10e-6 -18.13617,-3.11715 -24.14376,-9.35146 -5.44085,-5.61086 -8.16127,-12.44025 -8.16127,-20.48819 0,-7.42446 2.26702,-13.94213 6.80106,-19.55305 5.89424,-7.31108 14.53724,-10.96665 25.92904,-10.96671 6.80102,6e-5 13.20534,1.3036 19.21299,3.91061 l 0,17.59774 c -5.44089,-3.85389 -10.79672,-5.78085 -16.0675,-5.7809 -5.32753,5e-5 -9.32315,1.75698 -11.98687,5.27082 -1.98366,2.60711 -2.97548,5.61091 -2.97546,9.01141 -2e-5,4.19401 1.47354,7.65121 4.42069,10.37161 2.94709,2.72044 6.80102,4.08065 11.5618,4.08064 5.04407,10e-6 10.22988,-1.67191 15.55742,-5.01578" />
    </g>
    <g
       transform="matrix(0.28160717,0,0,0.28160717,-219.04289,874.11422)"
       id="text3581"
       style="font-size:53.6051178px;font-style:normal;font-variant:normal;font-weight:normal;font-stretch:normal;text-align:start;line-height:125%;letter-spacing:0px;word-spacing:0px;writing-mode:lr-tb;text-anchor:start;fill:#555753;fill-opacity:1;stroke:none;font-family:Lobster;-inkscape-font-specification:Lobster">
      <path
         inkscape:connector-curvature="0"
         id="path3586"
         d="m 853.91488,454.06531 -7.71913,0 4.12759,-19.45866 c -2.35865,-1.07208 -4.75301,-1.71534 -7.18309,-1.92978 -2.03701,4.39563 -3.71663,8.89846 -5.03888,13.50849 -1.28653,4.5743 -1.92979,8.23731 -1.92978,10.98904 -1e-5,1.25079 0.25015,2.25141 0.75047,3.00189 -2.716,-10e-6 -4.55644,-0.42885 -5.52133,-1.28652 -1.10784,-0.9649 -1.66176,-2.53731 -1.66176,-4.71725 0,-2.17994 0.71473,-5.27117 2.14421,-9.27369 1.4652,-4.03824 3.37711,-8.11222 5.73575,-12.22196 -3.57369,0.21444 -5.66428,1.14359 -6.2718,2.78746 0.14294,2e-5 0.28589,0.19657 0.42884,0.58966 0.17868,0.35738 0.26802,0.78622 0.26802,1.28652 0,0.50033 -0.2859,0.94704 -0.85768,1.34013 -0.57179,0.35738 -1.32226,0.53606 -2.25141,0.53605 -0.89342,10e-6 -1.66176,-0.26801 -2.30502,-0.80408 -0.60753,-0.53603 -0.91129,-1.30437 -0.91129,-2.30502 0,-1.85829 1.03637,-3.41283 3.1091,-4.66364 2.07272,-1.2865 4.6815,-1.92976 7.82635,-1.92979 0.75045,3e-5 1.67961,0.0536 2.78746,0.16082 2.9304,-4.64575 6.02162,-8.43384 9.27369,-11.36429 3.28775,-2.96611 6.41471,-4.44918 9.38089,-4.44922 1.60812,4e-5 3.01972,0.2502 4.23481,0.75047 l -8.41601,39.45337 m -3.10909,-21.81729 3.10909,-14.58059 c -3.00191,1.60819 -6.21821,5.84299 -9.64892,12.70442 2.57303,0.50033 4.75297,1.12573 6.53983,1.87617" />
      <path
         inkscape:connector-curvature="0"
         id="path3588"
         d="m 897.10553,419.65082 c -2e-5,-2.1799 -1.08999,-3.26987 -3.26991,-3.26991 -1.89407,4e-5 -3.71664,1.34016 -5.46772,4.02038 -1.75112,2.64455 -3.14485,5.89659 -4.1812,9.75614 -1.00064,3.85958 -1.50096,7.37965 -1.50095,10.5602 -10e-6,3.18058 0.46457,5.4856 1.39374,6.91506 0.92914,1.42948 2.51942,2.14421 4.77085,2.14421 4.50281,0 8.07648,-1.78683 10.72103,-5.36051 l 1.23291,0.53605 c -0.89344,2.25142 -2.26931,4.16333 -4.12759,5.73575 -3.39501,2.8232 -7.11163,4.2348 -11.14987,4.2348 -4.03826,0 -7.0044,-1.0185 -8.89845,-3.05549 -1.89404,-2.03699 -2.84107,-5.41411 -2.84107,-10.13137 0,-4.71723 0.83982,-9.38087 2.51944,-13.99094 0.96489,-2.57301 2.12633,-4.86016 3.48434,-6.86145 1.39372,-2.03696 3.18056,-3.71658 5.36051,-5.03888 2.21566,-1.32222 4.66363,-1.98335 7.3439,-1.98339 2.71597,4e-5 4.87804,0.5897 6.48622,1.76897 1.64386,1.14361 2.46581,2.94832 2.46583,5.41412 -2e-5,3.28781 -1.25081,4.93169 -3.75235,4.93167 -1.25081,2e-5 -2.26931,-0.46455 -3.0555,-1.39374 0.64324,-0.3216 1.21503,-0.96486 1.71537,-1.92978 0.50029,-1.0006 0.75045,-2.00123 0.75047,-3.00189" />
      <path
         inkscape:connector-curvature="0"
         id="path3590"
         d="m 913.404,426.7803 c 4.57428,3e-5 6.86143,2.85897 6.86145,8.57682 0.14293,0.0715 0.33948,0.10723 0.58966,0.10721 2.43007,2e-5 5.1818,-1.07208 8.25519,-3.21631 l 0.48244,1.44734 c -2.10849,2.28717 -5.27119,3.77025 -9.4881,4.44923 -0.42886,4.89594 -1.84046,8.80911 -4.23481,11.73952 -2.35864,2.93041 -5.21757,4.39562 -8.57682,4.39562 -2.64452,0 -4.73512,-0.679 -6.27179,-2.037 -1.53668,-1.35799 -2.30502,-3.50219 -2.30502,-6.43261 0,-3.71661 1.05423,-7.64765 3.1627,-11.79313 1.0721,-2.07271 2.60877,-3.78807 4.61004,-5.14609 2.00125,-1.3937 4.30626,-2.09057 6.91506,-2.0906 m -3.96678,22.67497 c 1.32225,0 2.57303,-1.0721 3.75236,-3.21631 1.21503,-2.14419 2.03698,-4.78871 2.46583,-7.93356 -0.9649,-0.2144 -1.44735,-1.00061 -1.44734,-2.35862 -10e-6,-1.35798 0.55391,-2.28713 1.66176,-2.78747 -0.0715,-1.14355 -0.26804,-1.94763 -0.58965,-2.41223 -0.28591,-0.46455 -0.76836,-0.69684 -1.44734,-0.69687 -1.17933,3e-5 -2.34077,0.89345 -3.48433,2.68026 -1.14359,1.78686 -2.03701,3.84172 -2.68026,6.16459 -0.64327,2.3229 -0.9649,4.37776 -0.96489,6.16459 -10e-6,1.75111 0.19654,2.93042 0.58965,3.53794 0.3931,0.57179 1.10783,0.85768 2.14421,0.85768" />
      <path
         inkscape:connector-curvature="0"
         id="path3592"
         d="m 926.66875,427.26275 7.71914,0 -0.69687,3.32352 c 0.82194,-0.71471 1.48307,-1.25077 1.98339,-1.60816 0.5003,-0.39308 1.1793,-0.76831 2.037,-1.1257 0.85766,-0.39308 1.76895,-0.58963 2.73386,-0.58966 0.96487,3e-5 1.76895,0.39313 2.41223,1.17931 0.67898,0.78623 1.01848,1.71539 1.0185,2.78747 -2e-5,1.07212 -0.33952,2.00128 -1.0185,2.78746 -0.67902,0.78623 -1.50096,1.17934 -2.46584,1.17932 -0.92917,2e-5 -1.57243,-0.17867 -1.92978,-0.53606 -0.32165,-0.39308 -0.50033,-0.80405 -0.53605,-1.23291 -0.10723,-1.17929 -0.44673,-1.76895 -1.0185,-1.76897 -1.14359,2e-5 -2.44798,0.67902 -3.91317,2.03699 l -4.28841,20.36995 -7.71914,0 5.68214,-26.80256" />
      <path
         inkscape:connector-curvature="0"
         id="path3594"
         d="m 960.11584,427.26275 7.71913,0 -3.85956,18.22574 c -0.14297,0.60753 -0.21445,1.21506 -0.21443,1.82257 -2e-5,1.25079 0.73259,1.87619 2.19781,1.87618 1.9655,1e-5 3.41284,-1.57241 4.34202,-4.71725 l 2.25141,0 c -2.32291,6.6113 -5.91445,9.91695 -10.77462,9.91695 -1.5367,0 -2.76962,-0.42884 -3.69876,-1.28652 -0.92917,-0.89342 -1.46522,-2.16207 -1.60815,-3.80597 -2.07274,3.39499 -4.71726,5.09249 -7.93356,5.09249 -1.71537,0 -3.1091,-0.53605 -4.1812,-1.60816 -1.03636,-1.0721 -1.55455,-2.68025 -1.55455,-4.82446 0,-0.96488 0.14295,-2.12632 0.42884,-3.48433 l 3.64515,-17.20724 7.71914,0 -3.85957,18.22574 c -0.10722,0.53606 -0.16082,1.03637 -0.16081,1.50094 -10e-6,1.46521 0.53604,2.19782 1.60815,2.19781 1.92977,1e-5 3.35924,-1.57241 4.28841,-4.71725 l 3.64515,-17.20724" />
      <path
         inkscape:connector-curvature="0"
         id="path3596"
         d="m 985.68045,434.66025 c -2e-5,-1.82255 -0.64328,-2.73383 -1.92979,-2.73386 -1.78685,3e-5 -3.18058,1.64391 -4.1812,4.93167 l -3.64515,17.20725 -7.71913,0 5.68214,-26.80256 7.71914,0 -0.58966,2.78746 c 1.75109,-2.00123 3.84169,-3.00185 6.2718,-3.00188 1.82255,3e-5 3.26989,0.50034 4.34201,1.50094 1.07208,1.00065 1.60813,2.41225 1.60816,4.23481 -3e-5,1.78685 -0.42887,4.37776 -1.28653,7.77274 -0.8577,3.35926 -1.28654,5.4856 -1.28652,6.37901 -2e-5,1.50095 0.71472,2.25142 2.14421,2.25141 1.07208,1e-5 1.91189,-0.37523 2.51944,-1.12571 0.6075,-0.75046 1.26863,-1.94764 1.98339,-3.59154 l 2.25141,0 c -2.25144,6.6113 -5.57495,9.91695 -9.97055,9.91695 -2.17996,0 -3.78811,-0.57179 -4.82446,-1.71537 -1.00064,-1.17931 -1.50096,-2.50156 -1.50094,-3.96677 -2e-5,-1.50094 0.39309,-3.93104 1.17931,-7.2903 0.82193,-3.35924 1.2329,-5.61065 1.23292,-6.75425 m 10.45299,-16.51037 0.32163,0.0536 c -0.32165,1.3223 -1.35802,2.55521 -3.10909,3.69876 -1.71539,1.10787 -3.37714,1.66179 -4.98528,1.66176 -1.57243,3e-5 -3.32353,-0.3216 -5.2533,-0.9649 -1.92979,-0.67896 -3.46647,-1.01846 -4.61004,-1.01849 -1.14358,3e-5 -2.21568,0.46461 -3.21631,1.39373 l -0.32163,-0.10721 c 1.7511,-3.50217 4.73511,-5.25327 8.95206,-5.2533 1.35798,3e-5 2.93039,0.3038 4.71725,0.91128 1.78681,0.57183 3.28776,0.85772 4.50283,0.85769 1.25076,3e-5 2.25139,-0.41094 3.00188,-1.23292" />
      <path
         inkscape:connector-curvature="0"
         id="path3598"
         d="m 1015.2654,427.26275 7.7192,0 -3.8596,18.22574 c -0.143,0.60753 -0.2144,1.21506 -0.2144,1.82257 0,1.25079 0.7326,1.87619 2.1978,1.87618 0.4646,1e-5 0.8577,-0.0715 1.1793,-0.21442 -0.7862,2.037 -1.5367,3.4486 -2.2514,4.23481 -0.7148,0.7862 -1.769,1.17931 -3.1627,1.17931 -1.3938,0 -2.5552,-0.42884 -3.4843,-1.28652 -0.9292,-0.89342 -1.501,-2.12634 -1.7154,-3.69876 -2.18,3.32352 -4.8423,4.98528 -7.9872,4.98528 -2.037,0 -3.73446,-0.69687 -5.09245,-2.0906 -1.358,-1.39373 -2.037,-3.57367 -2.037,-6.53983 0,-4.0025 1.12571,-8.02288 3.37713,-12.06115 1.07212,-1.92976 2.51942,-3.52004 4.34202,-4.77085 1.8226,-1.2865 3.8417,-1.92976 6.0574,-1.92979 2.8946,3e-5 4.342,0.91132 4.342,2.73386 l 0,0.37524 0.5896,-2.84107 m -3.2699,3.05549 c -1.4295,2e-5 -2.7517,0.89344 -3.9668,2.68026 -1.1793,1.75112 -2.0727,3.75237 -2.6802,6.00377 -0.5718,2.21569 -0.8577,4.02039 -0.8577,5.41412 0,1.358 0.089,2.35863 0.268,3.00188 0.1787,0.60753 0.4289,1.03637 0.7505,1.28653 0.4646,0.32163 1.0721,0.48245 1.8226,0.48244 0.7504,1e-5 1.5724,-0.41097 2.4658,-1.23292 0.9292,-0.85767 1.5367,-2.01911 1.8226,-3.48433 l 2.573,-12.11476 c 0,-0.46455 -0.1787,-0.91126 -0.536,-1.34012 -0.3574,-0.46456 -0.9113,-0.69685 -1.6618,-0.69687" />
      <path
         inkscape:connector-curvature="0"
         id="path3600"
         d="m 1026.0828,453.9581 c -1.6796,-1.10784 -2.5195,-2.32289 -2.5195,-3.64515 0,-1.35799 0.411,-2.44796 1.233,-3.26991 0.8219,-0.85768 1.8047,-1.28652 2.9482,-1.28653 1.1794,1e-5 2.0906,0.37525 2.7339,1.12571 0.6433,0.75048 0.9649,1.85832 0.9649,3.32352 0,1.42947 -0.6433,3.18057 -1.9298,5.2533 -1.2508,2.10847 -2.9304,3.8953 -5.0389,5.36051 -0.3216,-0.21442 -0.4824,-0.58966 -0.4824,-1.12571 0,-0.50031 0.4646,-1.23292 1.3937,-2.1978 0.9292,-0.9649 1.3938,-1.71537 1.3938,-2.25142 0,-0.53605 -0.2323,-0.96489 -0.6969,-1.28652" />
      <path
         inkscape:connector-curvature="0"
         id="path3602"
         d="m 1073.9329,417.39941 c 0.4288,0.82198 0.6432,1.91195 0.6433,3.26991 -10e-5,1.32229 -0.411,2.5016 -1.233,3.53794 -0.7862,1.00065 -1.769,1.50097 -2.9482,1.50094 -1.1436,3e-5 -2.0371,-0.37521 -2.6803,-1.12571 0.7147,-0.42881 1.2865,-1.07207 1.7154,-1.92978 0.4645,-0.89339 0.6968,-1.82254 0.6968,-2.78747 0,-0.96485 -0.3216,-1.7868 -0.9649,-2.46583 -0.6432,-0.67896 -1.6796,-1.01846 -3.1091,-1.0185 -1.4294,4e-5 -2.5909,0.42888 -3.4843,1.28652 -0.8934,0.82198 -1.3401,1.92982 -1.3401,3.32352 0,1.39376 0.2859,2.64455 0.8577,3.75236 0.6075,1.07213 1.3579,1.98341 2.2514,2.73386 l 2.9483,2.68026 c 1.0363,0.96491 2.0012,1.9298 2.8946,2.89467 0.8934,0.96491 1.626,2.2157 2.1979,3.75236 0.6074,1.50096 0.9112,3.16272 0.9112,4.98528 0,4.25268 -1.4652,7.55832 -4.3956,9.91694 -2.9304,2.32289 -6.4862,3.48433 -10.6674,3.48434 -3.3235,-10e-6 -6.0574,-0.76835 -8.2016,-2.30502 -2.1085,-1.53668 -3.1627,-3.75236 -3.1627,-6.64704 0,-2.89467 0.8041,-5.12821 2.4122,-6.70064 1.6082,-1.5724 3.4308,-2.35861 5.4678,-2.35862 1.1793,10e-6 2.2335,0.28591 3.1627,0.85768 0.9648,0.53606 1.483,1.42948 1.5545,2.68025 -1.6796,2e-5 -3.1448,0.41099 -4.3956,1.23292 -1.2508,0.82196 -1.8762,2.01914 -1.8762,3.59154 0,1.57243 0.4467,2.85895 1.3401,3.85957 0.8935,1.00063 2.1978,1.50095 3.9132,1.50095 1.7511,0 3.1984,-0.62539 4.342,-1.87618 1.1793,-1.28652 1.769,-2.89467 1.769,-4.82446 0,-1.96551 -0.3752,-3.71661 -1.1257,-5.25331 -0.7505,-1.53666 -1.6796,-2.89465 -2.7875,-4.07398 l -3.2163,-3.43073 c -2.573,-2.71597 -3.8596,-5.41409 -3.8595,-8.09437 -1e-4,-2.68023 1.1793,-4.93164 3.5379,-6.75425 2.3943,-1.82253 5.3426,-2.73382 8.8448,-2.73386 4.074,4e-5 6.7364,1.17935 7.9872,3.53794" />
      <path
         inkscape:connector-curvature="0"
         id="path3604"
         d="m 1080.0606,425.27936 7.7192,0 -0.8577,4.02038 c 1.7868,-1.53665 3.8774,-2.30499 6.2718,-2.30502 4.3599,3e-5 6.5398,2.82323 6.5398,8.46961 0,5.8251 -1.3401,10.61382 -4.0204,14.36617 -0.9649,1.32227 -2.2335,2.41224 -3.8059,3.26992 -1.5725,0.85768 -3.4308,1.28652 -5.575,1.28652 -2.1442,0 -3.5915,-0.64326 -4.342,-1.92979 l -2.7874,13.07965 -8.0944,1.92979 8.952,-42.18723 m 4.8245,24.44393 c 1.7511,10e-6 3.2163,-0.87554 4.3956,-2.62665 2.0727,-3.03761 3.1091,-6.96865 3.1091,-11.79312 0,-2.96613 -0.8934,-4.44921 -2.6802,-4.44923 -1.4295,2e-5 -2.6624,0.87557 -3.6988,2.62665 l -3.1627,15.00944 c 0.2859,0.82195 0.9649,1.23292 2.037,1.23291" />
      <path
         inkscape:connector-curvature="0"
         id="path3606"
         d="m 1119.1254,427.26275 7.7191,0 -3.8596,18.22574 c -0.1429,0.60753 -0.2144,1.17932 -0.2144,1.71536 0,1.53669 0.7326,2.30503 2.1978,2.30502 1.894,10e-6 3.3414,-1.67962 4.342,-5.03888 l 2.2515,0 c -2.323,6.6113 -5.9145,9.91695 -10.7747,9.91695 -1.5009,0 -2.716,-0.41097 -3.6451,-1.23292 -0.9292,-0.85768 -1.4652,-2.0906 -1.6082,-3.69875 -2.2157,3.28778 -4.8781,4.93167 -7.9871,4.93167 -2.037,0 -3.7345,-0.69687 -5.0925,-2.0906 -1.358,-1.39373 -2.037,-3.57367 -2.037,-6.53983 0,-4.0025 1.1257,-8.02288 3.3771,-12.06115 1.0721,-1.92976 2.5194,-3.52004 4.342,-4.77085 1.8226,-1.2865 3.8417,-1.92976 6.0574,-1.92979 2.8947,3e-5 4.342,0.91132 4.342,2.73386 l 0,0.37524 0.5897,-2.84107 m -3.2699,3.05549 c -1.4295,2e-5 -2.7518,0.89344 -3.9668,2.68026 -1.1793,1.75112 -2.0728,3.75237 -2.6803,6.00377 -0.5718,2.21569 -0.8577,4.02039 -0.8577,5.41412 0,1.358 0.089,2.35863 0.2681,3.00188 0.1786,0.60753 0.4288,1.03637 0.7504,1.28653 0.4646,0.32163 1.0721,0.48245 1.8226,0.48244 0.7505,1e-5 1.5724,-0.41097 2.4658,-1.23292 0.9292,-0.85767 1.5367,-2.01911 1.8226,-3.48433 l 2.5731,-12.11476 c -10e-5,-0.46455 -0.1787,-0.91126 -0.5361,-1.34012 -0.3574,-0.46456 -0.9113,-0.69685 -1.6617,-0.69687" />
      <path
         inkscape:connector-curvature="0"
         id="path3608"
         d="m 1135.2278,423.13515 c -0.8219,-0.82191 -1.2329,-1.82254 -1.2329,-3.00188 0,-1.17928 0.411,-2.17991 1.2329,-3.00189 0.822,-0.85764 1.8226,-1.28648 3.0019,-1.28652 1.1793,4e-5 2.18,0.42888 3.0019,1.28652 0.8577,0.82198 1.2865,1.82261 1.2865,3.00189 0,1.17934 -0.4288,2.17997 -1.2865,3.00188 -0.8219,0.82198 -1.8226,1.23295 -3.0019,1.23292 -1.1793,3e-5 -2.1799,-0.41094 -3.0019,-1.23292 m -2.305,4.1276 7.7192,0 -3.8596,18.22574 c -0.143,0.60753 -0.2144,1.21506 -0.2144,1.82257 0,1.25079 0.7326,1.87619 2.1978,1.87618 1.0363,1e-5 2.0012,-0.4467 2.8947,-1.34013 0.8934,-0.89341 1.5366,-2.01911 1.9297,-3.37712 l 2.2515,0 c -2.3229,6.6113 -6.0753,9.91695 -11.2571,9.91695 -1.7154,0 -3.1091,-0.53605 -4.1812,-1.60816 -1.0364,-1.0721 -1.5546,-2.68025 -1.5546,-4.82446 0,-0.96488 0.143,-2.12632 0.4289,-3.48433 l 3.6451,-17.20724" />
      <path
         inkscape:connector-curvature="0"
         id="path3610"
         d="m 1158.9548,434.66025 c 0,-1.82255 -0.6433,-2.73383 -1.9298,-2.73386 -1.7868,3e-5 -3.1806,1.64391 -4.1812,4.93167 l -3.6451,17.20725 -7.7192,0 5.6822,-26.80256 7.7191,0 -0.5896,2.78746 c 1.7511,-2.00123 3.8417,-3.00185 6.2718,-3.00188 1.8225,3e-5 3.2699,0.50034 4.342,1.50094 1.0721,1.00065 1.6081,2.41225 1.6081,4.23481 0,1.78685 -0.4288,4.37776 -1.2865,7.77274 -0.8577,3.35926 -1.2865,5.4856 -1.2865,6.37901 0,1.50095 0.7147,2.25142 2.1442,2.25141 0.8577,1e-5 1.4473,-0.1072 1.769,-0.32163 -0.2145,1.82258 -0.8756,3.19844 -1.9834,4.1276 -1.0721,0.92915 -2.4659,1.39373 -4.1812,1.39373 -1.7154,0 -3.0019,-0.57179 -3.8596,-1.71537 -0.8577,-1.14357 -1.2865,-2.46583 -1.2865,-3.96677 0,-1.50094 0.3931,-3.93104 1.1793,-7.2903 0.8219,-3.35924 1.2329,-5.61065 1.2329,-6.75425" />
    </g>
    <path
       sodipodi:nodetypes="sscccccccccccccccccccccccccccccccccccccs"
       inkscape:connector-curvature="0"
       id="path4830"
       d="m 70.140509,1011.0196 c -1.509113,0 -2.730409,1.2284 -2.730409,2.7375 0,0.9727 0.507278,1.8196 1.272763,2.3038 l -1.990922,1.1945 0.227533,0.2631 0,4.2876 -1.592741,0.6826 1.365208,3.1855 -1.592741,0 -0.455074,1.5928 3.868089,-0.4551 -0.455067,-1.8203 0.227533,-3.8681 0.98124,-0.8675 0.156434,0.1849 3.868082,0.9102 0.554622,6.2358 -4.650238,2.638 -2.50288,8.5753 -2.502875,-1.7493 -5.460829,4.7783 12.286852,0 -2.04069,-1.4292 2.04069,-2.894 0.45508,-5.2333 7.281097,0.455 1.208507,-0.9074 1.521907,-6.3736 -1.486074,-9.464 6.491829,-1.2301 5.915896,8.6463 6.143429,-0.4551 2.95795,0.9101 -2.27534,-3.1854 -6.37096,0.2275 -5.915899,-9.1014 -11.042527,1.024 -1.24434,-0.3414 -1.784735,1.0737 c -0.103909,-1.4143 -1.289611,-2.5313 -2.7304,-2.5313 z"
       style="fill:#ffffff;fill-opacity:1;stroke:none" />
    <g
       id="g4878"
       transform="matrix(0.13825623,0,0,0.13825623,-188.45547,955.91033)"
       style="fill:#ffffff;fill-opacity:1">
      <path
         sodipodi:nodetypes="ccccccccc"
         inkscape:connector-curvature="0"
         inkscape:original-d="m 1653,388.36218 5,20 39,19 16,54 20,-13 -25,-49 -39,-15 -5,-13 z"
         inkscape:path-effect="#path-effect4866"
         id="path4864"
         d="m 1653,388.36218 5,20 39,19 16,54 20,-13 -25,-49 -39,-15 -5,-13 -11,-3"
         style="color:#000000;fill:#ffffff;fill-opacity:1;fill-rule:nonzero;stroke:none;stroke-width:0.7869643;marker:none;visibility:visible;display:inline;overflow:visible;enable-background:accumulate" />
      <path
         sodipodi:nodetypes="ccccccccccccccc"
         inkscape:connector-curvature="0"
         inkscape:original-d="m 1716,462.36218 -27,20 6,15 18,1 31,45 -61,4 18,58 -27,20 52,-5 -17,-54 54,4 9,-15 -21,-74 -27,-25 z"
         inkscape:path-effect="#path-effect4870"
         id="path4868"
         d="m 1716,462.36218 c -8.9694,6.7079 -17.9695,13.37466 -27,20 l 6,15 18,1 31,45 -61,4 18,58 -27,20 52,-5 -17,-54 54,4 9,-15 -21,-74 -27,-25 c -2.6639,2.00364 -5.3306,4.00364 -8,6"
         style="color:#000000;fill:#ffffff;fill-opacity:1;fill-rule:nonzero;stroke:none;stroke-width:0.7869643;marker:none;visibility:visible;display:inline;overflow:visible;enable-background:accumulate" />
      <path
         inkscape:connector-curvature="0"
         inkscape:original-d="m 1725,562.36218 12,58 16,-2 -11,-54 z"
         inkscape:path-effect="#path-effect4874"
         id="path4872"
         d="m 1725,562.36218 12,58 16,-2 -11,-54 -17,-2"
         style="color:#000000;fill:#ffffff;fill-opacity:1;fill-rule:nonzero;stroke:none;stroke-width:0.7869643;marker:none;visibility:visible;display:inline;overflow:visible;enable-background:accumulate" />
      <path
         d="m 1718,462.86218 c 0,6.90356 -5.5964,12.5 -12.5,12.5 -6.9036,0 -12.5,-5.59644 -12.5,-12.5 0,-6.90356 5.5964,-12.5 12.5,-12.5 6.9036,0 12.5,5.59644 12.5,12.5 z"
         sodipodi:ry="12.5"
         sodipodi:rx="12.5"
         sodipodi:cy="462.86218"
         sodipodi:cx="1705.5"
         id="path4876"
         style="color:#000000;fill:#ffffff;fill-opacity:1;fill-rule:nonzero;stroke:none;stroke-width:0.7869643;marker:none;visibility:visible;display:inline;overflow:visible;enable-background:accumulate"
         sodipodi:type="arc" />
    </g>
    <text
       xml:space="preserve"
       style="font-size:9.87733172999999987px;font-style:normal;font-variant:normal;font-weight:bold;font-stretch:normal;text-align:center;line-height:125%;letter-spacing:0px;word-spacing:0px;writing-mode:lr-tb;text-anchor:middle;fill:#ffffff;fill-opacity:1;stroke:none;font-family:Cantarell;-inkscape-font-specification:Cantarell Bold"
       x="62.296597"
       y="946.90222"
       id="text20415"
       sodipodi:linespacing="125%"><tspan
         sodipodi:role="line"
         id="tspan20417"
         x="63.647011"
         y="946.90222">I am </tspan><tspan
         sodipodi:role="line"
         x="62.296597"
         y="959.2489"
         id="tspan20419">attending</tspan></text>
  </g>
</svg>
