<?xml version="1.0" encoding="UTF-8" standalone="no"?>
<!-- Created with Inkscape (http://www.inkscape.org/) -->

<svg
   xmlns:dc="http://purl.org/dc/elements/1.1/"
   xmlns:cc="http://creativecommons.org/ns#"
   xmlns:rdf="http://www.w3.org/1999/02/22-rdf-syntax-ns#"
   xmlns:svg="http://www.w3.org/2000/svg"
   xmlns="http://www.w3.org/2000/svg"
   xmlns:xlink="http://www.w3.org/1999/xlink"
   xmlns:sodipodi="http://sodipodi.sourceforge.net/DTD/sodipodi-0.dtd"
   xmlns:inkscape="http://www.inkscape.org/namespaces/inkscape"
   width="210mm"
   height="297mm"
   id="svg4035"
   version="1.1"
   inkscape:version="0.48.1 r9760"
   sodipodi:docname="poster-eek.svg">
  <defs
     id="defs3">
    <clipPath
       clipPathUnits="userSpaceOnUse"
       id="clipPath5165">
      <rect
         ry="19.040283"
         rx="19.040283"
         y="288.36218"
         x="723"
         height="431"
         width="456"
         id="rect5167"
         style="color:#000000;fill:url(#linearGradient5169);fill-opacity:1;fill-rule:nonzero;stroke:none;stroke-width:0.99999994;marker:none;visibility:visible;display:inline;overflow:visible;enable-background:new" />
    </clipPath>
    <linearGradient
       inkscape:collect="always"
       xlink:href="#linearGradient3778-0"
       id="linearGradient4006-7"
       gradientUnits="userSpaceOnUse"
       gradientTransform="matrix(1,0,0,1.2279203,588,-65.72358)"
       x1="512.5"
       y1="610.86218"
       x2="512.5"
       y2="299.80432" />
    <linearGradient
       inkscape:collect="always"
       id="linearGradient3778-0">
      <stop
         style="stop-color:#688c9d;stop-opacity:1"
         offset="0"
         id="stop3780-4" />
      <stop
         style="stop-color:#93adb9;stop-opacity:1"
         offset="1"
         id="stop3782-9" />
    </linearGradient>
    <linearGradient
       y2="299.80432"
       x2="512.5"
       y1="610.86218"
       x1="512.5"
       gradientTransform="matrix(1.6581939,0,0,1.4687459,-225.30221,-1484.4941)"
       gradientUnits="userSpaceOnUse"
       id="linearGradient4766"
       xlink:href="#linearGradient3778-0"
       inkscape:collect="always" />
    <filter
       inkscape:collect="always"
       id="filter5386">
      <feGaussianBlur
         inkscape:collect="always"
         stdDeviation="1.440938"
         id="feGaussianBlur5388" />
    </filter>
    <linearGradient
       y2="299.80432"
       x2="512.5"
       y1="610.86218"
       x1="512.5"
       gradientTransform="matrix(1.6581939,0,0,1.4687459,-225.30221,-1484.4941)"
       gradientUnits="userSpaceOnUse"
       id="linearGradient4766-5"
       xlink:href="#linearGradient3778-0-0"
       inkscape:collect="always" />
    <linearGradient
       inkscape:collect="always"
       id="linearGradient3778-0-0">
      <stop
         style="stop-color:#688c9d;stop-opacity:1"
         offset="0"
         id="stop3780-4-4" />
      <stop
         style="stop-color:#93adb9;stop-opacity:1"
         offset="1"
         id="stop3782-9-2" />
    </linearGradient>
    <linearGradient
       y2="299.80432"
       x2="512.5"
       y1="610.86218"
       x1="512.5"
       gradientTransform="matrix(1.6581939,0,0,1.4687459,-220.53981,-939.06051)"
       gradientUnits="userSpaceOnUse"
       id="linearGradient5733"
       xlink:href="#linearGradient3778-0-0"
       inkscape:collect="always" />
    <filter
       inkscape:collect="always"
       id="filter5751">
      <feGaussianBlur
         inkscape:collect="always"
         stdDeviation="0.72046898"
         id="feGaussianBlur5753" />
    </filter>
  </defs>
  <sodipodi:namedview
     inkscape:document-units="mm"
     id="base"
     pagecolor="#ffffff"
     bordercolor="#666666"
     borderopacity="1.0"
     inkscape:pageopacity="0.0"
     inkscape:pageshadow="2"
     inkscape:zoom="0.53804653"
     inkscape:cx="516.64317"
     inkscape:cy="295.84757"
     inkscape:current-layer="layer1"
     showgrid="false"
     units="mm"
     inkscape:showpageshadow="false"
     borderlayer="true"
     inkscape:window-width="1304"
     inkscape:window-height="1120"
     inkscape:window-x="2817"
     inkscape:window-y="236"
     inkscape:window-maximized="0" />
  <metadata
     id="metadata4">
    <rdf:RDF>
      <cc:Work
         rdf:about="">
        <dc:format>image/svg+xml</dc:format>
        <dc:type
           rdf:resource="http://purl.org/dc/dcmitype/StillImage" />
      </cc:Work>
    </rdf:RDF>
  </metadata>
  <g
     inkscape:label="Layer 1"
     inkscape:groupmode="layer"
     id="layer1">
    <g
       id="g4957"
       style="fill:#ffffff;fill-opacity:0.49561403"
       transform="translate(-598.35581,-247.64286)" />
    <g
       id="g5861"
       transform="matrix(0.61932062,0,0,0.61932062,-271.73206,-25.671894)">
      <path
         transform="translate(0,2.6146725)"
         d="m 769.46875,559.71875 c -2.03449,0.0291 -4.09489,0.54744 -6.1875,1.59375 l 0.53125,1.8125 2.3125,-0.75 c 1.1335,-0.34877 2.05465,-0.53344 2.78125,-0.5625 1.51133,-0.0581 2.72839,0.38245 3.6875,1.3125 0.90099,0.87192 1.22814,1.83525 0.9375,2.96875 -0.14532,0.61035 -0.65714,1.30465 -1.5,2.03125 l -1.21875,0.96875 c -0.55222,0.43596 -1.1484,0.95434 -1.875,1.59375 -0.7266,0.63941 -1.46527,1.44714 -2.25,2.40625 -1.39508,1.74384 -2.39184,3.61958 -3.03125,5.625 l 0,1.3125 12.875,0 0,-2.125 -9.9375,0 c 0.26158,-0.78473 0.66872,-1.69714 1.25,-2.65625 0.58128,-0.95911 1.50243,-1.9915 2.78125,-3.125 0.20345,-0.17438 0.83307,-0.7262 1.9375,-1.65625 1.10443,-0.93005 1.94997,-1.74433 2.53125,-2.5 0.58128,-0.75567 0.91499,-1.57214 1.03125,-2.53125 0.17438,-1.48227 -0.33307,-2.80182 -1.4375,-3.90625 -1.27882,-1.24976 -2.98082,-1.84156 -5.21875,-1.8125 z M 802.25,559.75 c -0.94822,0.0836 -1.84683,0.25514 -2.71875,0.53125 -4.4468,1.42414 -6.64751,5.43152 -6.53125,12 0.0291,1.42414 0.21592,2.679 0.59375,3.8125 0.37783,1.1335 1.04526,2.15714 2.0625,3 1.01724,0.84286 2.41022,1.28125 4.125,1.28125 1.71478,0 3.25462,-0.62087 4.5625,-1.8125 0.63941,-0.61035 1.1556,-1.31558 1.5625,-2.1875 0.4069,-0.87192 0.62937,-1.82432 0.6875,-2.8125 0.0872,-1.88917 -0.42463,-3.43774 -1.5,-4.6875 -1.19163,-1.36601 -2.77364,-2.03344 -4.75,-2.0625 -0.93005,0 -1.84246,0.11998 -2.65625,0.46875 -0.81379,0.34877 -1.51028,0.8584 -2.0625,1.46875 0.0872,-0.61035 0.16281,-1.12217 0.25,-1.5 0.52315,-2.32513 1.80489,-3.93621 3.78125,-4.75 1.51133,-0.63941 3.31145,-0.85751 5.375,-0.625 l 0.1875,-2.0625 c -1.03177,-0.11626 -2.02053,-0.14606 -2.96875,-0.0625 z m 256.3125,0.0937 -4.875,2.03125 0.9063,2.0625 4.4374,-1.75 0,15.71875 -4.7187,0 0,2.125 11.7187,0 0,-2.125 -4.6562,0 0,-18.0625 -2.8125,0 z m 98.4687,0 -7.1874,20.1875 2.25,0 2.0312,-5.875 8.3438,0 2.0312,5.875 2.4375,0 -7.1563,-20.1875 -2.75,0 z m -258.9687,0.0312 0,14.21875 c 0,0.63941 -0.0378,1.15123 -0.125,1.5 -0.26158,1.01724 -0.95151,1.7806 -1.96875,2.1875 -1.1335,0.46503 -2.49523,0.50283 -4.09375,0.125 l -0.375,2.03125 c 1.07537,0.26158 2.13901,0.34156 3.15625,0.3125 1.91823,-0.0581 3.39119,-0.64557 4.4375,-1.75 0.55222,-0.58128 0.91937,-1.20871 1.09375,-1.90625 0.17438,-0.69754 0.3125,-1.57869 0.3125,-2.625 l 0,-14.09375 -2.4375,0 z m 45.25,0.65625 -0.0312,16.4375 c 0.0291,1.97636 1.20021,3.34375 3.03125,3.34375 1.36601,0 2.31841,-0.51312 2.8125,-0.6875 l 0,-1.8125 c -0.63941,0.20345 -1.10403,0.3125 -1.65625,0.3125 -1.80197,0 -1.84375,-0.92463 -1.84375,-2 l 0,-15.59375 -2.3125,0 z m -97.90625,0.0312 0,19.46875 2.4375,0 0,-11.375 c 1.42414,-0.69754 2.64557,-1.03125 3.75,-1.03125 1.10443,0 1.94122,0.28935 2.40625,0.8125 0.46503,0.52315 0.6875,1.40212 0.6875,2.59375 l 0,9 2.34375,0 0,-9.5625 c 0,-1.51133 -0.40277,-2.75089 -1.1875,-3.59375 -0.78473,-0.84286 -1.89055,-1.25 -3.34375,-1.25 -1.4532,0 -2.97053,0.40714 -4.65625,1.25 l 0,-6.3125 -2.4375,0 z m 312.90625,1.65625 3.4063,9.84375 -6.875,0 3.4687,-9.84375 z m -332.125,0.15625 -2.375,0.125 0,3.5 -2.34375,0 0,1.96875 2.34375,0 0,7.6875 c 0,1.51133 0.2959,2.68402 0.90625,3.46875 0.61035,0.78473 1.60711,1.15625 3.03125,1.15625 0.98818,0 1.98713,-0.18248 3.0625,-0.53125 l 0,-1.75 c -0.75567,0.20345 -1.53214,0.3125 -2.375,0.3125 -0.84286,0 -1.43248,-0.22029 -1.78125,-0.65625 -0.34877,-0.43596 -0.46875,-1.16807 -0.46875,-2.15625 l 0,-7.53125 4.625,0 0,-1.96875 -4.625,0 0,-3.625 z m 285.6563,0 -2.3438,0.125 0,3.5 -2.375,0 0,1.96875 2.375,0 0,7.6875 c 0,1.51133 0.2647,2.68402 0.875,3.46875 0.6103,0.78473 1.6071,1.15625 3.0312,1.15625 0.9882,0 2.0184,-0.18248 3.0938,-0.53125 l 0,-1.75 c -0.7557,0.20345 -1.5634,0.3125 -2.4062,0.3125 -0.8429,0 -1.4013,-0.22029 -1.75,-0.65625 -0.3488,-0.43596 -0.5001,-1.16807 -0.5,-2.15625 l 0,-7.53125 4.6562,0 0,-1.96875 -4.6562,0 0,-3.625 z m 180.4062,0 -2.3438,0.125 0,3.5 -2.375,0 0,1.96875 2.375,0 0,7.6875 c 0,1.51133 0.296,2.68402 0.9063,3.46875 0.6103,0.78473 1.5759,1.15625 3,1.15625 0.9882,0 2.0184,-0.18248 3.0937,-0.53125 l 0,-1.75 c -0.7556,0.20345 -1.5321,0.3125 -2.375,0.3125 -0.8428,0 -1.4324,-0.22029 -1.7812,-0.65625 -0.3488,-0.43596 -0.5,-1.16807 -0.5,-2.15625 l 0,-7.53125 4.6562,0 0,-1.96875 -4.6562,0 0,-3.625 z m -77.2812,3.375 c -0.941,-0.0545 -1.8469,0.10545 -2.7188,0.46875 -0.9591,0.4069 -1.7356,0.99433 -2.375,1.75 -1.2498,1.4532 -1.7994,3.54485 -1.625,6.21875 0.087,1.33695 0.4565,2.50964 1.125,3.46875 0.6685,0.95911 1.4471,1.65779 2.4062,2.09375 0.9592,0.43596 1.9603,0.58938 3.0938,0.53125 1.1335,-0.0581 2.2371,-0.35622 3.3125,-0.9375 l 0,0.40625 c 0,0.90099 -0,1.56185 -0.062,1.96875 -0.2034,1.80197 -1.0512,3.01465 -2.5625,3.625 -1.5695,0.63941 -3.4161,0.59504 -5.625,-0.21875 l -0.6563,1.6875 c 0.3779,0.17438 0.7472,0.28999 1.125,0.40625 1.9473,0.61035 3.7518,0.65253 5.4376,0.1875 1.1334,-0.29064 2.0858,-0.77121 2.8124,-1.46875 0.7267,-0.69754 1.2072,-1.46527 1.4688,-2.25 0.2616,-0.78473 0.375,-1.80837 0.375,-3 l 0,-14.65625 -1.625,0 -0.2812,0.8125 -0.6876,-0.3125 c -1.0317,-0.46503 -1.9965,-0.72675 -2.9374,-0.78125 z m -126.4376,0.125 c -1.1589,-0.0145 -2.2138,0.16795 -3.1874,0.53125 -1.0173,0.4069 -1.7872,0.91589 -2.2813,1.875 -0.6394,1.24976 -0.401,3.06121 0.5,3.875 0.6975,0.63941 1.0293,0.78716 2.25,1.28125 l 2.0937,0.625 c 0.7848,0.23251 1.41,0.6178 1.875,0.9375 0.5523,0.37783 0.8126,0.85403 0.8126,1.40625 0,1.39508 -1.5222,1.9375 -3.0626,1.9375 -1.7147,0 -3.368,-0.3584 -4.9374,-0.96875 l 0,2.125 c 1.2788,0.55222 2.9742,0.8125 5.125,0.8125 2.1507,0 3.6971,-0.62306 4.6562,-1.84375 1.0754,-1.36601 0.9147,-3.40649 -0.2188,-4.65625 -0.5231,-0.58128 -1.738,-1.08371 -3.6562,-1.78125 l -1.25,-0.46875 c -0.6394,-0.23251 -1.0778,-0.44843 -1.2812,-0.59375 -0.4941,-0.3197 -0.8438,-0.59464 -0.8438,-1.4375 0,-0.29064 0.149,-0.61561 0.4688,-0.90625 0.7556,-0.69754 1.6224,-0.78125 3.25,-0.78125 0.93,0 2.0736,0.21592 3.4687,0.59375 l 0,-1.96875 c -1.366,-0.39237 -2.6223,-0.57922 -3.7813,-0.59375 z m 180.4376,0 c -1.159,-0.0145 -2.2452,0.16795 -3.2188,0.53125 -1.0172,0.4069 -1.7872,0.91589 -2.2812,1.875 -0.6395,1.24976 -0.3698,3.06121 0.5312,3.875 0.6975,0.63941 0.9981,0.78716 2.2188,1.28125 l 2.0937,0.625 c 0.7847,0.23251 1.4412,0.6178 1.9063,0.9375 0.5522,0.37783 0.8125,0.85403 0.8124,1.40625 0,1.39508 -1.5533,1.9375 -3.0937,1.9375 -1.7148,0 -3.368,-0.3584 -4.9375,-0.96875 l 0,2.125 c 1.2788,0.55222 3.0055,0.8125 5.1562,0.8125 2.1508,0 3.6659,-0.62306 4.625,-1.84375 1.0754,-1.36601 0.9148,-3.40649 -0.2187,-4.65625 -0.5232,-0.58128 -1.738,-1.08371 -3.6563,-1.78125 l -1.25,-0.46875 c -0.6394,-0.23251 -1.0778,-0.44843 -1.2812,-0.59375 -0.4941,-0.3197 -0.8438,-0.59464 -0.8438,-1.4375 0,-0.29064 0.1491,-0.61561 0.4688,-0.90625 0.7557,-0.69754 1.6224,-0.78125 3.25,-0.78125 0.9301,0 2.1049,0.21592 3.5,0.59375 l 0,-1.96875 c -1.366,-0.39237 -2.6223,-0.57922 -3.7812,-0.59375 z m -307.25005,0.15625 5.71875,14.5625 -2.875,6.96875 2.46875,0 8.03125,-21.53125 -2.21875,0 -4.375,11.875 -4.40625,-11.875 -2.34375,0 z m -45.125,0.0312 0,9.53125 c 0,1.51133 0.40277,2.65714 1.1875,3.5 0.78473,0.84286 1.89273,1.28125 3.375,1.28125 1.48227,0 3.10209,-0.4762 4.875,-1.40625 l 0.46875,1.0625 1.65625,0 0,-13.96875 -2.40625,0 0,11.28125 c -1.42414,0.66847 -2.64557,1.03125 -3.75,1.03125 -1.10443,0 -1.87872,-0.2581 -2.34375,-0.78125 -0.46503,-0.52315 -0.6875,-1.40212 -0.6875,-2.59375 l 0,-8.9375 -2.375,0 z m 264.68745,0 0,9.53125 c 0,1.51133 0.3716,2.65714 1.1563,3.5 0.7847,0.84286 1.8927,1.28125 3.375,1.28125 1.4823,0 3.1021,-0.4762 4.875,-1.40625 l 0.4687,1.0625 1.6563,0 0,-13.96875 -2.375,0 0,11.28125 c -1.4241,0.66847 -2.6768,1.03125 -3.7813,1.03125 -1.1044,0 -1.8787,-0.2581 -2.3437,-0.78125 -0.465,-0.52315 -0.6875,-1.40212 -0.6875,-2.59375 l 0,-8.9375 -2.3438,0 z m 54.3126,0 0,9.53125 c 0,1.51133 0.3715,2.65714 1.1562,3.5 0.7847,0.84286 1.8927,1.28125 3.375,1.28125 1.4823,0 3.1021,-0.4762 4.875,-1.40625 l 0.4688,1.0625 1.6562,0 0,-13.96875 -2.375,0 0,11.28125 c -1.4241,0.66847 -2.6768,1.03125 -3.7812,1.03125 -1.1045,0 -1.8475,-0.2581 -2.3126,-0.78125 -0.465,-0.52315 -0.7187,-1.40212 -0.7187,-2.59375 l 0,-8.9375 -2.3437,0 z m -20.6563,1.59375 c 0.9446,0.004 2.0438,0.25591 3.25,0.75 l 0,9.21875 c -0.7847,0.43596 -1.6659,0.66281 -2.625,0.75 -0.9591,0.0872 -1.8403,-0.064 -2.625,-0.5 -0.7847,-0.43596 -1.3744,-1.03214 -1.7813,-1.875 -0.6103,-1.22069 -0.8284,-2.61804 -0.625,-4.1875 0.2035,-1.59852 0.8644,-2.74215 1.9688,-3.46875 0.683,-0.45049 1.4929,-0.69113 2.4375,-0.6875 z m -415,1.125 c 0.60671,0.0218 1.21669,0.17811 1.8125,0.46875 0.61035,0.29064 1.12435,0.69341 1.53125,1.1875 0.7266,0.93005 1.05594,2.03149 0.96875,3.28125 -0.0872,1.24976 -0.56121,2.3512 -1.375,3.28125 -0.81379,0.93005 -1.80837,1.40625 -3,1.40625 -1.27882,0 -2.34901,-0.58088 -3.25,-1.65625 -0.78473,-0.95911 -1.22094,-2.09837 -1.25,-3.40625 -0.0291,-1.30788 0.37808,-2.41151 1.25,-3.3125 0.43596,-0.4069 0.91872,-0.73405 1.5,-0.9375 0.61035,-0.23251 1.20579,-0.3343 1.8125,-0.3125 z m 208.8437,0.9375 0,1.9375 8.4063,0 0,-1.9375 -8.4063,0 z"
         id="path5005"
         style="font-size:35.03768539px;font-style:normal;font-variant:normal;font-weight:normal;font-stretch:normal;text-align:start;line-height:125%;letter-spacing:0px;word-spacing:0px;writing-mode:lr-tb;text-anchor:start;fill:#ffffff;fill-opacity:0.49561403;stroke:none;font-family:Cantarell;-inkscape-font-specification:Cantarell"
         xlink:href="#text2996"
         inkscape:original="M 769.46875 559.71875 C 767.43426 559.74781 765.37386 560.26619 763.28125 561.3125 L 763.8125 563.125 L 766.125 562.375 C 767.2585 562.02623 768.17965 561.84156 768.90625 561.8125 C 770.41758 561.75437 771.63464 562.19495 772.59375 563.125 C 773.49474 563.99692 773.82189 564.96025 773.53125 566.09375 C 773.38593 566.7041 772.87411 567.3984 772.03125 568.125 L 770.8125 569.09375 C 770.26028 569.52971 769.6641 570.04809 768.9375 570.6875 C 768.2109 571.32691 767.47223 572.13464 766.6875 573.09375 C 765.29242 574.83759 764.29566 576.71333 763.65625 578.71875 L 763.65625 580.03125 L 776.53125 580.03125 L 776.53125 577.90625 L 766.59375 577.90625 C 766.85533 577.12152 767.26247 576.20911 767.84375 575.25 C 768.42503 574.29089 769.34618 573.2585 770.625 572.125 C 770.82845 571.95062 771.45807 571.3988 772.5625 570.46875 C 773.66693 569.5387 774.51247 568.72442 775.09375 567.96875 C 775.67503 567.21308 776.00874 566.39661 776.125 565.4375 C 776.29938 563.95523 775.79193 562.63568 774.6875 561.53125 C 773.40868 560.28149 771.70668 559.68969 769.46875 559.71875 z M 802.25 559.75 C 801.30178 559.83356 800.40317 560.00514 799.53125 560.28125 C 795.08445 561.70539 792.88374 565.71277 793 572.28125 C 793.02906 573.70539 793.21592 574.96025 793.59375 576.09375 C 793.97158 577.22725 794.63901 578.25089 795.65625 579.09375 C 796.67349 579.93661 798.06647 580.375 799.78125 580.375 C 801.49603 580.375 803.03587 579.75413 804.34375 578.5625 C 804.98316 577.95215 805.49935 577.24692 805.90625 576.375 C 806.31315 575.50308 806.53562 574.55068 806.59375 573.5625 C 806.68094 571.67333 806.16912 570.12476 805.09375 568.875 C 803.90212 567.50899 802.32011 566.84156 800.34375 566.8125 C 799.4137 566.8125 798.50129 566.93248 797.6875 567.28125 C 796.87371 567.63002 796.17722 568.13965 795.625 568.75 C 795.71219 568.13965 795.78781 567.62783 795.875 567.25 C 796.39815 564.92487 797.67989 563.31379 799.65625 562.5 C 801.16758 561.86059 802.9677 561.64249 805.03125 561.875 L 805.21875 559.8125 C 804.18698 559.69624 803.19822 559.66644 802.25 559.75 z M 1058.5625 559.84375 L 1053.6875 561.875 L 1054.5938 563.9375 L 1059.0312 562.1875 L 1059.0312 577.90625 L 1054.3125 577.90625 L 1054.3125 580.03125 L 1066.0312 580.03125 L 1066.0312 577.90625 L 1061.375 577.90625 L 1061.375 559.84375 L 1058.5625 559.84375 z M 1157.0312 559.84375 L 1149.8438 580.03125 L 1152.0938 580.03125 L 1154.125 574.15625 L 1162.4688 574.15625 L 1164.5 580.03125 L 1166.9375 580.03125 L 1159.7812 559.84375 L 1157.0312 559.84375 z M 898.0625 559.875 L 898.0625 574.09375 C 898.0625 574.73316 898.02469 575.24498 897.9375 575.59375 C 897.67592 576.61099 896.98599 577.37435 895.96875 577.78125 C 894.83525 578.24628 893.47352 578.28408 891.875 577.90625 L 891.5 579.9375 C 892.57537 580.19908 893.63901 580.27906 894.65625 580.25 C 896.57448 580.19187 898.04744 579.60443 899.09375 578.5 C 899.64597 577.91872 900.01312 577.29129 900.1875 576.59375 C 900.36188 575.89621 900.5 575.01506 900.5 573.96875 L 900.5 559.875 L 898.0625 559.875 z M 943.3125 560.53125 L 943.28125 576.96875 C 943.31031 578.94511 944.48146 580.3125 946.3125 580.3125 C 947.67851 580.3125 948.63091 579.79938 949.125 579.625 L 949.125 577.8125 C 948.48559 578.01595 948.02097 578.125 947.46875 578.125 C 945.66678 578.125 945.625 577.20037 945.625 576.125 L 945.625 560.53125 L 943.3125 560.53125 z M 845.40625 560.5625 L 845.40625 580.03125 L 847.84375 580.03125 L 847.84375 568.65625 C 849.26789 567.95871 850.48932 567.625 851.59375 567.625 C 852.69818 567.625 853.53497 567.91435 854 568.4375 C 854.46503 568.96065 854.6875 569.83962 854.6875 571.03125 L 854.6875 580.03125 L 857.03125 580.03125 L 857.03125 570.46875 C 857.03125 568.95742 856.62848 567.71786 855.84375 566.875 C 855.05902 566.03214 853.9532 565.625 852.5 565.625 C 851.0468 565.625 849.52947 566.03214 847.84375 566.875 L 847.84375 560.5625 L 845.40625 560.5625 z M 1158.3125 562.21875 L 1161.7188 572.0625 L 1154.8438 572.0625 L 1158.3125 562.21875 z M 826.1875 562.375 L 823.8125 562.5 L 823.8125 566 L 821.46875 566 L 821.46875 567.96875 L 823.8125 567.96875 L 823.8125 575.65625 C 823.8125 577.16758 824.1084 578.34027 824.71875 579.125 C 825.3291 579.90973 826.32586 580.28125 827.75 580.28125 C 828.73818 580.28125 829.73713 580.09877 830.8125 579.75 L 830.8125 578 C 830.05683 578.20345 829.28036 578.3125 828.4375 578.3125 C 827.59464 578.3125 827.00502 578.09221 826.65625 577.65625 C 826.30748 577.22029 826.1875 576.48818 826.1875 575.5 L 826.1875 567.96875 L 830.8125 567.96875 L 830.8125 566 L 826.1875 566 L 826.1875 562.375 z M 1111.8438 562.375 L 1109.5 562.5 L 1109.5 566 L 1107.125 566 L 1107.125 567.96875 L 1109.5 567.96875 L 1109.5 575.65625 C 1109.5 577.16758 1109.7647 578.34027 1110.375 579.125 C 1110.9853 579.90973 1111.9821 580.28125 1113.4062 580.28125 C 1114.3944 580.28125 1115.4246 580.09877 1116.5 579.75 L 1116.5 578 C 1115.7443 578.20345 1114.9366 578.3125 1114.0938 578.3125 C 1113.2509 578.3125 1112.6925 578.09221 1112.3438 577.65625 C 1111.995 577.22029 1111.8437 576.48818 1111.8438 575.5 L 1111.8438 567.96875 L 1116.5 567.96875 L 1116.5 566 L 1111.8438 566 L 1111.8438 562.375 z M 1292.25 562.375 L 1289.9062 562.5 L 1289.9062 566 L 1287.5312 566 L 1287.5312 567.96875 L 1289.9062 567.96875 L 1289.9062 575.65625 C 1289.9062 577.16758 1290.2022 578.34027 1290.8125 579.125 C 1291.4228 579.90973 1292.3884 580.28125 1293.8125 580.28125 C 1294.8007 580.28125 1295.8309 580.09877 1296.9062 579.75 L 1296.9062 578 C 1296.1506 578.20345 1295.3741 578.3125 1294.5312 578.3125 C 1293.6884 578.3125 1293.0988 578.09221 1292.75 577.65625 C 1292.4012 577.22029 1292.25 576.48818 1292.25 575.5 L 1292.25 567.96875 L 1296.9062 567.96875 L 1296.9062 566 L 1292.25 566 L 1292.25 562.375 z M 1214.9688 565.75 C 1214.0278 565.6955 1213.1219 565.85545 1212.25 566.21875 C 1211.2909 566.62565 1210.5144 567.21308 1209.875 567.96875 C 1208.6252 569.42195 1208.0756 571.5136 1208.25 574.1875 C 1208.3372 575.52445 1208.7065 576.69714 1209.375 577.65625 C 1210.0435 578.61536 1210.8221 579.31404 1211.7812 579.75 C 1212.7404 580.18596 1213.7415 580.33938 1214.875 580.28125 C 1216.0085 580.22312 1217.1121 579.92503 1218.1875 579.34375 L 1218.1875 579.75 C 1218.1875 580.65099 1218.1831 581.31185 1218.125 581.71875 C 1217.9216 583.52072 1217.0738 584.7334 1215.5625 585.34375 C 1213.993 585.98316 1212.1464 585.93879 1209.9375 585.125 L 1209.2812 586.8125 C 1209.6591 586.98688 1210.0284 587.10249 1210.4062 587.21875 C 1212.3535 587.8291 1214.158 587.87128 1215.8438 587.40625 C 1216.9772 587.11561 1217.9296 586.63504 1218.6562 585.9375 C 1219.3829 585.23996 1219.8634 584.47223 1220.125 583.6875 C 1220.3866 582.90277 1220.5 581.87913 1220.5 580.6875 L 1220.5 566.03125 L 1218.875 566.03125 L 1218.5938 566.84375 L 1217.9062 566.53125 C 1216.8745 566.06622 1215.9097 565.8045 1214.9688 565.75 z M 1088.5312 565.875 C 1087.3723 565.86047 1086.3174 566.04295 1085.3438 566.40625 C 1084.3265 566.81315 1083.5566 567.32214 1083.0625 568.28125 C 1082.4231 569.53101 1082.6615 571.34246 1083.5625 572.15625 C 1084.26 572.79566 1084.5918 572.94341 1085.8125 573.4375 L 1087.9062 574.0625 C 1088.691 574.29501 1089.3162 574.6803 1089.7812 575 C 1090.3335 575.37783 1090.5938 575.85403 1090.5938 576.40625 C 1090.5938 577.80133 1089.0716 578.34375 1087.5312 578.34375 C 1085.8165 578.34375 1084.1632 577.98535 1082.5938 577.375 L 1082.5938 579.5 C 1083.8726 580.05222 1085.568 580.3125 1087.7188 580.3125 C 1089.8695 580.3125 1091.4159 579.68944 1092.375 578.46875 C 1093.4504 577.10274 1093.2897 575.06226 1092.1562 573.8125 C 1091.6331 573.23122 1090.4182 572.72879 1088.5 572.03125 L 1087.25 571.5625 C 1086.6106 571.32999 1086.1722 571.11407 1085.9688 570.96875 C 1085.4747 570.64905 1085.125 570.37411 1085.125 569.53125 C 1085.125 569.24061 1085.274 568.91564 1085.5938 568.625 C 1086.3494 567.92746 1087.2162 567.84375 1088.8438 567.84375 C 1089.7738 567.84375 1090.9174 568.05967 1092.3125 568.4375 L 1092.3125 566.46875 C 1090.9465 566.07638 1089.6902 565.88953 1088.5312 565.875 z M 1268.9688 565.875 C 1267.8098 565.86047 1266.7236 566.04295 1265.75 566.40625 C 1264.7328 566.81315 1263.9628 567.32214 1263.4688 568.28125 C 1262.8293 569.53101 1263.099 571.34246 1264 572.15625 C 1264.6975 572.79566 1264.9981 572.94341 1266.2188 573.4375 L 1268.3125 574.0625 C 1269.0972 574.29501 1269.7537 574.6803 1270.2188 575 C 1270.771 575.37783 1271.0313 575.85403 1271.0312 576.40625 C 1271.0312 577.80133 1269.4779 578.34375 1267.9375 578.34375 C 1266.2227 578.34375 1264.5695 577.98535 1263 577.375 L 1263 579.5 C 1264.2788 580.05222 1266.0055 580.3125 1268.1562 580.3125 C 1270.307 580.3125 1271.8221 579.68944 1272.7812 578.46875 C 1273.8566 577.10274 1273.696 575.06226 1272.5625 573.8125 C 1272.0393 573.23122 1270.8245 572.72879 1268.9062 572.03125 L 1267.6562 571.5625 C 1267.0168 571.32999 1266.5784 571.11407 1266.375 570.96875 C 1265.8809 570.64905 1265.5312 570.37411 1265.5312 569.53125 C 1265.5312 569.24061 1265.6803 568.91564 1266 568.625 C 1266.7557 567.92746 1267.6224 567.84375 1269.25 567.84375 C 1270.1801 567.84375 1271.3549 568.05967 1272.75 568.4375 L 1272.75 566.46875 C 1271.384 566.07638 1270.1277 565.88953 1268.9688 565.875 z M 961.71875 566.03125 L 967.4375 580.59375 L 964.5625 587.5625 L 967.03125 587.5625 L 975.0625 566.03125 L 972.84375 566.03125 L 968.46875 577.90625 L 964.0625 566.03125 L 961.71875 566.03125 z M 916.59375 566.0625 L 916.59375 575.59375 C 916.59375 577.10508 916.99652 578.25089 917.78125 579.09375 C 918.56598 579.93661 919.67398 580.375 921.15625 580.375 C 922.63852 580.375 924.25834 579.8988 926.03125 578.96875 L 926.5 580.03125 L 928.15625 580.03125 L 928.15625 566.0625 L 925.75 566.0625 L 925.75 577.34375 C 924.32586 578.01222 923.10443 578.375 922 578.375 C 920.89557 578.375 920.12128 578.1169 919.65625 577.59375 C 919.19122 577.0706 918.96875 576.19163 918.96875 575 L 918.96875 566.0625 L 916.59375 566.0625 z M 1181.2812 566.0625 L 1181.2812 575.59375 C 1181.2812 577.10508 1181.6528 578.25089 1182.4375 579.09375 C 1183.2222 579.93661 1184.3302 580.375 1185.8125 580.375 C 1187.2948 580.375 1188.9146 579.8988 1190.6875 578.96875 L 1191.1562 580.03125 L 1192.8125 580.03125 L 1192.8125 566.0625 L 1190.4375 566.0625 L 1190.4375 577.34375 C 1189.0134 578.01222 1187.7607 578.375 1186.6562 578.375 C 1185.5518 578.375 1184.7775 578.1169 1184.3125 577.59375 C 1183.8475 577.0706 1183.625 576.19163 1183.625 575 L 1183.625 566.0625 L 1181.2812 566.0625 z M 1235.5938 566.0625 L 1235.5938 575.59375 C 1235.5938 577.10508 1235.9653 578.25089 1236.75 579.09375 C 1237.5347 579.93661 1238.6427 580.375 1240.125 580.375 C 1241.6073 580.375 1243.2271 579.8988 1245 578.96875 L 1245.4688 580.03125 L 1247.125 580.03125 L 1247.125 566.0625 L 1244.75 566.0625 L 1244.75 577.34375 C 1243.3259 578.01222 1242.0732 578.375 1240.9688 578.375 C 1239.8643 578.375 1239.1213 578.1169 1238.6562 577.59375 C 1238.1912 577.0706 1237.9375 576.19163 1237.9375 575 L 1237.9375 566.0625 L 1235.5938 566.0625 z M 1214.9375 567.65625 C 1215.8821 567.65988 1216.9813 567.91216 1218.1875 568.40625 L 1218.1875 577.625 C 1217.4028 578.06096 1216.5216 578.28781 1215.5625 578.375 C 1214.6034 578.46219 1213.7222 578.31096 1212.9375 577.875 C 1212.1528 577.43904 1211.5631 576.84286 1211.1562 576 C 1210.5459 574.77931 1210.3278 573.38196 1210.5312 571.8125 C 1210.7347 570.21398 1211.3956 569.07035 1212.5 568.34375 C 1213.183 567.89326 1213.9929 567.65262 1214.9375 567.65625 z M 799.9375 568.78125 C 800.54421 568.80305 801.15419 568.95936 801.75 569.25 C 802.36035 569.54064 802.87435 569.94341 803.28125 570.4375 C 804.00785 571.36755 804.33719 572.46899 804.25 573.71875 C 804.16281 574.96851 803.68879 576.06995 802.875 577 C 802.06121 577.93005 801.06663 578.40625 799.875 578.40625 C 798.59618 578.40625 797.52599 577.82537 796.625 576.75 C 795.84027 575.79089 795.40406 574.65163 795.375 573.34375 C 795.34594 572.03587 795.75308 570.93224 796.625 570.03125 C 797.06096 569.62435 797.54372 569.2972 798.125 569.09375 C 798.73535 568.86124 799.33079 568.75945 799.9375 568.78125 z M 1008.7812 569.71875 L 1008.7812 571.65625 L 1017.1875 571.65625 L 1017.1875 569.71875 L 1008.7812 569.71875 z "
         inkscape:radius="0"
         sodipodi:type="inkscape:offset" />
      <text
         sodipodi:linespacing="125%"
         id="text2996"
         y="580.02643"
         x="1029.2545"
         style="font-size:29.06410599px;font-style:normal;font-variant:normal;font-weight:normal;font-stretch:normal;text-align:center;line-height:125%;letter-spacing:0px;word-spacing:0px;writing-mode:lr-tb;text-anchor:middle;fill:#000000;fill-opacity:1;stroke:none;font-family:Cantarell;-inkscape-font-specification:Cantarell"
         xml:space="preserve"><tspan
           y="580.02643"
           x="1035.1023"
           id="tspan2998"
           sodipodi:role="line"
           style="font-size:29.06410599px;font-style:normal;font-variant:normal;font-weight:normal;font-stretch:normal;text-align:center;line-height:125%;letter-spacing:11.69546032;writing-mode:lr-tb;text-anchor:middle;font-family:Cantarell;-inkscape-font-specification:Cantarell">26th July - 1st August</tspan></text>
    </g>
    <g
       style="font-size:60.6051178px;font-style:normal;font-variant:normal;font-weight:normal;font-stretch:normal;text-align:start;line-height:125%;letter-spacing:0px;word-spacing:0px;writing-mode:lr-tb;text-anchor:start;fill:#555753;fill-opacity:1;stroke:none;font-family:Lobster;-inkscape-font-specification:Lobster"
       id="text3004">
      <path
         d="m 220.77226,243.40682 c -3e-5,-2.46456 -1.23233,-3.69687 -3.69691,-3.69691 -2.1414,4e-5 -4.20198,1.51517 -6.18172,4.54538 -1.97979,2.98989 -3.55552,6.6666 -4.7272,11.03014 -1.13131,4.36359 -1.69696,8.34332 -1.69695,11.9392 -1e-5,3.59592 0.52524,6.20194 1.57574,7.81806 1.05047,1.61615 2.84842,2.42421 5.39385,2.42421 5.09081,0 9.13115,-2.02017 12.12103,-6.06051 l 1.39391,0.60605 c -1.01011,2.54542 -2.56564,4.707 -4.66659,6.48475 -3.83835,3.19187 -8.0403,4.7878 -12.60586,4.7878 -4.5656,0 -7.91908,-1.1515 -10.06045,-3.45449 -2.14139,-2.30299 -3.21208,-6.12111 -3.21207,-11.45437 -1e-5,-5.33323 0.94947,-10.60587 2.84844,-15.81794 1.09088,-2.90901 2.40399,-5.49482 3.93933,-7.75745 1.57572,-2.30295 3.59589,-4.20191 6.06051,-5.69688 2.505,-1.49488 5.27263,-2.24235 8.3029,-2.24239 3.07064,4e-5 5.51504,0.6667 7.33322,1.99997 1.85853,1.29295 2.7878,3.33332 2.78784,6.12112 -4e-5,3.71714 -1.41415,5.5757 -4.24236,5.57567 -1.41415,3e-5 -2.56564,-0.52522 -3.45449,-1.57574 0.72723,-0.36359 1.37369,-1.09085 1.93936,-2.18178 0.56562,-1.13126 0.84844,-2.26255 0.84847,-3.39389"
         style=""
         id="path5813" />
      <path
         d="m 239.19906,251.4673 c 5.17161,3e-5 7.75743,3.2323 7.75745,9.69682 0.16159,0.0808 0.38381,0.12123 0.66666,0.12121 2.7474,2e-5 5.85846,-1.21208 9.33319,-3.63631 l 0.54544,1.63634 c -2.38383,2.58584 -5.95953,4.26258 -10.7271,5.03023 -0.48487,5.53528 -2.0808,9.95945 -4.78781,13.27252 -2.66664,3.31308 -5.89891,4.96962 -9.69682,4.96962 -2.98985,0 -5.35345,-0.76767 -7.09079,-2.303 -1.73735,-1.53532 -2.60602,-3.95952 -2.60602,-7.27261 0,-4.20194 1.1919,-8.64631 3.5757,-13.33313 1.2121,-2.34337 2.94944,-4.28273 5.21204,-5.81809 2.26258,-1.5757 4.8686,-2.36357 7.81806,-2.3636 m -4.48478,25.63597 c 1.49491,0 2.90903,-1.2121 4.24236,-3.63631 1.3737,-2.42419 2.30297,-5.41404 2.78783,-8.96956 -1.09091,-0.2424 -1.63635,-1.13127 -1.63634,-2.66662 -10e-6,-1.53531 0.62624,-2.5858 1.87876,-3.15147 -0.0808,-1.29288 -0.30304,-2.20196 -0.66665,-2.72723 -0.32325,-0.52522 -0.86869,-0.78784 -1.63634,-0.78787 -1.33333,3e-5 -2.64644,1.01012 -3.93933,3.03026 -1.29292,2.02019 -2.30301,4.34339 -3.03026,6.96959 -0.72727,2.62624 -1.0909,4.94943 -1.09089,6.96959 -1e-5,1.97977 0.22221,3.31308 0.66665,3.99994 0.44443,0.64646 1.2525,0.96968 2.42421,0.96968"
         style=""
         id="path5815" />
      <path
         d="m 254.19598,252.01275 8.72714,0 -0.78786,3.75752 c 0.92926,-0.80804 1.67672,-1.4141 2.24238,-1.81816 0.56564,-0.44441 1.3333,-0.86864 2.303,-1.2727 0.96966,-0.44441 1.99995,-0.66663 3.09086,-0.66666 1.09087,3e-5 1.99995,0.44447 2.72723,1.33331 0.76764,0.8889 1.15147,1.93939 1.1515,3.15147 -3e-5,1.21212 -0.38386,2.26261 -1.1515,3.15146 -0.76769,0.8889 -1.69696,1.33334 -2.78784,1.33332 -1.0505,2e-5 -1.77776,-0.202 -2.18178,-0.60606 -0.36365,-0.44441 -0.56566,-0.90905 -0.60605,-1.39391 -0.12123,-1.33329 -0.50506,-1.99995 -1.1515,-1.99997 -1.29292,2e-5 -2.76764,0.76769 -4.42417,2.30299 l -4.84841,23.02995 -8.72714,0 6.42414,-30.30256"
         style=""
         id="path5817" />
      <path
         d="m 292.01073,252.01275 8.72714,0 -4.36357,20.60574 c -0.16164,0.68687 -0.24244,1.37372 -0.24242,2.06057 -2e-5,1.41413 0.82825,2.12119 2.48481,2.12118 2.22216,1e-5 3.8585,-1.77774 4.90901,-5.33325 l 2.54542,0 c -2.62625,7.47464 -6.68679,11.21195 -12.18163,11.21195 -1.73736,0 -3.13128,-0.48484 -4.18175,-1.45452 -1.05051,-1.01009 -1.65656,-2.44441 -1.81816,-4.30297 -2.34341,3.83833 -5.33326,5.75749 -8.96955,5.75749 -1.93937,0 -3.5151,-0.60605 -4.7272,-1.81816 -1.1717,-1.21209 -1.75755,-3.03025 -1.75755,-5.45446 0,-1.09088 0.16161,-2.40399 0.48484,-3.93933 l 4.12115,-19.45424 8.72714,0 -4.36357,20.60574 c -0.12122,0.60606 -0.18183,1.17171 -0.18182,1.69694 -1e-5,1.65655 0.60604,2.48482 1.81815,2.48481 2.18178,1e-5 3.79791,-1.77774 4.84841,-5.33325 l 4.12115,-19.45424"
         style=""
         id="path5819" />
      <path
         d="m 320.91369,260.37625 c -10e-6,-2.06055 -0.72727,-3.09083 -2.18178,-3.09086 -2.02018,3e-5 -3.59592,1.85858 -4.7272,5.57567 l -4.12115,19.45425 -8.72714,0 6.42415,-30.30256 8.72713,0 -0.66665,3.15146 c 1.97975,-2.26256 4.34335,-3.39385 7.0908,-3.39388 2.06055,3e-5 3.69689,0.56568 4.90901,1.69694 1.21208,1.13132 1.81813,2.72726 1.81815,4.78781 -2e-5,2.02019 -0.48486,4.94943 -1.45452,8.78774 -0.9697,3.79793 -1.45454,6.20193 -1.45452,7.21201 -2e-5,1.69695 0.80804,2.54542 2.4242,2.54541 1.21208,1e-5 2.16156,-0.42423 2.84844,-1.27271 0.68683,-0.84846 1.4343,-2.20197 2.24239,-4.06054 l 2.54542,0 c -2.54545,7.47464 -6.30296,11.21195 -11.27255,11.21195 -2.46463,0 -4.28278,-0.64646 -5.45446,-1.93937 -1.13131,-1.33331 -1.69696,-2.82823 -1.69695,-4.48477 -1e-5,-1.69694 0.44443,-4.44437 1.33332,-8.2423 0.92926,-3.7979 1.3939,-6.34332 1.39391,-7.63625 m 11.818,-18.66637 0.36363,0.0606 c -0.36366,1.49497 -1.53536,2.88889 -3.51509,4.18176 -1.93939,1.25254 -3.81815,1.87879 -5.63628,1.87876 -1.77777,3e-5 -3.75753,-0.3636 -5.9393,-1.0909 -2.1818,-0.76763 -3.91914,-1.15146 -5.21204,-1.15149 -1.29292,3e-5 -2.50502,0.52528 -3.63631,1.57573 l -0.36363,-0.12121 c 1.97976,-3.9595 5.35344,-5.93926 10.12105,-5.9393 1.53532,4e-5 3.31307,0.34347 5.33325,1.03028 2.02015,0.6465 3.71709,0.96973 5.09083,0.96969 1.4141,4e-5 2.54539,-0.4646 3.39389,-1.39392"
         style=""
         id="path5821" />
      <path
         d="m 354.36204,252.01275 8.72713,0 -4.36356,20.60574 c -0.16164,0.68687 -0.24245,1.37372 -0.24242,2.06057 -3e-5,1.41413 0.82824,2.12119 2.48481,2.12118 0.52521,1e-5 0.96965,-0.0808 1.33331,-0.24242 -0.8889,2.303 -1.73738,3.89893 -2.54542,4.78781 -0.80809,0.88887 -1.99999,1.33331 -3.5757,1.33331 -1.57575,0 -2.88886,-0.48484 -3.93933,-1.45452 -1.05051,-1.01009 -1.69696,-2.404 -1.93937,-4.18176 -2.46462,3.75752 -5.47467,5.63628 -9.03016,5.63628 -2.303,0 -4.22216,-0.78787 -5.75748,-2.3636 -1.53533,-1.57573 -2.303,-4.04034 -2.303,-7.39383 0,-4.52516 1.27271,-9.07054 3.81812,-13.63615 1.2121,-2.18176 2.84844,-3.97971 4.90902,-5.39385 2.06056,-1.4545 4.34335,-2.18176 6.84838,-2.18179 3.27266,3e-5 4.90899,1.03032 4.90901,3.09086 l 0,0.42424 0.66666,-3.21207 m -3.69691,3.45449 c -1.61616,3e-5 -3.11108,1.01011 -4.48478,3.03026 -1.33333,1.97979 -2.34341,4.24237 -3.03026,6.78777 -0.64646,2.50503 -0.96969,4.5454 -0.96968,6.12112 -10e-6,1.53534 0.101,2.66663 0.30302,3.39388 0.20201,0.68687 0.48484,1.17171 0.84848,1.45453 0.52523,0.36363 1.21209,0.54545 2.06057,0.54544 0.84846,1e-5 1.77774,-0.46463 2.78784,-1.39392 1.05047,-0.96967 1.73733,-2.28278 2.06057,-3.93933 l 2.90905,-13.69676 c -2e-5,-0.52521 -0.20204,-1.03026 -0.60606,-1.51512 -0.40405,-0.52522 -1.0303,-0.78784 -1.87875,-0.78787"
         style=""
         id="path5823" />
      <path
         d="m 366.59196,282.1941 c -1.89896,-1.25251 -2.84844,-2.62622 -2.84844,-4.12115 0,-1.53532 0.46464,-2.76763 1.39392,-3.69691 0.92928,-0.96968 2.04037,-1.45452 3.33328,-1.45453 1.33331,10e-6 2.36359,0.42425 3.09086,1.27271 0.72726,0.84848 1.09089,2.10099 1.0909,3.75752 -1e-5,1.61614 -0.72727,3.5959 -2.18179,5.9393 -1.41412,2.3838 -3.31308,4.40397 -5.69688,6.06051 -0.36363,-0.24243 -0.54545,-0.66666 -0.54544,-1.27271 -10e-6,-0.56565 0.52524,-1.39392 1.57573,-2.4848 1.05048,-1.0909 1.57573,-1.93937 1.57573,-2.54542 0,-0.60605 -0.26263,-1.09089 -0.78787,-1.45452"
         style=""
         id="path5825" />
      <path
         d="m 420.69055,240.86141 c 0.4848,0.92932 0.72722,2.16162 0.72726,3.69691 -4e-5,1.49496 -0.46467,2.82827 -1.39392,3.99994 -0.88891,1.13133 -2,1.69697 -3.33328,1.69694 -1.29294,3e-5 -2.30302,-0.4242 -3.03026,-1.27271 0.80804,-0.4848 1.4545,-1.21206 1.93937,-2.18178 0.52521,-1.01005 0.78784,-2.06054 0.78786,-3.15147 -2e-5,-1.09085 -0.36366,-2.02013 -1.09089,-2.78783 -0.72729,-0.76763 -1.89898,-1.15146 -3.5151,-1.1515 -1.61615,4e-5 -2.92926,0.48488 -3.93933,1.45452 -1.0101,0.92932 -1.51514,2.18183 -1.51513,3.75752 -1e-5,1.57577 0.32321,2.98989 0.96969,4.24236 0.68683,1.21213 1.5353,2.24242 2.54541,3.09086 l 3.33328,3.03026 c 1.17167,1.09091 2.26257,2.1818 3.27268,3.27267 1.01005,1.09092 1.83832,2.50503 2.48481,4.24236 0.68682,1.69696 1.03025,3.57572 1.03028,5.63628 -3e-5,4.80801 -1.65656,8.54532 -4.96961,11.21194 -3.31311,2.62622 -7.33324,3.93933 -12.06042,3.93934 -3.75753,-10e-6 -6.84839,-0.86868 -9.27259,-2.60602 -2.3838,-1.73735 -3.5757,-4.24236 -3.5757,-7.51504 0,-3.27266 0.90908,-5.79787 2.72723,-7.57564 1.81815,-1.77773 3.87872,-2.66661 6.18172,-2.66662 1.3333,1e-5 2.5252,0.32324 3.57571,0.96968 1.09087,0.60607 1.67672,1.61615 1.75754,3.03025 -1.89897,2e-5 -3.55551,0.46466 -4.96962,1.39392 -1.41412,0.92929 -2.12118,2.28281 -2.12117,4.06054 -1e-5,1.77776 0.50503,3.23228 1.51512,4.36357 1.01008,1.1313 2.4848,1.69695 4.42418,1.69695 1.97975,0 3.61608,-0.70706 4.90901,-2.12118 1.33329,-1.45452 1.99995,-3.27267 1.99997,-5.45446 -2e-5,-2.22218 -0.42426,-4.20194 -1.27271,-5.93931 -0.84849,-1.73732 -1.89898,-3.27265 -3.15146,-4.60598 l -3.63631,-3.87873 c -2.90906,-3.07063 -4.36358,-6.12109 -4.36357,-9.15137 -10e-6,-3.03022 1.3333,-5.57564 3.99994,-7.63625 2.70701,-2.06053 6.04029,-3.09082 9.99984,-3.09086 4.60596,4e-5 7.61602,1.33336 9.03017,3.99994"
         style=""
         id="path5827" />
      <path
         d="m 427.61847,249.77036 8.72714,0 -0.96968,4.54538 c 2.02015,-1.73731 4.38375,-2.60599 7.09079,-2.60602 4.9292,3e-5 7.3938,3.1919 7.39383,9.57561 -3e-5,6.58577 -1.51515,11.99982 -4.54538,16.24217 -1.09092,1.49493 -2.52524,2.72724 -4.30297,3.69692 -1.77776,0.96968 -3.87874,1.45452 -6.30293,1.45452 -2.42421,0 -4.06055,-0.72726 -4.90902,-2.18179 l -3.15146,14.78765 -9.15137,2.18179 10.12105,-47.69623 m 5.45446,27.63593 c 1.97976,10e-6 3.63629,-0.98987 4.96962,-2.96965 2.34338,-3.43428 3.51508,-7.87865 3.5151,-13.33312 -2e-5,-3.35346 -1.01011,-5.0302 -3.03026,-5.03023 -1.61615,3e-5 -3.01006,0.98991 -4.18175,2.96965 l -3.5757,16.96944 c 0.32322,0.92928 1.09088,1.39392 2.30299,1.39391"
         style=""
         id="path5829" />
      <path
         d="m 471.78446,252.01275 8.72714,0 -4.36357,20.60574 c -0.16164,0.68687 -0.24244,1.33332 -0.24242,1.93936 -2e-5,1.73736 0.82824,2.60603 2.48481,2.60602 2.14135,1e-5 3.77769,-1.89895 4.90901,-5.69688 l 2.54542,0 c -2.62625,7.47464 -6.68679,11.21195 -12.18163,11.21195 -1.69696,0 -3.07068,-0.46464 -4.12115,-1.39392 -1.0505,-0.96968 -1.65655,-2.3636 -1.81815,-4.18175 -2.50503,3.71711 -5.51508,5.57567 -9.03016,5.57567 -2.303,0 -4.22216,-0.78787 -5.75749,-2.3636 -1.53533,-1.57573 -2.30299,-4.04034 -2.30299,-7.39383 0,-4.52516 1.2727,-9.07054 3.81812,-13.63615 1.2121,-2.18176 2.84843,-3.97971 4.90901,-5.39385 2.06057,-1.4545 4.34336,-2.18176 6.84838,-2.18179 3.27266,3e-5 4.909,1.03032 4.90902,3.09086 l 0,0.42424 0.66665,-3.21207 m -3.69691,3.45449 c -1.61615,3e-5 -3.11108,1.01011 -4.48478,3.03026 -1.33332,1.97979 -2.34341,4.24237 -3.03025,6.78777 -0.64647,2.50503 -0.96969,4.5454 -0.96969,6.12112 0,1.53534 0.101,2.66663 0.30303,3.39388 0.20201,0.68687 0.48483,1.17171 0.84847,1.45453 0.52524,0.36363 1.21209,0.54545 2.06057,0.54544 0.84846,1e-5 1.77774,-0.46463 2.78784,-1.39392 1.05047,-0.96967 1.73733,-2.28278 2.06057,-3.93933 l 2.90905,-13.69676 c -2e-5,-0.52521 -0.20204,-1.03026 -0.60605,-1.51512 -0.40405,-0.52522 -1.03031,-0.78784 -1.87876,-0.78787"
         style=""
         id="path5831" />
      <path
         d="m 489.98965,247.34615 c -0.92928,-0.92924 -1.39392,-2.06053 -1.39392,-3.39388 0,-1.33327 0.46464,-2.46457 1.39392,-3.39389 0.92927,-0.96964 2.06056,-1.45448 3.39389,-1.45452 1.3333,4e-5 2.46459,0.48488 3.39388,1.45452 0.96967,0.92932 1.45451,2.06062 1.45453,3.39389 -2e-5,1.33335 -0.48486,2.46464 -1.45453,3.39388 -0.92929,0.92932 -2.06058,1.39396 -3.39388,1.39392 -1.33333,4e-5 -2.46462,-0.4646 -3.39389,-1.39392 m -2.60602,4.6666 8.72714,0 -4.36357,20.60574 c -0.16162,0.68687 -0.24243,1.37372 -0.24242,2.06057 -10e-6,1.41413 0.82826,2.12119 2.48481,2.12118 1.17168,1e-5 2.26258,-0.50503 3.27267,-1.51513 1.01007,-1.01007 1.73733,-2.28278 2.18179,-3.81812 l 2.54541,0 c -2.62623,7.47464 -6.86859,11.21195 -12.72707,11.21195 -1.93937,0 -3.5151,-0.60605 -4.7272,-1.81816 -1.1717,-1.21209 -1.75755,-3.03025 -1.75755,-5.45446 0,-1.09088 0.16161,-2.40399 0.48484,-3.93933 l 4.12115,-19.45424"
         style=""
         id="path5834" />
      <path
         d="m 516.81499,260.37625 c -2e-5,-2.06055 -0.72728,-3.09083 -2.18178,-3.09086 -2.02019,3e-5 -3.59592,1.85858 -4.7272,5.57567 l -4.12115,19.45425 -8.72714,0 6.42415,-30.30256 8.72713,0 -0.66665,3.15146 c 1.97975,-2.26256 4.34335,-3.39385 7.0908,-3.39388 2.06055,3e-5 3.69688,0.56568 4.90901,1.69694 1.21208,1.13132 1.81813,2.72726 1.81815,4.78781 -2e-5,2.02019 -0.48486,4.94943 -1.45452,8.78774 -0.9697,3.79793 -1.45455,6.20193 -1.45452,7.21201 -3e-5,1.69695 0.80804,2.54542 2.4242,2.54541 0.96966,1e-5 1.63631,-0.1212 1.99997,-0.36363 -0.24245,2.06058 -0.98991,3.61611 -2.24239,4.6666 -1.21212,1.05048 -2.78786,1.57573 -4.7272,1.57573 -1.93938,0 -3.3939,-0.64646 -4.36357,-1.93937 -0.96969,-1.2929 -1.45453,-2.78783 -1.45452,-4.48477 -10e-6,-1.69694 0.44442,-4.44437 1.33331,-8.2423 0.92927,-3.7979 1.3939,-6.34332 1.39392,-7.63625"
         style=""
         id="path5836" />
    </g>
    <g
       id="g5813"
       style="fill:#ffffff;fill-opacity:0.52857145"
       transform="translate(-598.35581,-247.64286)">
      <g
         id="g5823"
         transform="matrix(0.92337906,0,0,0.92337906,65.460957,27.451834)"
         style="fill:#ffffff;fill-opacity:0.52857145">
        <g
           id="g5825"
           transform="matrix(0.11840388,0,0,0.11840388,865.19335,299.21794)"
           style="fill:#ffffff;fill-opacity:0.52857145">
          <g
             id="g5827"
             transform="matrix(1.293235,0,0,1.293235,-4878.321,-1224.915)"
             style="fill:#ffffff;fill-opacity:0.52857145">
            <g
               id="g5829"
               style="fill:#ffffff;fill-opacity:0.52857145;fill-rule:nonzero;stroke:none"
               transform="matrix(2.438586,0,0,2.438586,3659.952,1113.451)">
              <g
                 id="g5831"
                 style="fill:#ffffff;fill-opacity:0.52857145">
                <path
                   id="path5833"
                   style="fill:#ffffff;fill-opacity:0.52857145"
                   d="M 86.068,0 C 61.466,0 56.851,35.041 70.691,35.041 84.529,35.041 110.671,0 86.068,0 z"
                   inkscape:connector-curvature="0" />
                <path
                   id="path5835"
                   style="fill:#ffffff;fill-opacity:0.52857145"
                   d="M 45.217,30.699 C 52.586,31.149 60.671,2.577 46.821,4.374 32.976,6.171 37.845,30.249 45.217,30.699 z"
                   inkscape:connector-curvature="0" />
                <path
                   id="path5837"
                   style="fill:#ffffff;fill-opacity:0.52857145"
                   d="M 11.445,48.453 C 16.686,46.146 12.12,23.581 3.208,29.735 -5.7,35.89 6.204,50.759 11.445,48.453 z"
                   inkscape:connector-curvature="0" />
                <path
                   id="path5839"
                   style="fill:#ffffff;fill-opacity:0.52857145"
                   d="M 26.212,36.642 C 32.451,35.37 32.793,9.778 21.667,14.369 10.539,18.961 19.978,37.916 26.212,36.642 l 0,0 z"
                   inkscape:connector-curvature="0" />
                <path
                   id="path5841"
                   style="fill:#ffffff;fill-opacity:0.52857145"
                   d="m 58.791,93.913 c 1.107,8.454 -6.202,12.629 -13.36,7.179 C 22.644,83.743 83.16,75.088 79.171,51.386 75.86,31.712 15.495,37.769 8.621,68.553 3.968,89.374 27.774,118.26 52.614,118.26 c 12.22,0 26.315,-11.034 28.952,-25.012 C 83.58,82.589 57.867,86.86 58.791,93.913 l 0,0 z"
                   inkscape:connector-curvature="0" />
              </g>
            </g>
            <g
               id="g5843"
               style="fill:#ffffff;fill-opacity:0.52857145">
              <path
                 id="path5845"
                 style="font-size:148.699646px;font-style:normal;font-variant:normal;font-weight:bold;font-stretch:normal;text-align:start;line-height:125%;writing-mode:lr-tb;text-anchor:start;fill:#ffffff;fill-opacity:0.52857145;stroke:none;font-family:Bitstream Vera Sans"
                 d="m 4176.2963,1214.4401 c -15.1078,0.4069 -27.0386,5.8367 -35.8126,16.25 -9.0861,10.8369 -13.6562,25.8104 -13.6562,44.9063 0,19.0432 4.5703,33.9757 13.6562,44.8124 9.1305,10.8369 21.6664,16.25 37.6563,16.25 16.034,0 28.6014,-5.4131 37.6875,-16.25 9.0859,-10.8367 13.6251,-25.7692 13.625,-44.8124 -1e-4,-19.0959 -4.5391,-34.0694 -13.625,-44.9063 -9.0861,-10.8366 -21.6536,-16.2499 -37.6875,-16.25 -0.6246,0 -1.2296,-0.016 -1.8437,0 z m 1.125,22 c 0.2415,-0.01 0.4737,0 0.7187,0 7.8833,10e-5 13.9919,3.4114 18.3125,10.25 4.3203,6.8388 6.4999,16.4913 6.5,28.9063 0,12.3623 -2.1799,21.9427 -6.5,28.7812 -4.3204,6.8389 -10.4293,10.2812 -18.3125,10.2812 -7.8391,0 -13.8983,-3.4423 -18.2187,-10.2812 -4.3204,-6.8385 -6.4999,-16.4189 -6.5,-28.7812 0,-12.4149 2.1798,-22.0675 6.5,-28.9063 4.1852,-6.6249 10.0123,-10.0428 17.5,-10.25 z"
                 inkscape:connector-curvature="0" />
              <path
                 id="path5847"
                 style="font-size:148.699646px;font-style:normal;font-variant:normal;font-weight:bold;font-stretch:normal;text-align:start;line-height:125%;writing-mode:lr-tb;text-anchor:start;fill:#ffffff;fill-opacity:0.52857145;stroke:none;font-family:Bitstream Vera Sans"
                 d="m 4005.6293,1325.612 c -13.3076,11.1757 -33.1067,11.0472 -41.3549,11.0472 -16.6133,0 -29.7747,-5.471 -39.4842,-16.413 -9.7097,-10.9946 -14.5644,-25.8819 -14.5644,-44.6622 0,-18.9906 4.9438,-33.9305 14.8316,-44.82 9.8878,-10.8892 23.4277,-16.3339 40.62,-16.334 6.6363,10e-5 12.9831,0.7366 19.0406,2.2094 6.1019,1.473 11.8475,3.6562 17.2368,6.5494 l -6.921,20.4608 c -3.0298,-1.6586 -6.4987,-3.2932 -9.7145,-4.4424 -5.4784,-1.8411 -10.979,-2.7617 -16.5018,-2.7618 -10.2442,10e-5 -18.15,3.3932 -23.7173,10.1792 -5.523,6.7336 -8.2844,16.3867 -8.2844,28.9594 0,12.4676 2.6723,22.0945 8.0172,28.8806 5.3446,6.7861 13.3768,10.1791 22.7818,10.1791 9.5548,0 15.4728,-2.4084 18.6291,-4.9461 l 0,-20.3835 -20.7001,0 0,-20.3584 40.0855,0"
                 inkscape:connector-curvature="0" />
              <path
                 id="path5849"
                 style="font-size:148.699646px;font-style:normal;font-variant:normal;font-weight:bold;font-stretch:normal;text-align:start;line-height:125%;writing-mode:lr-tb;text-anchor:start;fill:#ffffff;fill-opacity:0.52857145;stroke:none;font-family:Bitstream Vera Sans"
                 d="m 4023.2108,1216.5605 16.2279,0 51.2775,70.8022 0,-70.8022 21.8853,0 0,117.8103 -16.2279,0 -51.2774,-70.8022 0,70.8022 -21.8854,0 0,-117.8103"
                 inkscape:connector-curvature="0" />
              <path
                 id="path5851"
                 style="font-size:148.699646px;font-style:normal;font-variant:normal;font-weight:bold;font-stretch:normal;text-align:start;line-height:125%;writing-mode:lr-tb;text-anchor:start;fill:#ffffff;fill-opacity:0.52857145;stroke:none;font-family:Bitstream Vera Sans"
                 d="m 4246.3361,1216.5605 32.7366,0 22.7151,73.5479 22.8487,-73.5479 27.6698,0 12.5,117.8103 -24.3186,0 -7.5,-73.668 -22.9823,74.0213 -16.3015,0 -22.9824,-76.5213 -7.5,76.168 -24.3854,0 12.5,-117.8103"
                 inkscape:connector-curvature="0" />
              <path
                 id="path5853"
                 style="font-size:148.699646px;font-style:normal;font-variant:normal;font-weight:bold;font-stretch:normal;text-align:start;line-height:125%;writing-mode:lr-tb;text-anchor:start;fill:#ffffff;fill-opacity:0.52857145;stroke:none;font-family:Bitstream Vera Sans"
                 d="m 4382.3597,1216.5605 69.4147,0 0,22.9624 -43.6933,0 0,24.4365 33.5877,0 0,20.4623 -33.5877,0 0,26.9868 45.1631,0 0,22.9623 -70.8845,0 0,-117.8103"
                 inkscape:connector-curvature="0" />
              <text
                 xml:space="preserve"
                 id="text5855"
                 style="font-size:30.68958855px;font-style:normal;font-weight:normal;fill:#ffffff;fill-opacity:0.52857145;stroke:none;font-family:Bitstream Vera Sans"
                 y="1215.743"
                 x="4474.6182"><tspan
                   id="tspan5857"
                   style="letter-spacing:11.06259632;fill:#ffffff;fill-opacity:0.52857145"
                   y="1215.743"
                   x="4474.6182"><tspan
                     id="tspan5859"
                     style="letter-spacing:0.2523815;fill:#ffffff;fill-opacity:0.52857145">TM</tspan></tspan></text>
            </g>
          </g>
        </g>
      </g>
    </g>
    <text
       sodipodi:linespacing="125%"
       id="text3786"
       y="109.24096"
       x="190.09439"
       style="font-size:28px;font-style:normal;font-variant:normal;font-weight:bold;font-stretch:normal;text-align:start;line-height:125%;letter-spacing:0px;word-spacing:0px;writing-mode:lr;text-anchor:start;fill:#000000;fill-opacity:1;stroke:none;font-family:Cantarell;-inkscape-font-specification:Cantarell Bold"
       xml:space="preserve"><tspan
         y="109.24096"
         x="190.09439"
         id="tspan3788"
         sodipodi:role="line">The</tspan></text>
    <text
       xml:space="preserve"
       style="font-size:28px;font-style:normal;font-variant:normal;font-weight:bold;font-stretch:normal;text-align:start;line-height:125%;letter-spacing:0px;word-spacing:0px;writing-mode:lr-tb;text-anchor:start;fill:#000000;fill-opacity:1;stroke:none;font-family:Cantarell;-inkscape-font-specification:Cantarell Bold"
       x="370.84164"
       y="109.24096"
       id="text3790"
       sodipodi:linespacing="125%"><tspan
         sodipodi:role="line"
         id="tspan3792"
         x="370.84164"
         y="109.24096">Conference</tspan></text>
    <g
       id="g5768"
       transform="matrix(0.78750645,0,0,0.78750645,-412.67394,-175.076)">
      <g
         id="layer1-8"
         transform="matrix(0.11840388,0,0,0.11840388,865.19335,299.21794)">
        <g
           id="g15041"
           transform="matrix(1.293235,0,0,1.293235,-4878.321,-1224.915)">
          <g
             id="g15043"
             style="fill:#000000;fill-opacity:1;fill-rule:nonzero;stroke:none"
             transform="matrix(2.438586,0,0,2.438586,3659.952,1113.451)">
            <g
               id="g15045"
               style="fill:#000000;fill-opacity:1">
              <path
                 id="path15047"
                 style="fill:#000000;fill-opacity:1"
                 d="M 86.068,0 C 61.466,0 56.851,35.041 70.691,35.041 84.529,35.041 110.671,0 86.068,0 z"
                 inkscape:connector-curvature="0" />
              <path
                 id="path15049"
                 style="fill:#000000;fill-opacity:1"
                 d="M 45.217,30.699 C 52.586,31.149 60.671,2.577 46.821,4.374 32.976,6.171 37.845,30.249 45.217,30.699 z"
                 inkscape:connector-curvature="0" />
              <path
                 id="path15051"
                 style="fill:#000000;fill-opacity:1"
                 d="M 11.445,48.453 C 16.686,46.146 12.12,23.581 3.208,29.735 -5.7,35.89 6.204,50.759 11.445,48.453 z"
                 inkscape:connector-curvature="0" />
              <path
                 id="path15053"
                 style="fill:#000000;fill-opacity:1"
                 d="M 26.212,36.642 C 32.451,35.37 32.793,9.778 21.667,14.369 10.539,18.961 19.978,37.916 26.212,36.642 l 0,0 z"
                 inkscape:connector-curvature="0" />
              <path
                 id="path15055"
                 style="fill:#000000;fill-opacity:1"
                 d="m 58.791,93.913 c 1.107,8.454 -6.202,12.629 -13.36,7.179 C 22.644,83.743 83.16,75.088 79.171,51.386 75.86,31.712 15.495,37.769 8.621,68.553 3.968,89.374 27.774,118.26 52.614,118.26 c 12.22,0 26.315,-11.034 28.952,-25.012 C 83.58,82.589 57.867,86.86 58.791,93.913 l 0,0 z"
                 inkscape:connector-curvature="0" />
            </g>
          </g>
          <g
             id="g15057">
            <path
               id="path15059"
               style="font-size:148.699646px;font-style:normal;font-variant:normal;font-weight:bold;font-stretch:normal;text-align:start;line-height:125%;writing-mode:lr-tb;text-anchor:start;fill:#000000;fill-opacity:1;stroke:none;font-family:Bitstream Vera Sans"
               d="m 4176.2963,1214.4401 c -15.1078,0.4069 -27.0386,5.8367 -35.8126,16.25 -9.0861,10.8369 -13.6562,25.8104 -13.6562,44.9063 0,19.0432 4.5703,33.9757 13.6562,44.8124 9.1305,10.8369 21.6664,16.25 37.6563,16.25 16.034,0 28.6014,-5.4131 37.6875,-16.25 9.0859,-10.8367 13.6251,-25.7692 13.625,-44.8124 -1e-4,-19.0959 -4.5391,-34.0694 -13.625,-44.9063 -9.0861,-10.8366 -21.6536,-16.2499 -37.6875,-16.25 -0.6246,0 -1.2296,-0.016 -1.8437,0 z m 1.125,22 c 0.2415,-0.01 0.4737,0 0.7187,0 7.8833,10e-5 13.9919,3.4114 18.3125,10.25 4.3203,6.8388 6.4999,16.4913 6.5,28.9063 0,12.3623 -2.1799,21.9427 -6.5,28.7812 -4.3204,6.8389 -10.4293,10.2812 -18.3125,10.2812 -7.8391,0 -13.8983,-3.4423 -18.2187,-10.2812 -4.3204,-6.8385 -6.4999,-16.4189 -6.5,-28.7812 0,-12.4149 2.1798,-22.0675 6.5,-28.9063 4.1852,-6.6249 10.0123,-10.0428 17.5,-10.25 z"
               inkscape:connector-curvature="0" />
            <path
               id="path15061"
               style="font-size:148.699646px;font-style:normal;font-variant:normal;font-weight:bold;font-stretch:normal;text-align:start;line-height:125%;writing-mode:lr-tb;text-anchor:start;fill:#000000;fill-opacity:1;stroke:none;font-family:Bitstream Vera Sans"
               d="m 4005.6293,1325.612 c -13.3076,11.1757 -33.1067,11.0472 -41.3549,11.0472 -16.6133,0 -29.7747,-5.471 -39.4842,-16.413 -9.7097,-10.9946 -14.5644,-25.8819 -14.5644,-44.6622 0,-18.9906 4.9438,-33.9305 14.8316,-44.82 9.8878,-10.8892 23.4277,-16.3339 40.62,-16.334 6.6363,10e-5 12.9831,0.7366 19.0406,2.2094 6.1019,1.473 11.8475,3.6562 17.2368,6.5494 l -6.921,20.4608 c -3.0298,-1.6586 -6.4987,-3.2932 -9.7145,-4.4424 -5.4784,-1.8411 -10.979,-2.7617 -16.5018,-2.7618 -10.2442,10e-5 -18.15,3.3932 -23.7173,10.1792 -5.523,6.7336 -8.2844,16.3867 -8.2844,28.9594 0,12.4676 2.6723,22.0945 8.0172,28.8806 5.3446,6.7861 13.3768,10.1791 22.7818,10.1791 9.5548,0 15.4728,-2.4084 18.6291,-4.9461 l 0,-20.3835 -20.7001,0 0,-20.3584 40.0855,0"
               inkscape:connector-curvature="0" />
            <path
               id="path15063"
               style="font-size:148.699646px;font-style:normal;font-variant:normal;font-weight:bold;font-stretch:normal;text-align:start;line-height:125%;writing-mode:lr-tb;text-anchor:start;fill:#000000;fill-opacity:1;stroke:none;font-family:Bitstream Vera Sans"
               d="m 4023.2108,1216.5605 16.2279,0 51.2775,70.8022 0,-70.8022 21.8853,0 0,117.8103 -16.2279,0 -51.2774,-70.8022 0,70.8022 -21.8854,0 0,-117.8103"
               inkscape:connector-curvature="0" />
            <path
               id="path15065"
               style="font-size:148.699646px;font-style:normal;font-variant:normal;font-weight:bold;font-stretch:normal;text-align:start;line-height:125%;writing-mode:lr-tb;text-anchor:start;fill:#000000;fill-opacity:1;stroke:none;font-family:Bitstream Vera Sans"
               d="m 4246.3361,1216.5605 32.7366,0 22.7151,73.5479 22.8487,-73.5479 27.6698,0 12.5,117.8103 -24.3186,0 -7.5,-73.668 -22.9823,74.0213 -16.3015,0 -22.9824,-76.5213 -7.5,76.168 -24.3854,0 12.5,-117.8103"
               inkscape:connector-curvature="0" />
            <path
               id="path15067"
               style="font-size:148.699646px;font-style:normal;font-variant:normal;font-weight:bold;font-stretch:normal;text-align:start;line-height:125%;writing-mode:lr-tb;text-anchor:start;fill:#000000;fill-opacity:1;stroke:none;font-family:Bitstream Vera Sans"
               d="m 4382.3597,1216.5605 69.4147,0 0,22.9624 -43.6933,0 0,24.4365 33.5877,0 0,20.4623 -33.5877,0 0,26.9868 45.1631,0 0,22.9623 -70.8845,0 0,-117.8103"
               inkscape:connector-curvature="0" />
            <text
               xml:space="preserve"
               id="text15069"
               style="font-size:30.68958855px;font-style:normal;font-weight:normal;fill:#000000;fill-opacity:1;stroke:none;font-family:Bitstream Vera Sans"
               y="1215.743"
               x="4474.6182"><tspan
                 id="tspan15072"
                 style="letter-spacing:11.06259632"
                 y="1215.743"
                 x="4474.6182"><tspan
                   id="tspan15074"
                   style="letter-spacing:0.2523815">TM</tspan></tspan></text>
          </g>
        </g>
      </g>
    </g>
    <path
       style="color:#000000;fill:url(#linearGradient4766-5);fill-opacity:1;fill-rule:nonzero;stroke:none;stroke-width:0.99999994000000003;marker:none;visibility:visible;display:inline;overflow:visible;enable-background:new"
       clip-path="none"
       d="m 507.71875,425.125 -1.8125,1.25 0,2.9375 -9.8125,4.75 3.8125,0 0,8.4375 -1.59375,0 0,6.21875 -3.59375,0 0,14.21875 -16.03125,0 0,2.5 7.21875,0 0,76.84375 -34.46875,0 0,3.15625 -159.125,0 19.5625,-15.65625 -33.21875,8.96875 -13.09375,1.375 3.53125,-11.59375 6.59375,1.375 5.40625,-0.90625 6.65625,-0.34375 5.34375,-9.875 -0.65625,-3.375 2.09375,-6.84375 0.34375,-16.28125 -3.375,-8.15625 1.59375,-4.9375 8.5625,-11.03125 0.96875,-5.71875 7.40625,-5.40625 2.875,-4.6875 -3.75,-3.875 L 306,450.125 l -0.9375,-0.8125 -3.28125,4.4375 -0.40625,6 -3.9375,2.8125 -1.1875,3.09375 -7.53125,8.71875 c 0,0 -3.26376,5.40893 -6.03125,4.75 -2.76749,-0.65893 -6.01912,1.4268 -7.46875,4.0625 -1.44965,2.63571 0.65625,5.28125 0.65625,5.28125 l -9.6875,1.4375 -4.71875,6.28125 -6.875,4.40625 -5.84375,7.96875 -4.375,-0.84375 -2.8125,3.46875 3.34375,0.15625 4.75,1.3125 9.21875,-8.4375 5.03125,-0.78125 c 0,0 3.13609,-3.17393 6.5625,-3.4375 3.42642,-0.26357 8.96875,6.0625 8.96875,6.0625 l 0.78125,3.4375 -13.96875,-5.03125 -5.25,3.4375 0.78125,6.3125 -12.375,-0.25 L 234.375,538.75 c 0,0 -14.22161,2.64268 -16.59375,2.90625 -1.59137,0.17679 2.0019,1.85642 4.5625,2.96875 l -7.71875,0.8125 -219.375,0 0,515.5313 756.125,0 0,-515.5313 -187.375,0 0,-3.15625 -34.4375,0 0,-76.84375 7.1875,0 0,-2.5 -16,0 0,-14.21875 -3.625,0 0,-6.21875 -1.59375,0 0,-8.4375 3.40625,0 -9.40625,-4.3125 0,-3.375 -1.8125,-1.25 z m -7.21875,9.84375 1.8125,0 0,6.625 -1.8125,0 0,-6.625 z m 2.125,0 3.40625,0 0,6.625 -3.40625,0 0,-6.625 z m 3.6875,0 4.40625,0 0,6.625 -4.40625,0 0,-6.625 z m 4.71875,0 2.1875,0 0,6.625 -2.1875,0 0,-6.625 z m 2.5,0 1.40625,0 0,6.625 -1.40625,0 0,-6.625 z m -260.0625,89.875 7.65625,2.5 -2.09375,10.34375 -3.5,1.90625 -0.6875,1.625 -15.90625,1.6875 11.84375,-10.28125 2.6875,-7.78125 z"
       id="rect3101"
       inkscape:connector-curvature="0" />
    <rect
       ry="0"
       rx="0"
       y="-1060.9634"
       x="-4.7624025"
       height="515.52979"
       width="756.13647"
       id="rect3008"
       style="color:#000000;fill:url(#linearGradient4766);fill-opacity:1;fill-rule:nonzero;stroke:none;stroke-width:0.99999994;marker:none;visibility:visible;display:inline;overflow:visible;enable-background:new"
       transform="scale(1,-1)" />
    <text
       xml:space="preserve"
       style="font-size:40px;font-style:normal;font-weight:normal;line-height:125%;letter-spacing:0px;word-spacing:0px;fill:#000000;fill-opacity:1;stroke:none;font-family:Sans"
       x="195.71429"
       y="712.36218"
       id="text4846"
       sodipodi:linespacing="125%"><tspan
         sodipodi:role="line"
         id="tspan4848"
         x="195.71429"
         y="712.36218" /></text>
    <flowRoot
       xml:space="preserve"
       id="flowRoot4850"
       style="font-size:28px;font-style:normal;font-variant:normal;font-weight:bold;font-stretch:normal;text-align:center;line-height:125%;letter-spacing:0px;word-spacing:0px;writing-mode:lr-tb;text-anchor:middle;fill-opacity:1;stroke:none;font-family:Cantarell;-inkscape-font-specification:Cantarell Bold"
       transform="translate(-854.28571,-194)"><flowRegion
         id="flowRegion4852"><rect
           id="rect4854"
           width="451.42859"
           height="327.14288"
           x="138.57143"
           y="620.93359"
           style="font-size:28px;font-style:normal;font-variant:normal;font-weight:bold;font-stretch:normal;text-align:center;line-height:125%;writing-mode:lr-tb;text-anchor:middle;fill-opacity:1;font-family:Cantarell;-inkscape-font-specification:Cantarell Bold" /></flowRegion><flowPara
         id="flowPara4856">The largest get together of GNOME users, developers, foundation leaders, individuals, governments and businesses </flowPara><flowPara
         id="flowPara5366">in the world</flowPara></flowRoot>    <g
       id="g5390"
       transform="translate(0,36.769553)">
      <use
         style="opacity:0.4;fill:#192c69;fill-opacity:1;filter:url(#filter5751)"
         height="1052.3622"
         width="744.09448"
         transform="translate(853.71429,174.71429)"
         id="use5372"
         xlink:href="#flowRoot4850"
         y="0"
         x="0" />
      <use
         style="fill:#ffffff;fill-opacity:1"
         height="1052.3622"
         width="744.09448"
         transform="translate(854.28571,172.85714)"
         id="use5370"
         xlink:href="#flowRoot4850"
         y="0"
         x="0" />
    </g>
    <g
       transform="matrix(0.13556498,0,0,0.13556498,641.18325,930.43258)"
       id="layer1-0">
      <g
         transform="translate(925.8326,120.8762)"
         id="g3963">
        <g
           transform="matrix(2.914897,0,0,2.914897,-717.5904,128.5015)"
           style="fill:#000000;fill-opacity:1;fill-rule:nonzero;stroke:none"
           id="g3771">
          <g
             style="fill:#000000;fill-opacity:1"
             id="g3773">
            <path
               inkscape:connector-curvature="0"
               d="M 86.068,0 C 61.466,0 56.851,35.041 70.691,35.041 84.529,35.041 110.671,0 86.068,0 z"
               style="fill:#000000;fill-opacity:1"
               id="path3775" />
            <path
               inkscape:connector-curvature="0"
               d="M 45.217,30.699 C 52.586,31.149 60.671,2.577 46.821,4.374 32.976,6.171 37.845,30.249 45.217,30.699 z"
               style="fill:#000000;fill-opacity:1"
               id="path3777" />
            <path
               inkscape:connector-curvature="0"
               d="M 11.445,48.453 C 16.686,46.146 12.12,23.581 3.208,29.735 -5.7,35.89 6.204,50.759 11.445,48.453 z"
               style="fill:#000000;fill-opacity:1"
               id="path3779" />
            <path
               inkscape:connector-curvature="0"
               d="M 26.212,36.642 C 32.451,35.37 32.793,9.778 21.667,14.369 10.539,18.961 19.978,37.916 26.212,36.642 l 0,0 z"
               style="fill:#000000;fill-opacity:1"
               id="path3781" />
            <path
               inkscape:connector-curvature="0"
               d="m 58.791,93.913 c 1.107,8.454 -6.202,12.629 -13.36,7.179 C 22.644,83.743 83.16,75.088 79.171,51.386 75.86,31.712 15.495,37.769 8.621,68.553 3.968,89.374 27.774,118.26 52.614,118.26 c 12.22,0 26.315,-11.034 28.952,-25.012 C 83.58,82.589 57.867,86.86 58.791,93.913 l 0,0 z"
               style="fill:#000000;fill-opacity:1"
               id="path3783" />
          </g>
        </g>
        <g
           transform="matrix(1.098291,0,0,1.098291,41.06056,-50.07504)"
           id="g3956">
          <path
             inkscape:connector-curvature="0"
             d="m -565.99523,509.46063 c -8.08731,0.21792 -14.47394,3.12448 -19.17071,8.69866 -4.86385,5.80101 -7.31024,13.81651 -7.31024,24.03862 0,10.19394 2.44651,18.18745 7.31024,23.98846 4.88761,5.801 11.59815,8.69866 20.15764,8.69866 8.5831,0 15.3105,-2.89766 20.17436,-8.69866 4.86373,-5.80101 7.29358,-13.79452 7.29353,-23.98846 -5e-5,-10.22211 -2.4298,-18.23761 -7.29353,-24.03862 -4.86386,-5.80075 -11.59131,-8.69866 -20.17436,-8.69866 -0.33434,0 -0.6582,-0.009 -0.98693,0 z m 0.60221,11.77669 c 0.12927,-0.003 0.25357,0 0.38472,0 4.21998,0 7.48996,1.8261 9.8028,5.48697 2.31266,3.66086 3.47944,8.82788 3.47949,15.47362 0,6.61757 -1.16692,11.74604 -3.47949,15.40691 -2.31274,3.66086 -5.58286,5.50352 -9.8028,5.50352 -4.19632,0 -7.43983,-1.84266 -9.75257,-5.50352 -2.31274,-3.66087 -3.47944,-8.78934 -3.47949,-15.40691 0,-6.64574 1.16684,-11.81276 3.47949,-15.47362 2.24035,-3.54647 5.35963,-5.37604 9.36785,-5.48697 z"
             style="font-size:148.699646px;font-style:normal;font-variant:normal;font-weight:bold;font-stretch:normal;text-align:start;line-height:125%;writing-mode:lr-tb;text-anchor:start;fill:#000000;fill-opacity:1;stroke:none;font-family:Bitstream Vera Sans"
             id="path3787" />
          <path
             inkscape:connector-curvature="0"
             d="m -657.35432,568.97161 c -7.12362,5.98235 -17.72219,5.91366 -22.13752,5.91366 -8.8932,0 -15.93855,-2.92879 -21.13613,-8.78612 -5.19765,-5.88525 -7.7964,-13.85456 -7.7964,-23.90791 0,-10.16578 2.64646,-18.16325 7.93945,-23.99241 5.293,-5.82892 12.54098,-8.74363 21.74413,-8.74363 3.55245,0 6.94991,0.39433 10.19254,1.18273 3.26638,0.78841 6.34203,1.95706 9.22697,3.50595 l -3.70487,10.9527 c -1.62185,-0.88773 -3.4788,-1.76286 -5.20022,-2.37807 -2.93262,-0.98557 -5.87712,-1.47823 -8.83351,-1.47823 -5.48379,0 -9.71581,1.81623 -12.69601,5.44892 -2.95649,3.60454 -4.4347,8.7718 -4.4347,15.50204 0,6.67415 1.4305,11.82733 4.29167,15.46003 2.86099,3.6327 7.16068,5.44892 12.19522,5.44892 5.11476,0 8.28269,-1.28922 9.97226,-2.64762 l 0,-10.91144 -11.08087,0 0,-10.89809 21.45799,0"
             style="font-size:148.699646px;font-style:normal;font-variant:normal;font-weight:bold;font-stretch:normal;text-align:start;line-height:125%;writing-mode:lr-tb;text-anchor:start;fill:#000000;fill-opacity:1;stroke:none;font-family:Bitstream Vera Sans"
             id="path3789" />
          <path
             inkscape:connector-curvature="0"
             d="m -528.50252,510.59568 17.5241,0 12.15952,39.37066 12.23105,-39.37066 14.81181,0 6.69132,63.06461 -13.01787,0 -4.0148,-39.4349 -12.30257,39.62391 -8.72628,0 -12.30263,-40.9623 -4.01479,40.77329 -13.05365,0 6.69132,-63.06461"
             style="font-size:148.699646px;font-style:normal;font-variant:normal;font-weight:bold;font-stretch:normal;text-align:start;line-height:125%;writing-mode:lr-tb;text-anchor:start;fill:#000000;fill-opacity:1;stroke:none;font-family:Bitstream Vera Sans"
             id="path3793" />
          <path
             inkscape:connector-curvature="0"
             d="m -455.68828,510.59568 37.15811,0 0,12.29183 -23.38928,0 0,13.08097 17.97969,0 0,10.95369 -17.97969,0 0,14.44629 24.17608,0 0,12.29183 -37.94491,0 0,-63.06461"
             style="font-size:148.699646px;font-style:normal;font-variant:normal;font-weight:bold;font-stretch:normal;text-align:start;line-height:125%;writing-mode:lr-tb;text-anchor:start;fill:#000000;fill-opacity:1;stroke:none;font-family:Bitstream Vera Sans"
             id="path3795" />
          <path
             inkscape:connector-curvature="0"
             d="m -647.94283,510.59568 8.6869,0 27.44915,37.90083 0,-37.90083 11.71533,0 0,63.06461 -8.6869,0 -27.4491,-37.90083 0,37.90083 -11.71538,0 0,-63.06461"
             style="font-size:148.699646px;font-style:normal;font-variant:normal;font-weight:bold;font-stretch:normal;text-align:start;line-height:125%;writing-mode:lr-tb;text-anchor:start;fill:#000000;fill-opacity:1;stroke:none;font-family:Bitstream Vera Sans"
             id="path3791" />
        </g>
        <text
           x="-406.52405"
           y="527.92285"
           style="font-size:25.88836098px;font-style:normal;font-weight:normal;fill:#000000;fill-opacity:1;stroke:none;font-family:Bitstream Vera Sans"
           id="text3797"
           xml:space="preserve"><tspan
             x="-406.52405"
             y="527.92285"
             style="letter-spacing:9.33191109"
             id="tspan3799"><tspan
               style="letter-spacing:0.21289776"
               id="tspan3801">TM</tspan></tspan></text>
      </g>
    </g>
    <g
       style="font-size:85.01324463px;font-style:normal;font-variant:normal;font-weight:normal;font-stretch:normal;text-align:start;line-height:125%;letter-spacing:0px;word-spacing:0px;writing-mode:lr-tb;text-anchor:start;fill:#000000;fill-opacity:1;stroke:none;font-family:Gill Sans ExtraBoldDisplay;-inkscape-font-specification:Gill Sans ExtraBoldDisplay"
       id="text5755">
      <path
         d="m 244.89163,166.61867 0,14.87732 c -5.27087,-3.28714 -10.59837,-4.93072 -15.98249,-4.93077 -5.55424,5e-5 -9.91824,1.6153 -13.09204,4.84576 -2.94715,3.00383 -4.42071,6.82943 -4.42069,11.47678 -2e-5,3.74061 0.9918,6.99945 2.97546,9.77653 2.7204,3.91062 7.02773,5.86592 12.92202,5.86591 0.73674,1e-5 1.61521,-0.0567 2.63541,-0.17003 l 0,-6.80106 -6.03594,0 0,-12.58196 21.93341,0 0,31.62493 c -6.3477,1.64359 -13.74385,2.46538 -22.18845,2.46539 -12.01523,-10e-6 -20.96995,-3.57056 -26.86419,-10.71167 -4.36402,-5.32748 -6.54602,-11.6468 -6.54602,-18.95796 0,-10.7683 4.42068,-19.09959 13.26207,-24.99389 5.66753,-3.7972 13.007,-5.69583 22.01843,-5.69589 6.91436,6e-5 13.37536,1.3036 19.38302,3.91061"
         style="line-height:125%;letter-spacing:-6.07060289;font-family:Gill Sans ExtraBoldDisplay;-inkscape-font-specification:Gill Sans ExtraBoldDisplay"
         id="path5800" />
      <path
         d="m 291.12808,163.47318 20.91326,0 0,29.32957 c -7e-5,9.46483 -2.29542,16.60593 -6.88607,21.42334 -5.61093,5.89425 -13.88555,8.84137 -24.82387,8.84138 -10.54167,-10e-6 -18.70293,-2.94713 -24.48382,-8.84138 -4.59072,-4.64738 -6.88607,-11.78849 -6.88607,-21.42334 l 0,-29.32957 20.91326,0 0,25.58899 c -3e-5,5.95095 0.3967,10.03158 1.19018,12.2419 1.47354,3.96731 4.61903,5.95095 9.43647,5.95093 4.70403,2e-5 7.82118,-2.06864 9.35146,-6.20596 0.85009,-2.32368 1.27515,-6.31929 1.2752,-11.98687 l 0,-25.58899"
         style="line-height:125%;letter-spacing:-6.07060289;font-family:Gill Sans ExtraBoldDisplay;-inkscape-font-specification:Gill Sans ExtraBoldDisplay"
         id="path5802" />
      <path
         d="m 356.72099,222.38736 -3.31552,-9.09642 -21.8484,0 -3.48555,9.09642 -21.42334,0 24.90889,-58.91418 21.8484,0 24.82387,58.91418 -21.50835,0 m -14.19722,-39.53116 -6.63103,18.19284 13.09204,0 -6.46101,-18.19284"
         style="line-height:125%;letter-spacing:-6.07060289;font-family:Gill Sans ExtraBoldDisplay;-inkscape-font-specification:Gill Sans ExtraBoldDisplay"
         id="path5804" />
      <path
         d="m 377.72046,222.38736 0,-58.91418 25.33394,0 c 10.88166,6e-5 19.29796,2.74882 25.24894,8.24629 6.12089,5.66759 9.18136,12.92205 9.18143,21.76339 -7e-5,5.55422 -1.36028,10.74002 -4.08064,15.55742 -2.89051,4.98745 -6.74444,8.558 -11.5618,10.71167 -2.77715,1.24686 -6.09266,2.04032 -9.94655,2.38037 -1.98368,0.17003 -5.41254,0.25504 -10.2866,0.25504 l -23.88872,0 m 20.91325,-44.80198 0,30.51975 2.89045,0 c 5.15744,2e-5 8.84134,-1.13349 11.05173,-3.40053 2.6637,-2.77707 3.99558,-6.631 3.99562,-11.5618 -4e-5,-5.15743 -1.38859,-9.15305 -4.16565,-11.98686 -2.32373,-2.38033 -6.14932,-3.57052 -11.47679,-3.57056 l -2.29536,0"
         style="line-height:125%;letter-spacing:-6.07060289;font-family:Gill Sans ExtraBoldDisplay;-inkscape-font-specification:Gill Sans ExtraBoldDisplay"
         id="path5806" />
      <path
         d="m 481.83631,209.12529 0,13.26207 -43.27174,0 0,-58.91418 42.84668,0 0,13.26207 -21.93342,0 0,9.18143 20.65822,0 0,13.26206 -20.65822,0 0,9.94655 22.35848,0"
         style="line-height:125%;letter-spacing:-6.07060289;font-family:Gill Sans ExtraBoldDisplay;-inkscape-font-specification:Gill Sans ExtraBoldDisplay"
         id="path5808" />
      <path
         d="m 532.62229,202.15421 0,16.0675 c -3.45725,1.64359 -6.29102,2.7771 -8.50132,3.40053 -3.45725,0.96348 -7.33952,1.44522 -11.64682,1.44523 -10.08826,-10e-6 -18.13617,-3.11715 -24.14376,-9.35146 -5.44085,-5.61086 -8.16127,-12.44025 -8.16127,-20.48819 0,-7.42446 2.26702,-13.94213 6.80106,-19.55305 5.89424,-7.31108 14.53724,-10.96665 25.92904,-10.96671 6.80102,6e-5 13.20534,1.3036 19.21299,3.91061 l 0,17.59774 c -5.44089,-3.85389 -10.79672,-5.78085 -16.0675,-5.7809 -5.32753,5e-5 -9.32315,1.75698 -11.98687,5.27082 -1.98366,2.60711 -2.97548,5.61091 -2.97546,9.01141 -2e-5,4.19401 1.47354,7.65121 4.42069,10.37161 2.94709,2.72044 6.80102,4.08065 11.5618,4.08064 5.04407,10e-6 10.22988,-1.67191 15.55742,-5.01578"
         style="line-height:125%;letter-spacing:-6.07060289;font-family:Gill Sans ExtraBoldDisplay;-inkscape-font-specification:Gill Sans ExtraBoldDisplay"
         id="path5810" />
    </g>
    <text
       sodipodi:linespacing="125%"
       id="text5791"
       y="282.31531"
       x="825.17316"
       style="font-size:60.6051178px;font-style:normal;font-variant:normal;font-weight:normal;font-stretch:normal;text-align:start;line-height:125%;letter-spacing:0px;word-spacing:0px;writing-mode:lr-tb;text-anchor:start;fill:#555753;fill-opacity:1;stroke:none;font-family:Lobster;-inkscape-font-specification:Lobster"
       xml:space="preserve"><tspan
         y="282.31531"
         x="825.17316"
         id="tspan5793"
         sodipodi:role="line">Corua, Spain</tspan></text>
    <text
       xml:space="preserve"
       style="font-size:85.01324463px;font-style:normal;font-variant:normal;font-weight:normal;font-stretch:normal;text-align:start;line-height:125%;letter-spacing:0px;word-spacing:0px;writing-mode:lr-tb;text-anchor:start;fill:#000000;fill-opacity:1;stroke:none;font-family:Gill Sans ExtraBoldDisplay;-inkscape-font-specification:Gill Sans ExtraBoldDisplay"
       x="819.84839"
       y="222.38736"
       id="text5795"
       sodipodi:linespacing="125%"><tspan
         sodipodi:role="line"
         id="tspan5797"
         x="819.84839"
         y="222.38736"
         style="font-size:85.01324463px;font-style:normal;font-variant:normal;font-weight:normal;font-stretch:normal;text-align:start;line-height:125%;letter-spacing:-6.07060289;writing-mode:lr-tb;text-anchor:start;font-family:Gill Sans ExtraBoldDisplay;-inkscape-font-specification:Gill Sans ExtraBoldDisplay">GUADEC</tspan></text>
    <text
       xml:space="preserve"
       style="font-size:40px;font-style:normal;font-weight:normal;line-height:125%;letter-spacing:0px;word-spacing:0px;fill:#000000;fill-opacity:1;stroke:none;font-family:Sans"
       x="319.67496"
       y="505.94104"
       id="text5838"
       sodipodi:linespacing="125%"><tspan
         sodipodi:role="line"
         id="tspan5840"
         x="319.67496"
         y="505.94104">EEEK</tspan></text>
  </g>
</svg>
