<?xml version="1.0" encoding="UTF-8" standalone="no"?>
<!-- Created with Inkscape (http://www.inkscape.org/) -->

<svg
   xmlns:dc="http://purl.org/dc/elements/1.1/"
   xmlns:cc="http://creativecommons.org/ns#"
   xmlns:rdf="http://www.w3.org/1999/02/22-rdf-syntax-ns#"
   xmlns:svg="http://www.w3.org/2000/svg"
   xmlns="http://www.w3.org/2000/svg"
   xmlns:xlink="http://www.w3.org/1999/xlink"
   xmlns:sodipodi="http://sodipodi.sourceforge.net/DTD/sodipodi-0.dtd"
   xmlns:inkscape="http://www.inkscape.org/namespaces/inkscape"
   width="125"
   height="125"
   id="svg19724"
   version="1.1"
   inkscape:version="0.48.4 r9939"
   sodipodi:docname="banner-125.svg"
   inkscape:export-filename="/home/andreasn/SparkleShare/gnome-web/guadec/2013/Brno/banner-125.png"
   inkscape:export-xdpi="90"
   inkscape:export-ydpi="90">
  <defs
     id="defs19726">
    <linearGradient
       inkscape:collect="always"
       id="linearGradient3778-0">
      <stop
         style="stop-color:#688c9d;stop-opacity:1"
         offset="0"
         id="stop3780-4" />
      <stop
         style="stop-color:#93adb9;stop-opacity:1"
         offset="1"
         id="stop3782-9" />
    </linearGradient>
    <linearGradient
       y2="299.80432"
       x2="512.5"
       y1="610.86218"
       x1="512.5"
       gradientTransform="matrix(1.6581939,0,0,1.4687459,-220.53981,-939.06051)"
       gradientUnits="userSpaceOnUse"
       id="linearGradient19808"
       xlink:href="#linearGradient3778-0"
       inkscape:collect="always" />
    <linearGradient
       inkscape:collect="always"
       xlink:href="#linearGradient3778-0"
       id="linearGradient20336"
       gradientUnits="userSpaceOnUse"
       gradientTransform="matrix(2.0147946,0,0,1.7846051,-298.13062,-1046.1306)"
       x1="176.42822"
       y1="1112.6799"
       x2="176.42822"
       y2="1165.1056" />
    <linearGradient
       inkscape:collect="always"
       xlink:href="#linearGradient3778-0"
       id="linearGradient20370"
       gradientUnits="userSpaceOnUse"
       gradientTransform="matrix(2.0147946,0,0,1.7846051,-298.13062,-1971.4928)"
       x1="176.42822"
       y1="1112.6799"
       x2="176.42822"
       y2="1165.1056" />
    <inkscape:path-effect
       effect="spiro"
       id="path-effect4866"
       is_visible="true" />
    <inkscape:path-effect
       effect="spiro"
       id="path-effect4870"
       is_visible="true" />
    <inkscape:path-effect
       effect="spiro"
       id="path-effect4874"
       is_visible="true" />
    <filter
       inkscape:collect="always"
       id="filter20439">
      <feGaussianBlur
         inkscape:collect="always"
         stdDeviation="0.90763052"
         id="feGaussianBlur20441" />
    </filter>
    <filter
       inkscape:collect="always"
       id="filter20451">
      <feGaussianBlur
         inkscape:collect="always"
         stdDeviation="2.2690763"
         id="feGaussianBlur20453" />
    </filter>
    <inkscape:path-effect
       effect="spiro"
       id="path-effect6209-1-3-3-0-7-0"
       is_visible="true" />
  </defs>
  <sodipodi:namedview
     id="base"
     pagecolor="#ffffff"
     bordercolor="#666666"
     borderopacity="1.0"
     inkscape:pageopacity="0.0"
     inkscape:pageshadow="2"
     inkscape:zoom="2"
     inkscape:cx="102.55797"
     inkscape:cy="79.692827"
     inkscape:document-units="px"
     inkscape:current-layer="layer1"
     showgrid="false"
     borderlayer="true"
     inkscape:showpageshadow="false"
     inkscape:window-width="1920"
     inkscape:window-height="1021"
     inkscape:window-x="0"
     inkscape:window-y="27"
     inkscape:window-maximized="1" />
  <metadata
     id="metadata19729">
    <rdf:RDF>
      <cc:Work
         rdf:about="">
        <dc:format>image/svg+xml</dc:format>
        <dc:type
           rdf:resource="http://purl.org/dc/dcmitype/StillImage" />
        <dc:title></dc:title>
      </cc:Work>
    </rdf:RDF>
  </metadata>
  <g
     inkscape:label="Layer 1"
     inkscape:groupmode="layer"
     id="layer1"
     transform="translate(0,-927.36218)">
    <path
       transform="translate(0,2)"
       d="m 62.5,941.375 c -25.681241,0 -46.5,20.81876 -46.5,46.5 0,25.6812 20.818759,46.5 46.5,46.5 25.681241,0 46.5,-20.8188 46.5,-46.5 0,-25.68124 -20.818759,-46.5 -46.5,-46.5 z"
       inkscape:href="#path19779"
       id="path20421"
       style="color:#000000;fill:#000000;fill-opacity:1;fill-rule:nonzero;stroke:#000000;stroke-width:5;stroke-miterlimit:4;stroke-opacity:1;stroke-dasharray:none;marker:none;visibility:visible;display:inline;overflow:visible;enable-background:new;opacity:0.56326531;filter:url(#filter20451)"
       xlink:href="#path19779"
       inkscape:original="M 62.5 931.375 C 31.295913 931.375 6 956.67091 6 987.875 C 6 1019.079 31.295913 1044.375 62.5 1044.375 C 93.704087 1044.375 119 1019.079 119 987.875 C 119 956.67091 93.704087 931.375 62.5 931.375 z "
       inkscape:radius="0"
       sodipodi:type="inkscape:offset" />
    <path
       sodipodi:type="inkscape:offset"
       inkscape:radius="0"
       inkscape:original="M 62.5 931.375 C 31.295913 931.375 6 956.67091 6 987.875 C 6 1019.079 31.295913 1044.375 62.5 1044.375 C 93.704087 1044.375 119 1019.079 119 987.875 C 119 956.67091 93.704087 931.375 62.5 931.375 z "
       xlink:href="#path19779"
       style="opacity:0.60816327;color:#000000;fill:#000000;fill-opacity:1;fill-rule:nonzero;stroke:#000000;stroke-width:5;stroke-miterlimit:4;stroke-opacity:1;stroke-dasharray:none;marker:none;visibility:visible;display:inline;overflow:visible;filter:url(#filter20439);enable-background:new"
       id="path20334"
       inkscape:href="#path19779"
       d="m 62.5,931.375 c -31.204087,0 -56.5,25.29591 -56.5,56.5 0,31.204 25.295913,56.5 56.5,56.5 31.204087,0 56.5,-25.296 56.5,-56.5 0,-31.20409 -25.295913,-56.5 -56.5,-56.5 z"
       transform="translate(0,1)" />
    <path
       style="color:#000000;fill:url(#linearGradient20336);fill-opacity:1;fill-rule:nonzero;stroke:#ffffff;stroke-width:5;stroke-miterlimit:4;stroke-opacity:1;stroke-dasharray:none;marker:none;visibility:visible;display:inline;overflow:visible;enable-background:new"
       d="m 119,987.86216 c 0,31.20404 -25.295914,56.50004 -56.500001,56.50004 -31.204087,0 -56.4999968,-25.296 -56.4999968,-56.50004 0,-31.20409 25.2959098,-56.5 56.4999968,-56.5 31.204087,0 56.500001,25.29591 56.500001,56.5 z"
       id="path19779"
       inkscape:connector-curvature="0" />
    <text
       xml:space="preserve"
       style="font-size:9.87733173px;font-style:normal;font-variant:normal;font-weight:bold;font-stretch:normal;text-align:center;line-height:125%;letter-spacing:0px;word-spacing:0px;writing-mode:lr-tb;text-anchor:middle;fill:#ffffff;fill-opacity:1;stroke:none;font-family:Cantarell;-inkscape-font-specification:Cantarell Bold"
       x="62.296597"
       y="950.90222"
       id="text20415"
       sodipodi:linespacing="125%"><tspan
         sodipodi:role="line"
         id="tspan20417"
         x="63.647011"
         y="950.90222">I am </tspan><tspan
         sodipodi:role="line"
         x="62.296597"
         y="963.2489"
         id="tspan20419">attending</tspan></text>
    <path
       sodipodi:type="arc"
       style="color:#000000;fill:#ffffff;fill-opacity:1;fill-rule:nonzero;stroke:none;stroke-width:1;marker:none;visibility:visible;display:inline;overflow:visible;enable-background:accumulate"
       id="path7675-5-4-0-2"
       sodipodi:cx="217.5"
       sodipodi:cy="350.59448"
       sodipodi:rx="53.5"
       sodipodi:ry="53.5"
       d="m 271,350.59448 a 53.5,53.5 0 1 1 -107,0 53.5,53.5 0 1 1 107,0 z"
       transform="matrix(4.1129572,0,0,4.1129572,-491.06819,-750.25573)"
       inkscape:export-filename="/home/andreasn/SparkleShare/gnome-marketing/t-shirts/guadec-2013.png"
       inkscape:export-xdpi="45"
       inkscape:export-ydpi="45" />
    <path
       style="fill:#ffffff;fill-opacity:1;stroke:none"
       d="m 26.303465,1032.1163 0,-4.045 1.53312,-1.8084 4.95314,0 3.3021,-3.875 1.29723,0 0.82553,-7.6467 0.82551,7.6467 1.53313,0 1.82793,-2.1701 0,-6.0448 0.88449,-1.6018 0.64861,-9.4033 0.64863,9.4033 0.82553,1.6018 0,5.5282 0.56615,0.8009 0.47173,0 0.43627,-0.8009 0,-5.5282 1.07293,-1.6018 0.69603,-9.5068 0.69603,9.5068 1.13192,1.6018 0,6.3291 1.17933,0 1.65104,-3.5908 1.88689,7.8532 8.84489,0.1043 6.13244,-2.4801 1.59208,-3.8233 0,-2.3767 1.59206,-1.9633 1.76897,0.1043 0,-2.17 0.70762,-1.86 0.8255,1.6533 -0.11786,2.0667 12.26485,0 1.17933,5.1665 6.19141,3.7201 0,4.3401 3.47903,3.6167 0,1.5219 -16.420637,8.475 -20.920443,4.3343 -18.450965,-3.3418 -17.561545,-9.7362"
       id="path6207-4-2-4-7"
       inkscape:path-effect="#path-effect6209-1-3-3-0-7-0"
       inkscape:original-d="m 26.303465,1032.1163 0,-4.045 1.53312,-1.8084 4.95314,0 3.3021,-3.875 1.29723,0 0.82553,-7.6467 0.82551,7.6467 1.53313,0 1.82793,-2.1701 0,-6.0448 0.88449,-1.6018 0.64861,-9.4033 0.64863,9.4033 0.82553,1.6018 0,5.5282 0.56615,0.8009 0.47173,0 0.43627,-0.8009 0,-5.5282 1.07293,-1.6018 0.69603,-9.5068 0.69603,9.5068 1.13192,1.6018 0,6.3291 1.17933,0 1.65104,-3.5908 1.88689,7.8532 8.84489,0.1043 6.13244,-2.4801 1.59208,-3.8233 0,-2.3767 1.59206,-1.9633 1.76897,0.1043 0,-2.17 0.70762,-1.86 0.8255,1.6533 -0.11786,2.0667 12.26485,0 1.17933,5.1665 6.19141,3.7201 0,4.3401 3.47903,3.6167 0,1.5219 -16.420637,8.475 -20.920443,4.3343 -18.450965,-3.3418 z"
       inkscape:connector-curvature="0"
       sodipodi:nodetypes="cccccccccccccccccccccccccccccccccccccccccccccccc"
       inkscape:export-filename="/home/andreasn/SparkleShare/gnome-marketing/t-shirts/guadec-2013.png"
       inkscape:export-xdpi="45"
       inkscape:export-ydpi="45" />
    <g
       transform="matrix(0.29645148,0,0,0.29645148,-31.627581,904.84522)"
       style="font-size:79.21905518px;font-style:normal;font-variant:normal;font-weight:bold;font-stretch:normal;text-align:start;line-height:125%;letter-spacing:0px;word-spacing:0px;writing-mode:lr-tb;text-anchor:start;fill:#ffffff;fill-opacity:1;stroke:none;font-family:Cantarell;-inkscape-font-specification:Cantarell Bold"
       id="text3000-5-5-2-3-0"
       inkscape:export-filename="/home/andreasn/SparkleShare/gnome-marketing/t-shirts/guadec-2013.png"
       inkscape:export-xdpi="45"
       inkscape:export-ydpi="45">
      <path
         inkscape:connector-curvature="0"
         d="m 209.42126,269.34144 0,-22.57744 -25.03322,0 0,8.55566 15.44771,0 0,10.53614 c -2.37657,1.90125 -5.86221,3.24798 -10.45691,3.24798 -11.88285,0 -20.43852,-8.15958 -20.43852,-19.56711 0,-11.72441 9.34786,-18.61648 19.17101,-18.61648 5.54533,0 10.85301,1.98048 13.86334,3.56486 l 1.42594,0.79219 4.04017,-7.68425 -1.34672,-0.79219 c -4.67392,-2.61422 -11.01146,-4.83236 -18.37882,-4.83236 -18.45803,0 -28.59808,13.54647 -28.59808,27.96433 0,13.54644 9.03099,28.20198 28.75651,28.20198 13.22957,0 19.48789,-6.57518 21.54759,-8.79331"
         style="fill:#ffffff;fill-opacity:1"
         id="path6549-6-1-2-3-3" />
      <path
         inkscape:connector-curvature="0"
         d="m 243.8704,278.13475 c 21.54757,0 22.49822,-13.94256 22.49822,-20.59695 0,-3.56486 -0.0792,-4e-5 -0.0792,-35.17326 l -9.66473,0 0,34.85638 c 0,1.6636 -0.15844,3.24798 -0.55453,4.67392 -1.18829,4.75314 -5.70378,7.36738 -12.19974,7.36738 -6.33751,0 -9.34785,-2.53501 -10.29847,-3.56486 -2.21813,-2.37657 -2.45579,-5.14924 -2.45579,-8.47644 l 0,-34.85638 -9.74395,0 0,35.72779 0,0.47531 c 0,6.09986 0.3169,19.56711 22.49821,19.56711"
         style="fill:#ffffff;fill-opacity:1"
         id="path6551-0-5-4-9-7" />
      <path
         inkscape:connector-curvature="0"
         d="m 294.8491,222.36454 -20.51773,54.97802 9.50628,0 5.46612,-14.41787 20.20086,0 5.54533,14.41787 10.06082,0 -20.59695,-54.97802 -9.66473,0 m 11.56598,31.68762 -14.02177,0 7.0505,-20.43852 6.97127,20.43852"
         style="fill:#ffffff;fill-opacity:1"
         id="path6553-16-5-6-8-9" />
      <path
         inkscape:connector-curvature="0"
         d="m 351.77913,231.31629 c 1.6636,0 3.24798,0.0792 4.75315,0.31687 6.57517,1.02985 14.33864,6.1791 14.33864,17.90351 0,5.14923 -1.42594,8.47644 -2.37657,10.29848 -4.51548,8.31799 -13.3088,8.55566 -19.32945,8.55566 l -6.33752,0 0,-37.07452 8.95175,0 m -0.23766,-8.95175 -18.45803,0 0,54.97802 13.70489,0 c 4.5947,0 9.42707,0 14.10099,-1.18829 15.28927,-3.64407 19.72555,-16.71523 19.72555,-27.8851 0,-12.12051 -6.33755,-25.90463 -29.0734,-25.90463"
         style="fill:#ffffff;fill-opacity:1"
         id="path6555-2-6-4-0-7" />
      <path
         inkscape:connector-curvature="0"
         d="m 390.95049,277.34256 36.51998,0 0,-8.95175 -26.77604,0 0,-14.89319 24.71634,0 0,-8.95175 -24.71634,0 0,-13.22958 26.77604,0 0,-8.95175 -36.51998,0 0,54.97802"
         style="fill:#ffffff;fill-opacity:1"
         id="path6557-6-3-1-9-4" />
      <path
         inkscape:connector-curvature="0"
         d="m 463.67977,221.96844 c -17.82427,0 -29.15261,12.12053 -29.15261,27.96433 0,15.60613 10.85303,28.20198 28.6773,28.20198 5.07001,0 11.01145,-1.18829 16.79444,-3.64408 l 1.42594,-0.55453 -3.16876,-7.76347 -1.42594,0.47532 c -4.27783,1.50516 -8.39723,2.29735 -11.88286,2.29735 -12.83348,0 -20.59696,-8.87254 -20.59696,-19.09179 0,-9.90237 7.20895,-18.85414 19.17101,-18.85414 2.45579,0 6.49597,0.31688 12.59583,2.45579 l 1.50517,0.55454 3.01032,-8.39722 -1.42594,-0.55454 c -5.78299,-2.29735 -11.24911,-3.08954 -15.52694,-3.08954"
         style="fill:#ffffff;fill-opacity:1"
         id="path6559-6-5-4-4-2" />
    </g>
    <text
       xml:space="preserve"
       style="font-size:6.53027344px;font-style:normal;font-variant:normal;font-weight:normal;font-stretch:normal;text-align:start;line-height:125%;letter-spacing:0px;word-spacing:0px;writing-mode:lr-tb;text-anchor:start;fill:#ffffff;fill-opacity:1;stroke:none;font-family:Lobster;-inkscape-font-specification:Lobster"
       x="16.58173"
       y="996.13184"
       id="text3004-77-3-0-2-9"
       sodipodi:linespacing="125%"
       inkscape:export-filename="/home/andreasn/SparkleShare/gnome-marketing/t-shirts/guadec-2013.png"
       inkscape:export-xdpi="45"
       inkscape:export-ydpi="45"><tspan
         sodipodi:role="line"
         id="tspan3006-2-0-3-7-7"
         x="16.58173"
         y="996.13184"
         style="letter-spacing:0.68703598px;fill:#ffffff;fill-opacity:1">BRNO  CZECH REPUBLIC</tspan></text>
  </g>
</svg>
