<?xml version="1.0" encoding="UTF-8" standalone="no"?>
<!-- Created with Inkscape (http://www.inkscape.org/) -->

<svg
   xmlns:dc="http://purl.org/dc/elements/1.1/"
   xmlns:cc="http://creativecommons.org/ns#"
   xmlns:rdf="http://www.w3.org/1999/02/22-rdf-syntax-ns#"
   xmlns:svg="http://www.w3.org/2000/svg"
   xmlns="http://www.w3.org/2000/svg"
   xmlns:sodipodi="http://sodipodi.sourceforge.net/DTD/sodipodi-0.dtd"
   xmlns:inkscape="http://www.inkscape.org/namespaces/inkscape"
   width="800px"
   height="600px"
   id="svg6573"
   version="1.1"
   inkscape:version="0.48.4 r9939"
   sodipodi:docname="New document 2">
  <defs
     id="defs6575">
    <inkscape:path-effect
       effect="spiro"
       id="path-effect6209-1-3-5-3-4"
       is_visible="true" />
  </defs>
  <sodipodi:namedview
     id="base"
     pagecolor="#ffffff"
     bordercolor="#666666"
     borderopacity="1.0"
     inkscape:pageopacity="0.0"
     inkscape:pageshadow="2"
     inkscape:zoom="0.84852814"
     inkscape:cx="333.47151"
     inkscape:cy="102.72105"
     inkscape:current-layer="layer1"
     inkscape:document-units="px"
     showgrid="false"
     inkscape:window-width="1600"
     inkscape:window-height="841"
     inkscape:window-x="0"
     inkscape:window-y="27"
     inkscape:window-maximized="1" />
  <metadata
     id="metadata6578">
    <rdf:RDF>
      <cc:Work
         rdf:about="">
        <dc:format>image/svg+xml</dc:format>
        <dc:type
           rdf:resource="http://purl.org/dc/dcmitype/StillImage" />
        <dc:title></dc:title>
      </cc:Work>
    </rdf:RDF>
  </metadata>
  <g
     id="layer1"
     inkscape:label="Layer 1"
     inkscape:groupmode="layer">
    <path
       style="fill:#6b8e9f;fill-opacity:1;stroke:none"
       d="m 533.65625,367.03125 -2.375,32.5625 -3.6875,5.5 0,18.9375 -1.5,2.75 -1.59375,0 -1.96875,-2.75 0,-18.9375 -2.8125,-5.5 L 517.5,367.375 l -2.21875,32.21875 -3.03125,5.5 0,20.71875 -6.28125,7.4375 -5.25,0 -2.84375,-26.21875 -2.8125,26.21875 -4.4375,0 -11.34375,13.28125 -16.96875,0 -5.25,6.1875 0,5.21875 -58.90625,0 0,-5.09375 c 1.41587,-0.39239 2.4375,-1.70921 2.4375,-3.25 0,-1.85163 -1.49212,-3.34375 -3.34375,-3.34375 -1.85163,0 -3.34375,1.49212 -3.34375,3.34375 0,1.58564 1.08345,2.93227 2.5625,3.28125 l 0,5.0625 -8.9375,0 0,-5.09375 c 1.41587,-0.39239 2.4375,-1.70921 2.4375,-3.25 0,-1.85163 -1.49212,-3.34375 -3.34375,-3.34375 -1.85163,0 -3.34375,1.49212 -3.34375,3.34375 0,1.58711 1.11262,2.93377 2.59375,3.28125 l 0,5.0625 -8.96875,0 0,-5.09375 c 1.41587,-0.39239 2.46875,-1.70921 2.46875,-3.25 0,-1.85163 -1.52337,-3.34375 -3.375,-3.34375 -1.85163,0 -3.34375,1.49212 -3.34375,3.34375 0,1.58564 1.1147,2.93227 2.59375,3.28125 l 0,5.0625 -8.96875,0 0,-5.09375 c 1.41587,-0.39239 2.46875,-1.70921 2.46875,-3.25 0,-1.85163 -1.52337,-3.34375 -3.375,-3.34375 -1.85163,0 -3.34375,1.49212 -3.34375,3.34375 0,1.58564 1.1147,2.93227 2.59375,3.28125 l 0,5.0625 -8.9375,0 0,-5.125 c 1.39628,-0.405 2.4375,-1.69187 2.4375,-3.21875 0,-1.85163 -1.49212,-3.34375 -3.34375,-3.34375 -1.85163,0 -3.375,1.49212 -3.375,3.34375 0,1.58564 1.1147,2.93227 2.59375,3.28125 l 0,5.0625 -8.9375,0 0,-5.125 c 1.39628,-0.405 2.4375,-1.69187 2.4375,-3.21875 0,-1.85163 -1.49212,-3.34375 -3.34375,-3.34375 -1.85163,0 -3.375,1.49212 -3.375,3.34375 0,1.58564 1.1147,2.93227 2.59375,3.28125 l 0,5.0625 -8.9375,0 0,-5.125 c 1.40195,-0.40139 2.4375,-1.68785 2.4375,-3.21875 0,-1.85163 -1.49212,-3.34375 -3.34375,-3.34375 -1.85163,0 -3.375,1.49212 -3.375,3.34375 0,1.58564 1.1147,2.93227 2.59375,3.28125 l 0,5.0625 -8.9375,0 0,-5.09375 c 1.41587,-0.39239 2.4375,-1.70921 2.4375,-3.25 0,-1.85163 -1.49212,-3.34375 -3.34375,-3.34375 -1.85163,0 -3.34375,1.49212 -3.34375,3.34375 0,1.58564 1.08345,2.93227 2.5625,3.28125 l 0,5.0625 -19.5625,0 0,-5.09375 c 1.41587,-0.39239 2.4375,-1.70921 2.4375,-3.25 0,-1.85163 -1.49212,-3.34375 -3.34375,-3.34375 -1.85163,0 -3.34375,1.49212 -3.34375,3.34375 0,1.58711 1.11262,2.93377 2.59375,3.28125 l 0,5.0625 -8.96875,0 0,-5.09375 c 1.41587,-0.39239 2.46875,-1.70921 2.46875,-3.25 0,-1.85163 -1.52337,-3.34375 -3.375,-3.34375 -1.85163,0 -3.34375,1.49212 -3.34375,3.34375 0,1.58564 1.1147,2.93227 2.59375,3.28125 l 0,5.0625 -8.9375,0 0,-5.125 c 1.39628,-0.405 2.4375,-1.69187 2.4375,-3.21875 0,-1.85163 -1.52337,-3.34375 -3.375,-3.34375 -1.85163,0 -3.34375,1.49212 -3.34375,3.34375 0,1.58564 1.1147,2.93227 2.59375,3.28125 l 0,5.0625 -8.9375,0 0,-5.125 c 1.39628,-0.405 2.4375,-1.69187 2.4375,-3.21875 0,-1.85163 -1.49212,-3.34375 -3.34375,-3.34375 -1.85163,0 -3.375,1.49212 -3.375,3.34375 0,1.58564 1.1147,2.93227 2.59375,3.28125 l 0,5.0625 -68,0 0,-52.71875 -36.65625,0 0,52.71875 -14.21875,0 0,-52.71875 -36.625,0 0,52.71875 -113.85455754,0 0,141.90625 801.46683754,0 0,-141.90625 -96.86228,0 -7.71875,-8.03125 0,-14.875 -21.25,-12.75 -4.03125,-17.71875 -42.03125,0 0.40625,-7.09375 -2.84375,-5.65625 -2.40625,6.375 0,7.4375 -6.0625,-0.34375 L 612.875,412 l 0,8.15625 -5.4375,13.09375 -21.03125,8.5 -30.3125,-0.34375 -6.46875,-26.9375 -5.65625,12.3125 -4.03125,0 0,-21.6875 -3.90625,-5.5 z"
       id="path6207-1-2"
       inkscape:connector-curvature="0"
       sodipodi:nodetypes="ccccccccccccccccccccccccsssccccsssccccsssccccsssccccsssccccsssccccsssccccsssccccsssccccsssccccsssccccssscccccccccccccccccccccccccccccccccccc" />
    <g
       id="g5036-1-5"
       transform="matrix(0.55877953,0,0,0.55877953,-212.98218,57.701255)"
       style="fill:#6b8e9f;fill-opacity:1"
       inkscape:export-filename="/home/andreasn/SparkleShare/gnome-web/guadec/2013/Brno/website-full.png"
       inkscape:export-xdpi="90"
       inkscape:export-ydpi="90" />
    <g
       transform="matrix(0.55877953,0,0,0.55877953,-202.36138,57.701255)"
       id="g5040-1-3"
       style="fill:#6b8e9f;fill-opacity:1"
       inkscape:export-filename="/home/andreasn/SparkleShare/gnome-web/guadec/2013/Brno/website-full.png"
       inkscape:export-xdpi="90"
       inkscape:export-ydpi="90" />
    <g
       id="g5046-22-1"
       transform="matrix(0.55877953,0,0,0.55877953,-191.74048,57.701255)"
       style="fill:#6b8e9f;fill-opacity:1"
       inkscape:export-filename="/home/andreasn/SparkleShare/gnome-web/guadec/2013/Brno/website-full.png"
       inkscape:export-xdpi="90"
       inkscape:export-ydpi="90" />
    <g
       transform="matrix(0.55877953,0,0,0.55877953,-223.60308,57.701255)"
       id="g5052-8-7"
       style="fill:#6b8e9f;fill-opacity:1"
       inkscape:export-filename="/home/andreasn/SparkleShare/gnome-web/guadec/2013/Brno/website-full.png"
       inkscape:export-xdpi="90"
       inkscape:export-ydpi="90" />
    <g
       style="fill:#6b8e9f;fill-opacity:1"
       transform="matrix(0.55877953,0,0,0.55877953,-159.87778,57.701255)"
       id="g6541-0-9"
       inkscape:export-filename="/home/andreasn/SparkleShare/gnome-web/guadec/2013/Brno/website-full.png"
       inkscape:export-xdpi="90"
       inkscape:export-ydpi="90" />
    <g
       style="fill:#6b8e9f;fill-opacity:1"
       id="g6547-9-4"
       transform="matrix(0.55877953,0,0,0.55877953,-149.25688,57.701255)"
       inkscape:export-filename="/home/andreasn/SparkleShare/gnome-web/guadec/2013/Brno/website-full.png"
       inkscape:export-xdpi="90"
       inkscape:export-ydpi="90" />
    <g
       style="fill:#6b8e9f;fill-opacity:1"
       transform="matrix(0.55877953,0,0,0.55877953,-138.63598,57.701255)"
       id="g6553-6-7"
       inkscape:export-filename="/home/andreasn/SparkleShare/gnome-web/guadec/2013/Brno/website-full.png"
       inkscape:export-xdpi="90"
       inkscape:export-ydpi="90" />
    <g
       style="fill:#6b8e9f;fill-opacity:1"
       id="g6559-4-6"
       transform="matrix(0.55877953,0,0,0.55877953,-170.49868,57.701255)"
       inkscape:export-filename="/home/andreasn/SparkleShare/gnome-web/guadec/2013/Brno/website-full.png"
       inkscape:export-xdpi="90"
       inkscape:export-ydpi="90" />
    <g
       id="g6565-38-0"
       transform="matrix(0.55877953,0,0,0.55877953,-117.39418,57.701255)"
       style="fill:#6b8e9f;fill-opacity:1"
       inkscape:export-filename="/home/andreasn/SparkleShare/gnome-web/guadec/2013/Brno/website-full.png"
       inkscape:export-xdpi="90"
       inkscape:export-ydpi="90" />
    <g
       transform="matrix(0.55877953,0,0,0.55877953,-106.77328,57.701255)"
       id="g6571-6-8"
       style="fill:#6b8e9f;fill-opacity:1"
       inkscape:export-filename="/home/andreasn/SparkleShare/gnome-web/guadec/2013/Brno/website-full.png"
       inkscape:export-xdpi="90"
       inkscape:export-ydpi="90" />
    <g
       id="g6577-1-6"
       transform="matrix(0.55877953,0,0,0.55877953,-96.152483,57.701255)"
       style="fill:#6b8e9f;fill-opacity:1"
       inkscape:export-filename="/home/andreasn/SparkleShare/gnome-web/guadec/2013/Brno/website-full.png"
       inkscape:export-xdpi="90"
       inkscape:export-ydpi="90" />
    <g
       transform="matrix(0.55877953,0,0,0.55877953,-128.01508,57.701255)"
       id="g6583-6-8"
       style="fill:#6b8e9f;fill-opacity:1"
       inkscape:export-filename="/home/andreasn/SparkleShare/gnome-web/guadec/2013/Brno/website-full.png"
       inkscape:export-xdpi="90"
       inkscape:export-ydpi="90" />
  </g>
</svg>
