<?xml version="1.0" encoding="UTF-8" standalone="no"?>
<!-- Created with Inkscape (http://www.inkscape.org/) -->

<svg
   xmlns:dc="http://purl.org/dc/elements/1.1/"
   xmlns:cc="http://creativecommons.org/ns#"
   xmlns:rdf="http://www.w3.org/1999/02/22-rdf-syntax-ns#"
   xmlns:svg="http://www.w3.org/2000/svg"
   xmlns="http://www.w3.org/2000/svg"
   xmlns:sodipodi="http://sodipodi.sourceforge.net/DTD/sodipodi-0.dtd"
   xmlns:inkscape="http://www.inkscape.org/namespaces/inkscape"
   width="140"
   height="60"
   viewBox="0 0 139.99999 60"
   id="svg2"
   version="1.1"
   inkscape:version="0.91 r13725"
   sodipodi:docname="logo.svg">
  <defs
     id="defs4" />
  <sodipodi:namedview
     id="base"
     pagecolor="#ffffff"
     bordercolor="#666666"
     borderopacity="1.0"
     inkscape:pageopacity="0.0"
     inkscape:pageshadow="2"
     inkscape:zoom="1"
     inkscape:cx="50.48529"
     inkscape:cy="-81.894039"
     inkscape:document-units="px"
     inkscape:current-layer="layer1"
     showgrid="false"
     units="px"
     borderlayer="true"
     inkscape:showpageshadow="false"
     showguides="false"
     inkscape:guide-bbox="true"
     inkscape:window-width="2560"
     inkscape:window-height="1403"
     inkscape:window-x="2560"
     inkscape:window-y="0"
     inkscape:window-maximized="1">
    <sodipodi:guide
       position="182.49999,86.000003"
       orientation="0,1"
       id="guide7347" />
    <inkscape:grid
       type="xygrid"
       id="grid7389" />
  </sodipodi:namedview>
  <metadata
     id="metadata7">
    <rdf:RDF>
      <cc:Work
         rdf:about="">
        <dc:format>image/svg+xml</dc:format>
        <dc:type
           rdf:resource="http://purl.org/dc/dcmitype/StillImage" />
        <dc:title></dc:title>
      </cc:Work>
    </rdf:RDF>
  </metadata>
  <g
     inkscape:label="Layer 1"
     inkscape:groupmode="layer"
     id="layer1"
     transform="translate(0,-992.36208)">
    <g
       style="color:#000000;font-style:normal;font-variant:normal;font-weight:normal;font-stretch:normal;font-size:52.53209686px;line-height:125%;font-family:'Cabin Condensed';-inkscape-font-specification:'Cabin Condensed, Normal';text-indent:0;text-align:start;text-decoration:none;text-decoration-line:none;letter-spacing:0px;word-spacing:0px;text-transform:none;direction:ltr;block-progression:tb;writing-mode:lr-tb;baseline-shift:baseline;text-anchor:start;display:inline;overflow:visible;visibility:visible;fill:#000000;fill-opacity:1;fill-rule:nonzero;stroke:none;stroke-width:1;stroke-linecap:butt;stroke-linejoin:miter;stroke-opacity:1;marker:none;marker-start:none;marker-mid:none;marker-end:none;enable-background:accumulate"
       id="text7334">
      <path
         d="m 15.413178,1036.8836 13.973537,0 0,4.5178 -22.0634802,0 15.9697572,-32.2547 -13.9210054,0 0,-4.5178 22.0109484,0 -15.969757,32.2547 z"
         style=""
         id="path7396" />
      <path
         d="m 91.913867,1028.531 0,12.8704 -5.043081,0 0,-36.7725 9.613374,0 q 2.679137,0 4.88548,0.4203 2.20635,0.3677 3.78232,1.6285 1.62849,1.2082 2.52154,3.4671 0.89304,2.2588 0.89304,5.9361 0,3.5722 -0.99811,5.9887 -0.99811,2.3639 -2.52154,3.8348 -1.52343,1.4184 -3.36205,2.0488 -1.786094,0.5778 -3.414589,0.5778 l -6.356384,0 z m 0,-19.4369 0,14.9717 5.568403,0 q 3.25699,0 4.62282,-1.9962 1.41837,-2.0488 1.41837,-5.7786 0,-1.9437 -0.36772,-3.3095 -0.3152,-1.4184 -1.10318,-2.2589 -0.78798,-0.8405 -2.101282,-1.2082 -1.313302,-0.4203 -3.25699,-0.4203 l -4.780421,0 z"
         style=""
         id="path7398" />
      <path
         d="m 118.48772,1028.531 0,12.8704 -5.04308,0 0,-36.7725 9.61337,0 q 2.67914,0 4.88549,0.4203 2.20635,0.3677 3.78231,1.6285 1.62849,1.2082 2.52154,3.4671 0.89304,2.2588 0.89304,5.9361 0,3.5722 -0.99811,5.9887 -0.99811,2.3639 -2.52154,3.8348 -1.52343,1.4184 -3.36205,2.0488 -1.78609,0.5778 -3.41459,0.5778 l -6.35638,0 z m 0,-19.4369 0,14.9717 5.5684,0 q 3.25699,0 4.62283,-1.9962 1.41836,-2.0488 1.41836,-5.7786 0,-1.9437 -0.36772,-3.3095 -0.31519,-1.4184 -1.10318,-2.2589 -0.78798,-0.8405 -2.10128,-1.2082 -1.3133,-0.4203 -3.25699,-0.4203 l -4.78042,0 z"
         style=""
         id="path7400" />
    </g>
    <text
       xml:space="preserve"
       style="color:#000000;font-style:normal;font-variant:normal;font-weight:normal;font-stretch:normal;font-size:52.53209686px;line-height:125%;font-family:'Cabin Condensed';-inkscape-font-specification:'Cabin Condensed, Normal';text-indent:0;text-align:start;text-decoration:none;text-decoration-line:none;letter-spacing:0px;word-spacing:0px;text-transform:none;direction:ltr;block-progression:tb;writing-mode:lr-tb;baseline-shift:baseline;text-anchor:start;display:inline;overflow:visible;visibility:visible;fill:#000000;fill-opacity:1;fill-rule:nonzero;stroke:none;stroke-width:1;stroke-linecap:butt;stroke-linejoin:miter;stroke-opacity:1;marker:none;marker-start:none;marker-mid:none;marker-end:none;enable-background:accumulate"
       x="6.9555101"
       y="981.40143"
       id="text7391"
       sodipodi:linespacing="125%"><tspan
         sodipodi:role="line"
         id="tspan7393"
         x="6.9555101"
         y="981.40143">Z     PP</tspan></text>
    <g
       id="g10557"
       transform="matrix(0,1,-1,0,1082.2372,967.15561)">
      <circle
         r="23.599688"
         cy="1024.6964"
         cx="57.540806"
         id="path7402"
         style="color:#000000;clip-rule:nonzero;display:inline;overflow:visible;visibility:visible;opacity:1;isolation:auto;mix-blend-mode:normal;color-interpolation:sRGB;color-interpolation-filters:linearRGB;solid-color:#000000;solid-opacity:1;fill:#3465a4;fill-opacity:1;fill-rule:nonzero;stroke:none;stroke-width:1;stroke-linecap:butt;stroke-linejoin:miter;stroke-miterlimit:4;stroke-dasharray:none;stroke-dashoffset:0;stroke-opacity:1;marker:none;marker-start:none;marker-mid:none;marker-end:none;paint-order:normal;color-rendering:auto;image-rendering:auto;shape-rendering:auto;text-rendering:auto;enable-background:new" />
      <g
         inkscape:label="go-previous"
         id="g6063"
         style="display:inline;fill:#ffffff"
         transform="matrix(2,0,0,2,-160.99673,-485.57206)">
        <path
           sodipodi:nodetypes="ccscsccsscscc"
           inkscape:connector-curvature="0"
           id="rect6014-2"
           d="m 104.5627,755 5.71875,5.71875 C 110.47732,760.91462 110.74458,761 111.0002,761 l 1,0 0,-1 c 0,-0.25562 -0.0854,-0.52288 -0.28125,-0.71875 L 107.4377,755 l 4.28125,-4.28125 c 0.19587,-0.19587 0.28125,-0.46313 0.28125,-0.71875 l 0,-1 -1,0 c -0.25562,0 -0.52288,0.0854 -0.71875,0.28125 z"
           style="display:inline;fill:#ffffff;fill-opacity:1;stroke:none" />
      </g>
    </g>
  </g>
</svg>
