<?xml version="1.0" encoding="UTF-8" standalone="no"?>
<!-- Created with Inkscape (http://www.inkscape.org/) -->

<svg
   xmlns:dc="http://purl.org/dc/elements/1.1/"
   xmlns:cc="http://creativecommons.org/ns#"
   xmlns:rdf="http://www.w3.org/1999/02/22-rdf-syntax-ns#"
   xmlns:svg="http://www.w3.org/2000/svg"
   xmlns="http://www.w3.org/2000/svg"
   xmlns:sodipodi="http://sodipodi.sourceforge.net/DTD/sodipodi-0.dtd"
   xmlns:inkscape="http://www.inkscape.org/namespaces/inkscape"
   width="140"
   height="60"
   viewBox="0 0 139.99999 60"
   id="svg2"
   version="1.1"
   inkscape:version="0.91 r13725"
   sodipodi:docname="zapp-header.svg">
  <defs
     id="defs4" />
  <sodipodi:namedview
     id="base"
     pagecolor="#ffffff"
     bordercolor="#666666"
     borderopacity="1.0"
     inkscape:pageopacity="0.0"
     inkscape:pageshadow="2"
     inkscape:zoom="1"
     inkscape:cx="-368.23077"
     inkscape:cy="-37.251149"
     inkscape:document-units="px"
     inkscape:current-layer="layer1"
     showgrid="false"
     units="px"
     borderlayer="true"
     inkscape:showpageshadow="false"
     showguides="false"
     inkscape:guide-bbox="true"
     inkscape:window-width="2560"
     inkscape:window-height="1403"
     inkscape:window-x="2560"
     inkscape:window-y="0"
     inkscape:window-maximized="1">
    <sodipodi:guide
       position="182.49999,86.000003"
       orientation="0,1"
       id="guide7347" />
    <inkscape:grid
       type="xygrid"
       id="grid7389" />
  </sodipodi:namedview>
  <metadata
     id="metadata7">
    <rdf:RDF>
      <cc:Work
         rdf:about="">
        <dc:format>image/svg+xml</dc:format>
        <dc:type
           rdf:resource="http://purl.org/dc/dcmitype/StillImage" />
        <dc:title></dc:title>
      </cc:Work>
    </rdf:RDF>
  </metadata>
  <g
     inkscape:label="Layer 1"
     inkscape:groupmode="layer"
     id="layer1"
     transform="translate(0,-992.36208)">
    <g
       style="color:#000000;font-style:normal;font-variant:normal;font-weight:normal;font-stretch:normal;font-size:52.53209686px;line-height:125%;font-family:'Cabin Condensed';-inkscape-font-specification:'Cabin Condensed, Normal';text-indent:0;text-align:start;text-decoration:none;text-decoration-line:none;letter-spacing:0px;word-spacing:0px;text-transform:none;direction:ltr;block-progression:tb;writing-mode:lr-tb;baseline-shift:baseline;text-anchor:start;display:inline;overflow:visible;visibility:visible;fill:#000000;fill-opacity:1;fill-rule:nonzero;stroke:none;stroke-width:1;stroke-linecap:butt;stroke-linejoin:miter;stroke-opacity:1;marker:none;marker-start:none;marker-mid:none;marker-end:none;enable-background:accumulate"
       id="text7334">
      <path
         d="m 15.413178,1036.8836 13.973537,0 0,4.5178 -22.0634802,0 15.9697572,-32.2547 -13.9210054,0 0,-4.5178 22.0109484,0 -15.969757,32.2547 z"
         style=""
         id="path7396" />
      <path
         d="m 91.913867,1028.531 0,12.8704 -5.043081,0 0,-36.7725 9.613374,0 q 2.679137,0 4.88548,0.4203 2.20635,0.3677 3.78232,1.6285 1.62849,1.2082 2.52154,3.4671 0.89304,2.2588 0.89304,5.9361 0,3.5722 -0.99811,5.9887 -0.99811,2.3639 -2.52154,3.8348 -1.52343,1.4184 -3.36205,2.0488 -1.786094,0.5778 -3.414589,0.5778 l -6.356384,0 z m 0,-19.4369 0,14.9717 5.568403,0 q 3.25699,0 4.62282,-1.9962 1.41837,-2.0488 1.41837,-5.7786 0,-1.9437 -0.36772,-3.3095 -0.3152,-1.4184 -1.10318,-2.2589 -0.78798,-0.8405 -2.101282,-1.2082 -1.313302,-0.4203 -3.25699,-0.4203 l -4.780421,0 z"
         style=""
         id="path7398" />
      <path
         d="m 118.48772,1028.531 0,12.8704 -5.04308,0 0,-36.7725 9.61337,0 q 2.67914,0 4.88549,0.4203 2.20635,0.3677 3.78231,1.6285 1.62849,1.2082 2.52154,3.4671 0.89304,2.2588 0.89304,5.9361 0,3.5722 -0.99811,5.9887 -0.99811,2.3639 -2.52154,3.8348 -1.52343,1.4184 -3.36205,2.0488 -1.78609,0.5778 -3.41459,0.5778 l -6.35638,0 z m 0,-19.4369 0,14.9717 5.5684,0 q 3.25699,0 4.62283,-1.9962 1.41836,-2.0488 1.41836,-5.7786 0,-1.9437 -0.36772,-3.3095 -0.31519,-1.4184 -1.10318,-2.2589 -0.78798,-0.8405 -2.10128,-1.2082 -1.3133,-0.4203 -3.25699,-0.4203 l -4.78042,0 z"
         style=""
         id="path7400" />
    </g>
    <path
       inkscape:connector-curvature="0"
       id="path7387"
       d="m 57.464545,1001.1923 a 23.480056,23.480056 0 0 0 -23.480092,23.48 23.480056,23.480056 0 0 0 5.347183,14.8912 l 8.526827,-21.6467 c 0.391089,-1.0022 0.855514,-2.1999 1.393257,-3.5932 0.562186,-1.4176 1.148863,-2.591 1.75994,-3.5198 0.635512,-0.9288 1.454296,-1.6744 2.456452,-2.2365 1.026606,-0.5866 2.285445,-0.8799 3.776464,-0.8799 1.515469,0 2.7743,0.2933 3.776465,0.8799 1.026605,0.5621 1.84538,1.2955 2.456455,2.1998 0.635516,0.9045 1.161064,1.8822 1.57659,2.9333 0.439982,1.0266 0.989892,2.4075 1.649847,4.1429 l 8.829754,21.8094 a 23.480056,23.480056 0 0 0 5.41094,-14.9804 23.480056,23.480056 0 0 0 -23.480082,-23.48 z m -5.444395,32.3322 -2.805051,7.8208 16.058958,0 -2.856822,-7.8208 -10.397085,0 z"
       style="color:#000000;clip-rule:nonzero;display:inline;overflow:visible;visibility:visible;opacity:1;isolation:auto;mix-blend-mode:normal;color-interpolation:sRGB;color-interpolation-filters:linearRGB;solid-color:#000000;solid-opacity:1;fill:#3465a4;fill-opacity:1;fill-rule:nonzero;stroke:none;stroke-width:1;stroke-linecap:butt;stroke-linejoin:miter;stroke-miterlimit:4;stroke-dasharray:none;stroke-dashoffset:0;stroke-opacity:1;marker:none;marker-start:none;marker-mid:none;marker-end:none;paint-order:normal;color-rendering:auto;image-rendering:auto;shape-rendering:auto;text-rendering:auto;enable-background:new" />
    <text
       xml:space="preserve"
       style="color:#000000;font-style:normal;font-variant:normal;font-weight:normal;font-stretch:normal;font-size:52.53209686px;line-height:125%;font-family:'Cabin Condensed';-inkscape-font-specification:'Cabin Condensed, Normal';text-indent:0;text-align:start;text-decoration:none;text-decoration-line:none;letter-spacing:0px;word-spacing:0px;text-transform:none;direction:ltr;block-progression:tb;writing-mode:lr-tb;baseline-shift:baseline;text-anchor:start;display:inline;overflow:visible;visibility:visible;fill:#000000;fill-opacity:1;fill-rule:nonzero;stroke:none;stroke-width:1;stroke-linecap:butt;stroke-linejoin:miter;stroke-opacity:1;marker:none;marker-start:none;marker-mid:none;marker-end:none;enable-background:accumulate"
       x="6.9555101"
       y="981.40143"
       id="text7391"
       sodipodi:linespacing="125%"><tspan
         sodipodi:role="line"
         id="tspan7393"
         x="6.9555101"
         y="981.40143">Z     PP</tspan></text>
  </g>
</svg>
