<?xml version="1.0" encoding="UTF-8" standalone="no"?>
<!-- Created with Inkscape (http://www.inkscape.org/) -->

<svg
   xmlns:dc="http://purl.org/dc/elements/1.1/"
   xmlns:cc="http://creativecommons.org/ns#"
   xmlns:rdf="http://www.w3.org/1999/02/22-rdf-syntax-ns#"
   xmlns:svg="http://www.w3.org/2000/svg"
   xmlns="http://www.w3.org/2000/svg"
   xmlns:xlink="http://www.w3.org/1999/xlink"
   xmlns:sodipodi="http://sodipodi.sourceforge.net/DTD/sodipodi-0.dtd"
   xmlns:inkscape="http://www.inkscape.org/namespaces/inkscape"
   width="125"
   height="125"
   id="svg19724"
   version="1.1"
   inkscape:version="0.92pre2 r"
   sodipodi:docname="banner-125.svg"
   viewBox="0 0 125 125">
  <defs
     id="defs19726">
    <linearGradient
       inkscape:collect="always"
       id="linearGradient3778-0">
      <stop
         style="stop-color:#688c9d;stop-opacity:1"
         offset="0"
         id="stop3780-4" />
      <stop
         style="stop-color:#93adb9;stop-opacity:1"
         offset="1"
         id="stop3782-9" />
    </linearGradient>
    <linearGradient
       y2="299.80432"
       x2="512.5"
       y1="610.86218"
       x1="512.5"
       gradientTransform="matrix(1.6581939,0,0,1.4687459,-220.53981,-939.06051)"
       gradientUnits="userSpaceOnUse"
       id="linearGradient19808"
       xlink:href="#linearGradient3778-0"
       inkscape:collect="always" />
    <linearGradient
       inkscape:collect="always"
       xlink:href="#linearGradient3778-0"
       id="linearGradient20336"
       gradientUnits="userSpaceOnUse"
       gradientTransform="matrix(2.0766522,0,0,1.8393955,-309.2026,-1107.0777)"
       x1="176.42822"
       y1="1112.6799"
       x2="176.42822"
       y2="1165.1056" />
    <linearGradient
       inkscape:collect="always"
       xlink:href="#linearGradient3778-0"
       id="linearGradient20370"
       gradientUnits="userSpaceOnUse"
       gradientTransform="matrix(2.0147946,0,0,1.7846051,-298.13062,-1971.4928)"
       x1="176.42822"
       y1="1112.6799"
       x2="176.42822"
       y2="1165.1056" />
    <inkscape:path-effect
       effect="spiro"
       id="path-effect4866"
       is_visible="true" />
    <inkscape:path-effect
       effect="spiro"
       id="path-effect4870"
       is_visible="true" />
    <inkscape:path-effect
       effect="spiro"
       id="path-effect4874"
       is_visible="true" />
  </defs>
  <sodipodi:namedview
     id="base"
     pagecolor="#ffffff"
     bordercolor="#666666"
     borderopacity="1.0"
     inkscape:pageopacity="0.0"
     inkscape:pageshadow="2"
     inkscape:zoom="2"
     inkscape:cx="69.102955"
     inkscape:cy="10.185523"
     inkscape:document-units="px"
     inkscape:current-layer="layer1"
     showgrid="false"
     borderlayer="true"
     inkscape:showpageshadow="false"
     inkscape:window-width="1290"
     inkscape:window-height="1107"
     inkscape:window-x="1254"
     inkscape:window-y="268"
     inkscape:window-maximized="0" />
  <metadata
     id="metadata19729">
    <rdf:RDF>
      <cc:Work
         rdf:about="">
        <dc:format>image/svg+xml</dc:format>
        <dc:type
           rdf:resource="http://purl.org/dc/dcmitype/StillImage" />
        <dc:title />
      </cc:Work>
    </rdf:RDF>
  </metadata>
  <g
     inkscape:label="Layer 1"
     inkscape:groupmode="layer"
     id="layer1"
     transform="translate(0,-927.36218)">
    <path
       inkscape:connector-curvature="0"
       id="path7669"
       d="m 120.73465,989.36216 c 0,32.16204 -26.072544,58.23464 -58.234651,58.23464 -32.162107,0 -58.2346453,-26.0726 -58.2346453,-58.23464 0,-32.16211 26.0725383,-58.23465 58.2346453,-58.23465 32.162107,0 58.234651,26.07254 58.234651,58.23465 z"
       style="color:#000000;display:inline;overflow:visible;visibility:visible;fill:#7093a3;fill-opacity:1;fill-rule:nonzero;stroke:#7093a3;stroke-width:6;stroke-miterlimit:4;stroke-dasharray:none;stroke-opacity:1;marker:none;enable-background:new" />
    <path
       style="color:#000000;display:inline;overflow:visible;visibility:visible;fill:url(#linearGradient20336);fill-opacity:1;fill-rule:nonzero;stroke:#ffffff;stroke-width:5;stroke-miterlimit:4;stroke-dasharray:none;stroke-opacity:1;marker:none;enable-background:new"
       d="m 120.73465,989.36216 c 0,32.16204 -26.072544,58.23464 -58.234651,58.23464 -32.162107,0 -58.2346453,-26.0726 -58.2346453,-58.23464 0,-32.16211 26.0725383,-58.23465 58.2346453,-58.23465 32.162107,0 58.234651,26.07254 58.234651,58.23465 z"
       id="path19779"
       inkscape:connector-curvature="0" />
    <path
       style="color:#000000;display:inline;overflow:visible;visibility:visible;fill:#ffffff;fill-opacity:1;fill-rule:nonzero;stroke:none;stroke-width:5;marker:none;enable-background:new"
       d="M 10.96875,967.98718 C 5.4318603,977.07437 6,980.61081 6,991.36218 c 0,6.49261 1.0961473,12.73602 3.1125759,18.54772 L 114.57701,1010.537 C 116.15248,1005.3375 119,997.07117 119,991.36218 c 0,-10.75137 0.0681,-14.28781 -5.46875,-23.375 z"
       id="path20366"
       inkscape:connector-curvature="0"
       sodipodi:nodetypes="csccscc" />
    <text
       xml:space="preserve"
       style="font-style:normal;font-variant:normal;font-weight:normal;font-stretch:normal;font-size:9.61760012px;line-height:125%;font-family:'Source Sans Pro';-inkscape-font-specification:'Source Sans Pro, Normal';font-variant-ligatures:normal;font-variant-caps:normal;font-variant-numeric:normal;font-feature-settings:normal;text-align:center;letter-spacing:0px;word-spacing:0px;writing-mode:lr;text-anchor:middle;fill:#ffffff;fill-opacity:1;stroke:none;stroke-width:0.97370648;"
       x="62.303692"
       y="948.50897"
       id="text20415"><tspan
         sodipodi:role="line"
         id="tspan20417"
         x="63.261696"
         y="948.50897"
         style="stroke-width:0.97370648;-inkscape-font-specification:'Source Sans Pro, Normal';font-family:'Source Sans Pro';font-weight:normal;font-style:normal;font-stretch:normal;font-variant:normal;font-size:9.61760012px;text-anchor:middle;text-align:center;writing-mode:lr;font-variant-ligatures:normal;font-variant-caps:normal;font-variant-numeric:normal;font-feature-settings:normal;">I am </tspan><tspan
         sodipodi:role="line"
         x="62.303692"
         y="962.80347"
         id="tspan20419"
         style="stroke-width:0.97370648;-inkscape-font-specification:'Source Sans Pro, Normal';font-family:'Source Sans Pro';font-weight:normal;font-style:normal;font-stretch:normal;font-variant:normal;font-size:9.61760012px;text-anchor:middle;text-align:center;writing-mode:lr;font-variant-ligatures:normal;font-variant-caps:normal;font-variant-numeric:normal;font-feature-settings:normal;">attending</tspan></text>
    <text
       xml:space="preserve"
       style="color:#000000;font-style:normal;font-variant:normal;font-weight:normal;font-stretch:normal;font-size:10.36358166px;line-height:16.19309616px;font-family:Lobster;-inkscape-font-specification:'Lobster, Normal';font-variant-ligatures:normal;font-variant-caps:normal;font-variant-numeric:normal;font-feature-settings:normal;text-indent:0;text-align:center;text-decoration:none;text-decoration-line:none;letter-spacing:0px;word-spacing:0px;text-transform:none;writing-mode:lr-tb;direction:ltr;baseline-shift:baseline;text-anchor:middle;display:inline;overflow:visible;visibility:visible;fill:#555753;fill-opacity:1;fill-rule:nonzero;stroke:none;stroke-width:0.64772385;stroke-linecap:butt;stroke-linejoin:miter;stroke-opacity:1;marker:none;marker-start:none;marker-mid:none;marker-end:none;enable-background:accumulate"
       x="61.71962"
       y="1002.3138"
       id="text7961"><tspan
         sodipodi:role="line"
         id="tspan7959"
         x="61.71962"
         y="1002.3138"
         style="fill:#555753;fill-opacity:1;stroke-width:0.64772385">Manchester, UK</tspan></text>
    <g
       id="g8583"
       transform="matrix(0.22424399,0,0,0.22424399,-22.412379,914.14802)">
      <path
         d="m 239.74392,276.83703 v 17.18369 c -6.08799,-3.79673 -12.24139,-5.69511 -18.46019,-5.69516 -6.4153,5e-5 -11.45583,1.86571 -15.12166,5.59697 -3.40402,3.46951 -5.10603,7.88818 -5.10601,13.25598 -2e-5,4.3205 1.14556,8.08455 3.43674,11.29215 3.14213,4.51687 8.11721,6.77529 14.92527,6.77528 0.85096,10e-6 1.86561,-0.0655 3.04397,-0.19639 v -7.8554 h -6.97167 v -14.53249 h 25.33366 v 36.52761 c -7.33176,1.8984 -15.87451,2.84759 -25.62824,2.8476 -13.8779,-1e-5 -24.22084,-4.12409 -31.02884,-12.37226 -5.04055,-6.15338 -7.56082,-13.45236 -7.56082,-21.89694 0,-12.43767 5.106,-22.06053 15.31803,-28.86859 6.54615,-4.38587 15.02343,-6.57884 25.43187,-6.57891 7.98626,7e-5 15.44889,1.5057 22.38789,4.51686"
         style="font-style:normal;font-variant:normal;font-weight:normal;font-stretch:normal;font-size:85.01324463px;line-height:125%;font-family:'Gill Sans ExtraBoldDisplay';-inkscape-font-specification:'Gill Sans ExtraBoldDisplay';text-align:start;letter-spacing:-6.07060289;word-spacing:0px;writing-mode:lr-tb;text-anchor:start;fill:#000000;fill-opacity:1;stroke:none;stroke-width:1.01581836"
         id="path5800"
         inkscape:connector-curvature="0" />
      <path
         d="m 292.33344,275.19014 h 23.77921 v 33.3489 c -8e-5,10.76189 -2.60998,18.88161 -7.82973,24.3592 -6.37986,6.70199 -15.78843,10.05299 -28.22574,10.053 -11.9863,-10e-6 -21.26598,-3.35101 -27.83909,-10.053 -5.21983,-5.28426 -7.82973,-13.40399 -7.82973,-24.3592 v -33.3489 h 23.77921 v 29.09571 c -3e-5,6.76647 0.45107,11.40631 1.35328,13.91953 1.67548,4.51099 5.25203,6.76647 10.72965,6.76645 5.34867,2e-5 8.89299,-2.35213 10.63298,-7.05643 0.96659,-2.64212 1.4499,-7.18528 1.44996,-13.62955 v -29.09571"
         style="font-style:normal;font-variant:normal;font-weight:normal;font-stretch:normal;font-size:85.01324463px;line-height:125%;font-family:'Gill Sans ExtraBoldDisplay';-inkscape-font-specification:'Gill Sans ExtraBoldDisplay';text-align:start;letter-spacing:-6.07060289;word-spacing:0px;writing-mode:lr-tb;text-anchor:start;fill:#000000;fill-opacity:1;stroke:none"
         id="path5802"
         inkscape:connector-curvature="0" />
      <path
         d="m 364.91521,342.17793 -3.76988,-10.343 h -24.84251 l -3.96321,10.343 h -24.3592 l 28.32241,-66.98779 h 24.84251 l 28.22573,66.98779 h -24.45585 m -16.14281,-44.94852 -7.53975,20.68599 h 14.88618 l -7.34643,-20.68599"
         style="font-style:normal;font-variant:normal;font-weight:normal;font-stretch:normal;font-size:85.01324463px;line-height:125%;font-family:'Gill Sans ExtraBoldDisplay';-inkscape-font-specification:'Gill Sans ExtraBoldDisplay';text-align:start;letter-spacing:-6.07060289;word-spacing:0px;writing-mode:lr-tb;text-anchor:start;fill:#000000;fill-opacity:1;stroke:none"
         id="path5804"
         inkscape:connector-curvature="0" />
      <path
         d="m 390.79245,342.17793 v -66.98779 h 28.8057 c 12.37289,7e-5 21.94256,3.12552 28.70906,9.37636 6.9597,6.44428 10.43957,14.69289 10.43965,24.74585 -8e-5,6.31537 -1.54669,12.21183 -4.63985,17.68941 -3.28662,5.67093 -7.6687,9.73079 -13.14623,12.1796 -3.15773,1.41773 -6.9276,2.31993 -11.30962,2.70658 -2.25553,0.19333 -6.15428,0.28999 -11.69628,0.28999 h -27.16243 m 23.7792,-50.94165 v 34.70218 h 3.28656 c 5.86421,2e-5 10.05296,-1.28882 12.56626,-3.86654 3.02873,-3.15764 4.54313,-7.53971 4.54318,-13.14623 -5e-5,-5.86421 -1.57888,-10.40739 -4.73651,-13.62954 -2.64218,-2.70653 -6.99203,-4.05983 -13.04957,-4.05987 h -2.60992"
         style="font-style:normal;font-variant:normal;font-weight:normal;font-stretch:normal;font-size:85.01324463px;line-height:125%;font-family:'Gill Sans ExtraBoldDisplay';-inkscape-font-specification:'Gill Sans ExtraBoldDisplay';text-align:start;letter-spacing:-6.07060289;word-spacing:0px;writing-mode:lr-tb;text-anchor:start;fill:#000000;fill-opacity:1;stroke:none"
         id="path5806"
         inkscape:connector-curvature="0" />
      <path
         d="m 515.17634,327.09842 v 15.07951 h -55.2017 v -66.98779 h 54.71839 v 15.07951 h -30.93918 v 10.43965 h 29.48923 v 15.0795 h -29.48923 v 11.30962 h 31.42249"
         style="font-style:normal;font-variant:normal;font-weight:normal;font-stretch:normal;font-size:85.01324463px;line-height:125%;font-family:'Gill Sans ExtraBoldDisplay';-inkscape-font-specification:'Gill Sans ExtraBoldDisplay';text-align:start;letter-spacing:-6.07060289;word-spacing:0px;writing-mode:lr-tb;text-anchor:start;fill:#000000;fill-opacity:1;stroke:none"
         id="path5808"
         inkscape:connector-curvature="0"
         sodipodi:nodetypes="ccccccccccccc" />
      <path
         d="m 575.92204,319.17202 v 18.2694 c -3.93103,1.86882 -7.15314,3.15767 -9.66634,3.86653 -3.93103,1.09552 -8.34533,1.64328 -13.2429,1.64329 -11.47076,-10e-6 -20.62156,-3.54433 -27.45243,-10.63299 -6.18646,-6.37977 -9.27969,-14.14506 -9.27969,-23.29589 0,-8.44191 2.57769,-15.85276 7.73308,-22.2326 6.70199,-8.31299 16.52942,-12.46952 29.48236,-12.46959 7.73303,7e-5 15.015,1.48225 21.84594,4.44652 v 20.00934 c -6.18651,-4.38203 -12.27631,-6.57306 -18.26939,-6.57312 -6.05762,6e-5 -10.6008,1.99776 -13.62956,5.99313 -2.2555,2.96439 -3.38324,6.37983 -3.38321,10.24634 -3e-5,4.76876 1.67547,8.69973 5.0265,11.79294 3.35096,3.09325 7.73303,4.63986 13.14623,4.63985 5.73531,10e-6 11.63178,-1.90103 17.68941,-5.70315"
         style="font-style:normal;font-variant:normal;font-weight:normal;font-stretch:normal;font-size:85.01324463px;line-height:125%;font-family:'Gill Sans ExtraBoldDisplay';-inkscape-font-specification:'Gill Sans ExtraBoldDisplay';text-align:start;letter-spacing:-6.07060289;word-spacing:0px;writing-mode:lr-tb;text-anchor:start;fill:#000000;fill-opacity:1;stroke:none"
         id="path5810"
         inkscape:connector-curvature="0" />
    </g>
  </g>
</svg>
