<?xml version="1.0" encoding="UTF-8" standalone="no"?>
<!-- Created with Inkscape (http://www.inkscape.org/) -->

<svg
   xmlns:dc="http://purl.org/dc/elements/1.1/"
   xmlns:cc="http://creativecommons.org/ns#"
   xmlns:rdf="http://www.w3.org/1999/02/22-rdf-syntax-ns#"
   xmlns:svg="http://www.w3.org/2000/svg"
   xmlns="http://www.w3.org/2000/svg"
   xmlns:xlink="http://www.w3.org/1999/xlink"
   xmlns:sodipodi="http://sodipodi.sourceforge.net/DTD/sodipodi-0.dtd"
   xmlns:inkscape="http://www.inkscape.org/namespaces/inkscape"
   width="210mm"
   height="297mm"
   id="svg4035"
   version="1.1"
   inkscape:version="0.92pre2 r"
   sodipodi:docname="poster-export.svg"
   viewBox="0 0 793.70079 1122.5197">
  <defs
     id="defs3">
    <inkscape:path-effect
       effect="spiro"
       id="path-effect4874"
       is_visible="true" />
    <inkscape:path-effect
       effect="spiro"
       id="path-effect4870"
       is_visible="true" />
    <inkscape:path-effect
       effect="spiro"
       id="path-effect4866"
       is_visible="true" />
    <inkscape:path-effect
       effect="spiro"
       id="path-effect4841"
       is_visible="true" />
    <inkscape:path-effect
       effect="spiro"
       id="path-effect4825"
       is_visible="true" />
    <inkscape:path-effect
       effect="spiro"
       id="path-effect4821"
       is_visible="true" />
    <inkscape:path-effect
       effect="spiro"
       id="path-effect4817"
       is_visible="true" />
    <inkscape:path-effect
       effect="spiro"
       id="path-effect4813"
       is_visible="true" />
    <inkscape:path-effect
       effect="spiro"
       id="path-effect4809"
       is_visible="true" />
    <inkscape:path-effect
       effect="spiro"
       id="path-effect4795"
       is_visible="true" />
    <inkscape:path-effect
       effect="spiro"
       id="path-effect4775"
       is_visible="true" />
    <clipPath
       clipPathUnits="userSpaceOnUse"
       id="clipPath5165">
      <rect
         ry="19.040283"
         rx="19.040283"
         y="288.36218"
         x="723"
         height="431"
         width="456"
         id="rect5167"
         style="color:#000000;display:inline;overflow:visible;visibility:visible;fill:url(#linearGradient5169);fill-opacity:1;fill-rule:nonzero;stroke:none;stroke-width:0.99999994;marker:none;enable-background:new" />
    </clipPath>
    <linearGradient
       inkscape:collect="always"
       xlink:href="#linearGradient3778-0"
       id="linearGradient4006-7"
       gradientUnits="userSpaceOnUse"
       gradientTransform="matrix(1,0,0,1.2279203,588,-65.72358)"
       x1="512.5"
       y1="610.86218"
       x2="512.5"
       y2="299.80432" />
    <linearGradient
       inkscape:collect="always"
       id="linearGradient3778-0">
      <stop
         style="stop-color:#688c9d;stop-opacity:1"
         offset="0"
         id="stop3780-4" />
      <stop
         style="stop-color:#93adb9;stop-opacity:1"
         offset="1"
         id="stop3782-9" />
    </linearGradient>
    <linearGradient
       y2="299.80432"
       x2="512.5"
       y1="610.86218"
       x1="512.5"
       gradientTransform="matrix(1.7546852,0,0,-1.4687459,-238.13555,1613.4941)"
       gradientUnits="userSpaceOnUse"
       id="linearGradient4766"
       xlink:href="#linearGradient3778-0"
       inkscape:collect="always" />
    <linearGradient
       y2="299.80432"
       x2="512.5"
       y1="610.86218"
       x1="512.5"
       gradientTransform="matrix(1.6581939,0,0,1.4687459,814.69779,-1355.4941)"
       gradientUnits="userSpaceOnUse"
       id="linearGradient4766-5"
       xlink:href="#linearGradient3778-0-0"
       inkscape:collect="always" />
    <linearGradient
       inkscape:collect="always"
       id="linearGradient3778-0-0">
      <stop
         style="stop-color:#688c9d;stop-opacity:1"
         offset="0"
         id="stop3780-4-4" />
      <stop
         style="stop-color:#93adb9;stop-opacity:1"
         offset="1"
         id="stop3782-9-2" />
    </linearGradient>
    <linearGradient
       y2="299.80432"
       x2="512.5"
       y1="610.86218"
       x1="512.5"
       gradientTransform="matrix(1.6581939,0,0,1.4687459,-220.53981,-939.06051)"
       gradientUnits="userSpaceOnUse"
       id="linearGradient5733"
       xlink:href="#linearGradient3778-0-0"
       inkscape:collect="always" />
  </defs>
  <sodipodi:namedview
     inkscape:document-units="mm"
     id="base"
     pagecolor="#ffffff"
     bordercolor="#666666"
     borderopacity="1.0"
     inkscape:pageopacity="0.0"
     inkscape:pageshadow="2"
     inkscape:zoom="1"
     inkscape:cx="436.4704"
     inkscape:cy="502.23928"
     inkscape:current-layer="layer1"
     showgrid="false"
     units="mm"
     inkscape:showpageshadow="false"
     borderlayer="true"
     inkscape:window-width="2560"
     inkscape:window-height="1376"
     inkscape:window-x="0"
     inkscape:window-y="27"
     inkscape:window-maximized="1"
     showguides="true"
     inkscape:guide-bbox="true"
     inkscape:snap-nodes="false"
     inkscape:snap-bbox="true">
    <sodipodi:guide
       orientation="1,0"
       position="178,631"
       id="guide3550"
       inkscape:locked="false" />
    <sodipodi:guide
       orientation="1,0"
       position="567,655"
       id="guide3552"
       inkscape:locked="false" />
    <sodipodi:guide
       orientation="0,1"
       position="354,63.000001"
       id="guide4401"
       inkscape:locked="false" />
  </sodipodi:namedview>
  <metadata
     id="metadata4">
    <rdf:RDF>
      <cc:Work
         rdf:about="">
        <dc:format>image/svg+xml</dc:format>
        <dc:type
           rdf:resource="http://purl.org/dc/dcmitype/StillImage" />
        <dc:title />
      </cc:Work>
    </rdf:RDF>
  </metadata>
  <g
     inkscape:label="Layer 1"
     inkscape:groupmode="layer"
     id="layer1">
    <path
       style="color:#000000;display:inline;overflow:visible;visibility:visible;fill:url(#linearGradient4766-5);fill-opacity:1;fill-rule:nonzero;stroke:none;stroke-width:0.99999994;marker:none;enable-background:new"
       clip-path="none"
       d="m 1673.7187,554.125 -1.8125,1.25 v 2.9375 l -9.8125,4.75 h 3.8125 V 571.5 h -1.5937 v 6.21875 h -3.5938 v 14.21875 h -16.0312 v 2.5 h 7.2187 v 76.84375 h -34.4687 v 3.15625 H 1035.25 v 515.5313 h 756.125 V 674.4375 H 1730 v -3.15625 h -34.4375 V 594.4375 h 7.1875 v -2.5 h -16 v -14.21875 h -3.625 V 571.5 h -1.5938 v -8.4375 h 3.4063 l -9.4063,-4.3125 v -3.375 z m -7.2187,9.84375 h 1.8125 v 6.625 H 1666.5 Z m 2.125,0 h 3.4062 v 6.625 h -3.4062 z m 3.6875,0 h 4.4062 v 6.625 h -4.4062 z m 4.7187,0 h 2.1875 v 6.625 h -2.1875 z m 2.5,0 h 1.4063 v 6.625 h -1.4063 z"
       id="rect3101"
       inkscape:connector-curvature="0"
       sodipodi:nodetypes="ccccccccccccccccccccccccccccccccccccccccccccccccccccccccccccc" />
    <path
       style="color:#000000;display:inline;overflow:visible;visibility:visible;fill:url(#linearGradient4766);fill-opacity:1;fill-rule:nonzero;stroke:none;stroke-width:1.02868378;marker:none;enable-background:new"
       d="M -4.7624025,1189.9634 H 795.37407 V 674.43359 H -4.7624025 Z"
       id="rect3008"
       inkscape:connector-curvature="0" />
    <g
       style="font-style:normal;font-weight:normal;font-size:40px;line-height:125%;font-family:Sans;letter-spacing:0px;word-spacing:0px;fill:#000000;fill-opacity:1;stroke:none"
       id="text4846" />
    <path
       transform="translate(0,2.6146725)"
       style="font-style:normal;font-variant:normal;font-weight:normal;font-stretch:normal;font-size:35.03768539px;line-height:125%;font-family:Cantarell;-inkscape-font-specification:Cantarell;text-align:start;letter-spacing:0px;word-spacing:0px;writing-mode:lr-tb;text-anchor:start;fill:#ffffff;fill-opacity:0.49561403;stroke:none"
       d="m 181.6875,454.21875 c -1.48092,0.0212 -2.97677,0.39464 -4.5,1.15625 l 0.375,1.3125 1.6875,-0.53125 c 0.82508,-0.25387 1.50235,-0.41634 2.03125,-0.4375 1.10011,-0.0423 1.98935,0.29176 2.6875,0.96875 0.65583,0.63468 0.86781,1.36242 0.65625,2.1875 -0.10578,0.44427 -0.48023,0.9086 -1.09375,1.4375 l -0.84375,0.71875 c -0.40196,0.31734 -0.8461,0.72207 -1.375,1.1875 -0.5289,0.46543 -1.08504,1.0206 -1.65625,1.71875 -1.01549,1.26936 -1.75332,2.63399 -2.21875,4.09375 V 469 h 9.375 v -1.5625 h -7.21875 c 0.1904,-0.57121 0.48313,-1.2081 0.90625,-1.90625 0.42312,-0.69815 1.10039,-1.45617 2.03125,-2.28125 0.14809,-0.12694 0.60232,-0.54176 1.40625,-1.21875 0.80393,-0.67699 1.42063,-1.26245 1.84375,-1.8125 0.42312,-0.55005 0.66538,-1.1456 0.75,-1.84375 0.12694,-1.07895 -0.22732,-2.03982 -1.03125,-2.84375 -0.93086,-0.90971 -2.18349,-1.33366 -3.8125,-1.3125 z m 26.03125,0.0625 c -1.50207,-0.16925 -2.88689,-0.0582 -4.15625,0.34375 -3.23686,1.03664 -4.83462,3.9375 -4.75,8.71875 0.0212,1.03664 0.16247,1.95617 0.4375,2.78125 0.27503,0.82508 0.75954,1.57398 1.5,2.1875 0.74046,0.61352 1.7518,0.9375 3,0.9375 1.2482,0 2.36048,-0.44511 3.3125,-1.3125 0.46543,-0.44427 0.86007,-0.95907 1.15625,-1.59375 0.29618,-0.63468 0.42644,-1.31195 0.46875,-2.03125 0.0635,-1.37514 -0.27973,-2.52779 -1.0625,-3.4375 -0.86739,-0.99433 -2.03015,-1.47884 -3.46875,-1.5 -0.67699,0 -1.34513,0.0899 -1.9375,0.34375 -0.59237,0.25387 -1.09804,0.61823 -1.5,1.0625 0.0635,-0.44427 0.12403,-0.81872 0.1875,-1.09375 0.38081,-1.69248 1.3114,-2.84513 2.75,-3.4375 1.10011,-0.46543 2.40418,-0.638 3.90625,-0.46875 z m 184.40625,0.0312 -3.5625,1.46875 0.65625,1.5 3.25,-1.28125 v 11.4375 h -3.4375 v 1.5625 h 8.53125 v -1.5625 h -3.40625 v -13.125 z m 71.65625,0 -5.21875,14.6875 h 1.625 l 1.5,-4.28125 h 6.0625 l 1.46875,4.28125 H 471 l -5.21875,-14.6875 z m -188.46875,0.0312 v 10.34375 c 0,0.46543 -0.0615,0.83988 -0.125,1.09375 -0.1904,0.74046 -0.66579,1.29757 -1.40625,1.59375 -0.82508,0.3385 -1.83642,0.33753 -3,0.0625 l -0.25,1.5 c 0.78277,0.1904 1.54079,0.23991 2.28125,0.21875 1.39629,-0.0423 2.45714,-0.44607 3.21875,-1.25 0.40196,-0.42312 0.68556,-0.89851 0.8125,-1.40625 0.12694,-0.50774 0.21875,-1.14464 0.21875,-1.90625 v -10.25 z m -38.34375,0.46875 v 14.1875 h 1.75 v -8.28125 c 1.03664,-0.50774 1.94607,-0.75 2.75,-0.75 0.80393,0 1.4115,0.21294 1.75,0.59375 0.3385,0.38081 0.5,1.00761 0.5,1.875 v 6.5625 h 1.71875 v -6.96875 c 0,-1.10011 -0.30379,-1.98023 -0.875,-2.59375 -0.57121,-0.61352 -1.3797,-0.9375 -2.4375,-0.9375 -1.0578,0 -2.1792,0.32398 -3.40625,0.9375 v -4.625 z m 71.25,0 v 11.96875 c 0.0212,1.4386 0.85468,2.4375 2.1875,2.4375 0.99433,0 1.70285,-0.40431 2.0625,-0.53125 v -1.3125 c -0.46543,0.14809 -0.81679,0.25 -1.21875,0.25 -1.31167,0 -1.34375,-0.68598 -1.34375,-1.46875 V 454.8124 Z m 156.5,1.21875 2.46875,7.15625 h -4.96875 z m -241.75,0.125 -1.71875,0.0937 v 2.53125 h -1.71875 v 1.4375 H 221.25 v 5.59375 c 0,1.10011 0.21198,1.96004 0.65625,2.53125 0.44427,0.57121 1.15086,0.84375 2.1875,0.84375 0.7193,0 1.46723,-0.12113 2.25,-0.375 v -1.3125 c -0.55005,0.14809 -1.10523,0.25 -1.71875,0.25 -0.61352,0 -1.05863,-0.18266 -1.3125,-0.5 -0.25387,-0.31734 -0.34375,-0.8432 -0.34375,-1.5625 v -5.46875 h 3.375 v -1.4375 h -3.375 v -2.625 z m 207.9375,0 -1.71875,0.0937 v 2.53125 h -1.71875 v 1.4375 h 1.71875 v 5.59375 c 0,1.10011 0.21198,1.96004 0.65625,2.53125 0.44427,0.57121 1.15086,0.84375 2.1875,0.84375 0.7193,0 1.46723,-0.12113 2.25,-0.375 v -1.3125 c -0.55005,0.14809 -1.10523,0.25 -1.71875,0.25 -0.61352,0 -1.05863,-0.18266 -1.3125,-0.5 -0.25387,-0.31734 -0.34375,-0.8432 -0.34375,-1.5625 v -5.46875 h 3.375 v -1.4375 h -3.375 v -2.625 z m 131.3125,0 -1.71875,0.0937 v 2.53125 h -1.71875 v 1.4375 H 560.5 v 5.59375 c 0,1.10011 0.21198,1.96004 0.65625,2.53125 0.44427,0.57121 1.18211,0.84375 2.21875,0.84375 0.7193,0 1.43598,-0.12113 2.21875,-0.375 v -1.3125 c -0.55005,0.14809 -1.10523,0.25 -1.71875,0.25 -0.61352,0 -1.02738,-0.18266 -1.28125,-0.5 -0.25387,-0.31734 -0.375,-0.8432 -0.375,-1.5625 v -5.46875 h 3.375 v -1.4375 h -3.375 v -2.625 z m -56.25,2.46875 c -0.68492,-0.0397 -1.33407,0.048 -1.96875,0.3125 -0.69815,0.29618 -1.28457,0.7312 -1.75,1.28125 -0.90971,1.0578 -1.31444,2.5849 -1.1875,4.53125 0.0635,0.97317 0.35716,1.80185 0.84375,2.5 0.48659,0.69815 1.05185,1.21391 1.75,1.53125 0.69815,0.31734 1.42492,0.44856 2.25,0.40625 0.82508,-0.0423 1.62348,-0.26438 2.40625,-0.6875 v 0.3125 c 0,0.65583 -0.0202,1.11007 -0.0625,1.40625 -0.14809,1.31167 -0.74364,2.21198 -1.84375,2.65625 -1.14242,0.46543 -2.51715,0.40487 -4.125,-0.1875 l -0.4375,1.25 c 0.27503,0.12694 0.53747,0.19663 0.8125,0.28125 1.41745,0.44427 2.7417,0.49475 3.96875,0.15625 0.82508,-0.21156 1.50235,-0.58601 2.03125,-1.09375 0.5289,-0.50774 0.8721,-1.05379 1.0625,-1.625 0.1904,-0.57121 0.28125,-1.32011 0.28125,-2.1875 V 458.8124 h -1.1875 l -0.21875,0.5625 -0.46875,-0.1875 c -0.75104,-0.3385 -1.47133,-0.52283 -2.15625,-0.5625 z m -92.03125,0.0625 c -0.84359,-0.0106 -1.60378,0.11055 -2.3125,0.375 -0.74046,0.29618 -1.32785,0.67685 -1.6875,1.375 -0.46543,0.90971 -0.28083,2.22013 0.375,2.8125 0.50774,0.46543 0.7677,0.57785 1.65625,0.9375 l 1.5,0.46875 c 0.57121,0.16925 1.0365,0.45478 1.375,0.6875 0.40196,0.27503 0.59375,0.59804 0.59375,1 0,1.01549 -1.12873,1.4375 -2.25,1.4375 -1.2482,0 -2.45133,-0.27448 -3.59375,-0.71875 v 1.5625 c 0.93086,0.40196 2.18446,0.59375 3.75,0.59375 1.56554,0 2.7081,-0.48645 3.40625,-1.375 0.78277,-0.99433 0.63758,-2.46529 -0.1875,-3.375 -0.38081,-0.42312 -1.25996,-0.77351 -2.65625,-1.28125 L 413,462.84375 c -0.46543,-0.16925 -0.78941,-0.33172 -0.9375,-0.4375 -0.35965,-0.23272 -0.625,-0.44898 -0.625,-1.0625 0,-0.21156 0.11103,-0.44469 0.34375,-0.65625 0.55005,-0.50774 1.19027,-0.5625 2.375,-0.5625 0.67699,0 1.51576,0.16247 2.53125,0.4375 v -1.4375 c -0.99433,-0.28561 -1.90641,-0.42692 -2.75,-0.4375 z m 131.3125,0 c -0.84359,-0.0106 -1.60378,0.11055 -2.3125,0.375 -0.74046,0.29618 -1.2966,0.67685 -1.65625,1.375 -0.46543,0.90971 -0.28083,2.22013 0.375,2.8125 0.50774,0.46543 0.73645,0.57785 1.625,0.9375 l 1.53125,0.46875 c 0.57121,0.16925 1.0365,0.45478 1.375,0.6875 0.40196,0.27503 0.59375,0.59804 0.59375,1 0,1.01549 -1.12873,1.4375 -2.25,1.4375 -1.2482,0 -2.45133,-0.27448 -3.59375,-0.71875 v 1.5625 c 0.93086,0.40196 2.18446,0.59375 3.75,0.59375 1.56554,0 2.67685,-0.48645 3.375,-1.375 0.78277,-0.99433 0.66883,-2.46529 -0.15625,-3.375 -0.38081,-0.42312 -1.29121,-0.77351 -2.6875,-1.28125 l -0.90625,-0.34375 c -0.46543,-0.16925 -0.78941,-0.33172 -0.9375,-0.4375 -0.35965,-0.23272 -0.59375,-0.44898 -0.59375,-1.0625 0,-0.21156 0.11103,-0.44469 0.34375,-0.65625 0.55005,-0.50774 1.15902,-0.5625 2.34375,-0.5625 0.67699,0 1.54701,0.16247 2.5625,0.4375 v -1.4375 c -0.99433,-0.28561 -1.93766,-0.42692 -2.78125,-0.4375 z m -223.625,0.125 4.15625,10.59375 -2.09375,5.0625 H 325.5 l 5.84375,-15.65625 h -1.625 l -3.1875,8.625 -3.1875,-8.625 z m -32.84375,0.0312 v 6.90625 c 0,1.10011 0.27254,1.94898 0.84375,2.5625 0.57121,0.61352 1.3898,0.9375 2.46875,0.9375 1.07895,0 2.27199,-0.35426 3.5625,-1.03125 l 0.3125,0.78125 h 1.21875 V 458.8436 h -1.75 v 8.21875 c -1.03664,0.48659 -1.94607,0.71875 -2.75,0.71875 -0.80393,0 -1.349,-0.18169 -1.6875,-0.5625 -0.3385,-0.38081 -0.5,-1.00761 -0.5,-1.875 v -6.5 z m 192.65625,0 v 6.90625 c 0,1.10011 0.27254,1.94898 0.84375,2.5625 0.57121,0.61352 1.3898,0.9375 2.46875,0.9375 1.07895,0 2.24074,-0.35426 3.53125,-1.03125 L 488.625,469 h 1.21875 v -10.15625 h -1.75 v 8.21875 c -1.03664,0.48659 -1.94607,0.71875 -2.75,0.71875 -0.80393,0 -1.349,-0.18169 -1.6875,-0.5625 -0.3385,-0.38081 -0.5,-1.00761 -0.5,-1.875 v -6.5 h -1.71875 z m 39.53125,0 v 6.90625 c 0,1.10011 0.30379,1.94898 0.875,2.5625 0.57121,0.61352 1.35855,0.9375 2.4375,0.9375 1.07895,0 2.27199,-0.35426 3.5625,-1.03125 L 528.1875,469 h 1.1875 v -10.15625 h -1.71875 v 8.21875 c -1.03664,0.48659 -1.94607,0.71875 -2.75,0.71875 -0.80393,0 -1.349,-0.18169 -1.6875,-0.5625 -0.3385,-0.38081 -0.53125,-1.00761 -0.53125,-1.875 v -6.5 h -1.71875 z m -15,1.15625 c 0.68757,0.003 1.46578,0.1716 2.34375,0.53125 v 6.71875 c -0.57121,0.31734 -1.2081,0.46778 -1.90625,0.53125 -0.69815,0.0635 -1.33504,-0.0264 -1.90625,-0.34375 -0.57121,-0.31734 -1.01632,-0.76148 -1.3125,-1.375 -0.44427,-0.88855 -0.58559,-1.92008 -0.4375,-3.0625 0.14809,-1.16358 0.63357,-1.9711 1.4375,-2.5 0.49716,-0.32792 1.09368,-0.50264 1.78125,-0.5 z M 203.875,460.8125 c 0.44163,0.0159 0.8788,0.13219 1.3125,0.34375 0.44427,0.21156 0.79757,0.4841 1.09375,0.84375 0.5289,0.67699 0.78222,1.49654 0.71875,2.40625 -0.0635,0.90971 -0.40763,1.69801 -1,2.375 -0.59237,0.67699 -1.32011,1.03125 -2.1875,1.03125 -0.93086,0 -1.71917,-0.43598 -2.375,-1.21875 -0.57121,-0.69815 -0.88509,-1.51673 -0.90625,-2.46875 -0.0212,-0.95202 0.30282,-1.75042 0.9375,-2.40625 0.31734,-0.29618 0.63938,-0.53941 1.0625,-0.6875 0.44427,-0.16925 0.90212,-0.23462 1.34375,-0.21875 z m 152,0.65625 v 1.4375 H 362 v -1.4375 z"
       id="path5005"
       inkscape:connector-curvature="0" />
    <g
       style="font-style:normal;font-variant:normal;font-weight:normal;font-stretch:normal;font-size:21.15597343px;line-height:125%;font-family:Cantarell;-inkscape-font-specification:Cantarell;text-align:center;letter-spacing:0px;word-spacing:0px;writing-mode:lr-tb;text-anchor:middle;fill:#000000;fill-opacity:1;stroke:none"
       id="text2996">
      <path
         d="m 177.17244,455.36994 0.40196,1.31167 1.67133,-0.5289 c 0.82508,-0.25387 1.50207,-0.40196 2.03097,-0.42312 1.10011,-0.0423 1.98866,0.27503 2.68681,0.95202 0.65583,0.63468 0.88855,1.35398 0.67699,2.17906 -0.10578,0.44428 -0.48659,0.93087 -1.10011,1.45977 l -0.8674,0.7193 c -0.40196,0.31734 -0.84624,0.69815 -1.37514,1.16358 -0.52889,0.46543 -1.05779,1.03664 -1.62901,1.73479 -1.01548,1.26935 -1.75594,2.6445 -2.22137,4.10426 v 0.95201 h 9.37209 V 467.45 h -7.23534 c 0.1904,-0.57121 0.48659,-1.22705 0.90971,-1.92519 0.42312,-0.69815 1.10011,-1.45977 2.03097,-2.28485 0.14809,-0.12694 0.61353,-0.5289 1.41745,-1.20589 0.80393,-0.67699 1.41745,-1.26936 1.84057,-1.81941 0.42312,-0.55006 0.65584,-1.14243 0.74046,-1.84057 0.12694,-1.07896 -0.23272,-2.03098 -1.03664,-2.8349 -0.93086,-0.90971 -2.17907,-1.35399 -3.80808,-1.33283 -1.48091,0.0212 -2.98299,0.40196 -4.50622,1.16358"
         style="font-family:Cantarell;-inkscape-font-specification:Cantarell;letter-spacing:8.5132103"
         id="path5388"
         inkscape:connector-curvature="0" />
      <path
         d="m 198.81855,463.34574 c 0.0212,1.03664 0.14809,1.96751 0.42312,2.79259 0.27503,0.82508 0.76162,1.56554 1.50208,2.17906 0.74045,0.61353 1.75594,0.93087 3.00414,0.93087 1.2482,0 2.36947,-0.44428 3.32149,-1.31167 0.46543,-0.44428 0.84624,-0.97318 1.14242,-1.60786 0.29619,-0.63468 0.44428,-1.31167 0.48659,-2.03097 0.0635,-1.37514 -0.29618,-2.51756 -1.07895,-3.42727 -0.8674,-0.99433 -2.03098,-1.48092 -3.46958,-1.50207 -0.67699,0 -1.33283,0.10578 -1.9252,0.35965 -0.59236,0.25387 -1.10011,0.61352 -1.50207,1.0578 0.0635,-0.44428 0.12693,-0.82509 0.1904,-1.10011 0.38081,-1.69248 1.31167,-2.85606 2.75028,-3.44843 1.10011,-0.46543 2.41178,-0.61352 3.91385,-0.44427 l 0.12694,-1.52323 c -1.50207,-0.16925 -2.87721,-0.0423 -4.14657,0.35965 -3.23686,1.03664 -4.82356,3.93501 -4.73894,8.71626 m 6.36795,-2.20022 c 0.44427,0.21156 0.80393,0.50774 1.10011,0.86739 0.5289,0.67699 0.78277,1.48092 0.7193,2.39063 -0.0635,0.9097 -0.40196,1.71363 -0.99433,2.39062 -0.59236,0.67699 -1.33282,1.01549 -2.20022,1.01549 -0.93086,0 -1.71363,-0.42312 -2.36947,-1.20589 -0.57121,-0.69815 -0.88855,-1.52323 -0.9097,-2.47525 -0.0212,-0.95202 0.29618,-1.75595 0.93086,-2.41178 0.31734,-0.29618 0.65583,-0.5289 1.07895,-0.67699 0.88855,-0.3385 1.77711,-0.31734 2.6445,0.10578"
         style="font-family:Cantarell;-inkscape-font-specification:Cantarell;letter-spacing:8.5132103"
         id="path5390"
         inkscape:connector-curvature="0" />
      <path
         d="m 219.5338,460.21466 h 1.71363 v 5.60633 c 0,1.10011 0.21156,1.94635 0.65584,2.51756 0.44427,0.57121 1.16358,0.84624 2.20022,0.84624 0.7193,0 1.45976,-0.12694 2.24253,-0.38081 v -1.29051 c -0.55005,0.14809 -1.12126,0.23271 -1.73479,0.23271 -0.61352,0 -1.03664,-0.16925 -1.29051,-0.48659 -0.25387,-0.31733 -0.35965,-0.84623 -0.35965,-1.56554 v -5.47939 h 3.38495 v -1.43861 h -3.38495 v -2.62334 l -1.71364,0.0846 v 2.53872 h -1.71363 v 1.43861"
         style="font-family:Cantarell;-inkscape-font-specification:Cantarell;letter-spacing:8.5132103"
         id="path5392"
         inkscape:connector-curvature="0" />
      <path
         d="m 243.20989,460.55315 c 0.3385,0.38081 0.50775,1.01549 0.50775,1.88288 v 6.55835 h 1.71363 v -6.96031 c 0,-1.10011 -0.29618,-1.98866 -0.86739,-2.60219 -0.57122,-0.61352 -1.37514,-0.93086 -2.43294,-0.93086 -1.0578,0 -2.17907,0.31734 -3.40611,0.93086 v -4.612 h -1.75595 v 14.1745 h 1.75595 v -8.27198 c 1.03664,-0.50774 1.94635,-0.76162 2.75027,-0.76162 0.80393,0 1.3963,0.21156 1.73479,0.59237"
         style="font-family:Cantarell;-inkscape-font-specification:Cantarell;letter-spacing:8.5132103"
         id="path5394"
         inkscape:connector-curvature="0" />
      <path
         d="m 275.29871,454.3333 v 10.34527 c 0,0.46543 -0.0423,0.84624 -0.10578,1.10011 -0.19041,0.74046 -0.67699,1.29051 -1.41745,1.58669 -0.82508,0.3385 -1.81942,0.35966 -2.98299,0.0846 l -0.27503,1.48092 c 0.78277,0.1904 1.54438,0.25387 2.28484,0.23271 1.3963,-0.0423 2.47525,-0.46543 3.23687,-1.26936 0.40196,-0.42311 0.67699,-0.88855 0.80392,-1.39629 0.12694,-0.50774 0.21156,-1.14242 0.21156,-1.90404 v -10.26064 h -1.75594"
         style="font-family:Cantarell;-inkscape-font-specification:Cantarell;letter-spacing:8.5132103"
         id="path5396"
         inkscape:connector-curvature="0" />
      <path
         d="m 291.00958,467.21728 c -0.3385,-0.3808 -0.50775,-1.01548 -0.50775,-1.88288 v -6.49488 h -1.71363 v 6.918 c 0,1.10011 0.27503,1.94635 0.84624,2.55987 0.57121,0.61353 1.37514,0.93087 2.45409,0.93087 1.07895,0 2.26369,-0.3385 3.5542,-1.01549 l 0.3385,0.76161 h 1.20589 v -10.15486 h -1.73479 v 8.20852 c -1.03664,0.48658 -1.94635,0.74045 -2.75028,0.74045 -0.80392,0 -1.35398,-0.1904 -1.69247,-0.57121"
         style="font-family:Cantarell;-inkscape-font-specification:Cantarell;letter-spacing:8.5132103"
         id="path5398"
         inkscape:connector-curvature="0" />
      <path
         d="m 311.25344,467.61925 c -1.31167,0 -1.35398,-0.677 -1.35398,-1.45977 l 0.0212,-11.36075 h -1.69248 l -0.0212,11.97428 c 0.0212,1.4386 0.86739,2.43293 2.20022,2.43293 0.99433,0 1.69248,-0.3808 2.05213,-0.50774 v -1.31167 c -0.46543,0.14809 -0.80393,0.23272 -1.20589,0.23272"
         style="font-family:Cantarell;-inkscape-font-specification:Cantarell;letter-spacing:8.5132103"
         id="path5400"
         inkscape:connector-curvature="0" />
      <path
         d="m 329.72417,458.79721 -3.19455,8.65279 -3.19455,-8.65279 h -1.71364 l 4.16773,10.59914 -2.09444,5.07743 h 1.79826 l 5.83904,-15.67657 h -1.60785"
         style="font-family:Cantarell;-inkscape-font-specification:Cantarell;letter-spacing:8.5132103"
         id="path5402"
         inkscape:connector-curvature="0" />
      <path
         d="m 355.87411,461.48401 v 1.41745 h 6.13524 v -1.41745 h -6.13524"
         style="font-family:Cantarell;-inkscape-font-specification:Cantarell;letter-spacing:8.5132103"
         id="path5404"
         inkscape:connector-curvature="0" />
      <path
         d="m 392.12767,454.31214 -3.5542,1.45976 0.65584,1.50208 3.23686,-1.26936 V 467.45 h -3.44842 v 1.54438 h 8.54701 V 467.45 h -3.40611 v -13.13786 h -2.03098"
         style="font-family:Cantarell;-inkscape-font-specification:Cantarell;letter-spacing:8.5132103"
         id="path5406"
         inkscape:connector-curvature="0" />
      <path
         d="m 413.20257,467.76734 c -1.2482,0 -2.45409,-0.25387 -3.59651,-0.69815 v 1.54439 c 0.93086,0.40196 2.17906,0.59236 3.7446,0.59236 1.56554,0 2.68681,-0.46543 3.38496,-1.35398 0.78277,-0.99433 0.65583,-2.47525 -0.16925,-3.38495 -0.38081,-0.42312 -1.26936,-0.78278 -2.66565,-1.29052 l -0.90971,-0.33849 c -0.46543,-0.16925 -0.78277,-0.3385 -0.93086,-0.44428 -0.35965,-0.23271 -0.61353,-0.42312 -0.61353,-1.03664 0,-0.21156 0.10578,-0.44428 0.3385,-0.65584 0.55006,-0.50774 1.18474,-0.57121 2.36947,-0.57121 0.67699,0 1.52323,0.14809 2.53872,0.42312 v -1.41745 c -1.98866,-0.57121 -3.65999,-0.59237 -5.07744,-0.0635 -0.74046,0.29619 -1.31167,0.677 -1.67132,1.37514 -0.46543,0.90971 -0.27503,2.22138 0.38081,2.81375 0.50774,0.46543 0.74046,0.57121 1.62901,0.93086 l 1.52323,0.46543 c 0.57121,0.16925 1.03664,0.44428 1.37514,0.67699 0.40196,0.27503 0.59236,0.61352 0.59236,1.01549 0,1.01548 -1.12126,1.41745 -2.24253,1.41745"
         style="font-family:Cantarell;-inkscape-font-specification:Cantarell;letter-spacing:8.5132103"
         id="path5408"
         inkscape:connector-curvature="0" />
      <path
         d="m 427.47219,460.21466 h 1.71364 v 5.60633 c 0,1.10011 0.21156,1.94635 0.65583,2.51756 0.44428,0.57121 1.16358,0.84624 2.20022,0.84624 0.71931,0 1.45977,-0.12694 2.24254,-0.38081 v -1.29051 c -0.55006,0.14809 -1.12127,0.23271 -1.73479,0.23271 -0.61353,0 -1.03665,-0.16925 -1.29052,-0.48659 -0.25387,-0.31733 -0.35965,-0.84623 -0.35965,-1.56554 v -5.47939 h 3.38496 v -1.43861 h -3.38496 v -2.62334 l -1.71363,0.0846 v 2.53872 h -1.71364 v 1.43861"
         style="font-family:Cantarell;-inkscape-font-specification:Cantarell;letter-spacing:8.5132103"
         id="path5410"
         inkscape:connector-curvature="0" />
      <path
         d="m 463.79616,454.31214 -5.22553,14.68224 h 1.62901 l 1.48092,-4.2735 h 6.07177 l 1.48091,4.2735 h 1.77711 l -5.22553,-14.68224 h -1.98866 m 0.93086,1.71363 2.47525,7.17188 h -4.99281 l 2.51756,-7.17188"
         style="font-family:Cantarell;-inkscape-font-specification:Cantarell;letter-spacing:8.5132103"
         id="path5412"
         inkscape:connector-curvature="0" />
      <path
         d="m 483.65823,467.21728 c -0.3385,-0.3808 -0.50775,-1.01548 -0.50775,-1.88288 v -6.49488 h -1.71363 v 6.918 c 0,1.10011 0.27503,1.94635 0.84624,2.55987 0.57121,0.61353 1.37514,0.93087 2.45409,0.93087 1.07895,0 2.26369,-0.3385 3.5542,-1.01549 l 0.3385,0.76161 h 1.20589 v -10.15486 h -1.73479 v 8.20852 c -1.03664,0.48658 -1.94635,0.74045 -2.75028,0.74045 -0.80392,0 -1.35398,-0.1904 -1.69247,-0.57121"
         style="font-family:Cantarell;-inkscape-font-specification:Cantarell;letter-spacing:8.5132103"
         id="path5414"
         inkscape:connector-curvature="0" />
      <path
         d="m 503.98671,458.9453 c -0.69814,0.29618 -1.26936,0.7193 -1.73479,1.26936 -0.9097,1.05779 -1.31167,2.58103 -1.18473,4.52737 0.0635,0.97318 0.33849,1.81942 0.82508,2.51756 0.48659,0.69815 1.0578,1.2059 1.75595,1.52324 0.69814,0.31733 1.41745,0.44427 2.24253,0.40196 0.82508,-0.0423 1.62901,-0.25387 2.41178,-0.67699 v 0.29618 c 0,0.65584 0,1.12127 -0.0423,1.41745 -0.14809,1.31167 -0.76162,2.20022 -1.86173,2.6445 -1.14242,0.46543 -2.4964,0.42312 -4.10426,-0.16925 l -0.46543,1.22705 c 0.27503,0.12693 0.55006,0.21156 0.82509,0.29618 1.41745,0.44428 2.72912,0.48659 3.95616,0.14809 0.82509,-0.21156 1.50208,-0.57121 2.03098,-1.07895 0.5289,-0.50775 0.88855,-1.0578 1.07895,-1.62901 0.19041,-0.57121 0.27503,-1.31167 0.27503,-2.17907 v -10.68376 h -1.18474 l -0.21156,0.59236 -0.48658,-0.21156 c -1.50208,-0.67699 -2.85606,-0.76161 -4.12542,-0.23271 m 4.31582,8.29314 c -0.57121,0.31734 -1.20589,0.48659 -1.90404,0.55005 -0.69814,0.0635 -1.33282,-0.0423 -1.90403,-0.35965 -0.57121,-0.31734 -1.01549,-0.76161 -1.31167,-1.37514 -0.44428,-0.88855 -0.59237,-1.90403 -0.44428,-3.04646 0.14809,-1.16357 0.63468,-1.98866 1.43861,-2.51756 0.99433,-0.65583 2.36947,-0.67699 4.12541,0.0423 v 6.70644"
         style="font-family:Cantarell;-inkscape-font-specification:Cantarell;letter-spacing:8.5132103"
         id="path5416"
         inkscape:connector-curvature="0" />
      <path
         d="m 523.20419,467.21728 c -0.3385,-0.3808 -0.50775,-1.01548 -0.50775,-1.88288 v -6.49488 h -1.71363 v 6.918 c 0,1.10011 0.27503,1.94635 0.84624,2.55987 0.57121,0.61353 1.37514,0.93087 2.45409,0.93087 1.07895,0 2.26369,-0.3385 3.5542,-1.01549 l 0.3385,0.76161 h 1.20589 v -10.15486 h -1.73479 v 8.20852 c -1.03664,0.48658 -1.94635,0.74045 -2.75028,0.74045 -0.80392,0 -1.35398,-0.1904 -1.69247,-0.57121"
         style="font-family:Cantarell;-inkscape-font-specification:Cantarell;letter-spacing:8.5132103"
         id="path5418"
         inkscape:connector-curvature="0" />
      <path
         d="m 544.527,467.76734 c -1.2482,0 -2.45409,-0.25387 -3.59651,-0.69815 v 1.54439 c 0.93086,0.40196 2.17906,0.59236 3.7446,0.59236 1.56555,0 2.68681,-0.46543 3.38496,-1.35398 0.78277,-0.99433 0.65583,-2.47525 -0.16925,-3.38495 -0.3808,-0.42312 -1.26936,-0.78278 -2.66565,-1.29052 l -0.90971,-0.33849 c -0.46543,-0.16925 -0.78277,-0.3385 -0.93086,-0.44428 -0.35965,-0.23271 -0.61352,-0.42312 -0.61352,-1.03664 0,-0.21156 0.10578,-0.44428 0.33849,-0.65584 0.55006,-0.50774 1.18474,-0.57121 2.36947,-0.57121 0.67699,0 1.52323,0.14809 2.53872,0.42312 v -1.41745 c -1.98866,-0.57121 -3.65999,-0.59237 -5.07744,-0.0635 -0.74045,0.29619 -1.31167,0.677 -1.67132,1.37514 -0.46543,0.90971 -0.27502,2.22138 0.38081,2.81375 0.50774,0.46543 0.74046,0.57121 1.62901,0.93086 l 1.52323,0.46543 c 0.57121,0.16925 1.03664,0.44428 1.37514,0.67699 0.40196,0.27503 0.59237,0.61352 0.59237,1.01549 0,1.01548 -1.12127,1.41745 -2.24254,1.41745"
         style="font-family:Cantarell;-inkscape-font-specification:Cantarell;letter-spacing:8.5132103"
         id="path5420"
         inkscape:connector-curvature="0" />
      <path
         d="m 558.79664,460.21466 h 1.71363 v 5.60633 c 0,1.10011 0.21156,1.94635 0.65584,2.51756 0.44427,0.57121 1.16358,0.84624 2.20022,0.84624 0.7193,0 1.45976,-0.12694 2.24253,-0.38081 v -1.29051 c -0.55005,0.14809 -1.12126,0.23271 -1.73479,0.23271 -0.61352,0 -1.03664,-0.16925 -1.29051,-0.48659 -0.25387,-0.31733 -0.35965,-0.84623 -0.35965,-1.56554 v -5.47939 h 3.38495 v -1.43861 h -3.38495 v -2.62334 l -1.71364,0.0846 v 2.53872 h -1.71363 v 1.43861"
         style="font-family:Cantarell;-inkscape-font-specification:Cantarell;letter-spacing:8.5132103"
         id="path5422"
         inkscape:connector-curvature="0" />
    </g>
    <path
       inkscape:connector-curvature="0"
       id="path5800"
       style="font-style:normal;font-variant:normal;font-weight:normal;font-stretch:normal;font-size:85.01324463px;line-height:125%;font-family:'Gill Sans ExtraBoldDisplay';-inkscape-font-specification:'Gill Sans ExtraBoldDisplay';text-align:start;letter-spacing:-6.07060289;word-spacing:0px;writing-mode:lr-tb;text-anchor:start;fill:#000000;fill-opacity:1;stroke:none"
       d="m 239.76074,278.76669 v 16.91611 c -5.99319,-3.73761 -12.05077,-5.60643 -18.17273,-5.60648 -6.3154,5e-5 -11.27744,1.83666 -14.88618,5.50982 -3.35102,3.41548 -5.02652,7.76534 -5.0265,13.04956 -2e-5,4.25322 1.12772,7.95865 3.38322,11.11631 3.0932,4.44653 7.99081,6.66978 14.69285,6.66977 0.83771,10e-6 1.83656,-0.0645 2.99657,-0.19333 v -7.73308 h -6.8631 v -14.30619 h 24.93916 v 35.95881 c -7.21759,1.86883 -15.62731,2.80324 -25.22916,2.80325 -13.66179,-10e-6 -23.84367,-4.05987 -30.54566,-12.1796 -4.96206,-6.05756 -7.44308,-13.24288 -7.44308,-21.55596 0,-12.24399 5.02649,-21.717 15.0795,-28.41905 6.44421,-4.31757 14.78948,-6.47639 25.03584,-6.47646 7.8619,7e-5 15.20832,1.48225 22.03927,4.44652" />
    <path
       inkscape:connector-curvature="0"
       id="path5802"
       style="font-style:normal;font-variant:normal;font-weight:normal;font-stretch:normal;font-size:85.01324463px;line-height:125%;font-family:'Gill Sans ExtraBoldDisplay';-inkscape-font-specification:'Gill Sans ExtraBoldDisplay';text-align:start;letter-spacing:-6.07060289;word-spacing:0px;writing-mode:lr-tb;text-anchor:start;fill:#000000;fill-opacity:1;stroke:none"
       d="m 292.33344,275.19014 h 23.77921 v 33.3489 c -8e-5,10.76189 -2.60998,18.88161 -7.82973,24.3592 -6.37986,6.70199 -15.78843,10.05299 -28.22574,10.053 -11.9863,-10e-6 -21.26598,-3.35101 -27.83909,-10.053 -5.21983,-5.28426 -7.82973,-13.40399 -7.82973,-24.3592 v -33.3489 h 23.77921 v 29.09571 c -3e-5,6.76647 0.45107,11.40631 1.35328,13.91953 1.67548,4.51099 5.25203,6.76647 10.72965,6.76645 5.34867,2e-5 8.89299,-2.35213 10.63298,-7.05643 0.96659,-2.64212 1.4499,-7.18528 1.44996,-13.62955 v -29.09571" />
    <path
       inkscape:connector-curvature="0"
       id="path5804"
       style="font-style:normal;font-variant:normal;font-weight:normal;font-stretch:normal;font-size:85.01324463px;line-height:125%;font-family:'Gill Sans ExtraBoldDisplay';-inkscape-font-specification:'Gill Sans ExtraBoldDisplay';text-align:start;letter-spacing:-6.07060289;word-spacing:0px;writing-mode:lr-tb;text-anchor:start;fill:#000000;fill-opacity:1;stroke:none"
       d="m 366.91521,342.17793 -3.76988,-10.343 h -24.84251 l -3.96321,10.343 h -24.3592 l 28.32241,-66.98779 h 24.84251 l 28.22573,66.98779 h -24.45585 m -16.14281,-44.94852 -7.53975,20.68599 h 14.88618 l -7.34643,-20.68599" />
    <path
       inkscape:connector-curvature="0"
       id="path5806"
       style="font-style:normal;font-variant:normal;font-weight:normal;font-stretch:normal;font-size:85.01324463px;line-height:125%;font-family:'Gill Sans ExtraBoldDisplay';-inkscape-font-specification:'Gill Sans ExtraBoldDisplay';text-align:start;letter-spacing:-6.07060289;word-spacing:0px;writing-mode:lr-tb;text-anchor:start;fill:#000000;fill-opacity:1;stroke:none"
       d="m 390.79245,342.17793 v -66.98779 h 28.8057 c 12.37289,7e-5 21.94256,3.12552 28.70906,9.37636 6.9597,6.44428 10.43957,14.69289 10.43965,24.74585 -8e-5,6.31537 -1.54669,12.21183 -4.63985,17.68941 -3.28662,5.67093 -7.6687,9.73079 -13.14623,12.1796 -3.15773,1.41773 -6.9276,2.31993 -11.30962,2.70658 -2.25553,0.19333 -6.15428,0.28999 -11.69628,0.28999 h -27.16243 m 23.7792,-50.94165 v 34.70218 h 3.28656 c 5.86421,2e-5 10.05296,-1.28882 12.56626,-3.86654 3.02873,-3.15764 4.54313,-7.53971 4.54318,-13.14623 -5e-5,-5.86421 -1.57888,-10.40739 -4.73651,-13.62954 -2.64218,-2.70653 -6.99203,-4.05983 -13.04957,-4.05987 h -2.60992" />
    <path
       inkscape:connector-curvature="0"
       id="path5808"
       style="font-style:normal;font-variant:normal;font-weight:normal;font-stretch:normal;font-size:85.01324463px;line-height:125%;font-family:'Gill Sans ExtraBoldDisplay';-inkscape-font-specification:'Gill Sans ExtraBoldDisplay';text-align:start;letter-spacing:-6.07060289;word-spacing:0px;writing-mode:lr-tb;text-anchor:start;fill:#000000;fill-opacity:1;stroke:none"
       d="m 509.17634,327.09842 v 15.07951 h -49.2017 v -66.98779 h 48.71839 v 15.07951 h -24.93918 v 10.43965 h 23.48923 v 15.0795 h -23.48923 v 11.30962 h 25.42249" />
    <path
       inkscape:connector-curvature="0"
       id="path5810"
       style="font-style:normal;font-variant:normal;font-weight:normal;font-stretch:normal;font-size:85.01324463px;line-height:125%;font-family:'Gill Sans ExtraBoldDisplay';-inkscape-font-specification:'Gill Sans ExtraBoldDisplay';text-align:start;letter-spacing:-6.07060289;word-spacing:0px;writing-mode:lr-tb;text-anchor:start;fill:#000000;fill-opacity:1;stroke:none"
       d="m 566.92204,319.17202 v 18.2694 c -3.93103,1.86882 -7.15314,3.15767 -9.66634,3.86653 -3.93103,1.09552 -8.34533,1.64328 -13.2429,1.64329 -11.47076,-10e-6 -20.62156,-3.54433 -27.45243,-10.63299 -6.18646,-6.37977 -9.27969,-14.14506 -9.27969,-23.29589 0,-8.44191 2.57769,-15.85276 7.73308,-22.2326 6.70199,-8.31299 16.52942,-12.46952 29.48236,-12.46959 7.73303,7e-5 15.015,1.48225 21.84594,4.44652 v 20.00934 c -6.18651,-4.38203 -12.27631,-6.57306 -18.26939,-6.57312 -6.05762,6e-5 -10.6008,1.99776 -13.62956,5.99313 -2.2555,2.96439 -3.38324,6.37983 -3.38321,10.24634 -3e-5,4.76876 1.67547,8.69973 5.0265,11.79294 3.35096,3.09325 7.73303,4.63986 13.14623,4.63985 5.73531,10e-6 11.63178,-1.90103 17.68941,-5.70315" />
    <g
       style="color:#000000;font-style:normal;font-variant:normal;font-weight:bold;font-stretch:normal;font-size:16px;line-height:125%;font-family:Cantarell;-inkscape-font-specification:'Cantarell Bold';text-align:start;letter-spacing:0px;word-spacing:0px;writing-mode:lr-tb;text-anchor:start;display:inline;overflow:visible;visibility:visible;fill:#ffffff;fill-opacity:1;fill-rule:nonzero;stroke:none;stroke-width:0.7869643;marker:none;enable-background:accumulate"
       id="text4380"
       transform="translate(-279,36)">
      <text
         xml:space="preserve"
         style="color:#000000;font-style:normal;font-variant:normal;font-weight:normal;font-stretch:normal;font-size:16px;line-height:25px;font-family:'Source Sans Pro';-inkscape-font-specification:'Source Sans Pro, Normal';font-variant-ligatures:normal;font-variant-caps:normal;font-variant-numeric:normal;font-feature-settings:normal;text-indent:0;text-align:center;text-decoration:none;text-decoration-line:none;letter-spacing:0px;word-spacing:0px;text-transform:none;writing-mode:lr-tb;direction:ltr;baseline-shift:baseline;text-anchor:middle;display:inline;overflow:visible;visibility:visible;fill:#ffffff;fill-opacity:1;fill-rule:nonzero;stroke:none;stroke-width:1;stroke-linecap:butt;stroke-linejoin:miter;stroke-opacity:1;marker:none;marker-start:none;marker-mid:none;marker-end:none;enable-background:accumulate"
         x="675.75366"
         y="1021.5197"
         id="text7973"><tspan
           sodipodi:role="line"
           id="tspan7971"
           x="675.75366"
           y="1021.5197">www.guadec.org</tspan></text>
    </g>
    <path
       style="color:#000000;display:inline;overflow:visible;visibility:visible;fill:#688c9d;fill-opacity:1;fill-rule:nonzero;stroke:none;stroke-width:0.7869643;marker:none;enable-background:accumulate"
       d="m 1206,650.36218 c 0,3.866 -3.134,7 -7,7 -3.866,0 -7,-3.134 -7,-7 0,-3.86599 3.134,-7 7,-7 3.866,0 7,3.13401 7,7 z"
       id="path4765"
       inkscape:connector-curvature="0" />
    <path
       style="color:#000000;display:inline;overflow:visible;visibility:visible;fill:#688c9d;fill-opacity:1;fill-rule:nonzero;stroke:none;stroke-width:0.7869643;marker:none;enable-background:accumulate"
       d="m 1226,650.36218 c 0,3.866 -3.134,7 -7,7 -3.866,0 -7,-3.134 -7,-7 0,-3.86599 3.134,-7 7,-7 3.866,0 7,3.13401 7,7 z"
       id="path4767"
       inkscape:connector-curvature="0" />
    <path
       style="color:#000000;display:inline;overflow:visible;visibility:visible;fill:#688c9d;fill-opacity:1;fill-rule:nonzero;stroke:none;stroke-width:0.7869643;marker:none;enable-background:accumulate"
       d="m 1246,650.36218 c 0,3.866 -3.134,7 -7,7 -3.866,0 -7,-3.134 -7,-7 0,-3.86599 3.134,-7 7,-7 3.866,0 7,3.13401 7,7 z"
       id="path4769"
       inkscape:connector-curvature="0" />
    <path
       style="color:#000000;display:inline;overflow:visible;visibility:visible;fill:#688c9d;fill-opacity:1;fill-rule:nonzero;stroke:none;stroke-width:0.7869643;marker:none;enable-background:accumulate"
       d="m 1266,650.36218 c 0,3.866 -3.134,7 -7,7 -3.866,0 -7,-3.134 -7,-7 0,-3.86599 3.134,-7 7,-7 3.866,0 7,3.13401 7,7 z"
       id="path4771"
       inkscape:connector-curvature="0" />
    <path
       style="color:#000000;display:inline;overflow:visible;visibility:visible;fill:#688c9d;fill-opacity:1;fill-rule:nonzero;stroke:none;stroke-width:0.7869643;marker:none;enable-background:accumulate"
       d="m 1197.5,654.61218 h 2.5 v 25 h -2.5 z"
       id="rect4777"
       inkscape:connector-curvature="0" />
    <path
       style="color:#000000;display:inline;overflow:visible;visibility:visible;fill:#688c9d;fill-opacity:1;fill-rule:nonzero;stroke:none;stroke-width:0.7869643;marker:none;enable-background:accumulate"
       d="m 1217.5,654.61218 h 2.5 v 25 h -2.5 z"
       id="rect4779"
       inkscape:connector-curvature="0" />
    <path
       style="color:#000000;display:inline;overflow:visible;visibility:visible;fill:#688c9d;fill-opacity:1;fill-rule:nonzero;stroke:none;stroke-width:0.7869643;marker:none;enable-background:accumulate"
       d="m 1237.5,654.61218 h 2.5 v 25 h -2.5 z"
       id="rect4781"
       inkscape:connector-curvature="0" />
    <path
       style="color:#000000;display:inline;overflow:visible;visibility:visible;fill:#688c9d;fill-opacity:1;fill-rule:nonzero;stroke:none;stroke-width:0.7869643;marker:none;enable-background:accumulate"
       d="m 1257.5,654.61218 h 2.5 v 25 h -2.5 z"
       id="rect4783"
       inkscape:connector-curvature="0" />
    <path
       sodipodi:nodetypes="sscccccccccccccccccccccccccccccccccccccs"
       inkscape:connector-curvature="0"
       id="path4830"
       d="m 1433.048,633.42011 c -2.2115,0 -4.0012,1.80013 -4.0012,4.0116 0,1.42549 0.7434,2.66645 1.8651,3.376 l -2.9175,1.75051 0.3334,0.38553 v 6.2831 l -2.334,1.0003 2.0006,4.66804 h -2.334 l -0.6669,2.33402 5.6683,-0.66686 -0.6668,-2.66746 0.3334,-5.66833 1.4379,-1.27121 0.2293,0.27091 5.6683,1.33373 0.8127,9.13811 -6.8145,3.86571 -3.6677,12.56621 -3.6678,-2.56326 -8.0023,7.00207 h 18.0053 l -2.9905,-2.09437 2.9905,-4.24083 0.6669,-7.66893 10.6698,0.66686 1.7709,-1.32984 2.2302,-9.33996 -2.1777,-13.86867 9.5132,-1.80261 8.6692,12.6704 9.0027,-0.66687 4.3346,1.33373 -3.3343,-4.66805 -9.3361,0.33343 -8.6692,-13.33725 -16.1818,1.50043 -1.8235,-0.50014 -2.6154,1.57339 c -0.1523,-2.07247 -1.8898,-3.70944 -4.0011,-3.70944 z"
       style="fill:#688c9d;fill-opacity:1;stroke:none" />
    <path
       style="color:#000000;display:inline;overflow:visible;visibility:visible;fill:#688c9d;fill-opacity:1;fill-rule:nonzero;stroke:none;stroke-width:0.38465819;marker:none;enable-background:accumulate"
       d="m 1503.509,597.52327 c 0,4.72412 -2.7355,8.55378 -6.1099,8.55378 -3.3744,0 -6.1098,-3.82966 -6.1098,-8.55378 0,-4.72412 2.7354,-8.55378 6.1098,-8.55378 3.3744,0 6.1099,3.82966 6.1099,8.55378 z"
       id="path4854"
       inkscape:connector-curvature="0" />
    <path
       sodipodi:nodetypes="ccccc"
       inkscape:connector-curvature="0"
       id="path4856"
       d="m 1496.1771,600.70039 h 2.444 l 1.4663,76.25082 h -5.3766 z"
       style="color:#000000;display:inline;overflow:visible;visibility:visible;fill:#688c9d;fill-opacity:1;fill-rule:nonzero;stroke:none;stroke-width:0.7869643;marker:none;enable-background:accumulate" />
    <path
       style="color:#000000;display:inline;overflow:visible;visibility:visible;fill:#688c9d;fill-opacity:1;fill-rule:nonzero;stroke:none;stroke-width:0.38465819;marker:none;enable-background:accumulate"
       d="m 1501.065,609.49856 c 0,1.0798 -1.7507,1.95515 -3.9103,1.95515 -2.1596,0 -3.9103,-0.87535 -3.9103,-1.95515 0,-1.0798 1.7507,-1.95515 3.9103,-1.95515 2.1596,0 3.9103,0.87535 3.9103,1.95515 z"
       id="path4858"
       inkscape:connector-curvature="0" />
    <path
       sodipodi:nodetypes="csscc"
       inkscape:connector-curvature="0"
       id="path4860"
       d="m 1495.6884,653.48942 c 0,0 -6.7139,3.53474 -11.2422,11.24211 -1.2598,2.1443 1.8244,4.99994 3.9103,6.35423 2.068,1.34261 7.3319,0.97758 7.3319,0.97758 z"
       style="color:#000000;display:inline;overflow:visible;visibility:visible;fill:#688c9d;fill-opacity:1;fill-rule:nonzero;stroke:none;stroke-width:0.7869643;marker:none;enable-background:accumulate" />
    <path
       style="color:#000000;display:inline;overflow:visible;visibility:visible;fill:#688c9d;fill-opacity:1;fill-rule:nonzero;stroke:none;stroke-width:0.7869643;marker:none;enable-background:accumulate"
       d="m 1498.8169,653.48942 c 0,0 6.7138,3.53474 11.2421,11.24211 1.2598,2.1443 -1.8244,4.99994 -3.9103,6.35423 -2.068,1.34261 -7.3318,0.97758 -7.3318,0.97758 z"
       id="path4862"
       inkscape:connector-curvature="0"
       sodipodi:nodetypes="csscc" />
    <path
       style="color:#000000;display:inline;overflow:visible;visibility:visible;fill:#688c9d;fill-opacity:1;fill-rule:nonzero;stroke:none;stroke-width:0.7869643;marker:none;enable-background:accumulate"
       d="m 1389,631.34545 1.013,4.05204 7.9015,3.84945 3.2416,10.94052 4.0521,-2.63383 -5.0651,-9.92751 -7.9015,-3.03903 -1.013,-2.63383 -2.2286,-0.60781"
       id="path4864"
       inkscape:connector-curvature="0" />
    <path
       style="color:#000000;display:inline;overflow:visible;visibility:visible;fill:#688c9d;fill-opacity:1;fill-rule:nonzero;stroke:none;stroke-width:0.7869643;marker:none;enable-background:accumulate"
       d="m 1401.7639,646.33801 c -1.8172,1.35903 -3.6406,2.70974 -5.4702,4.05205 l 1.2156,3.03903 3.6468,0.2026 6.2807,9.1171 -12.3587,0.81041 3.6468,11.75093 -5.4703,4.05205 10.5353,-1.01302 -3.4442,-10.94052 10.9405,0.81041 1.8235,-3.03903 -4.2547,-14.99256 -5.4703,-5.06506 c -0.5397,0.40594 -1.0799,0.81114 -1.6208,1.21561"
       id="path4868"
       inkscape:connector-curvature="0" />
    <path
       style="color:#000000;display:inline;overflow:visible;visibility:visible;fill:#688c9d;fill-opacity:1;fill-rule:nonzero;stroke:none;stroke-width:0.7869643;marker:none;enable-background:accumulate"
       d="m 1403.5873,666.59824 2.4313,11.75092 3.2416,-0.4052 -2.2286,-10.94052 -3.4443,-0.4052"
       id="path4872"
       inkscape:connector-curvature="0" />
    <path
       style="color:#000000;display:inline;overflow:visible;visibility:visible;fill:#688c9d;fill-opacity:1;fill-rule:nonzero;stroke:none;stroke-width:0.15944071;marker:none;enable-background:accumulate"
       d="m 1402.1691,646.43932 c 0,1.39867 -1.1338,2.53252 -2.5325,2.53252 -1.3987,0 -2.5325,-1.13385 -2.5325,-2.53252 0,-1.39868 1.1338,-2.53253 2.5325,-2.53253 1.3987,0 2.5325,1.13385 2.5325,2.53253 z"
       id="path4876"
       inkscape:connector-curvature="0" />
    <path
       style="color:#000000;display:inline;overflow:visible;visibility:visible;fill:#688c9d;fill-opacity:1;fill-rule:nonzero;stroke:none;stroke-width:0.7869643;marker:none;enable-background:accumulate"
       d="m 1529.7475,666.62854 c -24.5892,0 -44.5226,3.98669 -44.5226,8.90452 0,0.4123 0.1398,0.81686 0.4111,1.21426 2.952,-4.34544 21.5745,-7.69028 44.1115,-7.69028 22.537,0 41.1595,3.34484 44.1115,7.69028 0.2712,-0.3974 0.4111,-0.80196 0.4111,-1.21426 0,-4.91783 -19.9334,-8.90452 -44.5226,-8.90452 z"
       id="path4884"
       inkscape:connector-curvature="0" />
    <path
       style="color:#000000;display:inline;overflow:visible;visibility:visible;fill:#688c9d;fill-opacity:1;fill-rule:nonzero;stroke:none;stroke-width:0.7869643;marker:none;enable-background:accumulate"
       d="m 1490.9588,672.02087 h 1.0119 v 5.73398 h -1.0119 z"
       id="rect4889"
       inkscape:connector-curvature="0" />
    <path
       style="color:#000000;display:inline;overflow:visible;visibility:visible;fill:#688c9d;fill-opacity:1;fill-rule:nonzero;stroke:none;stroke-width:0.7869643;marker:none;enable-background:accumulate"
       d="m 1497.7047,669.99713 h 1.0119 v 7.75773 h -1.0119 z"
       id="rect4891"
       inkscape:connector-curvature="0" />
    <path
       style="color:#000000;display:inline;overflow:visible;visibility:visible;fill:#688c9d;fill-opacity:1;fill-rule:nonzero;stroke:none;stroke-width:0.7869643;marker:none;enable-background:accumulate"
       d="m 1504.4505,669.32257 h 1.0119 v 8.43232 h -1.0119 z"
       id="rect4893"
       inkscape:connector-curvature="0" />
    <path
       style="color:#000000;display:inline;overflow:visible;visibility:visible;fill:#688c9d;fill-opacity:1;fill-rule:nonzero;stroke:none;stroke-width:0.7869643;marker:none;enable-background:accumulate"
       d="m 1511.1964,667.63611 h 1.0119 v 10.11878 h -1.0119 z"
       id="rect4895"
       inkscape:connector-curvature="0" />
    <path
       style="color:#000000;display:inline;overflow:visible;visibility:visible;fill:#688c9d;fill-opacity:1;fill-rule:nonzero;stroke:none;stroke-width:0.7869643;marker:none;enable-background:accumulate"
       d="m 1517.9423,667.63611 h 1.0118 v 10.11878 h -1.0118 z"
       id="rect4897"
       inkscape:connector-curvature="0" />
    <path
       style="color:#000000;display:inline;overflow:visible;visibility:visible;fill:#688c9d;fill-opacity:1;fill-rule:nonzero;stroke:none;stroke-width:0.7869643;marker:none;enable-background:accumulate"
       d="m 1524.6881,667.63611 h 1.0119 v 10.11878 h -1.0119 z"
       id="rect4899"
       inkscape:connector-curvature="0" />
    <path
       style="color:#000000;display:inline;overflow:visible;visibility:visible;fill:#688c9d;fill-opacity:1;fill-rule:nonzero;stroke:none;stroke-width:0.7869643;marker:none;enable-background:accumulate"
       d="m 1531.434,667.63611 h 1.0118 v 10.11878 h -1.0118 z"
       id="rect4901"
       inkscape:connector-curvature="0" />
    <path
       style="color:#000000;display:inline;overflow:visible;visibility:visible;fill:#688c9d;fill-opacity:1;fill-rule:nonzero;stroke:none;stroke-width:0.7869643;marker:none;enable-background:accumulate"
       d="m 1538.1798,667.63611 h 1.0119 v 10.11878 h -1.0119 z"
       id="rect4903"
       inkscape:connector-curvature="0" />
    <path
       style="color:#000000;display:inline;overflow:visible;visibility:visible;fill:#688c9d;fill-opacity:1;fill-rule:nonzero;stroke:none;stroke-width:0.7869643;marker:none;enable-background:accumulate"
       d="m 1544.9257,667.63611 h 1.0118 v 10.11878 h -1.0118 z"
       id="rect4905"
       inkscape:connector-curvature="0" />
    <path
       style="color:#000000;display:inline;overflow:visible;visibility:visible;fill:#688c9d;fill-opacity:1;fill-rule:nonzero;stroke:none;stroke-width:0.7869643;marker:none;enable-background:accumulate"
       d="m 1551.6715,669.99713 h 1.0119 v 7.75773 h -1.0119 z"
       id="rect4907"
       inkscape:connector-curvature="0" />
    <path
       style="color:#000000;display:inline;overflow:visible;visibility:visible;fill:#688c9d;fill-opacity:1;fill-rule:nonzero;stroke:none;stroke-width:0.7869643;marker:none;enable-background:accumulate"
       d="m 1558.4174,670.33441 h 1.0118 v 7.42044 h -1.0118 z"
       id="rect4909"
       inkscape:connector-curvature="0" />
    <path
       style="color:#000000;display:inline;overflow:visible;visibility:visible;fill:#688c9d;fill-opacity:1;fill-rule:nonzero;stroke:none;stroke-width:0.7869643;marker:none;enable-background:accumulate"
       d="m 1565.1632,672.35822 h 1.0119 v 5.39668 h -1.0119 z"
       id="rect4911"
       inkscape:connector-curvature="0" />
    <path
       inkscape:connector-curvature="0"
       id="path4913"
       d="m 1529.7475,659.46374 c -30.7737,0 -55.7208,6.18541 -55.7208,13.81551 0,0.63968 0.1751,1.26736 0.5145,1.88393 3.6946,-6.742 27.0009,-11.93157 55.2063,-11.93157 28.2053,0 51.5117,5.18957 55.2063,11.93157 0.3394,-0.61657 0.5144,-1.24425 0.5144,-1.88393 0,-7.6301 -24.947,-13.81551 -55.7207,-13.81551 z"
       style="color:#000000;display:inline;overflow:visible;visibility:visible;fill:#688c9d;fill-opacity:1;fill-rule:nonzero;stroke:none;stroke-width:0.7869643;marker:none;enable-background:accumulate" />
    <g
       id="g7414"
       transform="matrix(1.1787879,0,0,1.1787879,-174.45757,22.036846)">
      <g
         transform="matrix(0.95887756,0,0,0.95887756,-468.43871,-161.17122)"
         style="fill:#ffffff;fill-opacity:0.52857145"
         id="g5813">
        <g
           style="fill:#ffffff;fill-opacity:0.52857145"
           transform="matrix(0.92337906,0,0,0.92337906,65.460957,27.451834)"
           id="g5823">
          <g
             style="fill:#ffffff;fill-opacity:0.52857145"
             transform="matrix(0.11840388,0,0,0.11840388,865.19335,299.21794)"
             id="g5825">
            <g
               style="fill:#ffffff;fill-opacity:0.52857145"
               transform="matrix(1.293235,0,0,1.293235,-4878.321,-1224.915)"
               id="g5827">
              <g
                 transform="matrix(2.438586,0,0,2.438586,3659.952,1113.451)"
                 style="fill:#ffffff;fill-opacity:0.52857145;fill-rule:nonzero;stroke:none"
                 id="g5829">
                <g
                   style="fill:#ffffff;fill-opacity:0.52857145"
                   id="g5831">
                  <path
                     inkscape:connector-curvature="0"
                     d="M 86.068,0 C 61.466,0 56.851,35.041 70.691,35.041 84.529,35.041 110.671,0 86.068,0 Z"
                     style="fill:#ffffff;fill-opacity:0.52857145"
                     id="path5833" />
                  <path
                     inkscape:connector-curvature="0"
                     d="M 45.217,30.699 C 52.586,31.149 60.671,2.577 46.821,4.374 32.976,6.171 37.845,30.249 45.217,30.699 Z"
                     style="fill:#ffffff;fill-opacity:0.52857145"
                     id="path5835" />
                  <path
                     inkscape:connector-curvature="0"
                     d="M 11.445,48.453 C 16.686,46.146 12.12,23.581 3.208,29.735 -5.7,35.89 6.204,50.759 11.445,48.453 Z"
                     style="fill:#ffffff;fill-opacity:0.52857145"
                     id="path5837" />
                  <path
                     inkscape:connector-curvature="0"
                     d="M 26.212,36.642 C 32.451,35.37 32.793,9.778 21.667,14.369 10.539,18.961 19.978,37.916 26.212,36.642 Z"
                     style="fill:#ffffff;fill-opacity:0.52857145"
                     id="path5839" />
                  <path
                     inkscape:connector-curvature="0"
                     d="m 58.791,93.913 c 1.107,8.454 -6.202,12.629 -13.36,7.179 C 22.644,83.743 83.16,75.088 79.171,51.386 75.86,31.712 15.495,37.769 8.621,68.553 3.968,89.374 27.774,118.26 52.614,118.26 c 12.22,0 26.315,-11.034 28.952,-25.012 C 83.58,82.589 57.867,86.86 58.791,93.913 Z"
                     style="fill:#ffffff;fill-opacity:0.52857145"
                     id="path5841" />
                </g>
              </g>
              <g
                 style="fill:#ffffff;fill-opacity:0.52857145"
                 id="g5843">
                <path
                   inkscape:connector-curvature="0"
                   d="m 4176.2963,1214.4401 c -15.1078,0.4069 -27.0386,5.8367 -35.8126,16.25 -9.0861,10.8369 -13.6562,25.8104 -13.6562,44.9063 0,19.0432 4.5703,33.9757 13.6562,44.8124 9.1305,10.8369 21.6664,16.25 37.6563,16.25 16.034,0 28.6014,-5.4131 37.6875,-16.25 9.0859,-10.8367 13.6251,-25.7692 13.625,-44.8124 -1e-4,-19.0959 -4.5391,-34.0694 -13.625,-44.9063 -9.0861,-10.8366 -21.6536,-16.2499 -37.6875,-16.25 -0.6246,0 -1.2296,-0.016 -1.8437,0 z m 1.125,22 c 0.2415,-0.01 0.4737,0 0.7187,0 7.8833,10e-5 13.9919,3.4114 18.3125,10.25 4.3203,6.8388 6.4999,16.4913 6.5,28.9063 0,12.3623 -2.1799,21.9427 -6.5,28.7812 -4.3204,6.8389 -10.4293,10.2812 -18.3125,10.2812 -7.8391,0 -13.8983,-3.4423 -18.2187,-10.2812 -4.3204,-6.8385 -6.4999,-16.4189 -6.5,-28.7812 0,-12.4149 2.1798,-22.0675 6.5,-28.9063 4.1852,-6.6249 10.0123,-10.0428 17.5,-10.25 z"
                   style="font-style:normal;font-variant:normal;font-weight:bold;font-stretch:normal;font-size:148.699646px;line-height:125%;font-family:'Bitstream Vera Sans';text-align:start;writing-mode:lr-tb;text-anchor:start;fill:#ffffff;fill-opacity:0.52857145;stroke:none"
                   id="path5845" />
                <path
                   inkscape:connector-curvature="0"
                   d="m 4005.6293,1325.612 c -13.3076,11.1757 -33.1067,11.0472 -41.3549,11.0472 -16.6133,0 -29.7747,-5.471 -39.4842,-16.413 -9.7097,-10.9946 -14.5644,-25.8819 -14.5644,-44.6622 0,-18.9906 4.9438,-33.9305 14.8316,-44.82 9.8878,-10.8892 23.4277,-16.3339 40.62,-16.334 6.6363,10e-5 12.9831,0.7366 19.0406,2.2094 6.1019,1.473 11.8475,3.6562 17.2368,6.5494 l -6.921,20.4608 c -3.0298,-1.6586 -6.4987,-3.2932 -9.7145,-4.4424 -5.4784,-1.8411 -10.979,-2.7617 -16.5018,-2.7618 -10.2442,10e-5 -18.15,3.3932 -23.7173,10.1792 -5.523,6.7336 -8.2844,16.3867 -8.2844,28.9594 0,12.4676 2.6723,22.0945 8.0172,28.8806 5.3446,6.7861 13.3768,10.1791 22.7818,10.1791 9.5548,0 15.4728,-2.4084 18.6291,-4.9461 v -20.3835 h -20.7001 v -20.3584 h 40.0855"
                   style="font-style:normal;font-variant:normal;font-weight:bold;font-stretch:normal;font-size:148.699646px;line-height:125%;font-family:'Bitstream Vera Sans';text-align:start;writing-mode:lr-tb;text-anchor:start;fill:#ffffff;fill-opacity:0.52857145;stroke:none"
                   id="path5847" />
                <path
                   inkscape:connector-curvature="0"
                   d="m 4023.2108,1216.5605 h 16.2279 l 51.2775,70.8022 v -70.8022 h 21.8853 v 117.8103 h -16.2279 l -51.2774,-70.8022 v 70.8022 h -21.8854 v -117.8103"
                   style="font-style:normal;font-variant:normal;font-weight:bold;font-stretch:normal;font-size:148.699646px;line-height:125%;font-family:'Bitstream Vera Sans';text-align:start;writing-mode:lr-tb;text-anchor:start;fill:#ffffff;fill-opacity:0.52857145;stroke:none"
                   id="path5849" />
                <path
                   inkscape:connector-curvature="0"
                   d="m 4246.3361,1216.5605 h 32.7366 l 22.7151,73.5479 22.8487,-73.5479 h 27.6698 l 12.5,117.8103 h -24.3186 l -7.5,-73.668 -22.9823,74.0213 h -16.3015 l -22.9824,-76.5213 -7.5,76.168 h -24.3854 l 12.5,-117.8103"
                   style="font-style:normal;font-variant:normal;font-weight:bold;font-stretch:normal;font-size:148.699646px;line-height:125%;font-family:'Bitstream Vera Sans';text-align:start;writing-mode:lr-tb;text-anchor:start;fill:#ffffff;fill-opacity:0.52857145;stroke:none"
                   id="path5851" />
                <path
                   inkscape:connector-curvature="0"
                   d="m 4382.3597,1216.5605 h 69.4147 v 22.9624 h -43.6933 v 24.4365 h 33.5877 v 20.4623 h -33.5877 v 26.9868 h 45.1631 v 22.9623 h -70.8845 v -117.8103"
                   style="font-style:normal;font-variant:normal;font-weight:bold;font-stretch:normal;font-size:148.699646px;line-height:125%;font-family:'Bitstream Vera Sans';text-align:start;writing-mode:lr-tb;text-anchor:start;fill:#ffffff;fill-opacity:0.52857145;stroke:none"
                   id="path5853" />
                <g
                   style="font-style:normal;font-weight:normal;font-size:30.68958855px;font-family:'Bitstream Vera Sans';fill:#ffffff;stroke:none"
                   id="text5855">
                  <path
                     d="m 4474.5283,1193.3702 h 18.9262 v 2.5475 h -7.9421 v 19.8253 h -3.042 v -19.8253 h -7.9421 v -2.5475"
                     style="letter-spacing:0.2523815;fill:#ffffff"
                     id="path7514"
                     inkscape:connector-curvature="0" />
                  <path
                     d="m 4496.644,1193.3702 h 4.5105 l 5.7093,15.2249 5.7394,-15.2249 h 4.5105 v 22.3728 h -2.9521 v -19.6455 l -5.7693,15.3448 h -3.042 l -5.7692,-15.3448 v 19.6455 h -2.9371 v -22.3728"
                     style="letter-spacing:0.2523815;fill:#ffffff"
                     id="path7516"
                     inkscape:connector-curvature="0" />
                </g>
              </g>
            </g>
          </g>
        </g>
      </g>
      <g
         transform="matrix(1.0736709,0,0,1.0736709,-552.93151,-205.22598)"
         id="g5768">
        <g
           transform="matrix(0.11840388,0,0,0.11840388,865.19335,299.21794)"
           id="layer1-8">
          <g
             transform="matrix(1.293235,0,0,1.293235,-4878.321,-1224.915)"
             id="g15041">
            <g
               transform="matrix(2.438586,0,0,2.438586,3659.952,1113.451)"
               style="fill:#000000;fill-opacity:1;fill-rule:nonzero;stroke:none"
               id="g15043">
              <g
                 style="fill:#000000;fill-opacity:1"
                 id="g15045">
                <path
                   inkscape:connector-curvature="0"
                   d="M 86.068,0 C 61.466,0 56.851,35.041 70.691,35.041 84.529,35.041 110.671,0 86.068,0 Z"
                   style="fill:#000000;fill-opacity:1"
                   id="path15047" />
                <path
                   inkscape:connector-curvature="0"
                   d="M 45.217,30.699 C 52.586,31.149 60.671,2.577 46.821,4.374 32.976,6.171 37.845,30.249 45.217,30.699 Z"
                   style="fill:#000000;fill-opacity:1"
                   id="path15049" />
                <path
                   inkscape:connector-curvature="0"
                   d="M 11.445,48.453 C 16.686,46.146 12.12,23.581 3.208,29.735 -5.7,35.89 6.204,50.759 11.445,48.453 Z"
                   style="fill:#000000;fill-opacity:1"
                   id="path15051" />
                <path
                   inkscape:connector-curvature="0"
                   d="M 26.212,36.642 C 32.451,35.37 32.793,9.778 21.667,14.369 10.539,18.961 19.978,37.916 26.212,36.642 Z"
                   style="fill:#000000;fill-opacity:1"
                   id="path15053" />
                <path
                   inkscape:connector-curvature="0"
                   d="m 58.791,93.913 c 1.107,8.454 -6.202,12.629 -13.36,7.179 C 22.644,83.743 83.16,75.088 79.171,51.386 75.86,31.712 15.495,37.769 8.621,68.553 3.968,89.374 27.774,118.26 52.614,118.26 c 12.22,0 26.315,-11.034 28.952,-25.012 C 83.58,82.589 57.867,86.86 58.791,93.913 Z"
                   style="fill:#000000;fill-opacity:1"
                   id="path15055" />
              </g>
            </g>
            <g
               id="g15057">
              <path
                 inkscape:connector-curvature="0"
                 d="m 4176.2963,1214.4401 c -15.1078,0.4069 -27.0386,5.8367 -35.8126,16.25 -9.0861,10.8369 -13.6562,25.8104 -13.6562,44.9063 0,19.0432 4.5703,33.9757 13.6562,44.8124 9.1305,10.8369 21.6664,16.25 37.6563,16.25 16.034,0 28.6014,-5.4131 37.6875,-16.25 9.0859,-10.8367 13.6251,-25.7692 13.625,-44.8124 -1e-4,-19.0959 -4.5391,-34.0694 -13.625,-44.9063 -9.0861,-10.8366 -21.6536,-16.2499 -37.6875,-16.25 -0.6246,0 -1.2296,-0.016 -1.8437,0 z m 1.125,22 c 0.2415,-0.01 0.4737,0 0.7187,0 7.8833,10e-5 13.9919,3.4114 18.3125,10.25 4.3203,6.8388 6.4999,16.4913 6.5,28.9063 0,12.3623 -2.1799,21.9427 -6.5,28.7812 -4.3204,6.8389 -10.4293,10.2812 -18.3125,10.2812 -7.8391,0 -13.8983,-3.4423 -18.2187,-10.2812 -4.3204,-6.8385 -6.4999,-16.4189 -6.5,-28.7812 0,-12.4149 2.1798,-22.0675 6.5,-28.9063 4.1852,-6.6249 10.0123,-10.0428 17.5,-10.25 z"
                 style="font-style:normal;font-variant:normal;font-weight:bold;font-stretch:normal;font-size:148.699646px;line-height:125%;font-family:'Bitstream Vera Sans';text-align:start;writing-mode:lr-tb;text-anchor:start;fill:#000000;fill-opacity:1;stroke:none"
                 id="path15059" />
              <path
                 inkscape:connector-curvature="0"
                 d="m 4005.6293,1325.612 c -13.3076,11.1757 -33.1067,11.0472 -41.3549,11.0472 -16.6133,0 -29.7747,-5.471 -39.4842,-16.413 -9.7097,-10.9946 -14.5644,-25.8819 -14.5644,-44.6622 0,-18.9906 4.9438,-33.9305 14.8316,-44.82 9.8878,-10.8892 23.4277,-16.3339 40.62,-16.334 6.6363,10e-5 12.9831,0.7366 19.0406,2.2094 6.1019,1.473 11.8475,3.6562 17.2368,6.5494 l -6.921,20.4608 c -3.0298,-1.6586 -6.4987,-3.2932 -9.7145,-4.4424 -5.4784,-1.8411 -10.979,-2.7617 -16.5018,-2.7618 -10.2442,10e-5 -18.15,3.3932 -23.7173,10.1792 -5.523,6.7336 -8.2844,16.3867 -8.2844,28.9594 0,12.4676 2.6723,22.0945 8.0172,28.8806 5.3446,6.7861 13.3768,10.1791 22.7818,10.1791 9.5548,0 15.4728,-2.4084 18.6291,-4.9461 v -20.3835 h -20.7001 v -20.3584 h 40.0855"
                 style="font-style:normal;font-variant:normal;font-weight:bold;font-stretch:normal;font-size:148.699646px;line-height:125%;font-family:'Bitstream Vera Sans';text-align:start;writing-mode:lr-tb;text-anchor:start;fill:#000000;fill-opacity:1;stroke:none"
                 id="path15061" />
              <path
                 inkscape:connector-curvature="0"
                 d="m 4023.2108,1216.5605 h 16.2279 l 51.2775,70.8022 v -70.8022 h 21.8853 v 117.8103 h -16.2279 l -51.2774,-70.8022 v 70.8022 h -21.8854 v -117.8103"
                 style="font-style:normal;font-variant:normal;font-weight:bold;font-stretch:normal;font-size:148.699646px;line-height:125%;font-family:'Bitstream Vera Sans';text-align:start;writing-mode:lr-tb;text-anchor:start;fill:#000000;fill-opacity:1;stroke:none"
                 id="path15063" />
              <path
                 inkscape:connector-curvature="0"
                 d="m 4246.3361,1216.5605 h 32.7366 l 22.7151,73.5479 22.8487,-73.5479 h 27.6698 l 12.5,117.8103 h -24.3186 l -7.5,-73.668 -22.9823,74.0213 h -16.3015 l -22.9824,-76.5213 -7.5,76.168 h -24.3854 l 12.5,-117.8103"
                 style="font-style:normal;font-variant:normal;font-weight:bold;font-stretch:normal;font-size:148.699646px;line-height:125%;font-family:'Bitstream Vera Sans';text-align:start;writing-mode:lr-tb;text-anchor:start;fill:#000000;fill-opacity:1;stroke:none"
                 id="path15065" />
              <path
                 inkscape:connector-curvature="0"
                 d="m 4382.3597,1216.5605 h 69.4147 v 22.9624 h -43.6933 v 24.4365 h 33.5877 v 20.4623 h -33.5877 v 26.9868 h 45.1631 v 22.9623 h -70.8845 v -117.8103"
                 style="font-style:normal;font-variant:normal;font-weight:bold;font-stretch:normal;font-size:148.699646px;line-height:125%;font-family:'Bitstream Vera Sans';text-align:start;writing-mode:lr-tb;text-anchor:start;fill:#000000;fill-opacity:1;stroke:none"
                 id="path15067" />
              <g
                 style="font-style:normal;font-weight:normal;font-size:30.68958855px;font-family:'Bitstream Vera Sans';fill:#000000;fill-opacity:1;stroke:none"
                 id="text15069">
                <path
                   d="m 4474.5283,1193.3702 h 18.9262 v 2.5475 h -7.9421 v 19.8253 h -3.042 v -19.8253 h -7.9421 v -2.5475"
                   style="letter-spacing:0.2523815"
                   id="path7547"
                   inkscape:connector-curvature="0" />
                <path
                   d="m 4496.644,1193.3702 h 4.5105 l 5.7093,15.2249 5.7394,-15.2249 h 4.5105 v 22.3728 h -2.9521 v -19.6455 l -5.7693,15.3448 h -3.042 l -5.7692,-15.3448 v 19.6455 h -2.9371 v -22.3728"
                   style="letter-spacing:0.2523815"
                   id="path7549"
                   inkscape:connector-curvature="0" />
              </g>
            </g>
          </g>
        </g>
      </g>
      <text
         xml:space="preserve"
         style="color:#000000;font-style:normal;font-variant:normal;font-weight:300;font-stretch:normal;font-size:27.49932289px;line-height:42.96768951px;font-family:'Source Sans Pro';-inkscape-font-specification:'Source Sans Pro, Light';font-variant-ligatures:normal;font-variant-caps:normal;font-variant-numeric:normal;font-feature-settings:normal;text-indent:0;text-align:start;text-decoration:none;text-decoration-line:none;letter-spacing:0px;word-spacing:0px;text-transform:none;writing-mode:lr-tb;direction:ltr;baseline-shift:baseline;text-anchor:start;display:inline;overflow:visible;visibility:visible;fill:#000000;fill-opacity:1;fill-rule:nonzero;stroke:none;stroke-width:1.71870768;stroke-linecap:butt;stroke-linejoin:miter;stroke-opacity:1;marker:none;marker-start:none;marker-mid:none;marker-end:none;enable-background:accumulate"
         x="298.63791"
         y="180.08826"
         id="text7965"><tspan
           sodipodi:role="line"
           id="tspan7963"
           x="298.63791"
           y="180.08826"
           style="font-style:normal;font-variant:normal;font-weight:300;font-stretch:normal;font-size:27.49932289px;font-family:'Source Sans Pro';-inkscape-font-specification:'Source Sans Pro, Light';font-variant-ligatures:normal;font-variant-caps:normal;font-variant-numeric:normal;font-feature-settings:normal;text-align:start;writing-mode:lr-tb;text-anchor:start;stroke-width:1.71870768">The</tspan></text>
      <text
         id="text7969"
         y="180.08826"
         x="501.38858"
         style="color:#000000;font-style:normal;font-variant:normal;font-weight:300;font-stretch:normal;font-size:27.49932289px;line-height:42.96768951px;font-family:'Source Sans Pro';-inkscape-font-specification:'Source Sans Pro, Light';font-variant-ligatures:normal;font-variant-caps:normal;font-variant-numeric:normal;font-feature-settings:normal;text-indent:0;text-align:start;text-decoration:none;text-decoration-line:none;letter-spacing:0px;word-spacing:0px;text-transform:none;writing-mode:lr-tb;direction:ltr;baseline-shift:baseline;text-anchor:start;display:inline;overflow:visible;visibility:visible;fill:#000000;fill-opacity:1;fill-rule:nonzero;stroke:none;stroke-width:1.71870768;stroke-linecap:butt;stroke-linejoin:miter;stroke-opacity:1;marker:none;marker-start:none;marker-mid:none;marker-end:none;enable-background:accumulate"
         xml:space="preserve"><tspan
           style="font-style:normal;font-variant:normal;font-weight:300;font-stretch:normal;font-size:27.49932289px;font-family:'Source Sans Pro';-inkscape-font-specification:'Source Sans Pro, Light';font-variant-ligatures:normal;font-variant-caps:normal;font-variant-numeric:normal;font-feature-settings:normal;text-align:start;writing-mode:lr-tb;text-anchor:start;stroke-width:1.71870768"
           y="180.08826"
           x="501.38858"
           id="tspan7967"
           sodipodi:role="line">Conference</tspan></text>
    </g>
    <text
       xml:space="preserve"
       style="color:#000000;font-style:normal;font-variant:normal;font-weight:normal;font-stretch:normal;font-size:34.64212036px;line-height:54.12831116px;font-family:Lobster;-inkscape-font-specification:'Lobster, Normal';font-variant-ligatures:normal;font-variant-caps:normal;font-variant-numeric:normal;font-feature-settings:normal;text-indent:0;text-align:center;text-decoration:none;text-decoration-line:none;letter-spacing:0px;word-spacing:0px;text-transform:none;writing-mode:lr-tb;direction:ltr;baseline-shift:baseline;text-anchor:middle;display:inline;overflow:visible;visibility:visible;fill:#555753;fill-opacity:1;fill-rule:nonzero;stroke:none;stroke-width:2.16513252;stroke-linecap:butt;stroke-linejoin:miter;stroke-opacity:1;marker:none;marker-start:none;marker-mid:none;marker-end:none;enable-background:accumulate"
       x="371.52209"
       y="386.53766"
       id="text7961"><tspan
         sodipodi:role="line"
         id="tspan7959"
         x="371.52209"
         y="386.53766"
         style="fill:#555753;fill-opacity:1;stroke-width:2.16513252">Manchester, United Kingdom</tspan></text>
    <flowRoot
       xml:space="preserve"
       id="flowRoot8535"
       style="color:#000000;font-style:normal;font-variant:normal;font-weight:300;font-stretch:normal;font-size:21.33333397px;line-height:25px;font-family:'Source Sans Pro';-inkscape-font-specification:'Source Sans Pro, Light';font-variant-ligatures:normal;font-variant-caps:normal;font-variant-numeric:normal;font-feature-settings:normal;text-indent:0;text-align:center;text-decoration:none;text-decoration-line:none;letter-spacing:0px;word-spacing:0px;text-transform:none;writing-mode:lr-tb;direction:ltr;baseline-shift:baseline;text-anchor:middle;display:inline;overflow:visible;visibility:visible;fill:#ffffff;fill-opacity:1;fill-rule:nonzero;stroke:none;stroke-width:1;stroke-linecap:butt;stroke-linejoin:miter;stroke-opacity:1;marker:none;marker-start:none;marker-mid:none;marker-end:none;enable-background:accumulate"
       transform="translate(0,57)"><flowRegion
         id="flowRegion8537"
         style="font-style:normal;font-variant:normal;font-weight:300;font-stretch:normal;font-size:21.33333397px;font-family:'Source Sans Pro';-inkscape-font-specification:'Source Sans Pro, Light';font-variant-ligatures:normal;font-variant-caps:normal;font-variant-numeric:normal;font-feature-settings:normal;text-align:center;writing-mode:lr-tb;text-anchor:middle;fill:#ffffff"><rect
           id="rect8539"
           width="389"
           height="272"
           x="179"
           y="719.51971"
           style="font-style:normal;font-variant:normal;font-weight:300;font-stretch:normal;font-size:21.33333397px;font-family:'Source Sans Pro';-inkscape-font-specification:'Source Sans Pro, Light';font-variant-ligatures:normal;font-variant-caps:normal;font-variant-numeric:normal;font-feature-settings:normal;text-align:center;writing-mode:lr-tb;text-anchor:middle;fill:#ffffff" /></flowRegion><flowPara
         id="flowPara8541">The largest get together of GNOME users, developers, foundation leaders, individuals, governments and businesses in the world</flowPara></flowRoot>  </g>
</svg>
