<?xml version="1.0" encoding="UTF-8" standalone="no"?>
<!-- Created with Inkscape (http://www.inkscape.org/) -->

<svg
   xmlns:dc="http://purl.org/dc/elements/1.1/"
   xmlns:cc="http://creativecommons.org/ns#"
   xmlns:rdf="http://www.w3.org/1999/02/22-rdf-syntax-ns#"
   xmlns:svg="http://www.w3.org/2000/svg"
   xmlns="http://www.w3.org/2000/svg"
   xmlns:sodipodi="http://sodipodi.sourceforge.net/DTD/sodipodi-0.dtd"
   xmlns:inkscape="http://www.inkscape.org/namespaces/inkscape"
   width="940"
   height="180"
   id="svg2818"
   sodipodi:version="0.32"
   inkscape:version="0.48.1 r9760"
   version="1.0"
   inkscape:export-filename="/home/vinicius/git/git.gnome.org/gnome-web-www/theme/images/footer_arts/balloons.png"
   inkscape:export-xdpi="90"
   inkscape:export-ydpi="90"
   sodipodi:docname="footer art - support.svg"
   inkscape:output_extension="org.inkscape.output.svg.inkscape">
  <defs
     id="defs2820">
    <inkscape:perspective
       sodipodi:type="inkscape:persp3d"
       inkscape:vp_x="0 : 526.18109 : 1"
       inkscape:vp_y="0 : 1000 : 0"
       inkscape:vp_z="744.09448 : 526.18109 : 1"
       inkscape:persp3d-origin="372.04724 : 350.78739 : 1"
       id="perspective2826" />
    <inkscape:perspective
       id="perspective3464"
       inkscape:persp3d-origin="0.5 : 0.33333333 : 1"
       inkscape:vp_z="1 : 0.5 : 1"
       inkscape:vp_y="0 : 1000 : 0"
       inkscape:vp_x="0 : 0.5 : 1"
       sodipodi:type="inkscape:persp3d" />
    <inkscape:perspective
       id="perspective4991"
       inkscape:persp3d-origin="0.5 : 0.33333333 : 1"
       inkscape:vp_z="1 : 0.5 : 1"
       inkscape:vp_y="0 : 1000 : 0"
       inkscape:vp_x="0 : 0.5 : 1"
       sodipodi:type="inkscape:persp3d" />
    <inkscape:perspective
       id="perspective3551"
       inkscape:persp3d-origin="0.5 : 0.33333333 : 1"
       inkscape:vp_z="1 : 0.5 : 1"
       inkscape:vp_y="0 : 1000 : 0"
       inkscape:vp_x="0 : 0.5 : 1"
       sodipodi:type="inkscape:persp3d" />
    <inkscape:perspective
       id="perspective3635"
       inkscape:persp3d-origin="0.5 : 0.33333333 : 1"
       inkscape:vp_z="1 : 0.5 : 1"
       inkscape:vp_y="0 : 1000 : 0"
       inkscape:vp_x="0 : 0.5 : 1"
       sodipodi:type="inkscape:persp3d" />
    <inkscape:perspective
       id="perspective3607"
       inkscape:persp3d-origin="0.5 : 0.33333333 : 1"
       inkscape:vp_z="1 : 0.5 : 1"
       inkscape:vp_y="0 : 1000 : 0"
       inkscape:vp_x="0 : 0.5 : 1"
       sodipodi:type="inkscape:persp3d" />
    <inkscape:perspective
       id="perspective4342"
       inkscape:persp3d-origin="0.5 : 0.33333333 : 1"
       inkscape:vp_z="1 : 0.5 : 1"
       inkscape:vp_y="0 : 1000 : 0"
       inkscape:vp_x="0 : 0.5 : 1"
       sodipodi:type="inkscape:persp3d" />
    <inkscape:perspective
       id="perspective4174"
       inkscape:persp3d-origin="0.5 : 0.33333333 : 1"
       inkscape:vp_z="1 : 0.5 : 1"
       inkscape:vp_y="0 : 1000 : 0"
       inkscape:vp_x="0 : 0.5 : 1"
       sodipodi:type="inkscape:persp3d" />
    <inkscape:perspective
       id="perspective4726"
       inkscape:persp3d-origin="0.5 : 0.33333333 : 1"
       inkscape:vp_z="1 : 0.5 : 1"
       inkscape:vp_y="0 : 1000 : 0"
       inkscape:vp_x="0 : 0.5 : 1"
       sodipodi:type="inkscape:persp3d" />
    <inkscape:perspective
       id="perspective5228"
       inkscape:persp3d-origin="0.5 : 0.33333333 : 1"
       inkscape:vp_z="1 : 0.5 : 1"
       inkscape:vp_y="0 : 1000 : 0"
       inkscape:vp_x="0 : 0.5 : 1"
       sodipodi:type="inkscape:persp3d" />
    <inkscape:perspective
       id="perspective5700"
       inkscape:persp3d-origin="0.5 : 0.33333333 : 1"
       inkscape:vp_z="1 : 0.5 : 1"
       inkscape:vp_y="0 : 1000 : 0"
       inkscape:vp_x="0 : 0.5 : 1"
       sodipodi:type="inkscape:persp3d" />
    <inkscape:perspective
       id="perspective5734"
       inkscape:persp3d-origin="0.5 : 0.33333333 : 1"
       inkscape:vp_z="1 : 0.5 : 1"
       inkscape:vp_y="0 : 1000 : 0"
       inkscape:vp_x="0 : 0.5 : 1"
       sodipodi:type="inkscape:persp3d" />
    <inkscape:perspective
       id="perspective5800"
       inkscape:persp3d-origin="0.5 : 0.33333333 : 1"
       inkscape:vp_z="1 : 0.5 : 1"
       inkscape:vp_y="0 : 1000 : 0"
       inkscape:vp_x="0 : 0.5 : 1"
       sodipodi:type="inkscape:persp3d" />
    <inkscape:perspective
       id="perspective5848"
       inkscape:persp3d-origin="0.5 : 0.33333333 : 1"
       inkscape:vp_z="1 : 0.5 : 1"
       inkscape:vp_y="0 : 1000 : 0"
       inkscape:vp_x="0 : 0.5 : 1"
       sodipodi:type="inkscape:persp3d" />
    <inkscape:perspective
       id="perspective5862"
       inkscape:persp3d-origin="0.5 : 0.33333333 : 1"
       inkscape:vp_z="1 : 0.5 : 1"
       inkscape:vp_y="0 : 1000 : 0"
       inkscape:vp_x="0 : 0.5 : 1"
       sodipodi:type="inkscape:persp3d" />
  </defs>
  <sodipodi:namedview
     id="base"
     pagecolor="#ffffff"
     bordercolor="#666666"
     borderopacity="1.0"
     inkscape:pageopacity="0.0"
     inkscape:pageshadow="2"
     inkscape:zoom="1"
     inkscape:cx="547.77703"
     inkscape:cy="164.58549"
     inkscape:document-units="px"
     inkscape:current-layer="g7634"
     showgrid="false"
     showguides="true"
     inkscape:guide-bbox="true"
     inkscape:window-width="1366"
     inkscape:window-height="711"
     inkscape:window-x="0"
     inkscape:window-y="26"
     showborder="true"
     inkscape:window-maximized="1">
    <inkscape:grid
       type="xygrid"
       id="grid5037"
       empspacing="5"
       visible="true"
       enabled="true"
       snapvisiblegridlinesonly="true" />
  </sodipodi:namedview>
  <metadata
     id="metadata2823">
    <rdf:RDF>
      <cc:Work
         rdf:about="">
        <dc:format>image/svg+xml</dc:format>
        <dc:type
           rdf:resource="http://purl.org/dc/dcmitype/StillImage" />
        <dc:title></dc:title>
      </cc:Work>
    </rdf:RDF>
  </metadata>
  <g
     inkscape:label="Camada 1"
     inkscape:groupmode="layer"
     id="layer1"
     transform="translate(0,-872.36218)">
    <g
       transform="translate(-275.11023,545.72336)"
       id="g7634"
       style="fill:#d3d7cf">
      <g
         id="g13168"
         style="fill:#d3d7cf;fill-opacity:1"
         transform="matrix(0.40582056,0.04380991,-0.04380991,0.40582056,452.59064,108.6745)"
         inkscape:export-filename="/tmp/foundation_back_balloons.png"
         inkscape:export-xdpi="90"
         inkscape:export-ydpi="90">
        <path
           sodipodi:type="arc"
           style="fill:#d3d7cf;fill-opacity:1;stroke:none"
           id="path13111"
           sodipodi:cx="623"
           sodipodi:cy="374.36218"
           sodipodi:rx="85"
           sodipodi:ry="85"
           d="m 708,374.36218 c 0,46.94421 -38.0558,85 -85,85 -46.9442,0 -85,-38.05579 -85,-85 0,-46.9442 38.0558,-85 85,-85 46.9442,0 85,38.0558 85,85 z"
           transform="translate(817,157)" />
        <path
           style="fill:#d3d7cf;fill-opacity:1;stroke:none"
           d="m 1469.2163,621.36218 -0.8981,23.22056 c 0.67,5.05064 0.44,10.10128 -0.586,15.15193 -8.6333,2.87482 -17.0892,3.97558 -25.4403,4.02805 -3.4549,-5.03993 -4.0627,-10.36456 -4.7685,-15.67939 l -7.7396,-25.44913 3.0447,1.03687 6.9961,24.0623 c 9.2676,-1.73376 16.4423,-2.50129 26.2742,-3.38852 l 0.742,-22.04828 z"
           id="path13125"
           inkscape:connector-curvature="0"
           sodipodi:nodetypes="ccccccccccc" />
        <path
           style="fill:#d3d7cf;fill-opacity:1;stroke:none"
           d="m 1469.2456,622.20123 c -12.8741,3.17589 -25.7482,3.92213 -38.6223,2.43153 -6.0239,-6.83956 -13.4936,-10.71504 -22.4983,-14.52058 l 37.875,-11.25 42.5,2.375 c -11.9755,9.12898 -17.1552,13.07606 -19.2544,20.96405 z"
           id="path13127"
           inkscape:connector-curvature="0"
           sodipodi:nodetypes="cccccc" />
        <g
           transform="matrix(0.59696887,-0.11691806,0.11691806,0.59696887,1024.0769,76.160916)"
           style="fill:#d3d7cf;fill-opacity:1"
           id="g13139">
          <path
             transform="matrix(0.897217,0,0,0.897217,145.65406,672.99)"
             d="m 413.48068,406.59692 c 0,4.10051 -3.32411,7.42462 -7.42462,7.42462 -4.1005,0 -7.42462,-3.32411 -7.42462,-7.42462 0,-4.1005 3.32412,-7.42462 7.42462,-7.42462 4.10051,0 7.42462,3.32412 7.42462,7.42462 z"
             sodipodi:ry="7.4246211"
             sodipodi:rx="7.4246211"
             sodipodi:cy="406.59692"
             sodipodi:cx="406.05606"
             id="path13141"
             style="color:#000000;fill:#d3d7cf;fill-opacity:1;fill-rule:nonzero;stroke:none;stroke-width:3;marker:none;visibility:visible;display:inline;overflow:visible"
             sodipodi:type="arc" />
          <rect
             ry="6.3639612"
             rx="6.3639612"
             y="1045.3806"
             x="499.61917"
             height="20.578096"
             width="20.578096"
             id="rect13143"
             style="color:#000000;fill:#d3d7cf;fill-opacity:1;fill-rule:nonzero;stroke:none;stroke-width:3;marker:none;visibility:visible;display:inline;overflow:visible" />
          <path
             inkscape:connector-curvature="0"
             sodipodi:nodetypes="ccccccccc"
             id="path13145"
             d="m 502.77237,1038.0766 -6.17092,1.513 3.42469,0.5941 -2.27841,1.8587 3.02098,-0.5038 -1.75979,3.1418 4.51103,-3.9774 -0.54974,-1.1424 -0.19784,-1.484 z"
             style="fill:#d3d7cf;fill-opacity:1;stroke:none" />
          <path
             inkscape:connector-curvature="0"
             sodipodi:nodetypes="ccccccccc"
             id="path13147"
             d="m 517.2506,1038.0766 6.17091,1.513 -3.42468,0.5941 2.2784,1.8587 -3.02098,-0.5038 1.75979,3.1418 -4.51102,-3.9774 0.54973,-1.1424 0.19785,-1.484 z"
             style="fill:#d3d7cf;fill-opacity:1;stroke:none" />
        </g>
      </g>
      <g
         id="g13205"
         transform="matrix(1.2271648,-0.13485706,0.13485706,1.2271648,-813.73211,-109.7284)"
         style="fill:#d3d7cf;fill-opacity:1">
        <g
           inkscape:export-ydpi="90"
           inkscape:export-xdpi="90"
           inkscape:export-filename="/tmp/foundation_back_balloons.png"
           id="g13183"
           style="fill:#d3d7cf;fill-opacity:1"
           transform="matrix(0.22234969,0.03876506,-0.03876506,0.22234969,1196.4853,427.96283)">
          <path
             sodipodi:type="arc"
             style="fill:#d3d7cf;fill-opacity:1;stroke:none"
             id="path13185"
             sodipodi:cx="623"
             sodipodi:cy="374.36218"
             sodipodi:rx="85"
             sodipodi:ry="85"
             d="m 708,374.36218 c 0,46.94421 -38.0558,85 -85,85 -46.9442,0 -85,-38.05579 -85,-85 0,-46.9442 38.0558,-85 85,-85 46.9442,0 85,38.0558 85,85 z"
             transform="translate(817,157)" />
          <path
             style="fill:#d3d7cf;fill-opacity:1;stroke:none"
             d="m 1469.2163,621.36218 -0.8981,23.22056 c 0.67,5.05064 0.44,10.10128 -0.586,15.15193 -8.6333,2.87482 -17.0892,3.97558 -25.4403,4.02805 -3.4549,-5.03993 -4.0627,-10.36456 -4.7685,-15.67939 l -7.7396,-25.44913 5.8597,0.5461 6.9961,24.0623 c 9.2676,-1.73376 11.2945,-1.60383 21.1264,-2.49106 l 0.742,-22.04828 z"
             id="path13187"
             inkscape:connector-curvature="0"
             sodipodi:nodetypes="ccccccccccc" />
          <path
             style="fill:#d3d7cf;fill-opacity:1;stroke:none"
             d="m 1469.2456,622.20123 c -12.8741,3.17589 -25.7482,3.92213 -38.6223,2.43153 -6.0239,-6.83956 -13.4936,-10.71504 -22.4983,-14.52058 l 37.875,-11.25 42.5,2.375 c -11.9755,9.12898 -17.1552,13.07606 -19.2544,20.96405 z"
             id="path13189"
             inkscape:connector-curvature="0"
             sodipodi:nodetypes="cccccc" />
        </g>
        <path
           inkscape:export-ydpi="90"
           inkscape:export-xdpi="90"
           inkscape:export-filename="/tmp/foundation_back_balloons.png"
           d="m 1495.2215,627.94342 c 0,0.96411 -0.3364,1.74567 -0.7513,1.74567 -0.4149,0 -0.7513,-0.78156 -0.7513,-1.74567 0,-0.96411 0.3364,-1.74567 0.7513,-1.74567 0.4149,0 0.7513,0.78156 0.7513,1.74567 z"
           sodipodi:ry="1.7456698"
           sodipodi:rx="0.75130099"
           sodipodi:cy="627.94342"
           sodipodi:cx="1494.4702"
           id="path13203"
           style="fill:#d3d7cf;fill-opacity:1;stroke:none"
           sodipodi:type="arc" />
      </g>
      <g
         transform="matrix(0.86497926,-0.0418031,0.0418031,0.86497926,-486.45001,-52.649288)"
         id="g13248"
         style="fill:#d3d7cf;fill-opacity:1">
        <g
           transform="matrix(0.22234969,0.03876506,-0.03876506,0.22234969,1196.4853,427.96283)"
           style="fill:#d3d7cf;fill-opacity:1"
           id="g13250"
           inkscape:export-filename="/tmp/foundation_back_balloons.png"
           inkscape:export-xdpi="90"
           inkscape:export-ydpi="90">
          <path
             transform="translate(817,157)"
             d="m 708,374.36218 c 0,46.94421 -38.0558,85 -85,85 -46.9442,0 -85,-38.05579 -85,-85 0,-46.9442 38.0558,-85 85,-85 46.9442,0 85,38.0558 85,85 z"
             sodipodi:ry="85"
             sodipodi:rx="85"
             sodipodi:cy="374.36218"
             sodipodi:cx="623"
             id="path13252"
             style="fill:#d3d7cf;fill-opacity:1;stroke:none"
             sodipodi:type="arc" />
          <path
             sodipodi:nodetypes="ccccccccccc"
             inkscape:connector-curvature="0"
             id="path13254"
             d="m 1469.2163,621.36218 -0.8981,23.22056 c 0.67,5.05064 0.44,10.10128 -0.586,15.15193 -8.6333,2.87482 -17.0892,3.97558 -25.4403,4.02805 -3.4549,-5.03993 -4.0627,-10.36456 -4.7685,-15.67939 l -7.7396,-25.44913 5.8597,0.5461 6.9961,24.0623 c 9.2676,-1.73376 11.2945,-1.60383 21.1264,-2.49106 l 0.742,-22.04828 z"
             style="fill:#d3d7cf;fill-opacity:1;stroke:none" />
          <path
             sodipodi:nodetypes="cccccc"
             inkscape:connector-curvature="0"
             id="path13256"
             d="m 1469.2456,622.20123 c -12.8741,3.17589 -25.7482,3.92213 -38.6223,2.43153 -6.0239,-6.83956 -13.4936,-10.71504 -22.4983,-14.52058 l 37.875,-11.25 42.5,2.375 c -11.9755,9.12898 -17.1552,13.07606 -19.2544,20.96405 z"
             style="fill:#d3d7cf;fill-opacity:1;stroke:none" />
        </g>
        <path
           sodipodi:type="arc"
           style="fill:#d3d7cf;fill-opacity:1;stroke:none"
           id="path13258"
           sodipodi:cx="1494.4702"
           sodipodi:cy="627.94342"
           sodipodi:rx="0.75130099"
           sodipodi:ry="1.7456698"
           d="m 1495.2215,627.94342 c 0,0.96411 -0.3364,1.74567 -0.7513,1.74567 -0.4149,0 -0.7513,-0.78156 -0.7513,-1.74567 0,-0.96411 0.3364,-1.74567 0.7513,-1.74567 0.4149,0 0.7513,0.78156 0.7513,1.74567 z"
           inkscape:export-filename="/tmp/foundation_back_balloons.png"
           inkscape:export-xdpi="90"
           inkscape:export-ydpi="90" />
      </g>
      <g
         transform="matrix(1.0081958,-0.06691419,0.06691419,1.0081958,-606.50851,-70.36627)"
         id="g13260"
         style="fill:#d3d7cf;fill-opacity:1">
        <g
           transform="matrix(0.22234969,0.03876506,-0.03876506,0.22234969,1196.4853,427.96283)"
           style="fill:#d3d7cf;fill-opacity:1"
           id="g13262"
           inkscape:export-filename="/tmp/foundation_back_balloons.png"
           inkscape:export-xdpi="90"
           inkscape:export-ydpi="90">
          <path
             transform="translate(817,157)"
             d="m 708,374.36218 c 0,46.94421 -38.0558,85 -85,85 -46.9442,0 -85,-38.05579 -85,-85 0,-46.9442 38.0558,-85 85,-85 46.9442,0 85,38.0558 85,85 z"
             sodipodi:ry="85"
             sodipodi:rx="85"
             sodipodi:cy="374.36218"
             sodipodi:cx="623"
             id="path13264"
             style="fill:#d3d7cf;fill-opacity:1;stroke:none"
             sodipodi:type="arc" />
          <path
             sodipodi:nodetypes="ccccccccccc"
             inkscape:connector-curvature="0"
             id="path13266"
             d="m 1469.2163,621.36218 -0.8981,23.22056 c 0.67,5.05064 0.44,10.10128 -0.586,15.15193 -8.6333,2.87482 -17.0892,3.97558 -25.4403,4.02805 -3.4549,-5.03993 -4.0627,-10.36456 -4.7685,-15.67939 l -7.7396,-25.44913 5.1759,0.58934 6.9961,24.0623 c 9.2676,-1.73376 12.6621,-1.69031 22.494,-2.57754 l 0.742,-22.04828 z"
             style="fill:#d3d7cf;fill-opacity:1;stroke:none" />
          <path
             sodipodi:nodetypes="cccccc"
             inkscape:connector-curvature="0"
             id="path13268"
             d="m 1469.2456,622.20123 c -12.8741,3.17589 -25.7482,3.92213 -38.6223,2.43153 -6.0239,-6.83956 -13.4936,-10.71504 -22.4983,-14.52058 l 37.875,-11.25 42.5,2.375 c -11.9755,9.12898 -17.1552,13.07606 -19.2544,20.96405 z"
             style="fill:#d3d7cf;fill-opacity:1;stroke:none" />
        </g>
        <path
           sodipodi:type="arc"
           style="fill:#d3d7cf;fill-opacity:1;stroke:none"
           id="path13270"
           sodipodi:cx="1494.4702"
           sodipodi:cy="627.94342"
           sodipodi:rx="0.75130099"
           sodipodi:ry="1.7456698"
           d="m 1495.2215,627.94342 c 0,0.96411 -0.3364,1.74567 -0.7513,1.74567 -0.4149,0 -0.7513,-0.78156 -0.7513,-1.74567 0,-0.96411 0.3364,-1.74567 0.7513,-1.74567 0.4149,0 0.7513,0.78156 0.7513,1.74567 z"
           inkscape:export-filename="/tmp/foundation_back_balloons.png"
           inkscape:export-xdpi="90"
           inkscape:export-ydpi="90" />
      </g>
    </g>
  </g>
</svg>
