<?xml version="1.0" encoding="UTF-8" standalone="no"?>
<!-- Created with Inkscape (http://www.inkscape.org/) -->

<svg
   xmlns:dc="http://purl.org/dc/elements/1.1/"
   xmlns:cc="http://creativecommons.org/ns#"
   xmlns:rdf="http://www.w3.org/1999/02/22-rdf-syntax-ns#"
   xmlns:svg="http://www.w3.org/2000/svg"
   xmlns="http://www.w3.org/2000/svg"
   xmlns:sodipodi="http://sodipodi.sourceforge.net/DTD/sodipodi-0.dtd"
   xmlns:inkscape="http://www.inkscape.org/namespaces/inkscape"
   width="940"
   height="180"
   id="svg2818"
   sodipodi:version="0.32"
   inkscape:version="0.46+devel"
   version="1.0"
   inkscape:export-filename="/home/vinicius/Dropbox/fog-website/gnome.org-implementation/code/img/footer_art-2.png"
   inkscape:export-xdpi="90"
   inkscape:export-ydpi="90"
   sodipodi:docname="footer art - 2.svg"
   inkscape:output_extension="org.inkscape.output.svg.inkscape">
  <defs
     id="defs2820">
    <inkscape:perspective
       sodipodi:type="inkscape:persp3d"
       inkscape:vp_x="0 : 526.18109 : 1"
       inkscape:vp_y="0 : 1000 : 0"
       inkscape:vp_z="744.09448 : 526.18109 : 1"
       inkscape:persp3d-origin="372.04724 : 350.78739 : 1"
       id="perspective2826" />
    <inkscape:perspective
       id="perspective3464"
       inkscape:persp3d-origin="0.5 : 0.33333333 : 1"
       inkscape:vp_z="1 : 0.5 : 1"
       inkscape:vp_y="0 : 1000 : 0"
       inkscape:vp_x="0 : 0.5 : 1"
       sodipodi:type="inkscape:persp3d" />
    <inkscape:perspective
       id="perspective4991"
       inkscape:persp3d-origin="0.5 : 0.33333333 : 1"
       inkscape:vp_z="1 : 0.5 : 1"
       inkscape:vp_y="0 : 1000 : 0"
       inkscape:vp_x="0 : 0.5 : 1"
       sodipodi:type="inkscape:persp3d" />
    <inkscape:perspective
       id="perspective3551"
       inkscape:persp3d-origin="0.5 : 0.33333333 : 1"
       inkscape:vp_z="1 : 0.5 : 1"
       inkscape:vp_y="0 : 1000 : 0"
       inkscape:vp_x="0 : 0.5 : 1"
       sodipodi:type="inkscape:persp3d" />
    <inkscape:perspective
       id="perspective3635"
       inkscape:persp3d-origin="0.5 : 0.33333333 : 1"
       inkscape:vp_z="1 : 0.5 : 1"
       inkscape:vp_y="0 : 1000 : 0"
       inkscape:vp_x="0 : 0.5 : 1"
       sodipodi:type="inkscape:persp3d" />
    <inkscape:perspective
       id="perspective3607"
       inkscape:persp3d-origin="0.5 : 0.33333333 : 1"
       inkscape:vp_z="1 : 0.5 : 1"
       inkscape:vp_y="0 : 1000 : 0"
       inkscape:vp_x="0 : 0.5 : 1"
       sodipodi:type="inkscape:persp3d" />
    <inkscape:perspective
       id="perspective4342"
       inkscape:persp3d-origin="0.5 : 0.33333333 : 1"
       inkscape:vp_z="1 : 0.5 : 1"
       inkscape:vp_y="0 : 1000 : 0"
       inkscape:vp_x="0 : 0.5 : 1"
       sodipodi:type="inkscape:persp3d" />
    <inkscape:perspective
       id="perspective4174"
       inkscape:persp3d-origin="0.5 : 0.33333333 : 1"
       inkscape:vp_z="1 : 0.5 : 1"
       inkscape:vp_y="0 : 1000 : 0"
       inkscape:vp_x="0 : 0.5 : 1"
       sodipodi:type="inkscape:persp3d" />
    <inkscape:perspective
       id="perspective4726"
       inkscape:persp3d-origin="0.5 : 0.33333333 : 1"
       inkscape:vp_z="1 : 0.5 : 1"
       inkscape:vp_y="0 : 1000 : 0"
       inkscape:vp_x="0 : 0.5 : 1"
       sodipodi:type="inkscape:persp3d" />
    <inkscape:perspective
       id="perspective5228"
       inkscape:persp3d-origin="0.5 : 0.33333333 : 1"
       inkscape:vp_z="1 : 0.5 : 1"
       inkscape:vp_y="0 : 1000 : 0"
       inkscape:vp_x="0 : 0.5 : 1"
       sodipodi:type="inkscape:persp3d" />
    <inkscape:perspective
       id="perspective5700"
       inkscape:persp3d-origin="0.5 : 0.33333333 : 1"
       inkscape:vp_z="1 : 0.5 : 1"
       inkscape:vp_y="0 : 1000 : 0"
       inkscape:vp_x="0 : 0.5 : 1"
       sodipodi:type="inkscape:persp3d" />
  </defs>
  <sodipodi:namedview
     id="base"
     pagecolor="#ffffff"
     bordercolor="#666666"
     borderopacity="1.0"
     inkscape:pageopacity="0.0"
     inkscape:pageshadow="2"
     inkscape:zoom="1"
     inkscape:cx="432.7963"
     inkscape:cy="86.975461"
     inkscape:document-units="px"
     inkscape:current-layer="g7634"
     showgrid="false"
     showguides="true"
     inkscape:guide-bbox="true"
     inkscape:window-width="1276"
     inkscape:window-height="722"
     inkscape:window-x="0"
     inkscape:window-y="25"
     showborder="true">
    <inkscape:grid
       type="xygrid"
       id="grid5037"
       empspacing="5"
       visible="true"
       enabled="true"
       snapvisiblegridlinesonly="true" />
  </sodipodi:namedview>
  <metadata
     id="metadata2823">
    <rdf:RDF>
      <cc:Work
         rdf:about="">
        <dc:format>image/svg+xml</dc:format>
        <dc:type
           rdf:resource="http://purl.org/dc/dcmitype/StillImage" />
        <dc:title></dc:title>
      </cc:Work>
    </rdf:RDF>
  </metadata>
  <g
     inkscape:label="Camada 1"
     inkscape:groupmode="layer"
     id="layer1"
     transform="translate(0,-872.36218)">
    <g
       transform="translate(-275.11023,545.72336)"
       id="g7634"
       style="fill:#d3d7cf">
      <path
         style="fill:#d3d7cf;fill-opacity:1;fill-rule:nonzero;stroke:none"
         d="m 1105.1415,411.51382 c -3.8103,2.54707 -7.5271,5.30934 -10.9688,8.59375 -1.8231,-0.41264 -3.7974,-0.625 -5.8125,-0.625 -3.2432,0 -6.2669,1.00117 -8.7812,2.65625 -0.01,-0.005 -0.026,0.005 -0.031,0 -2.9382,-2.79917 -6.615,-4.70591 -10.3125,-6.59375 1.1934,5.20826 1.9395,11.02777 4.0937,14.875 0,0.008 0,0.0234 0,0.0312 -0.3565,1.27897 -0.5283,2.63791 -0.4687,4 0.2097,4.79625 3.6361,8.96753 7.8432,11.38259 l 2.0246,-7.17443 -1.3366,7.66684 c -3.6113,18.62969 -4.3661,36.91439 0.875,54.4375 -4.6192,1.87923 -4.4328,4.48055 -2.6562,7.34375 l 40.0937,0.3125 c 12.318,-37.94901 -13.5182,-40.61479 -18.7188,-66.2187 2.5993,-3.20215 4.1661,-7.26408 4,-11.0625 -0.1365,-3.12404 -1.4208,-5.58519 -3.4375,-7.4375 1.6287,-3.6313 2.4637,-8.05757 3.5938,-12.1875 l -2e-4,0 z"
         id="path2818"
         sodipodi:nodetypes="ccscscssscccccccsccc" />
      <g
         id="g4701"
         transform="translate(-577,68)">
        <path
           sodipodi:nodetypes="cscsccccc"
           id="path4180"
           d="m 720.57842,426.19124 c 7.03068,-3.47753 12.3133,-35.18078 17.07715,-36.74681 7.85323,-2.5816 9.42396,-0.32246 9.01223,2.47253 -1.64263,0.30118 -3.26403,0.37715 -5.37134,1.79044 -1.14271,0.76637 -8.47544,48.13681 -17.90448,67.01389 -14.92644,4.65639 -29.78068,5.63111 -44.50541,0 l 5.11557,-76.2219 30.69338,-0.25578 5.8829,41.94763 z"
           style="fill:#d3d7cf;fill-opacity:1;stroke-width:1px" />
        <path
           sodipodi:nodetypes="ccccc"
           id="rect4692"
           d="m 693.25435,376.76289 12.52998,0 -1.29487,8.53857 -9.94023,0 -1.29488,-8.53857 z"
           style="fill:#d3d7cf;fill-opacity:1;fill-rule:nonzero;stroke:none" />
        <path
           id="path4695"
           d="m 684.56265,392.24567 c -10.02995,-0.15571 -18.56627,5.82584 -21.04175,13.79854 -1.23773,3.98634 -0.72092,8.59111 2.02325,12.42273 2.74416,3.83162 7.44366,6.84354 14.24364,8.78088 l 1.78046,-6.23159 c -5.84874,-1.66633 -9.1469,-4.05507 -10.76367,-6.31253 -1.61677,-2.25746 -1.80922,-4.40901 -1.09255,-6.71718 1.43335,-4.61632 7.46415,-9.37988 14.76969,-9.26646 l 0.0809,-6.47439 z"
           style="font-size:medium;font-style:normal;font-variant:normal;font-weight:normal;font-stretch:normal;text-indent:0;text-align:start;text-decoration:none;line-height:normal;letter-spacing:normal;word-spacing:normal;text-transform:none;direction:ltr;block-progression:tb;writing-mode:lr-tb;text-anchor:start;color:#000000;fill:#d3d7cf;fill-opacity:1;stroke:none;stroke-width:5;marker:none;visibility:visible;display:inline;overflow:visible;enable-background:accumulate;font-family:Bitstream Vera Sans;-inkscape-font-specification:Bitstream Vera Sans" />
      </g>
      <g
         id="g4740"
         transform="translate(-277.83951,57.938272)">
        <path
           sodipodi:end="3.1415927"
           sodipodi:start="0"
           transform="translate(275.11023,326.63882)"
           d="m 229.62963,118.96296 c 0,11.61843 -9.41861,21.03704 -21.03704,21.03704 -11.61843,0 -21.03704,-9.41861 -21.03704,-21.03704 0,0 0,0 0,0 l 21.03704,0 z"
           sodipodi:ry="21.037037"
           sodipodi:rx="21.037037"
           sodipodi:cy="118.96296"
           sodipodi:cx="208.59259"
           id="path4706"
           style="fill:#d3d7cf;fill-opacity:1;fill-rule:nonzero;stroke:none"
           sodipodi:type="arc" />
        <path
           sodipodi:type="arc"
           style="fill:#d3d7cf;fill-opacity:1;fill-rule:nonzero;stroke:none"
           id="path4708"
           sodipodi:cx="208.59259"
           sodipodi:cy="118.96296"
           sodipodi:rx="21.037037"
           sodipodi:ry="21.037037"
           d="m 229.62963,118.96296 c 0,11.61843 -9.41861,21.03704 -21.03704,21.03704 -11.61843,0 -21.03704,-9.41861 -21.03704,-21.03704 0,0 0,0 0,0 l 21.03704,0 z"
           transform="matrix(0.47887318,0,0,-0.47887318,383.81342,526.86625)"
           sodipodi:start="0"
           sodipodi:end="3.1415927" />
        <path
           style="font-size:medium;font-style:normal;font-variant:normal;font-weight:normal;font-stretch:normal;text-indent:0;text-align:start;text-decoration:none;line-height:normal;letter-spacing:normal;word-spacing:normal;text-transform:none;direction:ltr;block-progression:tb;writing-mode:lr-tb;text-anchor:start;color:#000000;fill:#d3d7cf;fill-opacity:1;stroke:none;stroke-width:5;marker:none;visibility:visible;display:inline;overflow:visible;enable-background:accumulate;font-family:Bitstream Vera Sans;-inkscape-font-specification:Bitstream Vera Sans"
           d="m 462.7027,445.81376 c -4.05547,3.9005 -5.0916,9.65477 -2.92758,13.80751 1.08197,2.07636 3.10696,3.70583 5.71344,4.14746 2.60648,0.44166 5.66776,-0.21559 9.1409,-2.13058 l -1.7529,-3.18483 c -2.9873,1.64707 -5.24435,1.99887 -6.78,1.73866 -1.53564,-0.2602 -2.46229,-1.04093 -3.08876,-2.24317 -1.253,-2.40451 -0.73343,-6.68395 2.22048,-9.52495 l -2.52556,-2.61013 z"
           id="path4695-5" />
      </g>
      <g
         id="g5262"
         transform="matrix(0.44698897,0,0,0.44698897,-132.67881,282.63469)">
        <path
           sodipodi:nodetypes="cccc"
           id="path5258"
           d="m 1120.3978,394.65802 c 47.5668,0.0631 30.9742,16.82833 78.2223,16.65844 -23.2359,21.73396 -51.1628,0.67115 -77.6142,16.60479 l -0.6081,-33.26323 z"
           style="stroke-width:1px" />
        <rect
           ry="1.4914612"
           rx="1.4914612"
           y="394.63882"
           x="1119.777"
           height="116.44444"
           width="1.3333334"
           id="rect5260"
           style="fill:#d3d7cf;fill-opacity:1;fill-rule:nonzero;stroke:none" />
      </g>
      <g
         id="g5266"
         transform="matrix(0.67366412,0,0,0.67366412,-472.71192,166.78481)">
        <path
           style="stroke-width:1px"
           d="m 1119.8644,394.65802 c 26.4674,14.21481 34.552,0.89601 68.2529,15.48557 -27.0477,5.0205 -40.607,18.8507 -67.6448,17.77766 l -0.6081,-33.26323 z"
           id="path5268"
           sodipodi:nodetypes="cccc" />
        <rect
           style="fill:#d3d7cf;fill-opacity:1;fill-rule:nonzero;stroke:none"
           id="rect5270"
           width="1.3333334"
           height="116.44444"
           x="1119.1392"
           y="394.63882"
           rx="0.98961288"
           ry="0.98961288" />
      </g>
      <g
         id="g5280"
         transform="matrix(0.99734051,0,0,0.99734051,-796.62041,1.3592184)">
        <path
           sodipodi:nodetypes="cccc"
           id="path5282"
           d="m 1147.6732,400.35613 c -1.0066,8.00751 -5.8125,16.42067 -0.097,21.93458 10.354,-0.17752 25.9845,-5.15214 30.9219,-7.73011 -9.6335,-1.85477 -25.014,-11.05683 -30.8253,-14.20447 z"
           style="stroke-width:1px" />
        <path
           style="stroke-width:1px"
           d="m 1119.8644,394.65802 c 23.8263,-0.85476 32.987,3.67849 32.987,3.67849 l -0.9909,17.89531 c -10.354,-0.17752 -14.7988,0.90676 -31.388,4.85375 l -0.6081,-26.42755 z"
           id="path5284"
           sodipodi:nodetypes="ccccc" />
        <rect
           style="fill:#d3d7cf;fill-opacity:1;fill-rule:nonzero;stroke:none"
           id="rect5286"
           width="1.3333334"
           height="116.44444"
           x="1119.1392"
           y="394.63882"
           rx="0.6684444"
           ry="0.6684444" />
      </g>
    </g>
  </g>
</svg>
