<?xml version="1.0" encoding="UTF-8" standalone="no"?>
<!-- Created with Inkscape (http://www.inkscape.org/) -->

<svg
   xmlns:dc="http://purl.org/dc/elements/1.1/"
   xmlns:cc="http://creativecommons.org/ns#"
   xmlns:rdf="http://www.w3.org/1999/02/22-rdf-syntax-ns#"
   xmlns:svg="http://www.w3.org/2000/svg"
   xmlns="http://www.w3.org/2000/svg"
   xmlns:xlink="http://www.w3.org/1999/xlink"
   xmlns:sodipodi="http://sodipodi.sourceforge.net/DTD/sodipodi-0.dtd"
   xmlns:inkscape="http://www.inkscape.org/namespaces/inkscape"
   width="1028"
   height="39"
   id="svg2"
   version="1.1"
   inkscape:version="0.48.2 r9819"
   sodipodi:docname="footer-friends.svg"
   inkscape:export-filename="/home/andreas/SparkleShare/gnome-design/www/friends-of-gnome-2.0/images/footer-friends.png"
   inkscape:export-xdpi="90"
   inkscape:export-ydpi="90">
  <defs
     id="defs4">
    <inkscape:path-effect
       effect="spiro"
       id="path-effect8154"
       is_visible="true" />
    <inkscape:path-effect
       effect="spiro"
       id="path-effect8150"
       is_visible="true" />
    <inkscape:path-effect
       effect="spiro"
       id="path-effect8146"
       is_visible="true" />
    <inkscape:path-effect
       effect="spiro"
       id="path-effect8142"
       is_visible="true" />
    <inkscape:path-effect
       effect="spiro"
       id="path-effect5650"
       is_visible="true" />
    <inkscape:path-effect
       effect="spiro"
       id="path-effect5556"
       is_visible="true" />
    <inkscape:path-effect
       effect="spiro"
       id="path-effect5532"
       is_visible="true" />
    <inkscape:path-effect
       effect="spiro"
       id="path-effect5501"
       is_visible="true" />
    <inkscape:path-effect
       effect="spiro"
       id="path-effect5455"
       is_visible="true" />
    <inkscape:path-effect
       effect="spiro"
       id="path-effect5451"
       is_visible="true" />
    <inkscape:path-effect
       effect="spiro"
       id="path-effect5447"
       is_visible="true" />
    <inkscape:path-effect
       effect="spiro"
       id="path-effect5441"
       is_visible="true" />
    <inkscape:path-effect
       effect="spiro"
       id="path-effect5437"
       is_visible="true" />
    <inkscape:path-effect
       effect="spiro"
       id="path-effect5375"
       is_visible="true" />
    <inkscape:path-effect
       effect="spiro"
       id="path-effect5371"
       is_visible="true" />
    <inkscape:path-effect
       effect="spiro"
       id="path-effect5346"
       is_visible="true" />
    <inkscape:path-effect
       effect="spiro"
       id="path-effect5342"
       is_visible="true" />
    <inkscape:path-effect
       effect="spiro"
       id="path-effect5338"
       is_visible="true" />
    <inkscape:path-effect
       effect="spiro"
       id="path-effect3843"
       is_visible="true" />
    <inkscape:path-effect
       effect="spiro"
       id="path-effect3839"
       is_visible="true" />
    <inkscape:path-effect
       effect="spiro"
       id="path-effect3827"
       is_visible="true" />
    <inkscape:path-effect
       effect="spiro"
       id="path-effect3802"
       is_visible="true" />
    <inkscape:path-effect
       effect="spiro"
       id="path-effect3798"
       is_visible="true" />
    <inkscape:path-effect
       effect="spiro"
       id="path-effect3000"
       is_visible="true" />
    <inkscape:path-effect
       effect="spiro"
       id="path-effect3802-2"
       is_visible="true" />
    <inkscape:path-effect
       effect="spiro"
       id="path-effect3843-9"
       is_visible="true" />
    <radialGradient
       r="103.50868"
       fy="286.41132"
       fx="-32.233803"
       cy="286.41132"
       cx="-32.233803"
       gradientTransform="matrix(0.9591297,-0.02665241,0.0355031,1.0123418,-31.205183,-8.9855775)"
       gradientUnits="userSpaceOnUse"
       id="radialGradient9400"
       xlink:href="#linearGradient9903"
       inkscape:collect="always" />
    <radialGradient
       r="103.50868"
       fy="286.41132"
       fx="-32.233803"
       cy="286.41132"
       cx="-32.233803"
       gradientTransform="matrix(0.9591297,-0.02665241,0.0355031,1.0123418,-31.205183,-8.9855775)"
       gradientUnits="userSpaceOnUse"
       id="radialGradient9398"
       xlink:href="#linearGradient9903"
       inkscape:collect="always" />
    <radialGradient
       r="103.50868"
       fy="286.41132"
       fx="-32.233803"
       cy="286.41132"
       cx="-32.233803"
       gradientTransform="matrix(0.9591297,-0.02665241,0.0355031,1.0123418,-31.205183,-8.9855775)"
       gradientUnits="userSpaceOnUse"
       id="radialGradient9396"
       xlink:href="#linearGradient9903"
       inkscape:collect="always" />
    <radialGradient
       r="103.50868"
       fy="286.41132"
       fx="-32.233803"
       cy="286.41132"
       cx="-32.233803"
       gradientTransform="matrix(0.9591297,-0.02665241,0.0355031,1.0123418,-31.205183,-8.9855775)"
       gradientUnits="userSpaceOnUse"
       id="radialGradient9394"
       xlink:href="#linearGradient9903"
       inkscape:collect="always" />
    <inkscape:perspective
       sodipodi:type="inkscape:persp3d"
       inkscape:vp_x="0 : 526.18109 : 1"
       inkscape:vp_y="0 : 1000 : 0"
       inkscape:vp_z="744.09448 : 526.18109 : 1"
       inkscape:persp3d-origin="372.04724 : 350.78739 : 1"
       id="perspective10184" />
    <inkscape:perspective
       sodipodi:type="inkscape:persp3d"
       inkscape:vp_x="0 : 0.5 : 1"
       inkscape:vp_y="0 : 1000 : 0"
       inkscape:vp_z="1 : 0.5 : 1"
       inkscape:persp3d-origin="0.5 : 0.33333333 : 1"
       id="perspective10881" />
    <inkscape:perspective
       sodipodi:type="inkscape:persp3d"
       inkscape:vp_x="0 : 0.5 : 1"
       inkscape:vp_y="0 : 1000 : 0"
       inkscape:vp_z="1 : 0.5 : 1"
       inkscape:persp3d-origin="0.5 : 0.33333333 : 1"
       id="perspective10837" />
    <inkscape:perspective
       sodipodi:type="inkscape:persp3d"
       inkscape:vp_x="0 : 0.5 : 1"
       inkscape:vp_y="0 : 1000 : 0"
       inkscape:vp_z="1 : 0.5 : 1"
       inkscape:persp3d-origin="0.5 : 0.33333333 : 1"
       id="perspective10799" />
    <inkscape:perspective
       sodipodi:type="inkscape:persp3d"
       inkscape:vp_x="0 : 0.5 : 1"
       inkscape:vp_y="0 : 1000 : 0"
       inkscape:vp_z="1 : 0.5 : 1"
       inkscape:persp3d-origin="0.5 : 0.33333333 : 1"
       id="perspective10761" />
    <inkscape:perspective
       sodipodi:type="inkscape:persp3d"
       inkscape:vp_x="0 : 0.5 : 1"
       inkscape:vp_y="0 : 1000 : 0"
       inkscape:vp_z="1 : 0.5 : 1"
       inkscape:persp3d-origin="0.5 : 0.33333333 : 1"
       id="perspective10715" />
    <inkscape:perspective
       sodipodi:type="inkscape:persp3d"
       inkscape:vp_x="0 : 0.5 : 1"
       inkscape:vp_y="0 : 1000 : 0"
       inkscape:vp_z="1 : 0.5 : 1"
       inkscape:persp3d-origin="0.5 : 0.33333333 : 1"
       id="perspective10609" />
    <radialGradient
       r="103.50868"
       fy="286.41132"
       fx="-32.233803"
       cy="286.41132"
       cx="-32.233803"
       gradientTransform="matrix(0.9591297,-0.02665241,0.0355031,1.0123418,-31.205183,-8.9855775)"
       gradientUnits="userSpaceOnUse"
       id="radialGradient9432"
       xlink:href="#linearGradient9903"
       inkscape:collect="always" />
    <radialGradient
       r="103.50868"
       fy="286.41132"
       fx="-32.233803"
       cy="286.41132"
       cx="-32.233803"
       gradientTransform="matrix(0.9591297,-0.02665241,0.0355031,1.0123418,-31.205183,-8.9855775)"
       gradientUnits="userSpaceOnUse"
       id="radialGradient9430"
       xlink:href="#linearGradient9903"
       inkscape:collect="always" />
    <radialGradient
       r="103.50868"
       fy="286.41132"
       fx="-32.233803"
       cy="286.41132"
       cx="-32.233803"
       gradientTransform="matrix(0.9591297,-0.02665241,0.0355031,1.0123418,-31.205183,-8.9855775)"
       gradientUnits="userSpaceOnUse"
       id="radialGradient9428"
       xlink:href="#linearGradient9903"
       inkscape:collect="always" />
    <radialGradient
       r="103.50868"
       fy="286.41132"
       fx="-32.233803"
       cy="286.41132"
       cx="-32.233803"
       gradientTransform="matrix(0.9591297,-0.02665241,0.0355031,1.0123418,-31.205183,-8.9855775)"
       gradientUnits="userSpaceOnUse"
       id="radialGradient9426"
       xlink:href="#linearGradient9903"
       inkscape:collect="always" />
    <radialGradient
       r="103.50868"
       fy="286.41132"
       fx="-32.233803"
       cy="286.41132"
       cx="-32.233803"
       gradientTransform="matrix(0.9591297,-0.02665241,0.0355031,1.0123418,-31.205183,-8.9855775)"
       gradientUnits="userSpaceOnUse"
       id="radialGradient9424"
       xlink:href="#linearGradient9903"
       inkscape:collect="always" />
    <radialGradient
       r="103.50868"
       fy="286.41132"
       fx="-32.233803"
       cy="286.41132"
       cx="-32.233803"
       gradientTransform="matrix(0.9591297,-0.02665241,0.0355031,1.0123418,-31.205183,-8.9855775)"
       gradientUnits="userSpaceOnUse"
       id="radialGradient9422"
       xlink:href="#linearGradient9903"
       inkscape:collect="always" />
    <radialGradient
       r="103.50868"
       fy="286.41132"
       fx="-32.233803"
       cy="286.41132"
       cx="-32.233803"
       gradientTransform="matrix(0.9591297,-0.02665241,0.0355031,1.0123418,-31.205183,-8.9855775)"
       gradientUnits="userSpaceOnUse"
       id="radialGradient9420"
       xlink:href="#linearGradient9903"
       inkscape:collect="always" />
    <radialGradient
       r="103.50868"
       fy="286.41132"
       fx="-32.233803"
       cy="286.41132"
       cx="-32.233803"
       gradientTransform="matrix(0.9591297,-0.02665241,0.0355031,1.0123418,-31.205183,-8.9855775)"
       gradientUnits="userSpaceOnUse"
       id="radialGradient9418"
       xlink:href="#linearGradient9903"
       inkscape:collect="always" />
    <radialGradient
       gradientUnits="userSpaceOnUse"
       gradientTransform="matrix(0.9591297,-0.02665241,0.0355031,1.0123418,-31.205183,-8.9855775)"
       r="103.50868"
       fy="286.41132"
       fx="-32.233803"
       cy="286.41132"
       cx="-32.233803"
       id="radialGradient9909"
       xlink:href="#linearGradient9903"
       inkscape:collect="always" />
    <inkscape:perspective
       sodipodi:type="inkscape:persp3d"
       inkscape:vp_x="0 : 259.17999 : 1"
       inkscape:vp_y="0 : 1000 : 0"
       inkscape:vp_z="427.09 : 259.17999 : 1"
       inkscape:persp3d-origin="213.545 : 172.78666 : 1"
       id="perspective9648" />
    <inkscape:perspective
       sodipodi:type="inkscape:persp3d"
       inkscape:vp_x="0 : 0.5 : 1"
       inkscape:vp_y="0 : 1000 : 0"
       inkscape:vp_z="1 : 0.5 : 1"
       inkscape:persp3d-origin="0.5 : 0.33333333 : 1"
       id="perspective9588" />
    <inkscape:perspective
       sodipodi:type="inkscape:persp3d"
       inkscape:vp_x="0 : 0.5 : 1"
       inkscape:vp_y="0 : 1000 : 0"
       inkscape:vp_z="1 : 0.5 : 1"
       inkscape:persp3d-origin="0.5 : 0.33333333 : 1"
       id="perspective9566" />
    <inkscape:perspective
       sodipodi:type="inkscape:persp3d"
       inkscape:vp_x="0 : 0.5 : 1"
       inkscape:vp_y="0 : 1000 : 0"
       inkscape:vp_z="1 : 0.5 : 1"
       inkscape:persp3d-origin="0.5 : 0.33333333 : 1"
       id="perspective9550" />
    <inkscape:perspective
       sodipodi:type="inkscape:persp3d"
       inkscape:vp_x="0 : 0.5 : 1"
       inkscape:vp_y="0 : 1000 : 0"
       inkscape:vp_z="1 : 0.5 : 1"
       inkscape:persp3d-origin="0.5 : 0.33333333 : 1"
       id="perspective9536" />
    <inkscape:perspective
       id="perspective10"
       inkscape:persp3d-origin="372.04724 : 350.78739 : 1"
       inkscape:vp_z="744.09448 : 526.18109 : 1"
       inkscape:vp_y="0 : 1000 : 0"
       inkscape:vp_x="0 : 526.18109 : 1"
       sodipodi:type="inkscape:persp3d" />
    <inkscape:path-effect
       id="path-effect10445"
       effect="" />
    <linearGradient
       id="linearGradient9903"
       inkscape:collect="always">
      <stop
         id="stop9905"
         offset="0"
         style="stop-color:#f57900;stop-opacity:1" />
      <stop
         id="stop9907"
         offset="1"
         style="stop-color:#204a87;stop-opacity:1" />
    </linearGradient>
    <inkscape:perspective
       id="perspective10-7"
       inkscape:persp3d-origin="372.04724 : 350.78739 : 1"
       inkscape:vp_z="744.09448 : 526.18109 : 1"
       inkscape:vp_y="0 : 1000 : 0"
       inkscape:vp_x="0 : 526.18109 : 1"
       sodipodi:type="inkscape:persp3d" />
    <linearGradient
       id="linearGradient6621">
      <stop
         style="stop-color:#f5a108;stop-opacity:0.0000000;"
         offset="0.0000000"
         id="stop6622" />
      <stop
         style="stop-color:#fefdc3;stop-opacity:0.74251497;"
         offset="1.0000000"
         id="stop6623" />
    </linearGradient>
    <inkscape:path-effect
       effect="spiro"
       id="path-effect5346-9"
       is_visible="true" />
    <inkscape:path-effect
       effect="spiro"
       id="path-effect5455-9"
       is_visible="true" />
    <inkscape:path-effect
       effect="spiro"
       id="path-effect5455-3"
       is_visible="true" />
    <inkscape:path-effect
       effect="spiro"
       id="path-effect5371-2"
       is_visible="true" />
    <clipPath
       id="clipPath7751"
       clipPathUnits="userSpaceOnUse">
      <rect
         y="58.944653"
         x="82"
         height="1251.4175"
         width="1027"
         id="rect7753"
         style="fill:#ffffff;fill-opacity:1;stroke:none" />
    </clipPath>
    <inkscape:perspective
       sodipodi:type="inkscape:persp3d"
       inkscape:vp_x="0 : 526.18109 : 1"
       inkscape:vp_y="0 : 1000 : 0"
       inkscape:vp_z="744.09448 : 526.18109 : 1"
       inkscape:persp3d-origin="372.04724 : 350.78739 : 1"
       id="perspective2878" />
    <inkscape:perspective
       id="perspective2859"
       inkscape:persp3d-origin="0.5 : 0.33333333 : 1"
       inkscape:vp_z="1 : 0.5 : 1"
       inkscape:vp_y="0 : 1000 : 0"
       inkscape:vp_x="0 : 0.5 : 1"
       sodipodi:type="inkscape:persp3d" />
    <linearGradient
       id="linearGradient3116"
       inkscape:collect="always">
      <stop
         id="stop3118"
         offset="0"
         style="stop-color:#eeeeec;stop-opacity:1;" />
      <stop
         id="stop3120"
         offset="1"
         style="stop-color:#ffffff;stop-opacity:1" />
    </linearGradient>
    <linearGradient
       gradientTransform="matrix(0.73022822,0,0,0.78261209,129.3881,-47.29312)"
       y2="299.06125"
       x2="-228.81355"
       y1="93.220337"
       x1="-228.81355"
       gradientUnits="userSpaceOnUse"
       id="linearGradient3124"
       xlink:href="#linearGradient3116"
       inkscape:collect="always" />
    <inkscape:path-effect
       effect="spiro"
       id="path-effect5556-5"
       is_visible="true" />
    <inkscape:path-effect
       effect="spiro"
       id="path-effect5532-1"
       is_visible="true" />
    <inkscape:path-effect
       effect="spiro"
       id="path-effect5455-3-4"
       is_visible="true" />
    <inkscape:path-effect
       effect="spiro"
       id="path-effect5455-7"
       is_visible="true" />
    <inkscape:path-effect
       effect="spiro"
       id="path-effect5441-8"
       is_visible="true" />
    <inkscape:path-effect
       effect="spiro"
       id="path-effect5437-9"
       is_visible="true" />
    <inkscape:path-effect
       effect="spiro"
       id="path-effect5371-5"
       is_visible="true" />
    <inkscape:path-effect
       effect="spiro"
       id="path-effect5346-9-1"
       is_visible="true" />
    <inkscape:path-effect
       effect="spiro"
       id="path-effect5346-3"
       is_visible="true" />
    <inkscape:path-effect
       effect="spiro"
       id="path-effect5375-6"
       is_visible="true" />
  </defs>
  <sodipodi:namedview
     id="base"
     pagecolor="#ffffff"
     bordercolor="#666666"
     borderopacity="1.0"
     inkscape:pageopacity="0.0"
     inkscape:pageshadow="2"
     inkscape:zoom="1"
     inkscape:cx="707.15428"
     inkscape:cy="71.244246"
     inkscape:document-units="px"
     inkscape:current-layer="layer1"
     showgrid="false"
     inkscape:window-width="1920"
     inkscape:window-height="1011"
     inkscape:window-x="0"
     inkscape:window-y="34"
     inkscape:window-maximized="1"
     inkscape:snap-nodes="false"
     inkscape:snap-bbox="true">
    <inkscape:grid
       type="xygrid"
       id="grid3138"
       empspacing="5"
       visible="true"
       enabled="true"
       snapvisiblegridlinesonly="true" />
  </sodipodi:namedview>
  <metadata
     id="metadata7">
    <rdf:RDF>
      <cc:Work
         rdf:about="">
        <dc:format>image/svg+xml</dc:format>
        <dc:type
           rdf:resource="http://purl.org/dc/dcmitype/StillImage" />
        <dc:title></dc:title>
      </cc:Work>
    </rdf:RDF>
  </metadata>
  <g
     inkscape:label="Layer 1"
     inkscape:groupmode="layer"
     id="layer1"
     transform="translate(0,-1013.3622)">
    <g
       style="fill:#888a85;fill-opacity:1"
       inkscape:label="Layer 1"
       id="g12558-6-9"
       transform="matrix(0.9139477,0,0,0.9139477,-121.3428,401.43918)"
       inkscape:export-filename="/home/andreas/Dropbox/gnome/gnome.org/get-involved.png"
       inkscape:export-xdpi="90"
       inkscape:export-ydpi="90">
      <g
         style="fill:#d3d7cf;fill-opacity:1"
         id="g12560-9-2"
         transform="translate(0,-57.982756)">
        <path
           style="fill:#d3d7cf;fill-opacity:1;fill-rule:evenodd;stroke:none"
           d="m 132.76777,766.19312 c -0.65852,-1.7926 2.49963,6.3178 2.01802,-12.57116 0.21148,11.82215 3.575,6.28084 1.94223,11.99228 l 5.73539,-11.39599 c -1.94212,10.27065 -1.92745,12.15991 -0.57873,10.67757 1.87816,-6.02595 3.38131,-4.19413 3.24795,-10.5608 l 1.77027,10.04729 c 1.89189,-2.96131 2.02027,4.57967 3.91216,-8.88513 l 2.1419,9.25675 3.02702,-9.67567 c 0.56748,6.05405 -1.96077,3.10811 3.29054,9.16216 -0.17022,-5.30125 2.21962,-2.16734 2.02858,-9.50676 l 1.1419,9.5 4.1554,-8.49999 1.63514,8.41215 c 3.17962,-4.99417 2.80503,-3.51768 3.28378,-9.41216 l 0.87838,9.38514 2.17567,-12.14189 c -1.1303,9.54676 0.7833,0.70613 2.48649,12.14189 3.69217,-4.40291 4.76696,-3.59495 5.43243,-9.00676 l 0.37162,9 2.81757,-12.1081 c -1.15394,13.11712 1.08559,-1.01577 1.72297,12.10134 1.51351,-2.28116 2.27703,-3.83323 3.79054,-8.99324 l 0.49324,8.10811 2.66892,-10.21621 c -0.56215,8.88048 0.83634,3.82398 2.76352,10.3581 2.42786,-2.8382 4.37807,-1.29238 5.80405,-10.14189 -0.0702,6.95114 -1.0316,7.90106 -0.16215,12.97297 l 0,4 -69.9948,0 0,-4 0,0 z"
           id="path12562-6-8"
           sodipodi:nodetypes="cccccccccccccccccccccccccccccccc"
           inkscape:connector-curvature="0" />
        <path
           sodipodi:nodetypes="cccccccccccccccccccccccccccccccc"
           id="path12566-6-9"
           d="m 269.76777,766.19312 c -0.65852,-1.7926 2.49963,6.3178 2.01802,-12.57116 0.21148,11.82215 3.575,6.28084 1.94223,11.99228 l 5.73539,-11.39599 c -1.94212,10.27065 -1.92745,12.15991 -0.57873,10.67757 1.87816,-6.02595 3.38131,-4.19413 3.24795,-10.5608 l 1.77027,10.04729 c 1.89189,-2.96131 2.02027,4.57967 3.91216,-8.88513 l 2.1419,9.25675 3.02702,-9.67567 c 0.56748,6.05405 -1.96077,3.10811 3.29054,9.16216 -0.17022,-5.30125 2.21962,-2.16734 2.02858,-9.50676 l 1.1419,9.5 4.1554,-8.49999 1.63514,8.41215 c 3.17962,-4.99417 2.80503,-3.51768 3.28378,-9.41216 l 0.87838,9.38514 2.17567,-12.14189 c -1.1303,9.54676 0.7833,0.70613 2.48649,12.14189 3.69217,-4.40291 4.76696,-3.59495 5.43243,-9.00676 l 0.37162,9 2.81757,-12.1081 c -1.15394,13.11712 1.08559,-1.01577 1.72297,12.10134 1.51351,-2.28116 2.27703,-3.83323 3.79054,-8.99324 l 0.49324,8.10811 2.66892,-10.21621 c -0.56215,8.88048 0.83634,3.82398 2.76352,10.3581 2.42786,-2.8382 4.37807,-1.29238 5.80405,-10.14189 -0.0702,6.95114 -1.0316,7.90106 -0.16215,12.97297 l 0,4 -69.9948,0 0,-4 0,0 z"
           style="fill:#d3d7cf;fill-opacity:1;fill-rule:evenodd;stroke:none"
           inkscape:connector-curvature="0" />
        <path
           sodipodi:nodetypes="cccccccccccccccccccccccccccccccc"
           id="path12568-2-2"
           d="m 365.76777,766.19312 c -0.65852,-1.7926 2.49963,6.3178 2.01802,-12.57116 0.21148,11.82215 3.575,6.28084 1.94223,11.99228 l 5.73539,-11.39599 c -1.94212,10.27065 -1.92745,12.15991 -0.57873,10.67757 1.87816,-6.02595 3.38131,-4.19413 3.24795,-10.5608 l 1.77027,10.04729 c 1.89189,-2.96131 2.02027,4.57967 3.91216,-8.88513 l 2.1419,9.25675 3.02702,-9.67567 c 0.56748,6.05405 -1.96077,3.10811 3.29054,9.16216 -0.17022,-5.30125 2.21962,-2.16734 2.02858,-9.50676 l 1.1419,9.5 4.1554,-8.49999 1.63514,8.41215 c 3.17962,-4.99417 2.80503,-3.51768 3.28378,-9.41216 l 0.87838,9.38514 2.17567,-12.14189 c -1.1303,9.54676 0.7833,0.70613 2.48649,12.14189 3.69217,-4.40291 4.76696,-3.59495 5.43243,-9.00676 l 0.37162,9 2.81757,-12.1081 c -1.15394,13.11712 1.08559,-1.01577 1.72297,12.10134 1.51351,-2.28116 2.27703,-3.83323 3.79054,-8.99324 l 0.49324,8.10811 2.66892,-10.21621 c -0.56215,8.88048 0.83634,3.82398 2.76352,10.3581 2.42786,-2.8382 4.37807,-1.29238 5.80405,-10.14189 -0.0702,6.95114 -1.0316,7.90106 -0.16215,12.97297 l 0,4 -69.9948,0 0,-4 0,0 z"
           style="fill:#d3d7cf;fill-opacity:1;fill-rule:evenodd;stroke:none"
           inkscape:connector-curvature="0" />
        <path
           style="fill:#d3d7cf;fill-opacity:1;fill-rule:evenodd;stroke:none"
           d="m 500.76777,766.19312 c -0.65852,-1.7926 2.49963,6.3178 2.01802,-12.57116 0.21148,11.82215 3.575,6.28084 1.94223,11.99228 l 5.73539,-11.39599 c -1.94212,10.27065 -1.92745,12.15991 -0.57873,10.67757 1.87816,-6.02595 3.38131,-4.19413 3.24795,-10.5608 l 1.77027,10.04729 c 1.89189,-2.96131 2.02027,4.57967 3.91216,-8.88513 l 2.1419,9.25675 3.02702,-9.67567 c 0.56748,6.05405 -1.96077,3.10811 3.29054,9.16216 -0.17022,-5.30125 2.21962,-2.16734 2.02858,-9.50676 l 1.1419,9.5 4.1554,-8.49999 1.63514,8.41215 c 3.17962,-4.99417 2.80503,-3.51768 3.28378,-9.41216 l 0.87838,9.38514 2.17567,-12.14189 c -1.1303,9.54676 0.7833,0.70613 2.48649,12.14189 3.69217,-4.40291 4.76696,-3.59495 5.43243,-9.00676 l 0.37162,9 2.81757,-12.1081 c -1.15394,13.11712 1.08559,-1.01577 1.72297,12.10134 1.51351,-2.28116 2.27703,-3.83323 3.79054,-8.99324 l 0.49324,8.10811 2.66892,-10.21621 c -0.56215,8.88048 0.83634,3.82398 2.76352,10.3581 2.42786,-2.8382 4.37807,-1.29238 5.80405,-10.14189 -0.0702,6.95114 -1.0316,7.90106 -0.16215,12.97297 l 0,4 -69.9948,0 0,-4 0,0 z"
           id="path12570-3-0"
           sodipodi:nodetypes="cccccccccccccccccccccccccccccccc"
           inkscape:connector-curvature="0" />
        <path
           style="fill:#d3d7cf;fill-opacity:1;fill-rule:evenodd;stroke:none"
           d="m 569.76777,766.19312 c -0.65852,-1.7926 2.49963,6.3178 2.01802,-12.57116 0.21148,11.82215 3.575,6.28084 1.94223,11.99228 l 5.73539,-11.39599 c -1.94212,10.27065 -1.92745,12.15991 -0.57873,10.67757 1.87816,-6.02595 3.38131,-4.19413 3.24795,-10.5608 l 1.77027,10.04729 c 1.89189,-2.96131 2.02027,4.57967 3.91216,-8.88513 l 2.1419,9.25675 3.02702,-9.67567 c 0.56748,6.05405 -1.96077,3.10811 3.29054,9.16216 -0.17022,-5.30125 2.21962,-2.16734 2.02858,-9.50676 l 1.1419,9.5 4.1554,-8.49999 1.63514,8.41215 c 3.17962,-4.99417 2.80503,-3.51768 3.28378,-9.41216 l 0.87838,9.38514 2.17567,-12.14189 c -1.1303,9.54676 0.7833,0.70613 2.48649,12.14189 3.69217,-4.40291 4.76696,-3.59495 5.43243,-9.00676 l 0.37162,9 2.81757,-12.1081 c -1.15394,13.11712 1.08559,-1.01577 1.72297,12.10134 1.51351,-2.28116 2.27703,-3.83323 3.79054,-8.99324 l 0.49324,8.10811 2.66892,-10.21621 c -0.56215,8.88048 0.83634,3.82398 2.76352,10.3581 2.42786,-2.8382 4.37807,-1.29238 5.80405,-10.14189 -0.0702,6.95114 -1.0316,7.90106 -0.16215,12.97297 l 0,4 -69.9948,0 0,-4 0,0 z"
           id="path12574-7-5"
           sodipodi:nodetypes="cccccccccccccccccccccccccccccccc"
           inkscape:connector-curvature="0" />
        <path
           style="fill:#d3d7cf;fill-opacity:1;fill-rule:evenodd;stroke:none"
           d="m 429.5,767.25026 c 2.35925,-5.93554 6.38872,-16.47213 5.90711,-30.36901 1.27214,9.73819 1.18591,24.63756 -0.44686,28.83955 l 3.98539,-7.64848 c -1.94212,7.55627 -1.67745,9.31408 -0.32873,8.2235 3.87816,-4.06552 3.88131,-10.81068 2.74795,-15.3108 l 2.27027,14.19729 c 1.89189,-2.17868 2.27027,-11.52888 4.16216,-21.43513 l 1.8919,21.15675 3.02702,-14.47567 c 0.56748,4.45405 -0.96077,10.90811 1.29054,14.86216 1.43253,-0.85358 1.74603,-11.28838 2.06402,-9.21633 0.94664,6.16827 2.0924,10.9114 2.66496,8.41933 0.24167,-1.05183 1.35948,-8.01433 1.3048,-9.55976 l 2.8919,8.3 3.4054,-20.59999 c -0.0664,9.38599 0.57233,23.7147 -0.37838,21.43513 l 1.51352,2.22702 c 3.17962,-3.67428 3.30503,-9.02551 3.78378,-13.36216 l 0.37838,11.13514 5.67567,-21.99189 c -1.1303,7.02369 -3.2167,13.57844 -1.51351,21.99189 3.69217,-3.23928 5.76696,-6.87521 6.43243,-10.85676 l -0.37838,10.3 7.56757,-29.5081 c -1.15394,9.65045 -3.66441,19.3009 -3.02703,28.95134 1.51351,-1.67828 3.02703,-5.94695 4.54054,-9.74324 l -0.75676,8.90811 4.91892,-17.81621 c -0.56215,6.53349 -3.51721,13.3604 1.51352,19.2081 2.42786,-2.0881 4.62807,-5.18118 6.05405,-11.69189 -0.0702,5.11405 -1.0316,11.69864 -0.16215,15.43011 l 0,2.94286 -73,0 0,-2.94286 0,0 z"
           id="path12576-5-9"
           sodipodi:nodetypes="cccccccccccsscccccccccccccccccccccc"
           inkscape:connector-curvature="0" />
        <path
           style="fill:#d3d7cf;fill-opacity:1;fill-rule:evenodd;stroke:none"
           d="m 262.65401,758.40725 c 1.94212,7.34747 1.67745,9.05671 0.32873,7.99626 -3.87816,-3.95318 -3.88131,-10.51195 -2.74795,-14.88772 l -2.27027,13.80498 c -1.89189,-2.11847 -2.27027,-11.21031 -4.16216,-20.84282 l -1.8919,20.57213 -3.02702,-14.07567 c -0.56748,4.33098 0.71077,8.66196 -4.54054,12.99293 -2.83498,-1.64256 -3.97482,-5.30625 -3.78378,-10.55676 l -1.8919,10.01539 -3.4054,-20.03076 c 0.0664,9.12663 -0.57233,23.0594 0.37838,20.84282 l -1.51352,2.16548 c -3.17962,-3.57275 -3.30503,-8.77611 -3.78378,-12.99293 l -0.37838,10.82745 -5.67567,-21.3842 c 1.1303,6.82961 3.2167,13.20323 1.51351,21.3842 -3.69217,-3.14977 -5.76696,-6.68523 -6.43243,-10.55676 l 0.37838,10.01539 -7.56757,-28.69272 c 1.15394,9.38379 3.66441,18.76756 3.02703,28.15134 -1.51351,-1.63191 -3.02703,-5.78262 -4.54054,-9.47401 l 0.75676,8.66196 -4.91892,-17.32391 c 0.56215,6.35296 3.51721,12.99122 -1.51352,18.67734 -2.42786,-2.03041 -4.62807,-5.03801 -6.05405,-11.36882 0.0702,4.97274 1.0316,11.37538 0.16215,15.00374 l 0,2.86154 73,0 -9.44564,-11.78587 0,0 z"
           id="path12578-5-0"
           sodipodi:nodetypes="cccccccccccccccccccccccccccccc"
           inkscape:connector-curvature="0" />
        <path
           sodipodi:nodetypes="cccccccccccccccccccc"
           id="path12580-7-0"
           d="m 337.14466,766.86802 c 2.0486,-5.93554 5.5475,-16.47213 5.12931,-30.36901 1.10463,9.73819 1.02975,24.63756 -0.38803,28.83955 l 3.46063,-7.64848 c -1.6864,7.55627 -1.45658,9.31408 -0.28545,8.2235 3.36752,-4.06552 3.37025,-10.81068 2.38612,-15.3108 l 1.97134,14.19729 c 1.64278,-2.17868 1.97134,-11.52888 3.61412,-21.43513 l 1.64279,21.15675 2.62844,-14.47567 c 0.49276,4.45405 -0.61718,8.90811 3.94268,13.36216 2.46169,-1.68924 3.45144,-5.45704 3.28556,-10.85676 l 1.64278,10.3 2.95701,-20.59999 c -0.0576,9.38599 0.49697,23.7147 -0.32856,21.43513 l 1.31423,2.22702 -0.4616,4.27954 -32.51137,-0.007 0,-3.31761 z"
           style="fill:#d3d7cf;fill-opacity:1;fill-rule:evenodd;stroke:none"
           inkscape:connector-curvature="0" />
      </g>
      <g
         style="fill:#d3d7cf;fill-opacity:1"
         id="g12582-4-0"
         transform="translate(504.87423,-59.362911)">
        <path
           style="fill:#d3d7cf;fill-opacity:1;fill-rule:evenodd;stroke:none"
           d="m 132.76777,767.57327 c -0.65852,-1.7926 2.49963,6.3178 2.01802,-12.57116 0.21148,11.82215 3.575,6.28084 1.94223,11.99228 l 5.73539,-11.39599 c -1.94212,10.27065 -1.92745,12.15991 -0.57873,10.67757 1.87816,-6.02595 3.38131,-4.19413 3.24795,-10.5608 l 1.77027,10.04729 c 1.89189,-2.96131 2.02027,4.57967 3.91216,-8.88513 l 2.1419,9.25675 3.02702,-9.67567 c 0.56748,6.05405 -1.96077,3.10811 3.29054,9.16216 -0.17022,-5.30125 2.21962,-2.16734 2.02858,-9.50676 l 1.1419,9.5 4.1554,-8.49999 1.63514,8.41215 c 3.17962,-4.99417 2.80503,-3.51768 3.28378,-9.41216 l 0.87838,9.38514 2.17567,-12.14189 c -1.1303,9.54676 0.7833,0.70613 2.48649,12.14189 3.69217,-4.40291 4.76696,-3.59495 5.43243,-9.00676 l 0.37162,9 2.81757,-12.1081 c -1.15394,13.11712 1.08559,-1.01577 1.72297,12.10134 1.51351,-2.28116 2.27703,-3.83323 3.79054,-8.99324 l 0.49324,8.10811 2.66892,-10.21621 c -0.56215,8.88048 0.83634,3.82398 2.76352,10.3581 2.42786,-2.8382 4.37807,-1.29238 5.80405,-10.14189 -0.0702,6.95114 -1.0316,7.90106 -0.16215,12.97297 l 0,4 -69.9948,0 0,-4 0,0 z"
           id="path12584-7-3"
           sodipodi:nodetypes="cccccccccccccccccccccccccccccccc"
           inkscape:connector-curvature="0" />
        <path
           sodipodi:nodetypes="cccccccccccccccccccccccccccccccc"
           id="path12588-5-7"
           d="m 269.76777,767.57327 c -0.65852,-1.7926 2.49963,6.3178 2.01802,-12.57116 0.21148,11.82215 3.575,6.28084 1.94223,11.99228 l 5.73539,-11.39599 c -1.94212,10.27065 -1.92745,12.15991 -0.57873,10.67757 1.87816,-6.02595 3.38131,-4.19413 3.24795,-10.5608 l 1.77027,10.04729 c 1.89189,-2.96131 2.02027,4.57967 3.91216,-8.88513 l 2.1419,9.25675 3.02702,-9.67567 c 0.56748,6.05405 -1.96077,3.10811 3.29054,9.16216 -0.17022,-5.30125 2.21962,-2.16734 2.02858,-9.50676 l 1.1419,9.5 4.1554,-8.49999 1.63514,8.41215 c 3.17962,-4.99417 2.80503,-3.51768 3.28378,-9.41216 l 0.87838,9.38514 2.17567,-12.14189 c -1.1303,9.54676 0.7833,0.70613 2.48649,12.14189 3.69217,-4.40291 4.76696,-3.59495 5.43243,-9.00676 l 0.37162,9 2.81757,-12.1081 c -1.15394,13.11712 1.08559,-1.01577 1.72297,12.10134 1.51351,-2.28116 2.27703,-3.83323 3.79054,-8.99324 l 0.49324,8.10811 2.66892,-10.21621 c -0.56215,8.88048 0.83634,3.82398 2.76352,10.3581 2.42786,-2.8382 4.37807,-1.29238 5.80405,-10.14189 -0.0702,6.95114 -1.0316,7.90106 -0.16215,12.97297 l 0,4 -69.9948,0 0,-4 0,0 z"
           style="fill:#d3d7cf;fill-opacity:1;fill-rule:evenodd;stroke:none"
           inkscape:connector-curvature="0" />
        <path
           sodipodi:nodetypes="cccccccccccccccccccccccccccccccc"
           id="path12590-2-8"
           d="m 365.76777,767.57327 c -0.65852,-1.7926 2.49963,6.3178 2.01802,-12.57116 0.21148,11.82215 3.575,6.28084 1.94223,11.99228 l 5.73539,-11.39599 c -1.94212,10.27065 -1.92745,12.15991 -0.57873,10.67757 1.87816,-6.02595 3.38131,-4.19413 3.24795,-10.5608 l 1.77027,10.04729 c 1.89189,-2.96131 2.02027,4.57967 3.91216,-8.88513 l 2.1419,9.25675 3.02702,-9.67567 c 0.56748,6.05405 -1.96077,3.10811 3.29054,9.16216 -0.17022,-5.30125 2.21962,-2.16734 2.02858,-9.50676 l 1.1419,9.5 4.1554,-8.49999 1.63514,8.41215 c 3.17962,-4.99417 2.80503,-3.51768 3.28378,-9.41216 l 0.87838,9.38514 2.17567,-12.14189 c -1.1303,9.54676 0.7833,0.70613 2.48649,12.14189 3.69217,-4.40291 4.76696,-3.59495 5.43243,-9.00676 l 0.37162,9 2.81757,-12.1081 c -1.15394,13.11712 1.08559,-1.01577 1.72297,12.10134 1.51351,-2.28116 2.27703,-3.83323 3.79054,-8.99324 l 0.49324,8.10811 2.66892,-10.21621 c -0.56215,8.88048 0.83634,3.82398 2.76352,10.3581 2.42786,-2.8382 4.37807,-1.29238 5.80405,-10.14189 -0.0702,6.95114 -1.0316,7.90106 -0.16215,12.97297 l 0,4 -69.9948,0 0,-4 0,0 z"
           style="fill:#d3d7cf;fill-opacity:1;fill-rule:evenodd;stroke:none"
           inkscape:connector-curvature="0" />
        <path
           style="fill:#d3d7cf;fill-opacity:1;fill-rule:evenodd;stroke:none"
           d="m 429.5,768.63375 c 2.35925,-5.95166 6.38872,-16.51688 5.90711,-30.4515 1.27214,9.76464 1.18591,24.70448 -0.44686,28.91788 l 3.98539,-7.66925 c -1.94212,7.57679 -1.67745,9.33938 -0.32873,8.24584 3.87816,-4.07657 3.88131,-10.84005 2.74795,-15.35239 l 2.27027,14.23585 c 1.89189,-2.1846 2.27027,-11.56019 4.16216,-21.49335 l 1.8919,21.21422 3.02702,-14.515 c 0.56748,4.46615 -0.96077,10.93774 1.29054,14.90254 1.43253,-0.8559 1.74603,-11.31905 2.06402,-9.24137 0.94664,6.18503 2.0924,10.94104 2.66496,8.4422 0.24167,-1.05469 1.35948,-8.0361 1.3048,-9.58573 l 2.8919,8.32255 3.4054,-20.65595 c -0.0664,9.41149 0.57233,23.77912 -0.37838,21.49336 l 1.51352,2.23307 c 3.17962,-3.68426 3.30503,-9.05003 3.78378,-13.39846 l 0.37838,11.16539 5.67567,-22.05163 c -1.1303,7.04277 -3.2167,13.61532 -1.51351,22.05163 3.69217,-3.24808 5.76696,-6.89389 6.43243,-10.88625 l -0.37838,10.32797 7.56757,-29.58825 c -1.15394,9.67666 -3.66441,19.35333 -3.02703,29.02998 1.51351,-1.68284 3.02703,-5.9631 4.54054,-9.7697 l -0.75676,8.9323 4.91892,-17.8646 c -0.56215,6.55124 -3.51721,13.39669 1.51352,19.26027 2.42786,-2.09377 4.62807,-5.19525 6.05405,-11.72364 -0.0702,5.12794 -1.0316,11.73041 -0.16215,15.47202 l 0,2.95085 -73,0 0,-2.95085 0,0 z"
           id="path12598-3-5"
           sodipodi:nodetypes="cccccccccccsscccccccccccccccccccccc"
           inkscape:connector-curvature="0" />
        <path
           style="fill:#d3d7cf;fill-opacity:1;fill-rule:evenodd;stroke:none"
           d="m 262.65401,759.7874 c 1.94212,7.34747 1.67745,9.05671 0.32873,7.99626 -3.87816,-3.95318 -3.88131,-10.51195 -2.74795,-14.88772 l -2.27027,13.80498 c -1.89189,-2.11847 -2.27027,-11.21031 -4.16216,-20.84282 l -1.8919,20.57213 -3.02702,-14.07567 c -0.56748,4.33098 0.71077,8.66196 -4.54054,12.99293 -2.83498,-1.64256 -3.97482,-5.30625 -3.78378,-10.55676 l -1.8919,10.01539 -3.4054,-20.03076 c 0.0664,9.12663 -0.57233,23.0594 0.37838,20.84282 l -1.51352,2.16548 c -3.17962,-3.57275 -3.30503,-8.77611 -3.78378,-12.99293 l -0.37838,10.82745 -5.67567,-21.3842 c 1.1303,6.82961 3.2167,13.20323 1.51351,21.3842 -3.69217,-3.14977 -5.76696,-6.68523 -6.43243,-10.55676 l 0.37838,10.01539 -7.56757,-28.69272 c 1.15394,9.38379 3.66441,18.76756 3.02703,28.15134 -1.51351,-1.63191 -3.02703,-5.78262 -4.54054,-9.47401 l 0.75676,8.66196 -4.91892,-17.32391 c 0.56215,6.35296 3.51721,12.99122 -1.51352,18.67734 -2.42786,-2.03041 -4.62807,-5.03801 -6.05405,-11.36882 0.0702,4.97274 1.0316,11.37538 0.16215,15.00374 l 0,2.86154 73,0 -9.44564,-11.78587 0,0 z"
           id="path12600-8-4"
           sodipodi:nodetypes="cccccccccccccccccccccccccccccc"
           inkscape:connector-curvature="0" />
        <path
           sodipodi:nodetypes="cccccccccccccccccccc"
           id="path12602-7-6"
           d="m 337.14466,768.24817 c 2.0486,-5.93554 5.5475,-16.47213 5.12931,-30.36901 1.10463,9.73819 1.02975,24.63756 -0.38803,28.83955 l 3.46063,-7.64847 c -1.6864,7.55627 -1.45658,9.31408 -0.28545,8.22349 3.36752,-4.06552 3.37025,-10.81068 2.38612,-15.3108 l 1.97134,14.19729 c 1.64278,-2.17868 1.97134,-11.52888 3.61412,-21.43513 l 1.64279,21.15675 2.62844,-14.47567 c 0.49276,4.45405 -0.61718,8.90811 3.94268,13.36216 2.46169,-1.68924 3.45144,-5.45704 3.28556,-10.85676 l 1.64278,10.3 2.95701,-20.59999 c -0.0576,9.38599 0.49697,23.7147 -0.32856,21.43513 l 1.31423,2.22702 -0.4616,4.27954 -32.51137,0.011 0,-3.33607 z"
           style="fill:#d3d7cf;fill-opacity:1;fill-rule:evenodd;stroke:none"
           inkscape:connector-curvature="0" />
      </g>
      <g
         style="fill:#888a85;fill-opacity:1"
         id="g12560-9-2-3"
         transform="translate(874.32019,-57.982756)">
        <path
           style="fill:#d3d7cf;fill-opacity:1;fill-rule:evenodd;stroke:none"
           d="m 132.76777,766.19312 c -0.65852,-1.7926 2.49963,6.3178 2.01802,-12.57116 0.21148,11.82215 3.575,6.28084 1.94223,11.99228 l 5.73539,-11.39599 c -1.94212,10.27065 -1.92745,12.15991 -0.57873,10.67757 1.87816,-6.02595 3.38131,-4.19413 3.24795,-10.5608 l 1.77027,10.04729 c 1.89189,-2.96131 2.02027,4.57967 3.91216,-8.88513 l 2.1419,9.25675 3.02702,-9.67567 c 0.56748,6.05405 -1.96077,3.10811 3.29054,9.16216 -0.17022,-5.30125 2.21962,-2.16734 2.02858,-9.50676 l 1.1419,9.5 4.1554,-8.49999 1.63514,8.41215 c 3.17962,-4.99417 2.80503,-3.51768 3.28378,-9.41216 l 0.87838,9.38514 2.17567,-12.14189 c -1.1303,9.54676 0.7833,0.70613 2.48649,12.14189 3.69217,-4.40291 4.76696,-3.59495 5.43243,-9.00676 l 0.37162,9 2.81757,-12.1081 c -1.15394,13.11712 1.08559,-1.01577 1.72297,12.10134 1.51351,-2.28116 2.27703,-3.83323 3.79054,-8.99324 l 0.49324,8.10811 2.66892,-10.21621 c -0.56215,8.88048 0.83634,3.82398 2.76352,10.3581 2.42786,-2.8382 4.37807,-1.29238 5.80405,-10.14189 -0.0702,6.95114 -1.0316,7.90106 -0.16215,12.97297 l 0,4 -69.9948,0 0,-4 0,0 z"
           id="path12562-6-8-0"
           sodipodi:nodetypes="cccccccccccccccccccccccccccccccc"
           inkscape:connector-curvature="0" />
        <path
           sodipodi:nodetypes="cccccccccccccccccccccccccccccccc"
           id="path12566-6-9-4"
           d="m 269.76777,766.19312 c -0.65852,-1.7926 2.49963,6.3178 2.01802,-12.57116 0.21148,11.82215 3.575,6.28084 1.94223,11.99228 l 5.73539,-11.39599 c -1.94212,10.27065 -1.92745,12.15991 -0.57873,10.67757 1.87816,-6.02595 3.38131,-4.19413 3.24795,-10.5608 l 1.77027,10.04729 c 1.89189,-2.96131 2.02027,4.57967 3.91216,-8.88513 l 2.1419,9.25675 3.02702,-9.67567 c 0.56748,6.05405 -1.96077,3.10811 3.29054,9.16216 -0.17022,-5.30125 2.21962,-2.16734 2.02858,-9.50676 l 1.1419,9.5 4.1554,-8.49999 1.63514,8.41215 c 3.17962,-4.99417 2.80503,-3.51768 3.28378,-9.41216 l 0.87838,9.38514 2.17567,-12.14189 c -1.1303,9.54676 0.7833,0.70613 2.48649,12.14189 3.69217,-4.40291 4.76696,-3.59495 5.43243,-9.00676 l 0.37162,9 2.81757,-12.1081 c -1.15394,13.11712 1.08559,-1.01577 1.72297,12.10134 1.51351,-2.28116 2.27703,-3.83323 3.79054,-8.99324 l 0.49324,8.10811 2.66892,-10.21621 c -0.56215,8.88048 0.83634,3.82398 2.76352,10.3581 2.42786,-2.8382 4.37807,-1.29238 5.80405,-10.14189 -0.0702,6.95114 -1.0316,7.90106 -0.16215,12.97297 l 0,4 -69.9948,0 0,-4 0,0 z"
           style="fill:#d3d7cf;fill-opacity:1;fill-rule:evenodd;stroke:none"
           inkscape:connector-curvature="0" />
        <path
           style="fill:#d3d7cf;fill-opacity:1;fill-rule:evenodd;stroke:none"
           d="M 1013.875 23.84375 C 1014.3152 41.107272 1011.4294 33.705407 1012.0312 35.34375 L 1012.0312 39 L 1028.0312 39 L 1028.0312 28.75 C 1026.7562 36.425973 1026.4844 31.266198 1024.9375 33.6875 L 1023.3438 24.5 C 1023.4656 30.318803 1022.0915 28.648847 1020.375 34.15625 C 1019.1423 35.511031 1019.1313 33.793087 1020.9062 24.40625 L 1015.6562 34.8125 C 1017.1485 29.592543 1014.0683 34.648577 1013.875 23.84375 z "
           transform="matrix(1.0941545,0,0,1.0941545,-741.55242,727.52109)"
           id="path12568-2-2-8" />
        <path
           style="fill:#d3d7cf;fill-opacity:1;fill-rule:evenodd;stroke:none"
           d="m 262.65401,758.40725 c 1.94212,7.34747 1.67745,9.05671 0.32873,7.99626 -3.87816,-3.95318 -3.88131,-10.51195 -2.74795,-14.88772 l -2.27027,13.80498 c -1.89189,-2.11847 -2.27027,-11.21031 -4.16216,-20.84282 l -1.8919,20.57213 -3.02702,-14.07567 c -0.56748,4.33098 0.71077,8.66196 -4.54054,12.99293 -2.83498,-1.64256 -3.97482,-5.30625 -3.78378,-10.55676 l -1.8919,10.01539 -3.4054,-20.03076 c 0.0664,9.12663 -0.57233,23.0594 0.37838,20.84282 l -1.51352,2.16548 c -3.17962,-3.57275 -3.30503,-8.77611 -3.78378,-12.99293 l -0.37838,10.82745 -5.67567,-21.3842 c 1.1303,6.82961 3.2167,13.20323 1.51351,21.3842 -3.69217,-3.14977 -5.76696,-6.68523 -6.43243,-10.55676 l 0.37838,10.01539 -7.56757,-28.69272 c 1.15394,9.38379 3.66441,18.76756 3.02703,28.15134 -1.51351,-1.63191 -3.02703,-5.78262 -4.54054,-9.47401 l 0.75676,8.66196 -4.91892,-17.32391 c 0.56215,6.35296 3.51721,12.99122 -1.51352,18.67734 -2.42786,-2.03041 -4.62807,-5.03801 -6.05405,-11.36882 0.0702,4.97274 1.0316,11.37538 0.16215,15.00374 l 0,2.86154 73,0 -9.44564,-11.78587 0,0 z"
           id="path12578-5-0-8"
           sodipodi:nodetypes="cccccccccccccccccccccccccccccc"
           inkscape:connector-curvature="0" />
        <path
           sodipodi:nodetypes="cccccccccccccccccccc"
           id="path12580-7-0-6"
           d="m 337.14466,766.86802 c 2.0486,-5.93554 5.5475,-16.47213 5.12931,-30.36901 1.10463,9.73819 1.02975,24.63756 -0.38803,28.83955 l 3.46063,-7.64848 c -1.6864,7.55627 -1.45658,9.31408 -0.28545,8.2235 3.36752,-4.06552 3.37025,-10.81068 2.38612,-15.3108 l 1.97134,14.19729 c 1.64278,-2.17868 1.97134,-11.52888 3.61412,-21.43513 l 1.64279,21.15675 2.62844,-14.47567 c 0.49276,4.45405 -0.61718,8.90811 3.94268,13.36216 2.46169,-1.68924 3.45144,-5.45704 3.28556,-10.85676 l 1.64278,10.3 2.95701,-20.59999 c -0.0576,9.38599 0.49697,23.7147 -0.32856,21.43513 l 1.31423,2.22702 -0.4616,4.27954 -32.51137,-0.007 0,-3.31761 z"
           style="fill:#d3d7cf;fill-opacity:1;fill-rule:evenodd;stroke:none"
           inkscape:connector-curvature="0" />
      </g>
    </g>
  </g>
</svg>
