<?xml version="1.0" encoding="UTF-8" standalone="no"?>
<!-- Created with Inkscape (http://www.inkscape.org/) -->

<svg
   xmlns:dc="http://purl.org/dc/elements/1.1/"
   xmlns:cc="http://creativecommons.org/ns#"
   xmlns:rdf="http://www.w3.org/1999/02/22-rdf-syntax-ns#"
   xmlns:svg="http://www.w3.org/2000/svg"
   xmlns="http://www.w3.org/2000/svg"
   xmlns:sodipodi="http://sodipodi.sourceforge.net/DTD/sodipodi-0.dtd"
   xmlns:inkscape="http://www.inkscape.org/namespaces/inkscape"
   width="940"
   height="180"
   id="svg2818"
   sodipodi:version="0.32"
   inkscape:version="0.47 r22583"
   version="1.0"
   inkscape:export-filename="/home/vinicius/Documentos/GNOME/website-wp/wordpress/wp-content/themes/grass/images/footer_arts/i18n.png"
   inkscape:export-xdpi="90"
   inkscape:export-ydpi="90"
   sodipodi:docname="footer art - locale.svg"
   inkscape:output_extension="org.inkscape.output.svg.inkscape">
  <defs
     id="defs2820">
    <inkscape:perspective
       sodipodi:type="inkscape:persp3d"
       inkscape:vp_x="0 : 526.18109 : 1"
       inkscape:vp_y="0 : 1000 : 0"
       inkscape:vp_z="744.09448 : 526.18109 : 1"
       inkscape:persp3d-origin="372.04724 : 350.78739 : 1"
       id="perspective2826" />
    <inkscape:perspective
       id="perspective3464"
       inkscape:persp3d-origin="0.5 : 0.33333333 : 1"
       inkscape:vp_z="1 : 0.5 : 1"
       inkscape:vp_y="0 : 1000 : 0"
       inkscape:vp_x="0 : 0.5 : 1"
       sodipodi:type="inkscape:persp3d" />
    <inkscape:perspective
       id="perspective4991"
       inkscape:persp3d-origin="0.5 : 0.33333333 : 1"
       inkscape:vp_z="1 : 0.5 : 1"
       inkscape:vp_y="0 : 1000 : 0"
       inkscape:vp_x="0 : 0.5 : 1"
       sodipodi:type="inkscape:persp3d" />
    <inkscape:perspective
       id="perspective3551"
       inkscape:persp3d-origin="0.5 : 0.33333333 : 1"
       inkscape:vp_z="1 : 0.5 : 1"
       inkscape:vp_y="0 : 1000 : 0"
       inkscape:vp_x="0 : 0.5 : 1"
       sodipodi:type="inkscape:persp3d" />
    <inkscape:perspective
       id="perspective3635"
       inkscape:persp3d-origin="0.5 : 0.33333333 : 1"
       inkscape:vp_z="1 : 0.5 : 1"
       inkscape:vp_y="0 : 1000 : 0"
       inkscape:vp_x="0 : 0.5 : 1"
       sodipodi:type="inkscape:persp3d" />
    <inkscape:perspective
       id="perspective2954"
       inkscape:persp3d-origin="0.5 : 0.33333333 : 1"
       inkscape:vp_z="1 : 0.5 : 1"
       inkscape:vp_y="0 : 1000 : 0"
       inkscape:vp_x="0 : 0.5 : 1"
       sodipodi:type="inkscape:persp3d" />
  </defs>
  <sodipodi:namedview
     id="base"
     pagecolor="#ffffff"
     bordercolor="#666666"
     borderopacity="1.0"
     inkscape:pageopacity="0.0"
     inkscape:pageshadow="2"
     inkscape:zoom="1"
     inkscape:cx="499.12549"
     inkscape:cy="101.14324"
     inkscape:document-units="px"
     inkscape:current-layer="g3744"
     showgrid="false"
     showguides="true"
     inkscape:guide-bbox="true"
     inkscape:window-width="1280"
     inkscape:window-height="750"
     inkscape:window-x="0"
     inkscape:window-y="24"
     inkscape:window-maximized="1">
    <inkscape:grid
       type="xygrid"
       id="grid5037"
       empspacing="5"
       visible="true"
       enabled="true"
       snapvisiblegridlinesonly="true" />
  </sodipodi:namedview>
  <metadata
     id="metadata2823">
    <rdf:RDF>
      <cc:Work
         rdf:about="">
        <dc:format>image/svg+xml</dc:format>
        <dc:type
           rdf:resource="http://purl.org/dc/dcmitype/StillImage" />
        <dc:title></dc:title>
      </cc:Work>
    </rdf:RDF>
  </metadata>
  <g
     inkscape:label="Camada 1"
     inkscape:groupmode="layer"
     id="layer1"
     transform="translate(0,-872.36218)">
    <g
       transform="translate(-275.11023,545.72336)"
       id="g7634"
       style="fill:#d3d7cf">
      <g
         inkscape:label="Layer 1"
         id="layer1-2-4"
         transform="matrix(1.4067977,0,0,1.4067977,-160.44192,-978.25367)"
         style="fill:#d3d7cf;fill-opacity:1"
         inkscape:export-filename="/home/andreasn/Gnome/mobile-donation-card.png"
         inkscape:export-xdpi="90"
         inkscape:export-ydpi="90">
        <g
           id="layer1-5-3-5"
           inkscape:label="Layer 1"
           transform="translate(-413.909,82.891)"
           style="fill:#d3d7cf;fill-opacity:1" />
        <rect
           style="color:#000000;fill:#d3d7cf;fill-opacity:1;fill-rule:nonzero;stroke:none;stroke-width:3;marker:none;visibility:visible;display:inline;overflow:visible"
           id="rect4674-8"
           width="20.578096"
           height="20.578096"
           x="391.28928"
           y="1038.306"
           rx="6.3639612"
           ry="6.3639612" />
        <path
           sodipodi:type="arc"
           style="color:#000000;fill:#d3d7cf;fill-opacity:1;fill-rule:nonzero;stroke:none;stroke-width:3;marker:none;visibility:visible;display:inline;overflow:visible"
           id="path4650-2-31"
           sodipodi:cx="406.05606"
           sodipodi:cy="406.59692"
           sodipodi:rx="7.4246211"
           sodipodi:ry="7.4246211"
           d="m 413.48068,406.59692 c 0,4.10051 -3.32411,7.42462 -7.42462,7.42462 -4.1005,0 -7.42462,-3.32411 -7.42462,-7.42462 0,-4.1005 3.32412,-7.42462 7.42462,-7.42462 4.10051,0 7.42462,3.32412 7.42462,7.42462 z"
           transform="matrix(0.897217,0,0,0.897217,63.56833,666.704)" />
        <rect
           style="color:#000000;fill:#d3d7cf;fill-opacity:1;fill-rule:nonzero;stroke:none;stroke-width:3;marker:none;visibility:visible;display:inline;overflow:visible"
           id="rect4674-4-2"
           width="20.578096"
           height="20.578096"
           x="417.53433"
           y="1039.0942"
           rx="6.3639612"
           ry="6.3639612" />
        <path
           sodipodi:type="arc"
           style="color:#000000;fill:#d3d7cf;fill-opacity:1;fill-rule:nonzero;stroke:none;stroke-width:3;marker:none;visibility:visible;display:inline;overflow:visible"
           id="path4650-2-4-29"
           sodipodi:cx="406.05606"
           sodipodi:cy="406.59692"
           sodipodi:rx="7.4246211"
           sodipodi:ry="7.4246211"
           d="m 413.48068,406.59692 a 7.4246211,7.4246211 0 1 1 -14.84924,0 7.4246211,7.4246211 0 1 1 14.84924,0 z"
           transform="matrix(0.897217,0,0,0.897217,171.30705,669.315)" />
        <rect
           style="color:#000000;fill:#d3d7cf;fill-opacity:1;fill-rule:nonzero;stroke:none;stroke-width:3;marker:none;visibility:visible;display:inline;overflow:visible"
           id="rect4674-4-4-5"
           width="20.578096"
           height="20.578096"
           x="525.27258"
           y="1041.7059"
           rx="6.3639612"
           ry="6.3639612" />
        <path
           sodipodi:type="arc"
           style="color:#000000;fill:#d3d7cf;fill-opacity:1;fill-rule:nonzero;stroke:none;stroke-width:3;marker:none;visibility:visible;display:inline;overflow:visible"
           id="path4650-7-5"
           sodipodi:cx="406.05606"
           sodipodi:cy="406.59692"
           sodipodi:rx="7.4246211"
           sodipodi:ry="7.4246211"
           d="m 413.48068,406.59692 a 7.4246211,7.4246211 0 1 1 -14.84924,0 7.4246211,7.4246211 0 1 1 14.84924,0 z"
           transform="matrix(0.897217,0,0,0.897217,513.87245,670.781)" />
        <rect
           style="color:#000000;fill:#d3d7cf;fill-opacity:1;fill-rule:nonzero;stroke:none;stroke-width:3;marker:none;visibility:visible;display:inline;overflow:visible"
           id="rect4674-9-4"
           width="20.578096"
           height="20.578096"
           x="867.83765"
           y="1043.1719"
           rx="6.3639612"
           ry="6.3639612" />
        <path
           sodipodi:type="arc"
           style="color:#000000;fill:#d3d7cf;fill-opacity:1;fill-rule:nonzero;stroke:none;stroke-width:3;marker:none;visibility:visible;display:inline;overflow:visible"
           id="path4650-2-3-6"
           sodipodi:cx="406.05606"
           sodipodi:cy="406.59692"
           sodipodi:rx="7.4246211"
           sodipodi:ry="7.4246211"
           d="m 413.48068,406.59692 a 7.4246211,7.4246211 0 1 1 -14.84924,0 7.4246211,7.4246211 0 1 1 14.84924,0 z"
           transform="matrix(0.897217,0,0,0.897217,194.97905,665.211)" />
        <rect
           style="color:#000000;fill:#d3d7cf;fill-opacity:1;fill-rule:nonzero;stroke:none;stroke-width:3;marker:none;visibility:visible;display:inline;overflow:visible"
           id="rect4674-4-6-3"
           width="20.578096"
           height="20.578096"
           x="548.94415"
           y="1037.6018"
           rx="6.3639612"
           ry="6.3639612" />
        <path
           sodipodi:type="arc"
           style="color:#000000;fill:#d3d7cf;fill-opacity:1;fill-rule:nonzero;stroke:none;stroke-width:3;marker:none;visibility:visible;display:inline;overflow:visible"
           id="path4650-2-4-2-1"
           sodipodi:cx="406.05606"
           sodipodi:cy="406.59692"
           sodipodi:rx="7.4246211"
           sodipodi:ry="7.4246211"
           d="m 413.48068,406.59692 c 0,4.10051 -3.32411,7.42462 -7.42462,7.42462 -4.1005,0 -7.42462,-3.32411 -7.42462,-7.42462 0,-4.1005 3.32412,-7.42462 7.42462,-7.42462 4.10051,0 7.42462,3.32412 7.42462,7.42462 z"
           transform="matrix(0.897217,0,0,0.897217,10.46833,668.26)" />
        <rect
           style="color:#000000;fill:#d3d7cf;fill-opacity:1;fill-rule:nonzero;stroke:none;stroke-width:3;marker:none;visibility:visible;display:inline;overflow:visible"
           id="rect4674-4-4-1-2"
           width="20.578096"
           height="20.578096"
           x="364.43417"
           y="1040.6508"
           rx="6.3639612"
           ry="6.3639612" />
        <rect
           style="color:#000000;fill:#d3d7cf;fill-opacity:1;fill-rule:nonzero;stroke:none;stroke-width:3;marker:none;visibility:visible;display:inline;overflow:visible"
           id="rect4850-0-0"
           width="13.323"
           height="17.739265"
           x="421.22781"
           y="1014.4297" />
        <rect
           style="color:#000000;fill:#d3d7cf;fill-opacity:1;fill-rule:nonzero;stroke:none;stroke-width:3;marker:none;visibility:visible;display:inline;overflow:visible"
           id="rect4920-6"
           width="22.599728"
           height="1.6898854"
           x="416.61929"
           y="1026.3041" />
        <path
           style="fill:#d3d7cf;fill-opacity:1;stroke:none"
           d="m 528.93861,1033.8105 0,-9.3275 3.74806,3.3579 3.07007,-3.3579 3.06637,3.2767 3.45854,-3.2767 0,9.6073 -13.34304,-0.2798 z"
           id="path4922-5"
           sodipodi:nodetypes="cccccccc" />
        <path
           style="color:#000000;fill:#d3d7cf;fill-opacity:1;fill-rule:nonzero;stroke:none;stroke-width:3;marker:none;visibility:visible;display:inline;overflow:visible"
           d="m 394.98167,1029.2317 12.9997,0 c 0.21702,1.5943 0.46629,3.18 1.45619,4.5691 l -15.91208,0 c 1.08302,-1.5599 1.18162,-3.0591 1.45619,-4.5691 z"
           id="rect4850-0-3-1"
           sodipodi:nodetypes="ccccc" />
        <path
           id="rect5233-9"
           d="m 580.32188,1025.797 c -1.17113,0 -2.09375,1.0002 -2.09375,2.25 l 0,10.3125 c 0,1.2497 0.92262,2.25 2.09375,2.25 l 18.25,0 c 1.17113,0 2.125,-1.0003 2.125,-2.25 l 0,-10.3125 c 0,-1.2498 -0.95387,-2.25 -2.125,-2.25 l -18.25,0 z m 2.625,2.6875 c 0.0903,-0.018 0.1854,0 0.28125,0 l 3.375,0 c 0.76683,0 1.375,0.6081 1.375,1.375 l 0,3.3437 c 0,0.7669 -0.60817,1.4063 -1.375,1.4063 l -3.375,0 c -0.76683,0 -1.375,-0.6394 -1.375,-1.4063 l 0,-3.3437 c 0,-0.671 0.46187,-1.2464 1.09375,-1.375 z m 8.96875,0 c 0.0903,-0.018 0.1854,0 0.28125,0 l 3.34375,0 c 0.76683,0 1.40625,0.6081 1.40625,1.375 l 0,3.3437 c 0,0.7669 -0.63942,1.4063 -1.40625,1.4063 l -3.34375,0 c -0.76683,0 -1.40625,-0.6394 -1.40625,-1.4063 l 0,-3.3437 c 0,-0.671 0.49312,-1.2464 1.125,-1.375 z"
           style="color:#000000;fill:#d3d7cf;fill-opacity:1;fill-rule:nonzero;stroke:none;stroke-width:2;marker:none;visibility:visible;display:inline;overflow:visible" />
        <rect
           style="color:#000000;fill:#d3d7cf;fill-opacity:1;fill-rule:nonzero;stroke:none;stroke-width:2;marker:none;visibility:visible;display:inline;overflow:visible"
           id="rect5233-8-4"
           width="29.203222"
           height="13.897987"
           x="574.85553"
           y="1042.5784"
           rx="2.7452788"
           ry="2.1139526" />
        <path
           sodipodi:type="arc"
           style="color:#000000;fill:#d3d7cf;fill-opacity:1;fill-rule:nonzero;stroke:none;stroke-width:2;marker:none;visibility:visible;display:inline;overflow:visible"
           id="path5333-4"
           sodipodi:cx="636.25"
           sodipodi:cy="376.98718"
           sodipodi:rx="4.5"
           sodipodi:ry="4.5"
           d="m 640.75,376.98718 a 4.5,4.5 0 1 1 -9,0 4.5,4.5 0 1 1 9,0 z"
           transform="matrix(0.362736,0,0,0.362736,358.38205,884.984)" />
        <rect
           style="color:#000000;fill:#d3d7cf;fill-opacity:1;fill-rule:nonzero;stroke:none;stroke-width:2;marker:none;visibility:visible;display:inline;overflow:visible"
           id="rect5335-6"
           width="0.93275082"
           height="5.1301293"
           x="588.75354"
           y="1022.7108"
           rx="0"
           ry="0" />
        <path
           sodipodi:type="arc"
           style="color:#000000;fill:#d3d7cf;fill-opacity:1;fill-rule:nonzero;stroke:none;stroke-width:3;marker:none;visibility:visible;display:inline;overflow:visible"
           id="path4650-2-4-2-0-8"
           sodipodi:cx="406.05606"
           sodipodi:cy="406.59692"
           sodipodi:rx="7.4246211"
           sodipodi:ry="7.4246211"
           d="m 413.48068,406.59692 a 7.4246211,7.4246211 0 1 1 -14.84924,0 7.4246211,7.4246211 0 1 1 14.84924,0 z"
           transform="matrix(0.897217,0,0,0.897217,145.65406,672.99)" />
        <rect
           style="color:#000000;fill:#d3d7cf;fill-opacity:1;fill-rule:nonzero;stroke:none;stroke-width:3;marker:none;visibility:visible;display:inline;overflow:visible"
           id="rect4674-4-4-1-1-1"
           width="20.578096"
           height="20.578096"
           x="499.61917"
           y="1045.3806"
           rx="6.3639612"
           ry="6.3639612" />
        <path
           sodipodi:type="arc"
           style="color:#000000;fill:#d3d7cf;fill-opacity:1;fill-rule:nonzero;stroke:none;stroke-width:3;marker:none;visibility:visible;display:inline;overflow:visible"
           id="path4650-8-0"
           sodipodi:cx="406.05606"
           sodipodi:cy="406.59692"
           sodipodi:rx="7.4246211"
           sodipodi:ry="7.4246211"
           d="m 413.48068,406.59692 a 7.4246211,7.4246211 0 1 1 -14.84924,0 7.4246211,7.4246211 0 1 1 14.84924,0 z"
           transform="matrix(0.897217,0,0,0.897217,539.14645,669.315)" />
        <rect
           style="color:#000000;fill:#d3d7cf;fill-opacity:1;fill-rule:nonzero;stroke:none;stroke-width:3;marker:none;visibility:visible;display:inline;overflow:visible"
           id="rect4674-3-8"
           width="20.578096"
           height="20.578096"
           x="893.11151"
           y="1041.7059"
           rx="6.3639612"
           ry="6.3639612" />
        <rect
           style="color:#000000;fill:#d3d7cf;fill-opacity:1;fill-rule:nonzero;stroke:none;stroke-width:3;marker:none;visibility:visible;display:inline;overflow:visible"
           id="rect4850-6-1"
           width="13.323"
           height="11.696275"
           x="896.80493"
           y="1023.0843" />
        <path
           sodipodi:type="arc"
           style="color:#000000;fill:#d3d7cf;fill-opacity:1;fill-rule:nonzero;stroke:none;stroke-width:3;marker:none;visibility:visible;display:inline;overflow:visible"
           id="path4852-6-2"
           sodipodi:cx="402.875"
           sodipodi:cy="388.36218"
           sodipodi:rx="4.5"
           sodipodi:ry="4.5"
           d="m 407.375,388.36218 a 4.5,4.5 0 1 1 -9,0 4.5,4.5 0 1 1 9,0 z"
           transform="matrix(0.746201,0,0,0.746201,597.73745,732.821)" />
        <path
           sodipodi:type="arc"
           style="color:#000000;fill:#d3d7cf;fill-opacity:1;fill-rule:nonzero;stroke:none;stroke-width:3;marker:none;visibility:visible;display:inline;overflow:visible"
           id="path4852-5-4-9"
           sodipodi:cx="402.875"
           sodipodi:cy="388.36218"
           sodipodi:rx="4.5"
           sodipodi:ry="4.5"
           d="m 407.375,388.36218 a 4.5,4.5 0 1 1 -9,0 4.5,4.5 0 1 1 9,0 z"
           transform="matrix(0.746201,0,0,0.746201,603.24145,732.821)" />
        <path
           sodipodi:type="arc"
           style="color:#000000;fill:#d3d7cf;fill-opacity:1;fill-rule:nonzero;stroke:none;stroke-width:3;marker:none;visibility:visible;display:inline;overflow:visible"
           id="path4852-2-9-8"
           sodipodi:cx="402.875"
           sodipodi:cy="388.36218"
           sodipodi:rx="4.5"
           sodipodi:ry="4.5"
           d="m 407.375,388.36218 a 4.5,4.5 0 1 1 -9,0 4.5,4.5 0 1 1 9,0 z"
           transform="matrix(0.746201,0,0,0.746201,608.65145,732.821)" />
        <path
           sodipodi:type="arc"
           style="color:#000000;fill:#d3d7cf;fill-opacity:1;fill-rule:nonzero;stroke:none;stroke-width:3;marker:none;visibility:visible;display:inline;overflow:visible"
           id="path4650-7-9-8"
           sodipodi:cx="406.05606"
           sodipodi:cy="406.59692"
           sodipodi:rx="7.4246211"
           sodipodi:ry="7.4246211"
           d="m 413.48068,406.59692 c 0,4.10051 -3.32411,7.42462 -7.42462,7.42462 -4.1005,0 -7.42462,-3.32411 -7.42462,-7.42462 0,-4.1005 3.32412,-7.42462 7.42462,-7.42462 4.10051,0 7.42462,3.32412 7.42462,7.42462 z"
           transform="matrix(0.897217,0,0,0.897217,37.21433,666.072)" />
        <path
           style="fill:#d3d7cf;fill-opacity:1;stroke:none"
           d="m 502.77237,1038.0766 -6.17092,1.513 3.42469,0.5941 -2.27841,1.8587 3.02098,-0.5038 -1.75979,3.1418 4.51103,-3.9774 -0.54974,-1.1424 -0.19784,-1.484 z"
           id="path4947-7-6"
           sodipodi:nodetypes="ccccccccc" />
        <path
           style="fill:#d3d7cf;fill-opacity:1;stroke:none"
           d="m 517.2506,1038.0766 6.17091,1.513 -3.42468,0.5941 2.2784,1.8587 -3.02098,-0.5038 1.75979,3.1418 -4.51102,-3.9774 0.54973,-1.1424 0.19785,-1.484 z"
           id="path4947-2-6-8"
           sodipodi:nodetypes="ccccccccc" />
        <g
           id="g3748"
           transform="translate(31.673448,0)">
          <path
             sodipodi:type="arc"
             style="color:#000000;fill:#d3d7cf;fill-opacity:1;fill-rule:nonzero;stroke:none;stroke-width:3;marker:none;visibility:visible;display:inline;overflow:visible"
             id="path2884-2"
             sodipodi:cx="406.05606"
             sodipodi:cy="406.59692"
             sodipodi:rx="7.4246211"
             sodipodi:ry="7.4246211"
             d="m 413.48068,406.59692 c 0,4.10051 -3.32411,7.42462 -7.42462,7.42462 -4.1005,0 -7.42462,-3.32411 -7.42462,-7.42462 0,-4.1005 3.32412,-7.42462 7.42462,-7.42462 4.10051,0 7.42462,3.32412 7.42462,7.42462 z"
             transform="matrix(0.606091,0,0,0.606092,677.54745,797.02953)" />
          <path
             sodipodi:nodetypes="cccc"
             id="rect2886-0"
             d="m 919.15445,1035.8061 3.3435,3.3329 -3.3435,3.9068 0,-7.2397 z"
             style="color:#000000;fill:#d3d7cf;fill-opacity:1;fill-rule:nonzero;stroke:none;stroke-width:1;marker:none;visibility:visible;display:inline;overflow:visible" />
          <path
             style="color:#000000;fill:#d3d7cf;fill-opacity:1;fill-rule:nonzero;stroke:none;stroke-width:1;marker:none;visibility:visible;display:inline;overflow:visible"
             d="m 928.15445,1035.6321 -3.58176,3.3329 3.58176,3.9068 0,-7.2397 z"
             id="path3661-2"
             sodipodi:nodetypes="cccc" />
          <path
             id="path3663-4"
             d="m 936.35237,1032.1653 c -0.80994,-0.089 -1.60452,0.086 -2.28125,0.4687 -1.35346,0.7648 -2.15625,2.3303 -2.15625,4.1876 0,2.464 1.13168,4.037 2.09375,5.2187 0.96207,1.1817 1.65625,1.9595 1.65625,3.2813 0,1.5226 -1.25237,2.6994 -2.84375,3.5937 -1.79355,1.0078 -3.75,1.4687 -3.75,1.4687 a 1.0084121,1.0084121 0 1 0 0.4375,1.9688 c 0,0 2.1747,-0.5039 4.28125,-1.6875 1.86902,-1.0503 3.875,-2.7606 3.875,-5.3437 0,-2.0628 -1.17482,-3.4026 -2.09375,-4.5313 -0.91893,-1.1287 -1.65625,-2.0811 -1.65625,-3.9687 0,-1.2875 0.52533,-2.1123 1.15625,-2.4688 0.63092,-0.3565 1.43026,-0.3739 2.46875,0.4062 a 1.0031489,1.0031489 0 1 0 1.21875,-1.5937 c -0.76201,-0.5725 -1.59631,-0.911 -2.40625,-1 z"
             style="font-size:medium;font-style:normal;font-variant:normal;font-weight:normal;font-stretch:normal;text-indent:0;text-align:start;text-decoration:none;line-height:normal;letter-spacing:normal;word-spacing:normal;text-transform:none;direction:ltr;block-progression:tb;writing-mode:lr-tb;text-anchor:start;color:#000000;fill:#d3d7cf;fill-opacity:1;stroke:none;stroke-width:2;marker:none;visibility:visible;display:inline;overflow:visible;enable-background:accumulate;font-family:Bitstream Charter;-inkscape-font-specification:Bitstream Charter" />
          <rect
             style="color:#000000;fill:#d3d7cf;fill-opacity:1;fill-rule:nonzero;stroke:none;stroke-width:3;marker:none;visibility:visible;display:inline;overflow:visible"
             id="rect2942"
             width="11.096006"
             height="20.578096"
             x="918.07214"
             y="1047.4373"
             rx="5.5480032"
             ry="5.5480032" />
        </g>
        <path
           sodipodi:type="arc"
           style="fill:#d3d7cf;fill-opacity:1;stroke:none"
           id="path2944"
           sodipodi:cx="485.25"
           sodipodi:cy="121.75"
           sodipodi:rx="30.25"
           sodipodi:ry="21.75"
           d="m 515.5,121.75 a 30.25,21.75 0 1 1 -60.5,0 30.25,21.75 0 1 1 60.5,0 z"
           transform="matrix(0.7539302,0,0,0.52653042,257.95474,948.32265)" />
        <path
           style="fill:#d3d7cf;fill-opacity:1;stroke:none"
           d="m 624.57541,1017.013 -17.79743,13.1139 5.62024,-16.8607"
           id="path2946" />
        <path
           transform="matrix(0.47145723,0,0,0.47997952,123.66339,951.77626)"
           d="m 515.5,121.75 a 30.25,21.75 0 1 1 -60.5,0 30.25,21.75 0 1 1 60.5,0 z"
           sodipodi:ry="21.75"
           sodipodi:rx="30.25"
           sodipodi:cy="121.75"
           sodipodi:cx="485.25"
           id="path3724"
           style="fill:#d3d7cf;fill-opacity:1;stroke:none"
           sodipodi:type="arc" />
        <path
           id="path3726"
           d="m 358.83108,1004.9052 4.26376,21.692 -12.84931,-12.2787"
           style="fill:#d3d7cf;fill-opacity:1;stroke:none" />
        <g
           id="g3744"
           transform="translate(210.88693,9.2129706)">
          <path
             sodipodi:type="arc"
             style="fill:#d3d7cf;fill-opacity:1;stroke:none"
             id="path3736"
             sodipodi:cx="485.25"
             sodipodi:cy="121.75"
             sodipodi:rx="30.25"
             sodipodi:ry="21.75"
             d="m 515.5,121.75 a 30.25,21.75 0 1 1 -60.5,0 30.25,21.75 0 1 1 60.5,0 z"
             transform="matrix(0.54621831,0,0,0.43548086,464.29581,959.96766)" />
          <path
             style="fill:#d3d7cf;fill-opacity:1;stroke:none"
             d="m 735.728,1013.0186 2.4628,15.6054 -8.84671,-9.1134"
             id="path3738" />
        </g>
        <path
           sodipodi:type="arc"
           style="fill:#d3d7cf;fill-opacity:1;stroke:none"
           id="path3755"
           sodipodi:cx="485.25"
           sodipodi:cy="121.75"
           sodipodi:rx="30.25"
           sodipodi:ry="21.75"
           d="m 515.5,121.75 a 30.25,21.75 0 1 1 -60.5,0 30.25,21.75 0 1 1 60.5,0 z"
           transform="matrix(-0.55657984,0,0,0.56664085,729.95677,944.24105)" />
        <path
           style="fill:#d3d7cf;fill-opacity:1;stroke:none"
           d="m 452.69054,1008.6176 -9.90548,19.7637 15.66326,-8.3984"
           id="path3757" />
        <path
           sodipodi:type="arc"
           style="fill:#d3d7cf;fill-opacity:1;stroke:none"
           id="path3759"
           sodipodi:cx="485.25"
           sodipodi:cy="121.75"
           sodipodi:rx="30.25"
           sodipodi:ry="21.75"
           d="m 515.5,121.75 a 30.25,21.75 0 1 1 -60.5,0 30.25,21.75 0 1 1 60.5,0 z"
           transform="matrix(0.47145723,0,0,0.47997952,310.64388,946.24727)" />
        <path
           style="fill:#d3d7cf;fill-opacity:1;stroke:none"
           d="m 545.81157,999.37621 4.26376,21.69199 -12.84931,-12.2787"
           id="path3761" />
      </g>
    </g>
  </g>
</svg>
