<?xml version="1.0" encoding="UTF-8" standalone="no"?>
<!-- Created with Inkscape (http://www.inkscape.org/) -->

<svg
   xmlns:dc="http://purl.org/dc/elements/1.1/"
   xmlns:cc="http://creativecommons.org/ns#"
   xmlns:rdf="http://www.w3.org/1999/02/22-rdf-syntax-ns#"
   xmlns:svg="http://www.w3.org/2000/svg"
   xmlns="http://www.w3.org/2000/svg"
   xmlns:sodipodi="http://sodipodi.sourceforge.net/DTD/sodipodi-0.dtd"
   xmlns:inkscape="http://www.inkscape.org/namespaces/inkscape"
   width="940"
   height="180"
   id="svg2818"
   sodipodi:version="0.32"
   inkscape:version="0.46+devel"
   version="1.0"
   inkscape:export-filename="/home/vinicius/Dropbox/fog-website/gnome.org-implementation/code/img/footer_art-art.png"
   inkscape:export-xdpi="90"
   inkscape:export-ydpi="90"
   sodipodi:docname="footer art - art.svg"
   inkscape:output_extension="org.inkscape.output.svg.inkscape">
  <defs
     id="defs2820">
    <inkscape:perspective
       sodipodi:type="inkscape:persp3d"
       inkscape:vp_x="0 : 526.18109 : 1"
       inkscape:vp_y="0 : 1000 : 0"
       inkscape:vp_z="744.09448 : 526.18109 : 1"
       inkscape:persp3d-origin="372.04724 : 350.78739 : 1"
       id="perspective2826" />
    <inkscape:perspective
       id="perspective3464"
       inkscape:persp3d-origin="0.5 : 0.33333333 : 1"
       inkscape:vp_z="1 : 0.5 : 1"
       inkscape:vp_y="0 : 1000 : 0"
       inkscape:vp_x="0 : 0.5 : 1"
       sodipodi:type="inkscape:persp3d" />
    <inkscape:perspective
       id="perspective4991"
       inkscape:persp3d-origin="0.5 : 0.33333333 : 1"
       inkscape:vp_z="1 : 0.5 : 1"
       inkscape:vp_y="0 : 1000 : 0"
       inkscape:vp_x="0 : 0.5 : 1"
       sodipodi:type="inkscape:persp3d" />
    <inkscape:perspective
       id="perspective3551"
       inkscape:persp3d-origin="0.5 : 0.33333333 : 1"
       inkscape:vp_z="1 : 0.5 : 1"
       inkscape:vp_y="0 : 1000 : 0"
       inkscape:vp_x="0 : 0.5 : 1"
       sodipodi:type="inkscape:persp3d" />
    <inkscape:perspective
       id="perspective3635"
       inkscape:persp3d-origin="0.5 : 0.33333333 : 1"
       inkscape:vp_z="1 : 0.5 : 1"
       inkscape:vp_y="0 : 1000 : 0"
       inkscape:vp_x="0 : 0.5 : 1"
       sodipodi:type="inkscape:persp3d" />
  </defs>
  <sodipodi:namedview
     id="base"
     pagecolor="#ffffff"
     bordercolor="#666666"
     borderopacity="1.0"
     inkscape:pageopacity="0.0"
     inkscape:pageshadow="2"
     inkscape:zoom="1"
     inkscape:cx="439.9237"
     inkscape:cy="45.370041"
     inkscape:document-units="px"
     inkscape:current-layer="g7634"
     showgrid="false"
     showguides="true"
     inkscape:guide-bbox="true"
     inkscape:window-width="1280"
     inkscape:window-height="724"
     inkscape:window-x="0"
     inkscape:window-y="25">
    <inkscape:grid
       type="xygrid"
       id="grid5037"
       empspacing="5"
       visible="true"
       enabled="true"
       snapvisiblegridlinesonly="true" />
  </sodipodi:namedview>
  <metadata
     id="metadata2823">
    <rdf:RDF>
      <cc:Work
         rdf:about="">
        <dc:format>image/svg+xml</dc:format>
        <dc:type
           rdf:resource="http://purl.org/dc/dcmitype/StillImage" />
        <dc:title></dc:title>
      </cc:Work>
    </rdf:RDF>
  </metadata>
  <g
     inkscape:label="Camada 1"
     inkscape:groupmode="layer"
     id="layer1"
     transform="translate(0,-872.36218)">
    <g
       transform="translate(-275.11023,545.72336)"
       id="g7634"
       style="fill:#d3d7cf">
      <path
         id="path4970"
         d="m 358.09128,497.64874 0.37734,6.03738"
         style="fill:#d3d7cf;stroke:#d3d7cf;stroke-width:1.91026461;stroke-linecap:round;stroke-miterlimit:4;stroke-dasharray:none" />
      <path
         style="fill:#d3d7cf;stroke:#d3d7cf;stroke-width:1.91026461;stroke-linecap:round;stroke-miterlimit:4;stroke-dasharray:none"
         d="m 341.61209,498.49193 -0.19595,6.03738"
         id="path4972" />
      <path
         sodipodi:nodetypes="ccssc"
         id="path4930"
         d="m 326.09457,453.30708 c 14.64693,-4.82062 29.64428,-2.09612 36.22428,-1.13201 0,0 10.77999,29.25895 2.54702,39.62031 -6.84037,8.60872 -20.28426,11.31588 -29.14923,4.81103 -11.90678,-8.73682 -8.60094,-27.35977 -9.62207,-43.29933 z"
         style="fill:#d3d7cf;stroke-width:1px" />
      <path
         sodipodi:nodetypes="cccc"
         id="path4932"
         d="m 362.3409,452.2038 -2.47589,-8.14767 c -3.11123,3.81529 -3.73981,4.8355 -3.51118,8.65079 l 5.98707,-0.50312 z"
         style="fill:#d3d7cf;stroke-width:1px" />
      <path
         style="fill:#d3d7cf;stroke-width:1px"
         d="m 326.10863,453.45227 -0.44622,-8.14767 c 4.47957,3.81529 5.47403,4.8355 6.61373,8.65079 l -6.16751,-0.50312 z"
         id="path4934"
         sodipodi:nodetypes="cccc" />
      <path
         sodipodi:nodetypes="cccc"
         id="path4936"
         d="m 363.57663,464.74275 c 13.42758,-5.40697 26.37564,-7.11329 27.79989,-1.40404 -10.18618,4.05523 -18.68712,6.42521 -26.53625,8.1434 l -1.26364,-6.73936 z"
         style="fill:#d3d7cf;stroke-width:1px" />
      <path
         style="fill:#d3d7cf;stroke-width:1px"
         d="m 328.47636,466.78285 c -14.18163,-2.90112 -27.22532,-2.24838 -27.5984,3.62399 10.74983,2.15505 19.53855,2.9558 27.56877,3.23275 l 0.0296,-6.85674 z"
         id="path4938"
         sodipodi:nodetypes="cccc" />
      <path
         transform="matrix(0.50498666,0,0,0.73857575,172.04955,125.646)"
         d="m 365,459.36218 c 0,3.866 -3.13401,7 -7,7 -3.86599,0 -7,-3.134 -7,-7 0,-3.86599 3.13401,-7 7,-7 3.86599,0 7,3.13401 7,7 z"
         sodipodi:ry="7"
         sodipodi:rx="7"
         sodipodi:cy="459.36218"
         sodipodi:cx="358"
         id="path4940"
         style="fill:#d3d7cf;fill-opacity:1;fill-rule:nonzero;stroke:none"
         sodipodi:type="arc" />
      <path
         sodipodi:type="arc"
         style="fill:#d3d7cf;fill-opacity:1;fill-rule:nonzero;stroke:none"
         id="path4942"
         sodipodi:cx="358"
         sodipodi:cy="459.36218"
         sodipodi:rx="7"
         sodipodi:ry="7"
         d="m 365,459.36218 c 0,3.866 -3.13401,7 -7,7 -3.86599,0 -7,-3.134 -7,-7 0,-3.86599 3.13401,-7 7,-7 3.86599,0 7,3.13401 7,7 z"
         transform="matrix(0.50498666,0,0,0.73857575,156.70454,126.27489)" />
      <path
         sodipodi:nodetypes="cccc"
         id="path4879-7"
         d="m 352.12146,472.61218 c -3.65468,-0.85721 -7.5369,-1.33633 -12.89728,0.64056 l 6.4565,7.03803 6.44078,-7.67859 z"
         style="fill:#d3d7cf;stroke-width:1px" />
      <path
         sodipodi:type="arc"
         style="fill:#d3d7cf;fill-opacity:1;fill-rule:nonzero;stroke:none"
         id="path4966"
         sodipodi:cx="358"
         sodipodi:cy="459.36218"
         sodipodi:rx="7"
         sodipodi:ry="7"
         d="m 365,459.36218 c 0,3.866 -3.13401,7 -7,7 -3.86599,0 -7,-3.134 -7,-7 0,-3.86599 3.13401,-7 7,-7 3.86599,0 7,3.13401 7,7 z"
         transform="matrix(0.12290156,0,0,0.17975151,307.41052,384.69658)" />
      <path
         transform="matrix(0.12290156,0,0,0.17975151,292.23322,385.95437)"
         d="m 365,459.36218 c 0,3.866 -3.13401,7 -7,7 -3.86599,0 -7,-3.134 -7,-7 0,-3.86599 3.13401,-7 7,-7 3.86599,0 7,3.13401 7,7 z"
         sodipodi:ry="7"
         sodipodi:rx="7"
         sodipodi:cy="459.36218"
         sodipodi:cx="358"
         id="path4968"
         style="fill:#d3d7cf;fill-opacity:1;fill-rule:nonzero;stroke:none"
         sodipodi:type="arc" />
      <path
         sodipodi:nodetypes="cc"
         id="path4976"
         d="m 358.67126,504.9672 0.68132,1.58777"
         style="fill:#d3d7cf;stroke:#d3d7cf;stroke-width:1.91026461;stroke-linecap:round;stroke-miterlimit:4;stroke-dasharray:none" />
      <path
         style="fill:#d3d7cf;stroke:#d3d7cf;stroke-width:1.91026461;stroke-linecap:round;stroke-miterlimit:4;stroke-dasharray:none"
         d="m 358.96642,504.5914 c 0.84284,-0.0649 1.94408,0.0408 3.57156,0.494"
         id="path4978"
         sodipodi:nodetypes="cc" />
      <path
         sodipodi:nodetypes="cc"
         id="path4980"
         d="m 357.89813,504.64731 c -0.84284,-0.0649 -1.94407,0.0408 -3.57155,0.494"
         style="fill:#d3d7cf;stroke:#d3d7cf;stroke-width:1.91026461;stroke-linecap:round;stroke-miterlimit:4;stroke-dasharray:none" />
      <path
         style="fill:#d3d7cf;stroke:#d3d7cf;stroke-width:1.91026461;stroke-linecap:round;stroke-miterlimit:4;stroke-dasharray:none"
         d="m 341.35991,504.9672 -0.6228,1.41219"
         id="path4982"
         sodipodi:nodetypes="cc" />
      <path
         sodipodi:nodetypes="cc"
         id="path4984"
         d="m 341.06475,504.5914 c -0.84284,-0.0649 -1.94408,0.0408 -3.57155,0.494"
         style="fill:#d3d7cf;stroke:#d3d7cf;stroke-width:1.91026461;stroke-linecap:round;stroke-miterlimit:4;stroke-dasharray:none" />
      <path
         style="fill:#d3d7cf;stroke:#d3d7cf;stroke-width:1.91026461;stroke-linecap:round;stroke-miterlimit:4;stroke-dasharray:none"
         d="m 342.13304,504.64731 c 0.84284,-0.0649 1.94407,0.0408 3.57155,0.494"
         id="path4986"
         sodipodi:nodetypes="cc" />
      <path
         style="stroke-width:1px"
         d="m 451.30973,430.63897 c 6.62865,1.23667 11.34896,3.29121 16.57389,5.12947 -1.41181,-1.99021 -2.84498,-3.96143 -5.3916,-4.94289 3.24781,-0.81171 6.56991,-0.49197 9.90598,0.0401 -1.78455,-1.67623 -3.60576,-3.32337 -5.94228,-4.56126 2.78882,-1.47064 5.77895,-2.6199 8.92341,-3.52275 -2.06973,-0.9633 -4.09689,-2.01988 -6.43356,-2.39859 2.22952,-1.89479 4.53415,-3.71361 7.38845,-4.97647 l -2.93431,-0.84362 c 0.79421,-0.74956 0.85071,-1.28726 2.55516,-2.29824 -0.0809,-0.24298 -0.34564,-0.56148 -0.62624,-0.72516 0.70614,-0.68045 1.56873,-1.84501 3.69446,-2.52803 -0.41442,-0.14353 -0.82117,-0.29585 -1.34493,-0.31468 1.38599,-1.81656 3.72701,-3.10998 5.74467,-4.58057 -3.34305,0.9024 -6.87992,1.75406 -9.25145,2.9109 0.33605,-0.44579 0.24738,-0.8308 0.20755,-1.22276 -1.92093,2.31472 -3.57834,3.55406 -5.21742,4.71869 -0.063,-1.13675 -0.17207,-2.25144 -0.66962,-3.18034 -1.58193,2.00396 -3.36574,3.04916 -5.14041,4.13783 -0.0356,-1.34113 -0.49108,-2.65467 -1.0663,-3.96035 -1.32322,3.33551 -3.04121,6.65761 -5.27595,9.96206 -0.18407,-2.92054 -1.28215,-5.71004 -2.6289,-8.4639 -0.59284,2.48999 -1.01917,5.03284 -2.63629,7.19766 -0.27785,-0.69022 -0.8646,-1.1154 -1.48138,-1.51485 0.46081,4.65843 0.71066,9.36364 0.0168,14.27813 0.11151,0.99949 -5.60162,5.04795 -8.91558,7.39772 -1.49965,1.06336 -2.54374,1.12207 -2.23735,1.62622 0.31416,0.51691 1.23916,-0.49213 2.61018,-1.44612 3.14033,-2.18522 8.04483,-6.01871 9.57304,-5.91817 z"
         id="path6423"
         sodipodi:nodetypes="cccccccccccccccccccccccccszsc" />
      <path
         sodipodi:nodetypes="cccccccccccccccccccccccccszsc"
         id="path7752"
         d="m 553.50586,461.27143 c -4.20257,-4.05446 -6.63557,-7.79035 -9.53648,-11.61046 0.0718,2.11194 0.16804,4.22035 1.54119,6.14407 -2.73501,-0.96166 -4.9843,-2.77673 -7.14243,-4.75196 0.49095,2.06267 1.02226,4.12179 2.12126,6.13073 -2.71736,-0.26646 -5.42701,-0.86124 -8.13077,-1.70769 1.03703,1.68322 1.9988,3.4136 3.50755,4.80147 -2.51524,0.30686 -5.04855,0.52296 -7.71418,0.0751 l 1.71915,2.00891 c -0.93157,0.16324 -1.22878,0.52503 -2.94302,0.44327 -0.0573,0.21427 -0.0179,0.57071 0.10701,0.82283 -0.83494,0.15526 -2.01379,0.58593 -3.87624,0.0662 0.23117,0.30136 0.4526,0.60542 0.82228,0.86875 -1.8681,0.65247 -4.17723,0.47139 -6.33704,0.57258 2.8471,0.9415 5.81014,2.01211 8.0762,2.30646 -0.45548,0.16208 -0.57495,0.4827 -0.73302,0.78505 2.49235,-0.75757 4.28146,-0.86333 6.02173,-0.92382 -0.49645,0.85184 -0.94906,1.70971 -1.03225,2.61848 2.0991,-0.69453 3.88704,-0.59967 5.6891,-0.54061 -0.61365,0.98657 -0.9107,2.15334 -1.11733,3.37155 2.54693,-1.78053 5.37286,-3.36315 8.56398,-4.68662 -1.25939,2.19917 -1.79551,4.73938 -2.13487,7.37239 1.61577,-1.51748 3.13637,-3.15257 5.33762,-3.94662 -0.12831,0.63145 0.0933,1.2186 0.34871,1.80145 1.88791,-3.58753 3.95062,-7.10828 6.79537,-10.33042 0.39589,-0.77576 6.45647,-0.97868 9.97262,-1.09743 1.59118,-0.0538 2.374,0.40159 2.39285,-0.10895 0.0193,-0.52348 -1.13061,-0.23437 -2.57651,-0.199 -3.31218,0.0826 -8.68563,0.51563 -9.74252,-0.28569 z"
         style="stroke-width:1px" />
      <path
         sodipodi:nodetypes="cccccccccccccccccccccccccszsc"
         id="path3625"
         d="m 714.80235,437.26902 c -1.77317,-6.5057 -1.9791,-11.64964 -2.59946,-17.15366 -1.17684,2.13757 -2.32729,4.28609 -2.10189,7.00597 -2.14497,-2.57027 -3.30374,-5.7001 -4.27745,-8.93496 -0.73188,2.33639 -1.42162,4.69311 -1.51855,7.33551 -2.53828,-1.87014 -4.8749,-4.06146 -7.05691,-6.499 0.0341,2.28267 -0.0343,4.56763 0.64224,6.83604 -2.67656,-1.18196 -5.31743,-2.46461 -7.69718,-4.48418 l 0.51831,3.00886 c -1.02061,-0.38857 -1.52925,-0.20529 -3.18155,-1.29943 -0.18351,0.17863 -0.35494,0.55565 -0.38011,0.87952 -0.92003,-0.33937 -2.344,-0.60878 -3.88451,-2.22498 0.0512,0.43557 0.0913,0.86806 0.30237,1.34776 -2.23882,-0.45667 -4.42257,-2.00087 -6.625,-3.17683 2.26808,2.61651 4.57488,5.42959 6.64896,7.06073 -0.54764,-0.1084 -0.85562,0.13908 -1.19112,0.34561 2.92021,0.72131 4.7576,1.67366 6.51975,2.64205 -0.99589,0.55171 -1.95185,1.13528 -2.5714,1.98767 2.49284,0.55146 4.2105,1.70214 5.96331,2.82566 -1.1918,0.61604 -2.17593,1.59805 -3.10084,2.68443 3.57886,-0.26127 7.31756,-0.16131 11.26538,0.41151 -2.54895,1.43745 -4.58194,3.64064 -6.47456,6.05217 2.49967,-0.55058 4.97442,-1.27407 7.6274,-0.76099 -0.50036,0.55068 -0.62761,1.26403 -0.71863,1.9932 3.99293,-2.44333 8.11982,-4.71713 12.84606,-6.23251 0.85119,-0.53561 6.98345,2.84453 10.5418,4.8046 1.61027,0.88696 2.11777,1.8013 2.4382,1.30595 0.32852,-0.50789 -0.98262,-0.90121 -2.43842,-1.72 -3.33462,-1.87542 -8.92123,-4.62123 -9.49618,-6.04073 z"
         style="stroke-width:1px" />
      <g
         transform="translate(281.65304,-1133.0371)"
         id="g3518">
        <path
           sodipodi:nodetypes="ccccc"
           id="rect7437"
           d="m 802.03594,1595.8597 49.42425,0 -2.8316,43.8216 -43.76104,0 -2.83161,-43.8216 z"
           style="fill:#d3d7cf;fill-opacity:1;fill-rule:nonzero;stroke:none" />
        <rect
           y="1592.1317"
           x="799.60492"
           height="6.475503"
           width="54.286301"
           id="rect7440"
           style="fill:#d3d7cf;fill-opacity:1;fill-rule:nonzero;stroke:none" />
        <path
           sodipodi:nodetypes="ccccc"
           id="rect7442"
           d="m 848.70928,1573.7945 c 1.3323,0.9043 2.62759,1.8407 5.47955,1.428 0.10392,8.8726 -6.33154,24.3083 -8.49297,32.5906 l -5.47955,-1.4279 c 2.15753,-8.2832 3.96091,-24.8288 8.49297,-32.5907 z"
           style="fill:#d3d7cf;fill-opacity:1;fill-rule:nonzero;stroke:none" />
        <path
           sodipodi:nodetypes="czzzc"
           id="path7445"
           d="m 855.21285,1559.2954 c -0.35012,3.4684 2.20766,8.6704 2.03917,11.513 -0.15219,2.5678 -3.40165,4.19 -5.7355,3.5818 -2.40789,-0.6275 -3.86213,-2.9476 -3.26995,-5.3168 0.65598,-2.6247 2.56782,-7.4699 6.96628,-9.778 z"
           style="fill:#d3d7cf;stroke-width:1px" />
        <path
           style="fill:#d3d7cf;fill-opacity:1;fill-rule:nonzero;stroke:none"
           d="m 797.64814,1569.6108 c 3.08708,2.7906 5.50608,1.1176 5.40747,-1.6805 4.77295,7.4802 7.45765,23.9868 9.99508,32.1618 l -5.40741,1.6805 c -2.54122,-8.1736 -9.74572,-23.1771 -9.99514,-32.1618 z"
           id="path7447"
           sodipodi:nodetypes="ccccc" />
        <path
           style="fill:#d3d7cf;stroke-width:1px"
           d="m 794.57017,1552.9681 c 3.02598,2.8299 5.69024,6.5618 6.90782,9.4669 1.09991,2.6242 1.80528,7.0341 -0.80868,7.5671 -2.69696,0.55 -4.78744,-2.9489 -5.35365,-5.5901 -0.62732,-2.9262 -1.16713,-7.4627 -0.74543,-11.4439 z"
           id="path7449"
           sodipodi:nodetypes="czzzc" />
        <g
           style="fill:#d3d7cf"
           transform="matrix(0.99312955,0.11702011,-0.11702011,0.99312955,202.39189,-79.283211)"
           id="g7455">
          <rect
             style="fill:#d3d7cf;fill-opacity:1;fill-rule:nonzero;stroke:none"
             id="rect7451"
             width="4.4773469"
             height="24.844976"
             x="825.41565"
             y="1570.5569" />
          <path
             sodipodi:type="star"
             style="fill:#d3d7cf;fill-opacity:1;fill-rule:nonzero;stroke:none"
             id="path7453"
             sodipodi:sides="3"
             sodipodi:cx="825.32782"
             sodipodi:cy="1565.2017"
             sodipodi:r1="4.4782267"
             sodipodi:r2="2.2391133"
             sodipodi:arg1="-1.5707963"
             sodipodi:arg2="-0.52359878"
             inkscape:flatsided="false"
             inkscape:rounded="0"
             inkscape:randomized="0"
             d="m 825.32782,1560.7234 1.93913,3.3587 1.93913,3.3587 -3.87826,0 -3.87826,0 1.93913,-3.3587 1.93913,-3.3587 z"
             transform="matrix(0.57744571,0,0,0.98451036,351.07395,27.398481)" />
        </g>
        <g
           style="fill:#d3d7cf"
           id="g7459"
           transform="matrix(0.9980735,0.06204268,-0.06204268,0.9980735,105.71734,-45.364904)">
          <rect
             y="1570.5569"
             x="825.41565"
             height="24.844976"
             width="4.4773469"
             id="rect7461"
             style="fill:#d3d7cf;fill-opacity:1;fill-rule:nonzero;stroke:none" />
          <path
             transform="matrix(0.57744571,0,0,0.98451036,351.07395,27.398481)"
             d="m 825.32782,1560.7234 1.93913,3.3587 1.93913,3.3587 -3.87826,0 -3.87826,0 1.93913,-3.3587 1.93913,-3.3587 z"
             inkscape:randomized="0"
             inkscape:rounded="0"
             inkscape:flatsided="false"
             sodipodi:arg2="-0.52359878"
             sodipodi:arg1="-1.5707963"
             sodipodi:r2="2.2391133"
             sodipodi:r1="4.4782267"
             sodipodi:cy="1565.2017"
             sodipodi:cx="825.32782"
             sodipodi:sides="3"
             id="path7463"
             style="fill:#d3d7cf;fill-opacity:1;fill-rule:nonzero;stroke:none"
             sodipodi:type="star" />
        </g>
        <g
           style="fill:#d3d7cf"
           transform="matrix(0.98454252,-0.17514574,0.17514574,0.98454252,-277.07825,184.49246)"
           id="g7465">
          <rect
             style="fill:#d3d7cf;fill-opacity:1;fill-rule:nonzero;stroke:none"
             id="rect7467"
             width="4.4773469"
             height="24.844976"
             x="825.41565"
             y="1570.5569" />
          <path
             sodipodi:type="star"
             style="fill:#d3d7cf;fill-opacity:1;fill-rule:nonzero;stroke:none"
             id="path7469"
             sodipodi:sides="3"
             sodipodi:cx="825.32782"
             sodipodi:cy="1565.2017"
             sodipodi:r1="4.4782267"
             sodipodi:r2="2.2391133"
             sodipodi:arg1="-1.5707963"
             sodipodi:arg2="-0.52359878"
             inkscape:flatsided="false"
             inkscape:rounded="0"
             inkscape:randomized="0"
             d="m 825.32782,1560.7234 1.93913,3.3587 1.93913,3.3587 -3.87826,0 -3.87826,0 1.93913,-3.3587 1.93913,-3.3587 z"
             transform="matrix(0.57744571,0,0,0.98451036,351.07395,27.398481)" />
        </g>
        <path
           sodipodi:nodetypes="ccccccc"
           id="rect7473"
           d="m 727.61605,1612.6425 c 1.38846,0.2402 2.84746,0.2169 3.84006,0.1213 0.12801,3.2392 0.13822,6.2766 -0.14935,9.4928 l 1.71844,-0.1798 -0.14497,19.0941 -5.17546,0 -0.0887,-28.5284 z"
           style="fill:#d3d7cf;fill-opacity:1;fill-rule:nonzero;stroke:none"
           transform="matrix(0.9984655,-0.05537731,0.05537731,0.9984655,0,0)" />
        <path
           sodipodi:nodetypes="cccccczc"
           id="path7477"
           d="m 822.0381,1578.4118 -1.41767,0.3252 c 0.0328,-3.3892 0.069,-6.7791 -0.50723,-10.0668 -1.09862,0.366 -2.75255,0.3476 -4.35707,0.2602 0.0179,-3.6608 0.73961,-7.2512 1.79485,-10.8082 0.25075,-0.1379 0.52761,-0.1453 0.81939,-0.078 1.41354,3.336 3,6.7315 3.3946,10.2619 0.3946,3.5304 0.41832,6.7844 0.27313,10.1057 z"
           style="fill:#d3d7cf;stroke-width:1px" />
        <path
           sodipodi:nodetypes="ccccc"
           id="path7479"
           d="m 827.35962,1587.9133 2.53223,0.1437 c 0.82844,3.8871 -0.63573,11.2332 -0.85417,15.0609 l -2.53223,-0.1437 c 0.21664,-3.8277 -0.4512,-11.2525 0.85417,-15.0609 z"
           style="fill:#d3d7cf;fill-opacity:1;fill-rule:nonzero;stroke:none" />
        <path
           sodipodi:nodetypes="czzzc"
           id="path7481"
           d="m 828.72325,1580.6325 c 0.82534,1.6621 1.35737,3.6458 1.41227,5.0556 0.0496,1.2735 -0.34655,3.2342 -1.52679,3.0476 -1.21773,-0.1925 -1.54563,-1.9884 -1.36866,-3.1853 0.19605,-1.326 0.68151,-3.3139 1.4832,-4.9179 z"
           style="fill:#d3d7cf;stroke-width:1px" />
        <g
           transform="translate(-52,0)"
           id="g7497">
          <path
             style="fill:#d3d7cf;fill-opacity:1;fill-rule:nonzero;stroke:none"
             d="m 924.88889,1618.2716 10.26612,-6 10.77091,6 c 1.24281,0.6923 2.5679,1.1453 2.5679,2.5679 l 0,15.5062 c 0,1.4226 -1.14528,2.5679 -2.5679,2.5679 l -21.03703,0 c -1.42262,0 -2.56791,-1.1453 -2.56791,-2.5679 l 0,-15.5062 c 0,-1.4226 1.33967,-1.8501 2.56791,-2.5679 z"
             id="rect7483"
             sodipodi:nodetypes="ccsccccccs" />
          <rect
             style="fill:#d3d7cf;fill-opacity:1;fill-rule:nonzero;stroke:none"
             id="rect7486"
             width="14.222222"
             height="4.7407408"
             x="928.29626"
             y="1611.775" />
          <rect
             y="1609.668"
             x="927.47687"
             height="2.3996341"
             width="15.860997"
             id="rect7488"
             style="fill:#d3d7cf;fill-opacity:1;fill-rule:nonzero;stroke:none"
             rx="0.76085961"
             ry="0.76085961" />
        </g>
      </g>
    </g>
  </g>
</svg>
