<?xml version="1.0" encoding="UTF-8" standalone="no"?>
<!-- Created with Inkscape (http://www.inkscape.org/) -->

<svg
   xmlns:dc="http://purl.org/dc/elements/1.1/"
   xmlns:cc="http://creativecommons.org/ns#"
   xmlns:rdf="http://www.w3.org/1999/02/22-rdf-syntax-ns#"
   xmlns:svg="http://www.w3.org/2000/svg"
   xmlns="http://www.w3.org/2000/svg"
   xmlns:sodipodi="http://sodipodi.sourceforge.net/DTD/sodipodi-0.dtd"
   xmlns:inkscape="http://www.inkscape.org/namespaces/inkscape"
   width="940"
   height="180"
   id="svg2818"
   sodipodi:version="0.32"
   inkscape:version="0.48.2 r9819"
   version="1.0"
   inkscape:export-filename="/home/vinicius/Dropbox/fog-website/gnome.org-implementation/code/img/footer_art-support.png"
   inkscape:export-xdpi="90"
   inkscape:export-ydpi="90"
   sodipodi:docname="support.svg"
   inkscape:output_extension="org.inkscape.output.svg.inkscape">
  <defs
     id="defs2820">
    <inkscape:perspective
       sodipodi:type="inkscape:persp3d"
       inkscape:vp_x="0 : 526.18109 : 1"
       inkscape:vp_y="0 : 1000 : 0"
       inkscape:vp_z="744.09448 : 526.18109 : 1"
       inkscape:persp3d-origin="372.04724 : 350.78739 : 1"
       id="perspective2826" />
    <inkscape:perspective
       id="perspective3464"
       inkscape:persp3d-origin="0.5 : 0.33333333 : 1"
       inkscape:vp_z="1 : 0.5 : 1"
       inkscape:vp_y="0 : 1000 : 0"
       inkscape:vp_x="0 : 0.5 : 1"
       sodipodi:type="inkscape:persp3d" />
    <inkscape:perspective
       id="perspective4991"
       inkscape:persp3d-origin="0.5 : 0.33333333 : 1"
       inkscape:vp_z="1 : 0.5 : 1"
       inkscape:vp_y="0 : 1000 : 0"
       inkscape:vp_x="0 : 0.5 : 1"
       sodipodi:type="inkscape:persp3d" />
    <inkscape:perspective
       id="perspective3551"
       inkscape:persp3d-origin="0.5 : 0.33333333 : 1"
       inkscape:vp_z="1 : 0.5 : 1"
       inkscape:vp_y="0 : 1000 : 0"
       inkscape:vp_x="0 : 0.5 : 1"
       sodipodi:type="inkscape:persp3d" />
    <inkscape:perspective
       id="perspective3635"
       inkscape:persp3d-origin="0.5 : 0.33333333 : 1"
       inkscape:vp_z="1 : 0.5 : 1"
       inkscape:vp_y="0 : 1000 : 0"
       inkscape:vp_x="0 : 0.5 : 1"
       sodipodi:type="inkscape:persp3d" />
    <inkscape:perspective
       id="perspective3607"
       inkscape:persp3d-origin="0.5 : 0.33333333 : 1"
       inkscape:vp_z="1 : 0.5 : 1"
       inkscape:vp_y="0 : 1000 : 0"
       inkscape:vp_x="0 : 0.5 : 1"
       sodipodi:type="inkscape:persp3d" />
    <inkscape:perspective
       id="perspective4342"
       inkscape:persp3d-origin="0.5 : 0.33333333 : 1"
       inkscape:vp_z="1 : 0.5 : 1"
       inkscape:vp_y="0 : 1000 : 0"
       inkscape:vp_x="0 : 0.5 : 1"
       sodipodi:type="inkscape:persp3d" />
    <inkscape:perspective
       id="perspective4174"
       inkscape:persp3d-origin="0.5 : 0.33333333 : 1"
       inkscape:vp_z="1 : 0.5 : 1"
       inkscape:vp_y="0 : 1000 : 0"
       inkscape:vp_x="0 : 0.5 : 1"
       sodipodi:type="inkscape:persp3d" />
    <inkscape:perspective
       id="perspective4726"
       inkscape:persp3d-origin="0.5 : 0.33333333 : 1"
       inkscape:vp_z="1 : 0.5 : 1"
       inkscape:vp_y="0 : 1000 : 0"
       inkscape:vp_x="0 : 0.5 : 1"
       sodipodi:type="inkscape:persp3d" />
    <inkscape:perspective
       id="perspective5228"
       inkscape:persp3d-origin="0.5 : 0.33333333 : 1"
       inkscape:vp_z="1 : 0.5 : 1"
       inkscape:vp_y="0 : 1000 : 0"
       inkscape:vp_x="0 : 0.5 : 1"
       sodipodi:type="inkscape:persp3d" />
    <inkscape:perspective
       id="perspective5700"
       inkscape:persp3d-origin="0.5 : 0.33333333 : 1"
       inkscape:vp_z="1 : 0.5 : 1"
       inkscape:vp_y="0 : 1000 : 0"
       inkscape:vp_x="0 : 0.5 : 1"
       sodipodi:type="inkscape:persp3d" />
    <inkscape:perspective
       id="perspective5734"
       inkscape:persp3d-origin="0.5 : 0.33333333 : 1"
       inkscape:vp_z="1 : 0.5 : 1"
       inkscape:vp_y="0 : 1000 : 0"
       inkscape:vp_x="0 : 0.5 : 1"
       sodipodi:type="inkscape:persp3d" />
    <inkscape:perspective
       id="perspective5800"
       inkscape:persp3d-origin="0.5 : 0.33333333 : 1"
       inkscape:vp_z="1 : 0.5 : 1"
       inkscape:vp_y="0 : 1000 : 0"
       inkscape:vp_x="0 : 0.5 : 1"
       sodipodi:type="inkscape:persp3d" />
    <inkscape:perspective
       id="perspective5848"
       inkscape:persp3d-origin="0.5 : 0.33333333 : 1"
       inkscape:vp_z="1 : 0.5 : 1"
       inkscape:vp_y="0 : 1000 : 0"
       inkscape:vp_x="0 : 0.5 : 1"
       sodipodi:type="inkscape:persp3d" />
    <inkscape:perspective
       id="perspective5862"
       inkscape:persp3d-origin="0.5 : 0.33333333 : 1"
       inkscape:vp_z="1 : 0.5 : 1"
       inkscape:vp_y="0 : 1000 : 0"
       inkscape:vp_x="0 : 0.5 : 1"
       sodipodi:type="inkscape:persp3d" />
  </defs>
  <sodipodi:namedview
     id="base"
     pagecolor="#ffffff"
     bordercolor="#666666"
     borderopacity="1.0"
     inkscape:pageopacity="0.0"
     inkscape:pageshadow="2"
     inkscape:zoom="1"
     inkscape:cx="328.17336"
     inkscape:cy="89.137418"
     inkscape:document-units="px"
     inkscape:current-layer="g7634"
     showgrid="false"
     showguides="true"
     inkscape:guide-bbox="true"
     inkscape:window-width="1276"
     inkscape:window-height="722"
     inkscape:window-x="0"
     inkscape:window-y="34"
     showborder="true"
     inkscape:snap-nodes="false"
     inkscape:snap-global="false"
     inkscape:window-maximized="0">
    <inkscape:grid
       type="xygrid"
       id="grid5037"
       empspacing="5"
       visible="true"
       enabled="true"
       snapvisiblegridlinesonly="true" />
  </sodipodi:namedview>
  <metadata
     id="metadata2823">
    <rdf:RDF>
      <cc:Work
         rdf:about="">
        <dc:format>image/svg+xml</dc:format>
        <dc:type
           rdf:resource="http://purl.org/dc/dcmitype/StillImage" />
        <dc:title></dc:title>
      </cc:Work>
    </rdf:RDF>
  </metadata>
  <g
     inkscape:label="Camada 1"
     inkscape:groupmode="layer"
     id="layer1"
     transform="translate(0,-872.36218)">
    <g
       transform="translate(-275.11023,545.72336)"
       id="g7634"
       style="fill:#d3d7cf">
      <path
         style="fill:#d3d7cf;fill-opacity:1"
         d="M 898.71875 -0.0625 C 898.56955 -0.121 895.73505 4.95455 892.40625 11.21875 L 886.34375 22.59375 L 890.78125 27.84375 C 893.20605 30.72975 895.41815 33.4288 895.71875 33.8125 C 896.19185 34.4166 895.8511 35.27595 893.1875 40.21875 C 858.294 104.96895 789.34813 152.63611 704.46875 170.71875 L 702.4375 171.15625 L 709.25 171.15625 L 715.8125 169.5 C 741.48718 162.9934 761.07 155.85159 782.625 145.09375 C 832.3574 120.27315 871.53735 83.60535 894.71875 40.21875 C 896.02415 37.77545 897.2169 35.7985 897.375 35.8125 C 897.8064 35.8508 904.76145 44.4129 905.90625 46.3125 L 906.90625 47.96875 L 905.46875 49.21875 C 904.16925 50.33025 904.08335 50.52685 904.59375 51.21875 C 905.12895 51.94455 905.222 51.97245 906.4375 51.34375 C 908.1042 50.48195 908.0336 50.45135 908.5625 51.96875 C 909.2141 53.83775 909.1481 54.19565 908 54.71875 C 906.5304 55.38835 907.03925 56.60465 908.65625 56.28125 C 909.82145 56.04815 909.84375 56.08995 909.84375 58.03125 C 909.84375 59.97165 909.82335 59.99425 908.09375 60.59375 C 907.12245 60.93035 906.29175 61.4941 906.21875 61.875 C 906.10785 62.4557 906.3444 62.54065 907.8125 62.34375 L 909.5625 62.125 L 909.25 63.3125 C 908.7937 65.1664 907.85555 66.369 906.84375 66.375 C 905.14945 66.3854 904.13655 66.83805 903.90625 67.71875 C 903.78025 68.19925 903.75775 68.6648 903.84375 68.75 C 904.13055 69.0369 910.44685 67.95875 910.96875 67.53125 C 911.25285 67.29845 911.5 66.73255 911.5 66.28125 C 911.5 65.60125 911.30675 65.49285 910.40625 65.71875 C 909.42335 65.96545 909.34925 65.89155 909.59375 65.03125 C 909.74245 64.50815 909.9894 63.58865 910.125 62.96875 C 910.315 62.10015 910.68065 61.78855 911.71875 61.59375 C 912.88815 61.37445 913.96875 60.1379 913.96875 59.0625 C 913.96875 58.8304 912.58255 59.11845 911.34375 59.59375 C 910.79595 59.80405 910.65625 59.49305 910.65625 57.78125 L 910.65625 55.71875 L 912.625 55.1875 C 913.7045 54.8956 914.7213 54.61295 914.875 54.53125 C 915.1312 54.39515 914.6128 51.9879 914.25 51.625 C 914.1639 51.5389 913.22545 51.9649 912.15625 52.5625 C 911.08705 53.16 910.15275 53.5829 910.09375 53.5 C 910.03475 53.4171 909.70975 52.56055 909.34375 51.59375 L 908.65625 49.84375 L 910.5 48.75 C 911.5048 48.1611 912.3125 47.6001 912.3125 47.5 C 912.3125 47.3999 912.02335 46.8727 911.65625 46.3125 C 910.88815 45.1401 910.16655 45.0213 909.40625 45.9375 C 909.11295 46.2908 908.5336 46.75005 908.125 46.96875 C 907.5201 47.29255 907.25625 47.13305 906.71875 46.09375 L 906.0625 44.8125 L 912.3125 31.6875 C 915.7361 24.4627 918.53125 18.45495 918.53125 18.34375 C 918.53125 18.11625 899.14165 0.1034 898.71875 -0.0625 z M 37.53125 84.4375 L 37.78125 86.875 C 38.20735 90.6674 39.91235 93.5818 42.59375 95.1875 C 43.81695 95.92 45.5705 96.69705 46.5 96.90625 C 47.4295 97.11535 48.76765 97.2881 49.46875 97.3125 L 50.75 97.375 L 50.40625 94.875 C 50.21975 93.5118 49.8158 91.78685 49.5 91.03125 C 48.0479 87.55565 44.3531 85.12485 39.8125 84.65625 L 37.53125 84.4375 z M 53.78125 95.71875 L 53.78125 133.71875 L 53.78125 171.15625 L 56.65625 171.15625 L 56.65625 133.71875 L 56.65625 95.71875 L 55.21875 95.71875 L 53.78125 95.71875 z M 72.0625 97 C 71.545024 96.980055 70.691388 97.197788 69.25 97.5 C 64.1251 98.5745 60.74255 101.8766 60.15625 106.4375 C 60.02465 107.4614 59.849 108.7044 59.75 109.1875 C 59.583 110.0068 59.70515 110.0716 61.53125 109.875 C 68.13545 109.1638 71.92755 105.59725 72.59375 99.53125 C 72.795875 97.690313 72.92496 97.033242 72.0625 97 z M 37.53125 108.40625 L 37.8125 110.84375 C 38.2519 114.67005 39.92625 117.55885 42.59375 119.15625 C 43.81695 119.88875 45.5705 120.6658 46.5 120.875 C 46.5 121.8277 48.7182 121.25685 49.375 121.28125 L 50.5625 121.34375 L 50.34375 119.0625 C 49.69975 112.8228 46.33139 109.59265 39.5 108.65625 L 37.53125 108.40625 z M 72.90625 120.875 L 71.09375 121.15625 C 67.93265 121.61295 66.4055 122.1027 64.5 123.3125 C 62.347 124.6795 60.53745 127.6407 60.15625 130.4375 C 60.01855 131.4473 59.82785 132.7169 59.71875 133.25 C 59.52895 134.1776 59.58316 134.1968 61.28125 133.9375 C 68.58576 132.8224 71.9639 129.66825 72.625 123.34375 L 72.90625 120.875 z M 329.21875 123.84375 C 329.14645 123.93065 328.0077 126.0624 326.6875 128.5625 C 319.0633 142.9999 315.25345 148.0227 310.59375 149.75 C 307.22785 150.9978 302.83635 151.87735 299.84375 151.90625 L 297.375 151.9375 L 298.6875 153.0625 C 303.0752 156.81034 314.47965 161.39505 321.15625 162.09375 L 323.5 162.34375 L 323.28125 164.09375 C 322.91426 167.34955 324.79795 169.4265 329.28125 170.75 C 329.76809 170.89373 330.16821 171.02679 330.53125 171.15625 L 332.5 171.15625 C 332.07293 170.87631 330.98991 170.43247 329.71875 170.03125 C 325.97165 168.84865 324.46065 167.5826 324.15625 165.3125 C 323.82445 162.8384 324.4216 162.0424 327.125 161.4375 C 333.0656 160.108 340.35475 154.80899 342.90625 149.96875 C 344.99415 146.00785 345.3007 143.33785 344.1875 138.71875 C 344.1143 138.41495 345.74395 137.23265 347.96875 135.96875 C 351.56515 133.92555 351.76824 133.7244 350.84375 133.375 C 350.29314 133.167 346.62339 131.8446 342.6875 130.4375 C 337.2887 128.5073 334.7658 127.36095 332.4375 125.78125 C 330.7402 124.62965 329.29105 123.75695 329.21875 123.84375 z M 24.84375 127.84375 L 23.15625 128.09375 C 20.86265 128.46055 18.45375 129.7393 17.46875 131.125 C 16.62785 132.3081 15.75 135.0068 15.75 136.375 C 15.748 137.0645 15.96195 137.1072 17.65625 136.875 C 21.90225 136.293 24.84375 133.28205 24.84375 129.46875 L 24.84375 127.84375 z M 0.90625 130.40625 C 0.0027695312 130.38755 0.0088125 130.99156 0.1875 132.5 C 0.5931 135.9243 2.40355 138.09545 5.71875 139.09375 C 6.34065 139.28095 7.3749 139.44925 8 139.46875 C 8.9141 139.49735 9.125 139.34175 9.125 138.59375 C 9.1164 135.12455 6.86505 131.98415 3.65625 131.03125 C 2.3266125 130.63634 1.4483383 130.41747 0.90625 130.40625 z M 12.4375 136.625 C 11.6241 136.625 11.625 136.89996 11.625 154.1875 L 11.625 171.15625 L 13.28125 171.15625 L 13.28125 154.1875 C 13.28125 136.89996 13.2511 136.625 12.4375 136.625 z M 24.84375 143.125 L 23.15625 143.40625 C 20.86265 143.77305 18.45375 145.0518 17.46875 146.4375 C 16.64245 147.6001 15.75 150.27545 15.75 151.59375 C 15.7457 152.93915 19.56045 152.29715 22.09375 150.53125 C 23.56055 149.50885 24.83175 146.84425 24.84375 144.71875 L 24.84375 143.125 z M 37.53125 148.46875 L 37.78125 150.90625 C 38.20735 154.69869 39.91235 157.6443 42.59375 159.25 C 43.81695 159.9826 45.5705 160.7284 46.5 160.9375 C 47.4295 161.1466 48.76765 161.351 49.46875 161.375 L 50.75 161.40625 L 50.40625 158.9375 C 50.21975 157.5742 49.76195 155.75905 49.40625 154.90625 C 48.00865 151.55531 44.3361 149.18565 39.8125 148.71875 L 37.53125 148.46875 z M 0.03125 153.28125 L 0.03125 154.78125 C 0.03125 156.64865 1.5389 159.65485 3 160.71875 C 3.6063 161.16015 7.23115 162.0625 6.09375 162.0625 C 8.95305 162.831 9.125 162.78975 9.125 161.46875 C 9.125 157.28295 6.3372 154.2641 1.8125 153.5625 L 0.03125 153.28125 z "
         id="path12554"
         transform="translate(275.11023,326.63882)" />
    </g>
  </g>
</svg>
