<?xml version="1.0" encoding="UTF-8" standalone="no"?>
<!-- Created with Inkscape (http://www.inkscape.org/) -->

<svg
   xmlns:dc="http://purl.org/dc/elements/1.1/"
   xmlns:cc="http://creativecommons.org/ns#"
   xmlns:rdf="http://www.w3.org/1999/02/22-rdf-syntax-ns#"
   xmlns:svg="http://www.w3.org/2000/svg"
   xmlns="http://www.w3.org/2000/svg"
   xmlns:sodipodi="http://sodipodi.sourceforge.net/DTD/sodipodi-0.dtd"
   xmlns:inkscape="http://www.inkscape.org/namespaces/inkscape"
   width="940"
   height="180"
   id="svg2818"
   sodipodi:version="0.32"
   inkscape:version="0.46+devel"
   version="1.0"
   inkscape:export-filename="/home/vinicius/Dropbox/fog-website/gnome.org-implementation/code/img/footer_art-support.png"
   inkscape:export-xdpi="90"
   inkscape:export-ydpi="90"
   sodipodi:docname="footer art - support.svg"
   inkscape:output_extension="org.inkscape.output.svg.inkscape">
  <defs
     id="defs2820">
    <inkscape:perspective
       sodipodi:type="inkscape:persp3d"
       inkscape:vp_x="0 : 526.18109 : 1"
       inkscape:vp_y="0 : 1000 : 0"
       inkscape:vp_z="744.09448 : 526.18109 : 1"
       inkscape:persp3d-origin="372.04724 : 350.78739 : 1"
       id="perspective2826" />
    <inkscape:perspective
       id="perspective3464"
       inkscape:persp3d-origin="0.5 : 0.33333333 : 1"
       inkscape:vp_z="1 : 0.5 : 1"
       inkscape:vp_y="0 : 1000 : 0"
       inkscape:vp_x="0 : 0.5 : 1"
       sodipodi:type="inkscape:persp3d" />
    <inkscape:perspective
       id="perspective4991"
       inkscape:persp3d-origin="0.5 : 0.33333333 : 1"
       inkscape:vp_z="1 : 0.5 : 1"
       inkscape:vp_y="0 : 1000 : 0"
       inkscape:vp_x="0 : 0.5 : 1"
       sodipodi:type="inkscape:persp3d" />
    <inkscape:perspective
       id="perspective3551"
       inkscape:persp3d-origin="0.5 : 0.33333333 : 1"
       inkscape:vp_z="1 : 0.5 : 1"
       inkscape:vp_y="0 : 1000 : 0"
       inkscape:vp_x="0 : 0.5 : 1"
       sodipodi:type="inkscape:persp3d" />
    <inkscape:perspective
       id="perspective3635"
       inkscape:persp3d-origin="0.5 : 0.33333333 : 1"
       inkscape:vp_z="1 : 0.5 : 1"
       inkscape:vp_y="0 : 1000 : 0"
       inkscape:vp_x="0 : 0.5 : 1"
       sodipodi:type="inkscape:persp3d" />
    <inkscape:perspective
       id="perspective3607"
       inkscape:persp3d-origin="0.5 : 0.33333333 : 1"
       inkscape:vp_z="1 : 0.5 : 1"
       inkscape:vp_y="0 : 1000 : 0"
       inkscape:vp_x="0 : 0.5 : 1"
       sodipodi:type="inkscape:persp3d" />
    <inkscape:perspective
       id="perspective4342"
       inkscape:persp3d-origin="0.5 : 0.33333333 : 1"
       inkscape:vp_z="1 : 0.5 : 1"
       inkscape:vp_y="0 : 1000 : 0"
       inkscape:vp_x="0 : 0.5 : 1"
       sodipodi:type="inkscape:persp3d" />
    <inkscape:perspective
       id="perspective4174"
       inkscape:persp3d-origin="0.5 : 0.33333333 : 1"
       inkscape:vp_z="1 : 0.5 : 1"
       inkscape:vp_y="0 : 1000 : 0"
       inkscape:vp_x="0 : 0.5 : 1"
       sodipodi:type="inkscape:persp3d" />
    <inkscape:perspective
       id="perspective4726"
       inkscape:persp3d-origin="0.5 : 0.33333333 : 1"
       inkscape:vp_z="1 : 0.5 : 1"
       inkscape:vp_y="0 : 1000 : 0"
       inkscape:vp_x="0 : 0.5 : 1"
       sodipodi:type="inkscape:persp3d" />
    <inkscape:perspective
       id="perspective5228"
       inkscape:persp3d-origin="0.5 : 0.33333333 : 1"
       inkscape:vp_z="1 : 0.5 : 1"
       inkscape:vp_y="0 : 1000 : 0"
       inkscape:vp_x="0 : 0.5 : 1"
       sodipodi:type="inkscape:persp3d" />
    <inkscape:perspective
       id="perspective5700"
       inkscape:persp3d-origin="0.5 : 0.33333333 : 1"
       inkscape:vp_z="1 : 0.5 : 1"
       inkscape:vp_y="0 : 1000 : 0"
       inkscape:vp_x="0 : 0.5 : 1"
       sodipodi:type="inkscape:persp3d" />
    <inkscape:perspective
       id="perspective5734"
       inkscape:persp3d-origin="0.5 : 0.33333333 : 1"
       inkscape:vp_z="1 : 0.5 : 1"
       inkscape:vp_y="0 : 1000 : 0"
       inkscape:vp_x="0 : 0.5 : 1"
       sodipodi:type="inkscape:persp3d" />
    <inkscape:perspective
       id="perspective5800"
       inkscape:persp3d-origin="0.5 : 0.33333333 : 1"
       inkscape:vp_z="1 : 0.5 : 1"
       inkscape:vp_y="0 : 1000 : 0"
       inkscape:vp_x="0 : 0.5 : 1"
       sodipodi:type="inkscape:persp3d" />
    <inkscape:perspective
       id="perspective5848"
       inkscape:persp3d-origin="0.5 : 0.33333333 : 1"
       inkscape:vp_z="1 : 0.5 : 1"
       inkscape:vp_y="0 : 1000 : 0"
       inkscape:vp_x="0 : 0.5 : 1"
       sodipodi:type="inkscape:persp3d" />
    <inkscape:perspective
       id="perspective5862"
       inkscape:persp3d-origin="0.5 : 0.33333333 : 1"
       inkscape:vp_z="1 : 0.5 : 1"
       inkscape:vp_y="0 : 1000 : 0"
       inkscape:vp_x="0 : 0.5 : 1"
       sodipodi:type="inkscape:persp3d" />
  </defs>
  <sodipodi:namedview
     id="base"
     pagecolor="#ffffff"
     bordercolor="#666666"
     borderopacity="1.0"
     inkscape:pageopacity="0.0"
     inkscape:pageshadow="2"
     inkscape:zoom="1"
     inkscape:cx="531.77703"
     inkscape:cy="130.58549"
     inkscape:document-units="px"
     inkscape:current-layer="g7634"
     showgrid="false"
     showguides="true"
     inkscape:guide-bbox="true"
     inkscape:window-width="1276"
     inkscape:window-height="722"
     inkscape:window-x="0"
     inkscape:window-y="25"
     showborder="true">
    <inkscape:grid
       type="xygrid"
       id="grid5037"
       empspacing="5"
       visible="true"
       enabled="true"
       snapvisiblegridlinesonly="true" />
  </sodipodi:namedview>
  <metadata
     id="metadata2823">
    <rdf:RDF>
      <cc:Work
         rdf:about="">
        <dc:format>image/svg+xml</dc:format>
        <dc:type
           rdf:resource="http://purl.org/dc/dcmitype/StillImage" />
        <dc:title></dc:title>
      </cc:Work>
    </rdf:RDF>
  </metadata>
  <g
     inkscape:label="Camada 1"
     inkscape:groupmode="layer"
     id="layer1"
     transform="translate(0,-872.36218)">
    <g
       transform="translate(-275.11023,545.72336)"
       id="g7634"
       style="fill:#d3d7cf">
      <g
         id="g4701"
         transform="matrix(1.1012116,0,0,1.1012116,-279.5568,-3.132758)">
        <path
           sodipodi:nodetypes="cscsccccc"
           id="path4180"
           d="m 720.57842,426.19124 c 7.03068,-3.47753 12.3133,-35.18078 17.07715,-36.74681 7.85323,-2.5816 9.42396,-0.32246 9.01223,2.47253 -1.64263,0.30118 -3.26403,0.37715 -5.37134,1.79044 -1.14271,0.76637 -8.47544,48.13681 -17.90448,67.01389 -14.92644,4.65639 -29.78068,5.63111 -44.50541,0 l 5.11557,-76.2219 30.69338,-0.25578 5.8829,41.94763 z"
           style="fill:#d3d7cf;fill-opacity:1;stroke-width:1px" />
        <path
           sodipodi:nodetypes="ccccc"
           id="rect4692"
           d="m 693.25435,376.76289 12.52998,0 -1.29487,8.53857 -9.94023,0 -1.29488,-8.53857 z"
           style="fill:#d3d7cf;fill-opacity:1;fill-rule:nonzero;stroke:none" />
        <path
           id="path4695"
           d="m 684.56265,392.24567 c -10.02995,-0.15571 -18.56627,5.82584 -21.04175,13.79854 -1.23773,3.98634 -0.72092,8.59111 2.02325,12.42273 2.74416,3.83162 7.44366,6.84354 14.24364,8.78088 l 1.78046,-6.23159 c -5.84874,-1.66633 -9.1469,-4.05507 -10.76367,-6.31253 -1.61677,-2.25746 -1.80922,-4.40901 -1.09255,-6.71718 1.43335,-4.61632 7.46415,-9.37988 14.76969,-9.26646 l 0.0809,-6.47439 z"
           style="font-size:medium;font-style:normal;font-variant:normal;font-weight:normal;font-stretch:normal;text-indent:0;text-align:start;text-decoration:none;line-height:normal;letter-spacing:normal;word-spacing:normal;text-transform:none;direction:ltr;block-progression:tb;writing-mode:lr-tb;text-anchor:start;color:#000000;fill:#d3d7cf;fill-opacity:1;stroke:none;stroke-width:5;marker:none;visibility:visible;display:inline;overflow:visible;enable-background:accumulate;font-family:Bitstream Vera Sans;-inkscape-font-specification:Bitstream Vera Sans" />
      </g>
      <g
         style="fill:#d3d7cf"
         id="g14407"
         transform="matrix(1.4782479,0,0,1.4782479,18.340037,72.511832)">
        <path
           style="stroke-width:1px"
           d="m 368.40826,228.46974 c 0.28757,-7.01166 2.45607,-13.67571 10.88348,-13.09156 4.40912,0.30561 11.64393,6.24766 4.98713,14.91621 -5.71529,7.44252 -14.78858,8.82011 -23.2847,9.29617 3.18954,-2.53301 7.14332,-4.51875 7.41409,-11.12082 z"
           id="path13349"
           sodipodi:nodetypes="csscs" />
        <g
           transform="matrix(0.46959343,0,0,0.46959343,209.13043,116.31209)"
           id="g13357">
          <path
             sodipodi:type="arc"
             style="fill:#ffffff;fill-opacity:1;fill-rule:nonzero;stroke:none"
             id="path13351"
             sodipodi:cx="355.77502"
             sodipodi:cy="235.54372"
             sodipodi:rx="4.1700959"
             sodipodi:ry="3.3799725"
             d="m 359.94512,235.54372 c 0,1.8667 -1.86702,3.37997 -4.1701,3.37997 -2.30308,0 -4.17009,-1.51327 -4.17009,-3.37997 0,-1.86671 1.86701,-3.37998 4.17009,-3.37998 2.30308,0 4.1701,1.51327 4.1701,3.37998 z" />
          <path
             style="fill:#ffffff;fill-opacity:1;stroke-width:1px"
             d="m 359.94513,235.70792 -0.26337,-9.56927 c 3.70349,0.16662 6.51915,-0.77652 9.30589,-1.75583 -4.12364,-0.56283 -8.39617,-0.72864 -11.85185,-3.0727 l 0.26338,14.22222 2.54595,0.17558 z"
             id="path13355"
             sodipodi:nodetypes="cccccc" />
        </g>
      </g>
      <g
         id="g5819"
         transform="matrix(0.75884899,0,0,0.75884899,62.347273,171.60759)">
        <path
           sodipodi:nodetypes="ccccc"
           id="rect5789"
           d="m 669.87565,432.16969 c 29.20164,1.96246 58.4033,2.24751 87.60494,0 l 0,5.33333 c -6.68471,3.72686 -80.21657,4.7564 -87.60494,0 l 0,-5.33333 z"
           style="fill:#d3d7cf;fill-opacity:1;fill-rule:nonzero;stroke:none" />
        <path
           sodipodi:nodetypes="csssccc"
           id="path4706-6"
           d="m 677.48549,393.69904 c 0,9.96949 3.26723,24.02967 8.67725,31.05501 6.63813,8.62013 16.50232,9.14553 27.51538,9.14553 10.98436,0 20.82581,-0.49695 27.46339,-9.07817 5.44107,-7.03435 8.72924,-21.12098 8.72924,-31.12237 0,0 0,0 0,0 -24.12841,4.82808 -48.25684,4.60116 -72.38526,0 z"
           style="fill:#d3d7cf;fill-opacity:1;fill-rule:nonzero;stroke:none" />
        <path
           sodipodi:nodetypes="cc"
           id="path5815"
           d="m 744.97031,405.66763 c 27.35177,-11.35509 27.77361,25.98282 -2.89712,15.4074"
           style="fill:none;stroke:#d3d7cf;stroke-width:6.58892632;stroke-miterlimit:4;stroke-opacity:1;stroke-dasharray:none" />
      </g>
      <g
         transform="matrix(-0.56270583,0,0,0.56270583,817.84928,257.95928)"
         id="g5824">
        <path
           style="fill:#d3d7cf;fill-opacity:1;fill-rule:nonzero;stroke:none"
           d="m 669.87565,432.16969 c 29.20164,1.96246 58.4033,2.24751 87.60494,0 l 0,5.33333 c -6.68471,3.72686 -80.21657,4.7564 -87.60494,0 l 0,-5.33333 z"
           id="path5826"
           sodipodi:nodetypes="ccccc" />
        <path
           style="fill:#d3d7cf;fill-opacity:1;fill-rule:nonzero;stroke:none"
           d="m 677.48549,393.69904 c 0,9.96949 3.26723,24.02967 8.67725,31.05501 6.63813,8.62013 16.50232,9.14553 27.51538,9.14553 10.98436,0 20.82581,-0.49695 27.46339,-9.07817 5.44107,-7.03435 8.72924,-21.12098 8.72924,-31.12237 0,0 0,0 0,0 -24.12841,4.82808 -48.25684,4.60116 -72.38526,0 z"
           id="path5828"
           sodipodi:nodetypes="csssccc" />
        <path
           style="fill:none;stroke:#d3d7cf;stroke-width:6.93079722;stroke-miterlimit:4;stroke-opacity:1;stroke-dasharray:none"
           d="m 744.97031,405.66763 c 27.35177,-11.35509 27.77361,25.98282 -2.89712,15.4074"
           id="path5830"
           sodipodi:nodetypes="cc" />
      </g>
      <g
         transform="matrix(0.50981723,0,0,0.50981723,326.46339,281.35486)"
         id="g5832">
        <path
           style="fill:#d3d7cf;fill-opacity:1;fill-rule:nonzero;stroke:none"
           d="m 669.87565,432.16969 c 29.20164,1.96246 58.4033,2.24751 87.60494,0 l 0,5.33333 c -6.68471,3.72686 -80.21657,4.7564 -87.60494,0 l 0,-5.33333 z"
           id="path5834"
           sodipodi:nodetypes="ccccc" />
        <path
           style="fill:#d3d7cf;fill-opacity:1;fill-rule:nonzero;stroke:none"
           d="m 677.48549,393.69904 c 0,9.96949 3.26723,24.02967 8.67725,31.05501 6.63813,8.62013 16.50232,9.14553 27.51538,9.14553 10.98436,0 20.82581,-0.49695 27.46339,-9.07817 5.44107,-7.03435 8.72924,-21.12098 8.72924,-31.12237 0,0 0,0 0,0 -24.12841,4.82808 -48.25684,4.60116 -72.38526,0 z"
           id="path5836"
           sodipodi:nodetypes="csssccc" />
        <path
           style="fill:none;stroke:#d3d7cf;stroke-width:6.67207479;stroke-miterlimit:4;stroke-opacity:1;stroke-dasharray:none"
           d="m 744.97031,405.66763 c 27.35177,-11.35509 27.77361,25.98282 -2.89712,15.4074"
           id="path5838"
           sodipodi:nodetypes="cc" />
      </g>
    </g>
  </g>
</svg>
