<?xml version="1.0" encoding="UTF-8" standalone="no"?>
<!-- Created with Inkscape (http://www.inkscape.org/) -->

<svg
   xmlns:dc="http://purl.org/dc/elements/1.1/"
   xmlns:cc="http://creativecommons.org/ns#"
   xmlns:rdf="http://www.w3.org/1999/02/22-rdf-syntax-ns#"
   xmlns:svg="http://www.w3.org/2000/svg"
   xmlns="http://www.w3.org/2000/svg"
   xmlns:sodipodi="http://sodipodi.sourceforge.net/DTD/sodipodi-0.dtd"
   xmlns:inkscape="http://www.inkscape.org/namespaces/inkscape"
   width="240"
   height="400"
   id="svg7070"
   version="1.1"
   inkscape:version="0.48.4 r9939"
   sodipodi:docname="assets.svg">
  <defs
     id="defs7072" />
  <sodipodi:namedview
     id="base"
     pagecolor="#ffffff"
     bordercolor="#666666"
     borderopacity="1.0"
     inkscape:pageopacity="0.0"
     inkscape:pageshadow="2"
     inkscape:zoom="1"
     inkscape:cx="403.3898"
     inkscape:cy="373.68412"
     inkscape:document-units="px"
     inkscape:current-layer="layer1"
     showgrid="true"
     inkscape:snap-bbox="true"
     inkscape:snap-global="true"
     inkscape:snap-nodes="false"
     inkscape:window-width="1920"
     inkscape:window-height="1133"
     inkscape:window-x="0"
     inkscape:window-y="27"
     inkscape:window-maximized="1">
    <inkscape:grid
       type="xygrid"
       id="grid7113"
       empspacing="5"
       visible="true"
       enabled="true"
       snapvisiblegridlinesonly="true" />
  </sodipodi:namedview>
  <metadata
     id="metadata7075">
    <rdf:RDF>
      <cc:Work
         rdf:about="">
        <dc:format>image/svg+xml</dc:format>
        <dc:type
           rdf:resource="http://purl.org/dc/dcmitype/StillImage" />
        <dc:title></dc:title>
      </cc:Work>
    </rdf:RDF>
  </metadata>
  <g
     inkscape:label="Layer 1"
     inkscape:groupmode="layer"
     id="layer1"
     transform="translate(0,-652.36214)">
    <g
       id="g7120"
       transform="translate(-318.00018,418.00001)"
       inkscape:export-filename="/home/aday/checkout/gnome-web/developer.gnome.org/assets/cogs.png"
       inkscape:export-xdpi="90"
       inkscape:export-ydpi="90">
      <g
         style="color:#000000;fill:#edd400;fill-opacity:1;fill-rule:nonzero;stroke:none;marker:none;visibility:visible;display:inline;overflow:visible;enable-background:accumulate"
         id="g7080"
         transform="matrix(0.21755353,0.42711881,-0.42711881,0.21755353,90.599324,-445.64479)">
        <path
           inkscape:connector-curvature="0"
           style="color:#000000;fill:#edd400;fill-opacity:1;fill-rule:nonzero;stroke:none;stroke-width:0.99999994;marker:none;visibility:visible;display:inline;overflow:visible;enable-background:accumulate"
           d="m 2042.4485,264.32439 -11.9421,23.56747 c -0.595,-0.0178 -1.1832,-0.0491 -1.7821,-0.051 -4.5285,-0.0142 -8.9316,0.42402 -13.2001,1.27768 l -15.9664,-21.19883 c -6.2666,2.10126 -12.2338,4.87053 -17.7929,8.22196 l 6.1119,25.76155 c -3.938,3.10907 -7.489,6.64399 -10.6124,10.56396 l -25.8791,-6.08446 c -3.3669,5.5338 -6.1488,11.47388 -8.2598,17.71189 l 21.2954,15.8941 c -0.8577,4.24906 -1.2979,8.63219 -1.2837,13.1401 0,0.59608 0.034,1.18162 0.052,1.77393 l -23.6754,11.88755 c 1.0281,6.56584 2.7628,12.91274 5.1311,18.93628 l 26.4953,-1.37254 c 2.4255,4.43328 5.3765,8.56041 8.7196,12.30724 l -10.3409,24.25468 c 4.9311,4.3082 10.335,8.05895 16.1179,11.23883 l 19.27,-17.95035 c 4.626,1.8356 9.5206,3.15423 14.5872,3.91153 l 7.8008,25.26654 c 0.6511,0.0152 1.2648,0.0494 1.9191,0.0514 6.0273,0.0188 11.9366,-0.57204 17.6307,-1.67315 l 3.116,-26.1875 c 4.805,-1.58083 9.3595,-3.69313 13.5956,-6.2794 l 22.2504,14.48718 c 5.1102,-4.08392 9.7891,-8.74153 13.8917,-13.82837 l -14.553,-22.14944 c 2.5982,-4.21679 4.7201,-8.75053 6.3082,-13.53371 l 26.3072,-3.10142 c 1.1063,-5.6682 1.7,-11.55062 1.6811,-17.55054 0,-0.65134 -0.036,-1.2623 -0.052,-1.91038 l -25.3819,-7.76565 c -0.7606,-5.04356 -2.0852,-9.91592 -3.9292,-14.52084 l 18.0327,-19.18221 c -3.1943,-5.75667 -6.9621,-11.13599 -11.2899,-16.04474 l -24.3657,10.29354 c -3.7638,-3.32794 -7.9098,-6.26559 -12.3633,-8.68012 l 1.3792,-26.37486 c -6.051,-2.35757 -12.4269,-4.08455 -19.0228,-5.10792 z m -13.5561,77.003 c 6.6614,0.0208 12.0789,5.41388 12.0998,12.04491 0.021,6.63103 -5.363,11.9903 -12.0244,11.96947 -6.6613,-0.0208 -12.0789,-5.41389 -12.0997,-12.04492 -0.021,-6.63103 5.363,-11.9903 12.0243,-11.96946 z"
           id="path7082" />
      </g>
      <path
         inkscape:connector-curvature="0"
         style="color:#000000;fill:#edd400;fill-opacity:1;fill-rule:nonzero;stroke:none;stroke-width:0.99999994;marker:none;visibility:visible;display:inline;overflow:visible;enable-background:accumulate"
         d="m 522.72306,505.06299 c -1.88159,-3.2537 -4.08351,-6.3541 -6.56447,-9.24675 l -12.87509,6.55968 c -1.71293,-1.72375 -3.59493,-3.33259 -5.60076,-4.80557 l 4.55159,-13.75884 c -0.5453,-0.34309 -1.09619,-0.68139 -1.6557,-1.00967 -2.74104,-1.60827 -5.55383,-2.98194 -8.41701,-4.1226 l -8.37615,11.83096 c -2.3611,-0.74526 -4.76294,-1.29711 -7.16743,-1.65954 l -2.34586,-14.31076 c -3.77646,-0.28947 -7.56144,-0.22288 -11.29364,0.18185 l -1.92932,14.37192 c -2.42198,0.44125 -4.79588,1.0741 -7.12173,1.88327 l -8.7245,-11.58618 c -3.44425,1.48563 -6.76303,3.29783 -9.90721,5.4083 l 4.94889,13.63908 c -1.92108,1.50363 -3.73596,3.15882 -5.4312,4.97574 l -13.08602,-6.18045 c -1.93263,2.40085 -3.70534,4.97299 -5.30418,7.71974 -0.32682,0.56146 -0.6496,1.14324 -0.95682,1.71059 l 10.66938,9.76112 c -1.02778,2.27375 -1.85855,4.60134 -2.50796,6.9493 l -14.4317,0.61415 c -0.74676,3.73798 -1.14635,7.50409 -1.19617,11.26134 l 13.99807,3.66227 c 0.14537,2.46354 0.4672,4.90894 0.98504,7.31252 l -12.4819,7.28674 c 1.05959,3.63142 2.4517,7.15871 4.16003,10.54961 l 14.07251,-3.28828 c 1.25732,2.10281 2.66678,4.12748 4.25253,6.03239 l -7.68442,12.28327 c 2.58525,2.68085 5.43763,5.14923 8.55749,7.37266 l 10.9531,-9.48492 c 0.23224,0.14159 0.44641,0.29477 0.68188,0.43292 1.91983,1.12643 3.88871,2.09505 5.88737,2.92481 l -1.12388,14.47294 c 3.62004,1.20259 7.30441,2.05354 11.00374,2.55558 l 5.30966,-13.51144 c 2.45833,0.15165 4.9237,0.10508 7.35781,-0.12317 l 5.6833,13.31237 c 3.72397,-0.62303 7.37556,-1.58277 10.9246,-2.87539 l -1.56114,-14.39449 c 2.24368,-1.00512 4.402,-2.18153 6.47931,-3.53318 l 11.20774,9.14383 c 2.97425,-2.25852 5.7759,-4.80692 8.33942,-7.63537 l -8.05896,-12.04866 c 1.3376,-1.70967 2.58834,-3.50991 3.7117,-5.43978 0.1365,-0.23473 0.26006,-0.47761 0.3922,-0.71355 l 14.15703,2.87264 c 1.63156,-3.47358 2.92448,-7.0399 3.86691,-10.64865 l -12.70364,-6.91331 c 0.45175,-2.44543 0.72139,-4.90865 0.78882,-7.36473 L 531,533.41428 c -0.17001,-3.78988 -0.6871,-7.55107 -1.53766,-11.23113 l -14.44733,-0.18392 c -0.72295,-2.34619 -1.62183,-4.63666 -2.69767,-6.85193 l 10.40572,-10.08431 z m -20.76472,13.40321 c 5.92655,10.99807 6.16015,24.76574 -0.58333,36.35072 -10.2758,17.65328 -32.85973,23.58183 -50.44299,13.26513 -17.58326,-10.31671 -23.5076,-32.98073 -13.23182,-50.63404 10.27578,-17.6533 32.84988,-23.60123 50.43315,-13.28452 6.04424,3.54636 10.72061,8.54182 13.82499,14.30271 z"
         id="path7084" />
    </g>
    <g
       id="g7125"
       inkscape:label="applications-graphics"
       transform="matrix(3.9999994,0,0,3.9999994,-758.00065,-1493.6375)"
       style="display:inline"
       inkscape:export-filename="/home/aday/checkout/gnome-web/developer.gnome.org/assets/hig.png"
       inkscape:export-xdpi="90"
       inkscape:export-ydpi="90">
      <path
         sodipodi:nodetypes="cccccccccssssscsccsscssssssssssssssssssss"
         inkscape:connector-curvature="0"
         id="path7127"
         d="m 228.89213,543.00274 c -2.10985,0.0296 -4.94513,0.80221 -4.89737,3.28068 0.0499,2.58608 2.91741,1.66126 3.15054,2.71829 0.0353,-0.045 0.0883,-0.0821 0.12477,-0.12498 0.19744,-0.2135 0.39517,-0.38769 0.59267,-0.59365 0.31248,-0.35256 0.63627,-0.67899 0.967,-1.03107 1.10674,-1.17814 1.15415,-1.24979 3.79604,-3.24945 -1.03459,-0.62096 -2.25793,-0.96565 -3.29695,-0.99982 -0.1332,-0.005 -0.29604,-0.002 -0.4367,0 z m -1.9028,1.53098 c 0.82692,0 1.49728,0.67146 1.49728,1.49975 0,0.82829 -0.67036,1.49974 -1.49728,1.49974 -0.82693,0 -1.49728,-0.67145 -1.49728,-1.49974 0,-0.82829 0.67035,-1.49975 1.49728,-1.49975 z m 7.26873,0.66156 c -1.41828,2.23337 -2.36679,3.55601 -3.36956,4.58755 -0.63925,0.65758 -1.1631,1.31156 -1.62205,1.78094 -0.83899,0.89023 -1.93776,1.94077 -3.15054,3.09322 0.0633,1.46884 0.81094,2.74635 3.24412,3.2182 3.89808,0.75593 8.02683,-1.82423 7.61118,-7.06129 -0.17842,-2.24796 -1.4052,-4.28134 -2.71315,-5.61862 z m 0.34245,3.80643 c 0.5488,0 0.99819,0.44764 0.99819,0.99983 0,0.55218 -0.44939,0.99983 -0.99819,0.99983 -0.54879,0 -0.99818,-0.44765 -0.99818,-0.99983 0,-0.55219 0.44939,-0.99983 0.99818,-0.99983 z m -0.62386,2.99949 c 0.54879,0 0.99818,0.44764 0.99818,0.99983 0,0.55218 -0.44939,0.99982 -0.99818,0.99982 -0.5488,0 -0.99819,-0.44764 -0.99819,-0.99982 0,-0.55219 0.44939,-0.99983 0.99819,-0.99983 z m -4.99094,1.99965 c 0.54879,0 0.99818,0.44765 0.99818,0.99983 0,0.55219 -0.44939,0.99983 -0.99818,0.99983 -0.5488,0 -0.99819,-0.44764 -0.99819,-0.99983 0,-0.55218 0.44939,-0.99983 0.99819,-0.99983 z m 2.99456,0 c 0.5488,0 0.99819,0.44765 0.99819,0.99983 0,0.55219 -0.44939,0.99983 -0.99819,0.99983 -0.5488,0 -0.99819,-0.44764 -0.99819,-0.99983 0,-0.55218 0.44939,-0.99983 0.99819,-0.99983 z"
         style="fill:#bebebe;fill-opacity:1;stroke:none" />
      <g
         style="fill:#bebebe;fill-opacity:1;stroke:none"
         transform="matrix(0.49887914,0,0,0.53785861,235.21825,541.6698)"
         id="g7129">
        <path
           style="fill:#bebebe;fill-opacity:1;stroke:none"
           sodipodi:nodetypes="csssc"
           id="path7131"
           d="m -28.5,27.5711 c 3.111145,0.0011 2.79359,-3.323359 4.304166,-4.248979 1.750479,-1.072622 3.284496,0.256475 3.590759,1.350292 0.386445,1.380184 -0.234224,3.032938 -2.265024,3.503889 -2.151559,0.498954 -5.335338,0.513772 -5.629901,-0.605202 z"
           inkscape:connector-curvature="0" />
      </g>
      <rect
         ry="0"
         rx="0.48193657"
         y="543.00275"
         x="221.0002"
         height="15.997264"
         width="15.97101"
         id="rect7133"
         style="fill:none;stroke:none" />
      <path
         inkscape:connector-curvature="0"
         id="path7135"
         d="m 235.03722,543.00274 c -1.79965,1.2988 -4.20634,3.30184 -6.11488,5.3335 -0.17324,0.18442 -0.34065,0.36235 -0.50432,0.54703 -0.10346,0.10788 -0.21177,0.19588 -0.3152,0.30771 -0.0653,0.0767 -0.12585,0.16279 -0.18912,0.23932 -1.87306,2.07016 -3.71972,4.68066 -4.91712,6.6327 2.97729,-2.29737 4.91603,-4.16475 6.1464,-5.47026 0.2404,-0.24587 0.52929,-0.56636 0.85103,-0.92311 1.20361,-1.33456 2.92519,-3.43748 5.04321,-6.66689 z"
         style="fill:#bebebe;fill-opacity:1;stroke:none" />
    </g>
    <g
       transform="matrix(4,0,0,4,26,678.36218)"
       style="display:inline"
       id="g7137"
       inkscape:label="preferences-other"
       inkscape:export-filename="/home/aday/checkout/gnome-web/developer.gnome.org/assets/platform-demos.png"
       inkscape:export-xdpi="90"
       inkscape:export-ydpi="90">
      <path
         sodipodi:nodetypes="ccccsccccc"
         style="font-size:medium;font-style:normal;font-variant:normal;font-weight:normal;font-stretch:normal;text-indent:0;text-align:start;text-decoration:none;line-height:normal;letter-spacing:normal;word-spacing:normal;text-transform:none;direction:ltr;block-progression:tb;writing-mode:lr-tb;text-anchor:start;baseline-shift:baseline;color:#000000;fill:#bebebe;fill-opacity:1;stroke:none;stroke-width:2;marker:none;visibility:visible;display:inline;overflow:visible;enable-background:accumulate;font-family:Sans;-inkscape-font-specification:Sans"
         id="path7139"
         d="M 0.0019267,11.999957 C 0.00587242,11.775819 0.11436693,11.46929 0.3057207,11.295674 L 2.4674289,9.1792319 C 2.7000697,8.9356902 3.2540714,8.8866742 3.4784658,9.0224809 3.558927,9.0240647 4.6139275,9.6537355 4.7665964,9.8878906 5.3832533,10.833685 4.4225381,11.715211 3.5926826,11.434737 L 3.2431136,11.223041 1.6407872,12.794777 C 1.0036144,13.321126 -0.0506899,12.887029 0.00189452,12 z"
         inkscape:connector-curvature="0" />
      <path
         sodipodi:nodetypes="sccccccssccccss"
         inkscape:connector-curvature="0"
         id="path7141"
         d="m 11.619111,0.11832249 c 0.389664,-0.10147454 0.790724,-0.11076854 1.17065,-0.0808587 L 11.430064,2.3433618 c -0.279422,0.4738565 -0.122751,1.0707125 0.353774,1.3477303 l 0.874307,0.5082475 c 0.476518,0.2769985 1.07741,0.1205178 1.356831,-0.3533386 l 1.359698,-2.3058981 c 0.21223,0.3142969 0.400344,0.6661106 0.501942,1.0531672 0.486289,1.852561 -0.631432,3.7480783 -2.496498,4.2337684 -0.389665,0.1014744 -0.790726,0.1107689 -1.170647,0.080879 L 11.407345,8.0225248 7.9976223,8 c 0,0 1.5185971,-2.5773501 1.6269395,-2.5947232 C 9.4123338,5.0909793 9.2242212,4.7391657 9.1226206,4.3521091 8.6363314,2.4995481 9.754047,0.604012 11.619111,0.11832249 z"
         style="font-size:medium;font-style:normal;font-variant:normal;font-weight:normal;font-stretch:normal;text-indent:0;text-align:start;text-decoration:none;line-height:normal;letter-spacing:normal;word-spacing:normal;text-transform:none;direction:ltr;block-progression:tb;writing-mode:lr-tb;text-anchor:start;color:#000000;fill:#bebebe;fill-opacity:1;fill-rule:nonzero;stroke:none;stroke-width:3;marker:none;visibility:visible;display:inline;overflow:visible;enable-background:accumulate;font-family:Sans;-inkscape-font-specification:Sans" />
      <path
         id="path7143"
         d="m 3.5988083,0.71880011 c -0.2298018,0.0471 -0.4432575,0.13096 -0.6552883,0.21875 C 2.926835,1.5618801 3.030323,2.3793201 2.787499,2.5938001 c -0.2386149,0.21077 -1.0368363,0.0343 -1.6538228,-0.0313 -0.1311954,0.23649 -0.23491419,0.48523 -0.31204199,0.75 0.47739229,0.39586 1.13883649,0.83901 1.15455539,1.15625 C 1.9921066,4.7899401 1.3506897,5.27364 0.91524682,5.71875 1.0184823,5.97658 1.1650242,6.21229 1.3209014,6.4375 1.9283329,6.31109 2.685291,6.06396 2.94352,6.25 3.2064421,6.43942 3.2083433,7.25535 3.2867662,7.875 3.5359485,7.95 3.7985242,7.9795 4.0668713,8 4.347811,7.44538 4.6334528,6.6802 4.9405891,6.59375 5.2558784,6.50505 5.902722,7.05188 6.4383909,7.375 6.6567804,7.2234 6.8507168,7.03794 7.0312708,6.84375 6.7778048,6.27143 6.3112435,5.55183 6.4383909,5.25 6.5656571,4.9478901 7.4123655,4.7803701 7.9986013,4.5625001 c 0.00439,-0.0735 0.031204,-0.14414 0.031204,-0.21875 0,-0.19137 -0.03435,-0.37899 -0.062408,-0.5625 -0.605209,-0.16082 -1.4650571,-0.2413 -1.6226188,-0.53125 -0.1565063,-0.28801 0.2414317,-1.0614 0.4368589,-1.65625 -0.2008663,-0.17858 -0.4187944,-0.33716 -0.6552883,-0.46875 -0.500159,0.37513 -1.08274,0.99436 -1.4041893,0.9375 -0.3164226,-0.056 -0.6619165,-0.81955 -0.9985345,-1.34374999 -0.040131,0.007 -0.085145,-0.008 -0.1248168,0 z M 4.2228924,2.5938001 c 0.9306152,0 1.685027,0.75552 1.685027,1.6875 0,0.9319799 -0.7544118,1.6874999 -1.685027,1.6874999 -0.9306153,0 -1.6850271,-0.75552 -1.6850271,-1.6874999 0,-0.93198 0.7544118,-1.6875 1.6850271,-1.6875 z"
         style="color:#000000;fill:#bebebe;fill-opacity:1;fill-rule:nonzero;stroke:none;stroke-width:1;marker:none;visibility:visible;display:inline;overflow:visible;enable-background:accumulate"
         inkscape:connector-curvature="0" />
      <path
         style="color:#bebebe;fill:#bebebe;fill-opacity:1;fill-rule:nonzero;stroke:none;stroke-width:2;marker:none;visibility:visible;display:inline;overflow:visible;enable-background:accumulate"
         d="m 2.9970711,9 9.9853459,0 0.0079,6.0625 c 0,0.4922 -0.471967,0.9375 -0.99463,0.9375 L 4.0034841,16 C 3.465214,16 3.0049495,15.57036 3.0049495,15 z"
         id="path7145"
         inkscape:connector-curvature="0"
         sodipodi:nodetypes="ccccccc" />
      <path
         inkscape:connector-curvature="0"
         d="m 15.960835,11.977067 c -0.0039,-0.224138 -0.11244,-0.530667 -0.303794,-0.704283 L 13.495333,9.1563418 c -0.232641,-0.2435417 -0.786642,-0.2925577 -1.011037,-0.156751 -0.08046,0.00158 -1.135462,0.6312546 -1.28813,0.8654097 -0.616657,0.9457945 0.344058,1.8273205 1.173913,1.5468465 l 0.349569,-0.211696 1.602327,1.571736 c 0.637172,0.526349 1.691477,0.09225 1.638892,-0.794777 z"
         id="path7147"
         style="font-size:medium;font-style:normal;font-variant:normal;font-weight:normal;font-stretch:normal;text-indent:0;text-align:start;text-decoration:none;line-height:normal;letter-spacing:normal;word-spacing:normal;text-transform:none;direction:ltr;block-progression:tb;writing-mode:lr-tb;text-anchor:start;baseline-shift:baseline;color:#000000;fill:#bebebe;fill-opacity:1;stroke:none;stroke-width:2;marker:none;visibility:visible;display:inline;overflow:visible;enable-background:accumulate;font-family:Sans;-inkscape-font-specification:Sans"
         sodipodi:nodetypes="ccccsccccc" />
      <rect
         y="0"
         x="0"
         height="16"
         width="16"
         id="rect7149"
         style="fill:none;stroke:none" />
    </g>
    <g
       style="display:inline"
       id="g7151"
       transform="matrix(3.99995,0,0,3.99995,-1097.9859,-490.62166)"
       inkscape:label="view-dual"
       inkscape:export-filename="/home/aday/checkout/gnome-web/developer.gnome.org/assets/guides.png"
       inkscape:export-xdpi="90"
       inkscape:export-ydpi="90">
      <rect
         style="color:#bebebe;fill:none;stroke:none;stroke-width:3;marker:none;visibility:visible;display:inline;overflow:visible;enable-background:accumulate"
         id="rect7153"
         width="16"
         height="16"
         x="281"
         y="317.00012" />
      <path
         sodipodi:nodetypes="ccscsccscsc"
         inkscape:connector-curvature="0"
         id="path7155"
         d="m 282.0002,319 0,11 5,0 c 1.01052,0 2,1 2,1 0,0 0.96865,-1 2,-1 l 5,0 0,-11 -5,0 c -1.02923,0 -2,1 -2,1 0,0 -1.03368,-1 -2,-1 z"
         style="color:#bebebe;fill:none;stroke:#bebebe;stroke-width:2;stroke-linecap:round;stroke-linejoin:miter;stroke-miterlimit:4;stroke-opacity:1;stroke-dasharray:none;marker:none;visibility:visible;display:inline;overflow:visible;enable-background:accumulate" />
      <rect
         transform="scale(-1,1)"
         style="opacity:0.35;color:#bebebe;fill:#bebebe;fill-opacity:1;stroke:none;stroke-width:1;marker:none;visibility:visible;display:inline;overflow:visible"
         id="rect7157"
         width="3.0000136"
         height="2"
         x="-287.00021"
         y="321.99979"
         inkscape:label="a"
         rx="0.09375117"
         ry="0.09375117" />
      <rect
         transform="scale(-1,1)"
         style="opacity:0.35;color:#bebebe;fill:#bebebe;fill-opacity:1;stroke:none;stroke-width:1;marker:none;visibility:visible;display:inline;overflow:visible"
         id="rect7159"
         width="3.0000129"
         height="2.0002136"
         x="-287.00021"
         y="324.99979"
         inkscape:label="a"
         rx="0.09375117"
         ry="0.09375117" />
      <rect
         transform="scale(-1,1)"
         style="opacity:0.35;color:#bebebe;fill:#bebebe;fill-opacity:1;stroke:none;stroke-width:1;marker:none;visibility:visible;display:inline;overflow:visible"
         id="rect7161"
         width="3.0000136"
         height="2.0002136"
         x="-294.00021"
         y="321.99979"
         inkscape:label="a"
         rx="0.09375117"
         ry="0.09375117" />
      <rect
         transform="scale(-1,1)"
         style="opacity:0.35;color:#bebebe;fill:#bebebe;fill-opacity:1;stroke:none;stroke-width:1;marker:none;visibility:visible;display:inline;overflow:visible"
         id="rect7163"
         width="3.0000129"
         height="2.0002136"
         x="-294.00021"
         y="324.99979"
         inkscape:label="a"
         rx="0.09375117"
         ry="0.09375117" />
    </g>
    <g
       id="g7165"
       inkscape:label="accessories-dictionary"
       transform="matrix(3.9999966,0,0,3.9999966,-1165.9997,-1738.6356)"
       inkscape:export-filename="/home/aday/checkout/gnome-web/developer.gnome.org/assets/api-reference.png"
       inkscape:export-xdpi="90"
       inkscape:export-ydpi="90">
      <rect
         y="629"
         x="323.00021"
         height="16"
         width="16"
         id="rect7167"
         style="fill:none;stroke:none" />
      <g
         id="g7169">
        <g
           id="g7171">
          <path
             style="fill:none;stroke:#c3c3c3;stroke-width:0.99999988;stroke-miterlimit:4;stroke-opacity:1;stroke-dasharray:none"
             d="m 323.5002,631.48016 c 2.93908,0.0873 3.85696,-1.938 7.05524,-0.0173 3.41575,-1.947 3.69531,0.15433 6.94476,0.0371 l 0,9.77561 c -2.32924,-0.0156 -4.5,-2.27557 -6.96648,-2.6e-4 -2.53352,-2.27531 -4.71726,0 -7.03352,0 z"
             id="path7173"
             inkscape:connector-curvature="0"
             sodipodi:nodetypes="ccccccc" />
          <rect
             style="fill:#c3c3c3;fill-opacity:1;stroke:none"
             id="rect7175"
             width="1"
             height="9.603281"
             x="330.00021"
             y="631.39673" />
          <path
             style="color:#000000;fill:none;stroke:#c3c3c3;stroke-width:2;stroke-linecap:butt;stroke-linejoin:miter;stroke-miterlimit:4;stroke-opacity:1;stroke-dasharray:none;stroke-dashoffset:0;marker:none;visibility:visible;display:inline;overflow:visible;enable-background:accumulate"
             d="m 337.0002,631.518 0,12.482 -13,0 0,-12.5"
             id="path7177"
             inkscape:connector-curvature="0"
             sodipodi:nodetypes="cccc" />
          <path
             style="opacity:0.3;color:#000000;fill:#c3c3c3;fill-opacity:1;stroke:none;stroke-width:2;marker:none;visibility:visible;display:inline;overflow:visible;enable-background:accumulate"
             d="m 323.9377,643.75 0,-2.1875 4.21949,-1.13061 2.34301,0.59711 2.38717,-0.67107 3.74171,1.00259 0,2.45198 z"
             id="path7179"
             inkscape:connector-curvature="0"
             sodipodi:nodetypes="cccccccc" />
        </g>
      </g>
    </g>
  </g>
</svg>
