<?xml version="1.0" encoding="UTF-8" standalone="no"?>
<!-- Created with Inkscape (http://www.inkscape.org/) -->

<svg
   xmlns:dc="http://purl.org/dc/elements/1.1/"
   xmlns:cc="http://creativecommons.org/ns#"
   xmlns:rdf="http://www.w3.org/1999/02/22-rdf-syntax-ns#"
   xmlns:svg="http://www.w3.org/2000/svg"
   xmlns="http://www.w3.org/2000/svg"
   xmlns:sodipodi="http://sodipodi.sourceforge.net/DTD/sodipodi-0.dtd"
   xmlns:inkscape="http://www.inkscape.org/namespaces/inkscape"
   width="1024px"
   height="768px"
   id="svg14040"
   version="1.1"
   inkscape:version="0.48.4 r9939"
   sodipodi:docname="mockup.svg"
   inkscape:export-filename="/home/andreasn/SparkleShare/gnome-web/build.gnome.org/mockup.png"
   inkscape:export-xdpi="90"
   inkscape:export-ydpi="90">
  <defs
     id="defs14042">
    <inkscape:perspective
       sodipodi:type="inkscape:persp3d"
       inkscape:vp_x="0 : 0.5 : 1"
       inkscape:vp_y="0 : 1000 : 0"
       inkscape:vp_z="1 : 0.5 : 1"
       inkscape:persp3d-origin="0.5 : 0.33333333 : 1"
       id="perspective19204" />
    <inkscape:perspective
       id="perspective19241"
       inkscape:persp3d-origin="372.04724 : 350.78739 : 1"
       inkscape:vp_z="744.09448 : 526.18109 : 1"
       inkscape:vp_y="0 : 1000 : 0"
       inkscape:vp_x="0 : 526.18109 : 1"
       sodipodi:type="inkscape:persp3d" />
  </defs>
  <sodipodi:namedview
     id="base"
     pagecolor="#ffffff"
     bordercolor="#666666"
     borderopacity="1.0"
     inkscape:pageopacity="1"
     inkscape:pageshadow="2"
     inkscape:zoom="0.70710678"
     inkscape:cx="711.80905"
     inkscape:cy="520.12234"
     inkscape:current-layer="layer1"
     inkscape:document-units="px"
     showgrid="false"
     inkscape:snap-bbox="true"
     inkscape:snap-nodes="false"
     showguides="true"
     inkscape:guide-bbox="true"
     inkscape:window-width="1920"
     inkscape:window-height="1014"
     inkscape:window-x="0"
     inkscape:window-y="27"
     inkscape:window-maximized="1">
    <inkscape:grid
       type="xygrid"
       id="grid14814"
       empspacing="5"
       visible="true"
       enabled="true"
       snapvisiblegridlinesonly="true" />
  </sodipodi:namedview>
  <metadata
     id="metadata14045">
    <rdf:RDF>
      <cc:Work
         rdf:about="">
        <dc:format>image/svg+xml</dc:format>
        <dc:type
           rdf:resource="http://purl.org/dc/dcmitype/StillImage" />
        <dc:title></dc:title>
      </cc:Work>
    </rdf:RDF>
  </metadata>
  <g
     id="layer1"
     inkscape:label="Layer 1"
     inkscape:groupmode="layer">
    <g
       id="g19089"
       transform="matrix(1.4845688,0,0,1.4845688,-217.61842,-501.1305)"
       style="fill:#2e3436;fill-opacity:1">
      <g
         id="g15043"
         style="fill:#2e3436;fill-opacity:1;fill-rule:nonzero;stroke:none"
         transform="matrix(0.4314921,0,0,0.4314921,175.04372,357.6187)">
        <g
           id="g15045"
           style="fill:#2e3436;fill-opacity:1">
          <path
             inkscape:connector-curvature="0"
             id="path15047"
             style="fill:#2e3436;fill-opacity:1"
             d="M 86.068,0 C 61.466,0 56.851,35.041 70.691,35.041 84.529,35.041 110.671,0 86.068,0 z" />
          <path
             inkscape:connector-curvature="0"
             id="path15049"
             style="fill:#2e3436;fill-opacity:1"
             d="M 45.217,30.699 C 52.586,31.149 60.671,2.577 46.821,4.374 32.976,6.171 37.845,30.249 45.217,30.699 z" />
          <path
             inkscape:connector-curvature="0"
             id="path15051"
             style="fill:#2e3436;fill-opacity:1"
             d="M 11.445,48.453 C 16.686,46.146 12.12,23.581 3.208,29.735 -5.7,35.89 6.204,50.759 11.445,48.453 z" />
          <path
             inkscape:connector-curvature="0"
             id="path15053"
             style="fill:#2e3436;fill-opacity:1"
             d="M 26.212,36.642 C 32.451,35.37 32.793,9.778 21.667,14.369 10.539,18.961 19.978,37.916 26.212,36.642 l 0,0 z" />
          <path
             inkscape:connector-curvature="0"
             id="path15055"
             style="fill:#2e3436;fill-opacity:1"
             d="m 58.791,93.913 c 1.107,8.454 -6.202,12.629 -13.36,7.179 C 22.644,83.743 83.16,75.088 79.171,51.386 75.86,31.712 15.495,37.769 8.621,68.553 3.968,89.374 27.774,118.26 52.614,118.26 c 12.22,0 26.315,-11.034 28.952,-25.012 C 83.58,82.589 57.867,86.86 58.791,93.913 l 0,0 z" />
        </g>
      </g>
      <path
         inkscape:connector-curvature="0"
         id="path15059-5"
         style="font-size:148.69999695px;font-style:normal;font-variant:normal;font-weight:bold;font-stretch:normal;text-align:start;line-height:125%;text-anchor:start;fill:#2e3436;fill-opacity:1;stroke:none;font-family:Bitstream Vera Sans"
         d="m 266.40838,375.4882 c -2.67361,0.0725 -4.78454,1.03335 -6.3381,2.87533 -1.60665,1.91806 -2.41528,4.56691 -2.41528,7.94652 0,3.369 0.80863,6.01076 2.41528,7.92883 1.61549,1.91806 3.83436,2.87533 6.66368,2.87533 2.8364,0 5.06058,-0.95727 6.66899,-2.87533 1.60665,-1.91807 2.40997,-4.55983 2.40997,-7.92883 0,-3.37961 -0.80332,-6.02846 -2.40997,-7.94652 -1.60841,-1.91806 -3.83259,-2.87533 -6.66899,-2.87533 -0.1097,0 -0.21764,-0.004 -0.32558,0 z m 0.19818,3.89275 c 0.0425,-0.002 0.0849,0 0.1274,0 1.39431,0 2.47543,0.60338 3.23983,1.81367 0.7644,1.21029 1.15013,2.9178 1.15013,5.11543 0,2.18702 -0.38573,3.88214 -1.15013,5.09243 -0.7644,1.21029 -1.84552,1.81898 -3.23983,1.81898 -1.38724,0 -2.45951,-0.60869 -3.22391,-1.81898 -0.76439,-1.21029 -1.15013,-2.90541 -1.15013,-5.09243 0,-2.19763 0.38574,-3.90514 1.15013,-5.11543 0.74139,-1.17136 1.77121,-1.77651 3.09651,-1.81367 z" />
      <path
         inkscape:connector-curvature="0"
         id="path15061-6"
         style="font-size:148.69999695px;font-style:normal;font-variant:normal;font-weight:bold;font-stretch:normal;text-align:start;line-height:125%;text-anchor:start;fill:#2e3436;fill-opacity:1;stroke:none;font-family:Bitstream Vera Sans"
         d="m 236.20947,395.15899 c -2.35511,1.97822 -5.85859,1.95522 -7.31837,1.95522 -2.93903,0 -5.2676,-0.96788 -6.98572,-2.90364 -1.71812,-1.94638 -2.57629,-4.58106 -2.57629,-7.90406 0,-3.36015 0.87409,-6.00368 2.62406,-7.93059 1.74997,-1.92692 4.14579,-2.88949 7.18744,-2.88949 1.17313,0 2.29673,0.13094 3.369,0.39105 1.07935,0.2601 2.09678,0.64761 3.04874,1.15897 l -1.22445,3.62026 c -0.53614,-0.29372 -1.14837,-0.58214 -1.71813,-0.78562 -0.96964,-0.32558 -1.94283,-0.48837 -2.91956,-0.48837 -1.81367,0 -3.21152,0.59984 -4.19709,1.79951 -0.97673,1.1926 -1.46509,2.90011 -1.46509,5.12428 0,2.20649 0.47244,3.91045 1.41732,5.11013 0.94664,1.20144 2.3675,1.80128 4.03076,1.80128 1.69158,0 2.73908,-0.42466 3.29645,-0.8741 l 0,-3.60787 -3.66272,0 0,-3.6008 7.09365,0" />
      <path
         inkscape:connector-curvature="0"
         id="path15063-5"
         style="font-size:148.69999695px;font-style:normal;font-variant:normal;font-weight:bold;font-stretch:normal;text-align:start;line-height:125%;text-anchor:start;fill:#2e3436;fill-opacity:1;stroke:none;font-family:Bitstream Vera Sans"
         d="m 239.32014,375.86332 2.87179,0 9.07365,12.52759 0,-12.52759 3.87152,0 0,20.84569 -2.87179,0 -9.07188,-12.52758 0,12.52758 -3.87329,0 0,-20.84569" />
      <path
         inkscape:connector-curvature="0"
         id="path15065-9"
         style="font-size:148.69999695px;font-style:normal;font-variant:normal;font-weight:bold;font-stretch:normal;text-align:start;line-height:125%;text-anchor:start;fill:#2e3436;fill-opacity:1;stroke:none;font-family:Bitstream Vera Sans"
         d="m 278.80149,375.86332 5.79136,0 4.02014,13.01418 4.04316,-13.01418 4.89602,0 2.21179,20.84569 -4.30326,0 -1.32707,-13.03541 -4.06616,13.09734 -2.88594,0 -4.06616,-13.5397 -1.32708,13.47777 -4.31388,0 2.2118,-20.84569" />
      <path
         inkscape:connector-curvature="0"
         id="path15067-9"
         style="font-size:148.69999695px;font-style:normal;font-variant:normal;font-weight:bold;font-stretch:normal;text-align:start;line-height:125%;text-anchor:start;fill:#2e3436;fill-opacity:1;stroke:none;font-family:Bitstream Vera Sans"
         d="m 302.86931,375.86332 12.28163,0 0,4.06262 -7.73064,0 0,4.32449 5.94352,0 0,3.62026 -5.94352,0 0,4.7757 7.99076,0 0,4.06262 -12.54175,0 0,-20.84569" />
    </g>
    <g
       id="g19571"
       transform="translate(-34.007141,-141.42136)">
      <g
         transform="matrix(1.1722378,0,0,1.1722378,-36.430605,161.77427)"
         id="g19364">
        <path
           sodipodi:type="arc"
           style="color:#000000;fill:#ffffff;fill-opacity:1;fill-rule:nonzero;stroke:#4e9a06;stroke-width:8.16528893;stroke-linecap:round;stroke-linejoin:round;stroke-miterlimit:4;stroke-opacity:1;stroke-dasharray:none;stroke-dashoffset:0;marker:none;visibility:visible;display:inline;overflow:visible;enable-background:accumulate"
           id="path14048-8-9-1-2"
           sodipodi:cx="180.66579"
           sodipodi:cy="172.26254"
           sodipodi:rx="87.32769"
           sodipodi:ry="87.32769"
           d="m 267.99348,172.26254 c 0,48.22975 -39.09794,87.32769 -87.32769,87.32769 -48.22975,0 -87.327693,-39.09794 -87.327693,-87.32769 0,-48.22975 39.097943,-87.327687 87.327693,-87.327687 48.22975,0 87.32769,39.097937 87.32769,87.327687 z"
           transform="matrix(0.48987855,0,0,0.48987855,232.16149,88.124818)" />
        <g
           style="display:inline"
           id="g4757"
           inkscape:label="emblem-system"
           transform="matrix(2.96875,0,0,2.96875,-1015.9375,-1046.1874)">
          <rect
             style="color:#bebebe;fill:none;stroke:none;stroke-width:2;marker:none;visibility:visible;display:inline;overflow:visible;enable-background:accumulate"
             id="rect35549-4"
             width="16"
             height="16"
             x="442"
             y="401.99997" />
          <path
             style="color:#000000;fill:#4e9a06;fill-opacity:1;fill-rule:nonzero;stroke:none;marker:none;visibility:visible;display:inline;overflow:visible;enable-background:accumulate"
             d="m 450.0002,403 c -0.22065,0 -0.44081,0.0113 -0.65625,0.0312 l -0.40625,2.09375 c -0.33446,0.0733 -0.66305,0.17589 -0.96875,0.3125 l -1.53125,-1.46875 c -0.38863,0.23011 -0.72695,0.51408 -1.0625,0.8125 l 0.90625,1.90625 c -0.22242,0.24899 -0.42425,0.5225 -0.59375,0.8125 l -2.09375,-0.28125 c -0.17772,0.40877 -0.30872,0.83637 -0.40625,1.28125 l 1.84375,1 c -0.0171,0.16809 -0.0312,0.3274 -0.0312,0.5 0,0.1726 0.0142,0.33191 0.0312,0.5 l -1.84375,1 c 0.0975,0.44488 0.22853,0.87248 0.40625,1.28125 l 2.09375,-0.28125 c 0.1695,0.29 0.37133,0.56351 0.59375,0.8125 l -0.90625,1.90625 c 0.33555,0.29842 0.67387,0.58239 1.0625,0.8125 l 1.53125,-1.46875 c 0.3057,0.13661 0.63429,0.23916 0.96875,0.3125 l 0.40625,2.09375 c 0.21544,0.02 0.4356,0.0312 0.65625,0.0312 0.22065,0 0.44081,-0.0113 0.65625,-0.0312 l 0.40625,-2.09375 c 0.33446,-0.0733 0.66305,-0.17589 0.96875,-0.3125 l 1.53125,1.46875 c 0.38863,-0.23011 0.72695,-0.51408 1.0625,-0.8125 l -0.90625,-1.90625 c 0.22242,-0.24899 0.42425,-0.5225 0.59375,-0.8125 l 2.09375,0.28125 c 0.17772,-0.40877 0.30872,-0.83637 0.40625,-1.28125 l -1.84375,-1 c 0.0171,-0.16809 0.0312,-0.3274 0.0312,-0.5 0,-0.1726 -0.0142,-0.33191 -0.0312,-0.5 l 1.84375,-1 c -0.0975,-0.44488 -0.22853,-0.87248 -0.40625,-1.28125 l -2.09375,0.28125 c -0.1695,-0.29 -0.37133,-0.56351 -0.59375,-0.8125 l 0.90625,-1.90625 c -0.33555,-0.29842 -0.67387,-0.58239 -1.0625,-0.8125 l -1.53125,1.46875 c -0.3057,-0.13661 -0.63429,-0.23916 -0.96875,-0.3125 l -0.40625,-2.09375 C 450.44101,403.0112 450.22085,403 450.0002,403 z m 0,4 c 1.65685,0 3,1.34315 3,3 0,1.65685 -1.34315,3 -3,3 -1.65685,0 -3,-1.34315 -3,-3 0,-1.65685 1.34315,-3 3,-3 z"
             id="path35543-6-4"
             inkscape:connector-curvature="0"
             sodipodi:nodetypes="sccccccccccsccccccccccsccccccccccsccccccccccssssss" />
        </g>
      </g>
      <text
         sodipodi:linespacing="125%"
         id="text19406-8"
         y="442.77744"
         x="318.48138"
         style="font-size:16.67366219px;font-style:normal;font-weight:normal;line-height:125%;letter-spacing:0px;word-spacing:0px;fill:#000000;fill-opacity:1;stroke:none;font-family:Sans"
         xml:space="preserve"><tspan
           y="442.77744"
           x="318.48138"
           id="tspan19408-4"
           sodipodi:role="line">Build</tspan></text>
    </g>
    <g
       id="g19590"
       transform="translate(-14.132019,-141.42136)">
      <g
         transform="translate(-10.165768,0)"
         id="g19580">
        <path
           sodipodi:type="arc"
           style="color:#000000;fill:#ffffff;fill-opacity:1;fill-rule:nonzero;stroke:#4e9a06;stroke-width:8.16528893;stroke-linecap:round;stroke-linejoin:round;stroke-miterlimit:4;stroke-opacity:1;stroke-dasharray:none;stroke-dashoffset:0;marker:none;visibility:visible;display:inline;overflow:visible;enable-background:accumulate"
           id="path14048-8-9"
           sodipodi:cx="180.66579"
           sodipodi:cy="172.26254"
           sodipodi:rx="87.32769"
           sodipodi:ry="87.32769"
           d="m 267.99348,172.26254 c 0,48.22975 -39.09794,87.32769 -87.32769,87.32769 -48.22975,0 -87.327693,-39.09794 -87.327693,-87.32769 0,-48.22975 39.097943,-87.327687 87.327693,-87.327687 48.22975,0 87.32769,39.097937 87.32769,87.327687 z"
           transform="matrix(0.57425415,0,0,0.57425415,418.41769,265.07751)" />
        <path
           sodipodi:type="arc"
           style="color:#000000;fill:#4e9a06;fill-opacity:1;fill-rule:nonzero;stroke:none;stroke-width:4;marker:none;visibility:visible;display:inline;overflow:visible;enable-background:accumulate"
           id="path14643"
           sodipodi:cx="396.33334"
           sodipodi:cy="175.97485"
           sodipodi:rx="2.8284271"
           sodipodi:ry="2.8284271"
           d="m 399.16177,175.97485 c 0,1.5621 -1.26633,2.82843 -2.82843,2.82843 -1.56209,0 -2.82842,-1.26633 -2.82842,-2.82843 0,-1.56209 1.26633,-2.82842 2.82842,-2.82842 1.5621,0 2.82843,1.26633 2.82843,2.82842 z"
           transform="matrix(2.5820472,0,0,2.5820472,-516.86116,-71.517979)" />
        <path
           sodipodi:type="arc"
           style="color:#000000;fill:#4e9a06;fill-opacity:1;fill-rule:nonzero;stroke:none;stroke-width:4;marker:none;visibility:visible;display:inline;overflow:visible;enable-background:accumulate"
           id="path14643-7"
           sodipodi:cx="396.33334"
           sodipodi:cy="175.97485"
           sodipodi:rx="2.8284271"
           sodipodi:ry="2.8284271"
           d="m 399.16177,175.97485 c 0,1.5621 -1.26633,2.82843 -2.82843,2.82843 -1.56209,0 -2.82842,-1.26633 -2.82842,-2.82843 0,-1.56209 1.26633,-2.82842 2.82842,-2.82842 1.5621,0 2.82843,1.26633 2.82843,2.82842 z"
           transform="matrix(2.5820472,0,0,2.5820472,-480.38963,-85.40201)" />
        <path
           sodipodi:type="arc"
           style="color:#000000;fill:#4e9a06;fill-opacity:1;fill-rule:nonzero;stroke:none;stroke-width:4;marker:none;visibility:visible;display:inline;overflow:visible;enable-background:accumulate"
           id="path14643-7-3"
           sodipodi:cx="396.33334"
           sodipodi:cy="175.97485"
           sodipodi:rx="2.8284271"
           sodipodi:ry="2.8284271"
           d="m 399.16177,175.97485 c 0,1.5621 -1.26633,2.82843 -2.82843,2.82843 -1.56209,0 -2.82842,-1.26633 -2.82842,-2.82843 0,-1.56209 1.26633,-2.82842 2.82842,-2.82842 1.5621,0 2.82843,1.26633 2.82843,2.82842 z"
           transform="matrix(2.5820472,0,0,2.5820472,-509.60827,-112.54839)" />
        <path
           style="font-size:medium;font-style:normal;font-variant:normal;font-weight:normal;font-stretch:normal;text-indent:0;text-align:start;text-decoration:none;line-height:normal;letter-spacing:normal;word-spacing:normal;text-transform:none;direction:ltr;block-progression:tb;writing-mode:lr-tb;text-anchor:start;baseline-shift:baseline;color:#000000;fill:#4e9a06;fill-opacity:1;stroke:none;stroke-width:3.51671338;marker:none;visibility:visible;display:inline;overflow:visible;enable-background:accumulate;font-family:Sans;-inkscape-font-specification:Sans"
           d="M 528.46875,371.78125 516.84375,378 518.5,381.09375 530.125,374.875 528.46875,371.78125 z"
           id="path14695"
           inkscape:connector-curvature="0" />
        <path
           sodipodi:type="star"
           style="color:#000000;fill:#4e9a06;fill-opacity:1;fill-rule:nonzero;stroke:none;stroke-width:4;marker:none;visibility:visible;display:inline;overflow:visible;enable-background:accumulate"
           id="path14699"
           sodipodi:sides="3"
           sodipodi:cx="422.84985"
           sodipodi:cy="171.73221"
           sodipodi:r1="5.6596155"
           sodipodi:r2="2.8298078"
           sodipodi:arg1="1.5707963"
           sodipodi:arg2="2.6179939"
           inkscape:flatsided="false"
           inkscape:rounded="0"
           inkscape:randomized="0"
           d="m 422.84985,177.39182 -2.45068,-4.24471 -2.45069,-4.24471 4.90137,0 4.90137,0 -2.45068,4.24471 z"
           inkscape:transform-center-y="0.85866281"
           transform="matrix(1.1722378,0,0,1.1722378,32.568251,173.05022)" />
        <path
           style="font-size:medium;font-style:normal;font-variant:normal;font-weight:normal;font-stretch:normal;text-indent:0;text-align:start;text-decoration:none;line-height:normal;letter-spacing:normal;word-spacing:normal;text-transform:none;direction:ltr;block-progression:tb;writing-mode:lr-tb;text-anchor:start;baseline-shift:baseline;color:#000000;fill:#4e9a06;fill-opacity:1;stroke:none;stroke-width:3.51671338;marker:none;visibility:visible;display:inline;overflow:visible;enable-background:accumulate;font-family:Sans;-inkscape-font-specification:Sans"
           d="m 528.03125,352.15625 -2.5625,2.40625 9,9.59375 2.5625,-2.40625 -9,-9.59375 z"
           id="path14695-3"
           inkscape:connector-curvature="0" />
        <path
           sodipodi:type="star"
           style="color:#000000;fill:#4e9a06;fill-opacity:1;fill-rule:nonzero;stroke:none;stroke-width:4;marker:none;visibility:visible;display:inline;overflow:visible;enable-background:accumulate"
           id="path14699-9"
           sodipodi:sides="3"
           sodipodi:cx="422.84985"
           sodipodi:cy="171.73221"
           sodipodi:r1="5.6596155"
           sodipodi:r2="2.8298078"
           sodipodi:arg1="1.5707963"
           sodipodi:arg2="2.6179939"
           inkscape:flatsided="false"
           inkscape:rounded="0"
           inkscape:randomized="0"
           d="m 422.84985,177.39182 -2.45068,-4.24471 -2.45069,-4.24471 4.90137,0 4.90137,0 -2.45068,4.24471 z"
           inkscape:transform-center-y="0.87637626"
           transform="matrix(-0.30339747,-1.1322948,1.1322948,-0.30339747,461.84856,884.99306)"
           inkscape:transform-center-x="-0.19512304" />
      </g>
      <text
         sodipodi:linespacing="125%"
         id="text19406-8-6"
         y="442.77744"
         x="449.39642"
         style="font-size:16.67366219px;font-style:normal;font-weight:normal;line-height:125%;letter-spacing:0px;word-spacing:0px;fill:#000000;fill-opacity:1;stroke:none;font-family:Sans"
         xml:space="preserve"><tspan
           y="442.77744"
           x="449.39642"
           id="tspan19408-4-5"
           sodipodi:role="line">Integrationtest</tspan></text>
    </g>
    <g
       id="g19603"
       transform="translate(178.2771,-141.42136)">
      <g
         transform="matrix(1.1722378,0,0,1.1722378,-192.12314,162.06733)"
         id="g19380">
        <path
           sodipodi:type="arc"
           style="color:#000000;fill:#ffffff;fill-opacity:1;fill-rule:nonzero;stroke:#4e9a06;stroke-width:8.16528893;stroke-linecap:round;stroke-linejoin:round;stroke-miterlimit:4;stroke-opacity:1;stroke-dasharray:none;stroke-dashoffset:0;marker:none;visibility:visible;display:inline;overflow:visible;enable-background:accumulate"
           id="path14048-8"
           sodipodi:cx="180.66579"
           sodipodi:cy="172.26254"
           sodipodi:rx="87.32769"
           sodipodi:ry="87.32769"
           d="m 267.99348,172.26254 c 0,48.22975 -39.09794,87.32769 -87.32769,87.32769 -48.22975,0 -87.327693,-39.09794 -87.327693,-87.32769 0,-48.22975 39.097943,-87.327687 87.327693,-87.327687 48.22975,0 87.32769,39.097937 87.32769,87.327687 z"
           transform="matrix(0.48987855,0,0,0.48987855,512.16149,87.87482)" />
        <path
           style="fill:#4e9a06;fill-opacity:1;stroke:none"
           d="m 585.25,190 c 25.0541,-0.19597 37.62993,-10.90863 46.5,-8.25 -7.99937,-3.7314 -25.84733,2.25 -34,2.25 l 0,-10.5 -14.75,0 c -0.6412,5.65458 -0.5149,11.71105 2.25,16.5 z"
           id="path14611"
           inkscape:connector-curvature="0"
           sodipodi:nodetypes="cccccc" />
        <path
           style="fill:#4e9a06;fill-opacity:1;stroke:none"
           d="m 591.25,172.875 c 0,0 -9.52642,-0.027 -8.5,-6.5 1.02642,-6.47296 27.61226,0.65038 27,-9.5 -0.61226,-10.15038 -31.625,-7 -31.625,-7 0,0 36.76685,-7.03608 38.5,4.625 1.73315,11.66108 -27.52281,6.66294 -29.25,12.875 -1.72719,6.21206 3.875,5.5 3.875,5.5 z"
           id="path14613"
           inkscape:connector-curvature="0"
           sodipodi:nodetypes="czzczzc" />
      </g>
      <text
         sodipodi:linespacing="125%"
         id="text19406-8-6-1"
         y="442.77744"
         x="467.44598"
         style="font-size:16.67366219px;font-style:normal;font-weight:normal;line-height:125%;letter-spacing:0px;word-spacing:0px;fill:#000000;fill-opacity:1;stroke:none;font-family:Sans"
         xml:space="preserve"><tspan
           y="442.77744"
           x="467.44598"
           id="tspan19408-4-5-1"
           sodipodi:role="line">Smoketest</tspan></text>
    </g>
    <g
       id="g19616"
       transform="translate(370.68629,-141.42136)">
      <g
         transform="translate(-436.95296,0)"
         id="g19611">
        <path
           sodipodi:type="arc"
           style="color:#000000;fill:#ffffff;fill-opacity:1;fill-rule:nonzero;stroke:#cc0000;stroke-width:8.16528893;stroke-linecap:round;stroke-linejoin:round;stroke-miterlimit:4;stroke-opacity:1;stroke-dasharray:none;stroke-dashoffset:0;marker:none;visibility:visible;display:inline;overflow:visible;enable-background:accumulate"
           id="path14048-8-9-1"
           sodipodi:cx="180.66579"
           sodipodi:cy="172.26254"
           sodipodi:rx="87.32769"
           sodipodi:ry="87.32769"
           d="m 267.99348,172.26254 c 0,48.22975 -39.09794,87.32769 -87.32769,87.32769 -48.22975,0 -87.327693,-39.09794 -87.327693,-87.32769 0,-48.22975 39.097943,-87.327687 87.327693,-87.327687 48.22975,0 87.32769,39.097937 87.32769,87.327687 z"
           transform="matrix(0.57425415,0,0,0.57425415,845.20488,265.07751)" />
        <path
           sodipodi:nodetypes="cssssccsssscc"
           inkscape:connector-curvature="0"
           id="rect14740-0"
           d="m 920.03125,356.65625 0,24.5 c 0,1.98247 1.64253,3.625 3.625,3.625 l 47.84375,0 c 1.98247,0 3.625,-1.64253 3.625,-3.625 l 0,-24.5 -3.5,0 0,24.5 c 0,0.0951 -0.03,0.125 -0.125,0.125 l -47.84375,0 c -0.0951,0 -0.0937,-0.0301 -0.0937,-0.125 l 0,-24.5 z"
           style="font-size:medium;font-style:normal;font-variant:normal;font-weight:normal;font-stretch:normal;text-indent:0;text-align:start;text-decoration:none;line-height:normal;letter-spacing:normal;word-spacing:normal;text-transform:none;direction:ltr;block-progression:tb;writing-mode:lr-tb;text-anchor:start;baseline-shift:baseline;color:#000000;fill:#cc0000;fill-opacity:1;stroke:none;stroke-width:3.00000024;marker:none;visibility:visible;display:inline;overflow:visible;enable-background:accumulate;font-family:Sans;-inkscape-font-specification:Sans" />
        <rect
           style="color:#000000;fill:#cc0000;fill-opacity:1;fill-rule:nonzero;stroke:none;stroke-width:3;marker:none;visibility:visible;display:inline;overflow:visible;enable-background:accumulate"
           id="rect14740"
           width="55.05518"
           height="10.614944"
           x="920.0788"
           y="343.69937" />
      </g>
      <text
         sodipodi:linespacing="125%"
         id="text19406-8-6-1-9"
         y="442.77744"
         x="445.18323"
         style="font-size:16.67366219px;font-style:normal;font-weight:normal;line-height:125%;letter-spacing:0px;word-spacing:0px;fill:#000000;fill-opacity:1;stroke:none;font-family:Sans"
         xml:space="preserve"><tspan
           y="442.77744"
           x="445.18323"
           id="tspan19408-4-5-1-7"
           sodipodi:role="line">Applicationstest</tspan></text>
      <text
         sodipodi:linespacing="125%"
         id="text19406-8-6-1-9-7"
         y="461.63074"
         x="467.10501"
         style="font-size:12.51717854px;font-style:normal;font-weight:normal;line-height:125%;letter-spacing:0px;word-spacing:0px;fill:#000000;fill-opacity:1;stroke:none;font-family:Sans"
         xml:space="preserve"><tspan
           y="461.63074"
           x="467.10501"
           id="tspan19408-4-5-1-7-8"
           sodipodi:role="line">Failed at gedit</tspan></text>
    </g>
    <g
       id="g19560"
       transform="translate(2.6862915,-141.42136)">
      <g
         transform="matrix(1.1722378,0,0,1.1722378,-101.41991,162.06733)"
         id="g19358">
        <path
           sodipodi:type="arc"
           style="color:#000000;fill:#ffffff;fill-opacity:1;fill-rule:nonzero;stroke:#cc0000;stroke-width:8.16528893;stroke-linecap:round;stroke-linejoin:round;stroke-miterlimit:4;stroke-opacity:1;stroke-dasharray:none;stroke-dashoffset:0;marker:none;visibility:visible;display:inline;overflow:visible;enable-background:accumulate"
           id="path14048"
           sodipodi:cx="180.66579"
           sodipodi:cy="172.26254"
           sodipodi:rx="87.32769"
           sodipodi:ry="87.32769"
           d="m 267.99348,172.26254 c 0,48.22975 -39.09794,87.32769 -87.32769,87.32769 -48.22975,0 -87.327693,-39.09794 -87.327693,-87.32769 0,-48.22975 39.097943,-87.327687 87.327693,-87.327687 48.22975,0 87.32769,39.097937 87.32769,87.327687 z"
           transform="matrix(0.48987855,0,0,0.48987855,92.161492,87.874817)" />
        <path
           sodipodi:type="arc"
           style="color:#000000;fill:#cc0000;fill-opacity:1;fill-rule:nonzero;stroke:none;stroke-width:4;marker:none;visibility:visible;display:inline;overflow:visible;enable-background:accumulate"
           id="path14558"
           sodipodi:cx="179.0748"
           sodipodi:cy="173.85353"
           sodipodi:rx="8.3085051"
           sodipodi:ry="8.3085051"
           d="m 187.3833,173.85353 c 0,4.58866 -3.71984,8.30851 -8.3085,8.30851 -4.58866,0 -8.30851,-3.71985 -8.30851,-8.30851 0,-4.58866 3.71985,-8.3085 8.30851,-8.3085 4.58866,0 8.3085,3.71984 8.3085,8.3085 z"
           transform="translate(2.1213203,0)" />
        <path
           sodipodi:type="star"
           style="color:#000000;fill:#cc0000;fill-opacity:1;fill-rule:nonzero;stroke:none;stroke-width:4;marker:none;visibility:visible;display:inline;overflow:visible;enable-background:accumulate"
           id="path14564"
           sodipodi:sides="3"
           sodipodi:cx="120.91526"
           sodipodi:cy="127.0077"
           sodipodi:r1="6.1288252"
           sodipodi:r2="4.269125"
           sodipodi:arg1="1.0471976"
           sodipodi:arg2="2.0943952"
           inkscape:flatsided="false"
           inkscape:rounded="0.2"
           inkscape:randomized="0"
           d="m 123.97967,132.31542 c -0.9427,0.54427 -4.25627,-1.06628 -5.19897,-1.61055 -0.94271,-0.54427 -3.99426,-2.60863 -3.99426,-3.69717 0,-1.08855 3.05155,-3.1529 3.99426,-3.69717 0.94271,-0.54427 4.25627,-2.15482 5.19897,-1.61055 0.94271,0.54427 1.20472,4.21917 1.20472,5.30772 0,1.08854 -0.26201,4.76344 -1.20472,5.30772 z"
           inkscape:transform-center-x="-0.27888226"
           transform="matrix(2.0781573,0,0,2.0781573,-54.093462,-90.80928)" />
        <path
           sodipodi:type="star"
           style="color:#000000;fill:#cc0000;fill-opacity:1;fill-rule:nonzero;stroke:none;stroke-width:4;marker:none;visibility:visible;display:inline;overflow:visible;enable-background:accumulate"
           id="path14564-6"
           sodipodi:sides="3"
           sodipodi:cx="120.91526"
           sodipodi:cy="127.0077"
           sodipodi:r1="6.1288252"
           sodipodi:r2="4.269125"
           sodipodi:arg1="1.0471976"
           sodipodi:arg2="2.0943952"
           inkscape:flatsided="false"
           inkscape:rounded="0.2"
           inkscape:randomized="0"
           d="m 123.97967,132.31542 c -0.9427,0.54427 -4.25627,-1.06628 -5.19897,-1.61055 -0.94271,-0.54427 -3.99426,-2.60863 -3.99426,-3.69717 0,-1.08855 3.05155,-3.1529 3.99426,-3.69717 0.94271,-0.54427 4.25627,-2.15482 5.19897,-1.61055 0.94271,0.54427 1.20472,4.21917 1.20472,5.30772 0,1.08854 -0.26201,4.76344 -1.20472,5.30772 z"
           inkscape:transform-center-x="0.27888652"
           transform="matrix(-2.0781573,0,0,2.0781573,416.10365,-90.809283)" />
      </g>
      <text
         sodipodi:linespacing="125%"
         id="text19406"
         y="442.77744"
         x="81.538582"
         style="font-size:16.67366219px;font-style:normal;font-weight:normal;line-height:125%;letter-spacing:0px;word-spacing:0px;fill:#000000;fill-opacity:1;stroke:none;font-family:Sans"
         xml:space="preserve"><tspan
           y="442.77744"
           x="81.538582"
           id="tspan19408"
           sodipodi:role="line">Jenkins</tspan></text>
      <text
         sodipodi:linespacing="125%"
         id="text19406-8-6-1-9-7-9"
         y="461.90753"
         x="61.869904"
         style="font-size:13.52046776px;font-style:normal;font-weight:normal;line-height:125%;letter-spacing:0px;word-spacing:0px;fill:#000000;fill-opacity:1;stroke:none;font-family:Sans"
         xml:space="preserve"><tspan
           y="461.90753"
           x="61.869904"
           id="tspan19408-4-5-1-7-8-0"
           sodipodi:role="line">Failed at gedit</tspan></text>
    </g>
    <text
       xml:space="preserve"
       style="font-size:40px;font-style:normal;font-weight:normal;line-height:125%;letter-spacing:0px;word-spacing:0px;fill:#000000;fill-opacity:1;stroke:none;font-family:Sans"
       x="671.75146"
       y="87.763275"
       id="text19626"
       sodipodi:linespacing="125%"><tspan
         sodipodi:role="line"
         id="tspan19628"
         x="671.75146"
         y="87.763275"
         style="font-weight:bold;-inkscape-font-specification:Sans Bold">Build Status</tspan></text>
    <rect
       style="color:#000000;fill:#d3d7cf;fill-opacity:1;fill-rule:nonzero;stroke:none;stroke-width:3;marker:none;visibility:visible;display:inline;overflow:visible;enable-background:accumulate"
       id="rect19630"
       width="204.99019"
       height="157.5112"
       x="53.740116"
       y="416.26282"
       rx="0"
       ry="0" />
    <rect
       style="color:#000000;fill:#d3d7cf;fill-opacity:1;fill-rule:nonzero;stroke:none;stroke-width:3;marker:none;visibility:visible;display:inline;overflow:visible;enable-background:accumulate"
       id="rect19630-2"
       width="204.99019"
       height="157.5112"
       x="283.18414"
       y="416.26282"
       rx="0"
       ry="0" />
    <rect
       style="color:#000000;fill:#d3d7cf;fill-opacity:1;fill-rule:nonzero;stroke:none;stroke-width:3;marker:none;visibility:visible;display:inline;overflow:visible;enable-background:accumulate"
       id="rect19630-2-5"
       width="204.99019"
       height="157.5112"
       x="512.62817"
       y="416.26282"
       rx="0"
       ry="0" />
    <rect
       style="color:#000000;fill:#d3d7cf;fill-opacity:1;fill-rule:nonzero;stroke:none;stroke-width:3;marker:none;visibility:visible;display:inline;overflow:visible;enable-background:accumulate"
       id="rect19630-2-5-8"
       width="204.99019"
       height="157.5112"
       x="742.0722"
       y="416.26282"
       rx="0"
       ry="0" />
    <rect
       style="color:#000000;fill:#d3d7cf;fill-opacity:1;fill-rule:nonzero;stroke:none;stroke-width:3;marker:none;visibility:visible;display:inline;overflow:visible;enable-background:accumulate"
       id="rect19630-1"
       width="204.99019"
       height="151.5112"
       x="53.740116"
       y="616.26282"
       rx="0"
       ry="0" />
    <rect
       style="color:#000000;fill:#d3d7cf;fill-opacity:1;fill-rule:nonzero;stroke:none;stroke-width:3;marker:none;visibility:visible;display:inline;overflow:visible;enable-background:accumulate"
       id="rect19630-2-6"
       width="204.99019"
       height="151.5112"
       x="283.18414"
       y="616.26282"
       rx="0"
       ry="0" />
    <rect
       style="color:#000000;fill:#d3d7cf;fill-opacity:1;fill-rule:nonzero;stroke:none;stroke-width:3;marker:none;visibility:visible;display:inline;overflow:visible;enable-background:accumulate"
       id="rect19630-2-5-3"
       width="204.99019"
       height="151.5112"
       x="512.62817"
       y="616.26282"
       rx="0"
       ry="0" />
    <rect
       style="color:#000000;fill:#d3d7cf;fill-opacity:1;fill-rule:nonzero;stroke:none;stroke-width:3;marker:none;visibility:visible;display:inline;overflow:visible;enable-background:accumulate"
       id="rect19630-2-5-8-2"
       width="204.99019"
       height="151.5112"
       x="742.0722"
       y="616.26282"
       rx="0"
       ry="0" />
    <text
       xml:space="preserve"
       style="font-size:16.67366219px;font-style:normal;font-weight:normal;line-height:125%;letter-spacing:0px;word-spacing:0px;fill:#000000;fill-opacity:1;stroke:none;font-family:Sans"
       x="133.94435"
       y="592.18823"
       id="text19406-8-6-1-9-7-9-9"
       sodipodi:linespacing="125%"><tspan
         sodipodi:role="line"
         id="tspan19408-4-5-1-7-8-0-2"
         x="133.94435"
         y="592.18823">BIOS</tspan></text>
    <text
       xml:space="preserve"
       style="font-size:16.67366219px;font-style:normal;font-weight:normal;line-height:125%;letter-spacing:0px;word-spacing:0px;fill:#000000;fill-opacity:1;stroke:none;font-family:Sans"
       x="356.16617"
       y="592.18823"
       id="text19406-8-6-1-9-7-9-9-6"
       sodipodi:linespacing="125%"><tspan
         sodipodi:role="line"
         id="tspan19408-4-5-1-7-8-0-2-5"
         x="356.16617"
         y="592.18823">Kernel</tspan></text>
    <text
       xml:space="preserve"
       style="font-size:16.67366219px;font-style:normal;font-weight:normal;line-height:125%;letter-spacing:0px;word-spacing:0px;fill:#000000;fill-opacity:1;stroke:none;font-family:Sans"
       x="592.16614"
       y="592.18823"
       id="text19406-8-6-1-9-7-9-9-6-5"
       sodipodi:linespacing="125%"><tspan
         sodipodi:role="line"
         id="tspan19408-4-5-1-7-8-0-2-5-9"
         x="592.16614"
         y="592.18823">GDM</tspan></text>
    <text
       xml:space="preserve"
       style="font-size:16.67366219px;font-style:normal;font-weight:normal;line-height:125%;letter-spacing:0px;word-spacing:0px;fill:#000000;fill-opacity:1;stroke:none;font-family:Sans"
       x="824.16614"
       y="592.18823"
       id="text19406-8-6-1-9-7-9-9-6-5-4"
       sodipodi:linespacing="125%"><tspan
         sodipodi:role="line"
         id="tspan19408-4-5-1-7-8-0-2-5-9-3"
         x="824.16614"
         y="592.18823">tracker</tspan></text>
  </g>
</svg>
