<?xml version="1.0" encoding="UTF-8" standalone="no"?>
<!-- Created with Inkscape (http://www.inkscape.org/) -->

<svg
   xmlns:dc="http://purl.org/dc/elements/1.1/"
   xmlns:cc="http://creativecommons.org/ns#"
   xmlns:rdf="http://www.w3.org/1999/02/22-rdf-syntax-ns#"
   xmlns:svg="http://www.w3.org/2000/svg"
   xmlns="http://www.w3.org/2000/svg"
   xmlns:sodipodi="http://sodipodi.sourceforge.net/DTD/sodipodi-0.dtd"
   xmlns:inkscape="http://www.inkscape.org/namespaces/inkscape"
   width="210mm"
   height="297mm"
   viewBox="0 0 744.09448819 1052.3622047"
   id="svg38192"
   version="1.1"
   inkscape:version="0.91 r13725"
   sodipodi:docname="fwupd.svg">
  <defs
     id="defs38194" />
  <sodipodi:namedview
     id="base"
     pagecolor="#ffffff"
     bordercolor="#666666"
     borderopacity="1.0"
     inkscape:pageopacity="0.0"
     inkscape:pageshadow="2"
     inkscape:zoom="1"
     inkscape:cx="-27.554922"
     inkscape:cy="637.58231"
     inkscape:document-units="px"
     inkscape:current-layer="layer1"
     showgrid="false"
     inkscape:window-width="2560"
     inkscape:window-height="1376"
     inkscape:window-x="0"
     inkscape:window-y="27"
     inkscape:window-maximized="1">
    <inkscape:grid
       type="xygrid"
       id="grid43590" />
  </sodipodi:namedview>
  <metadata
     id="metadata38197">
    <rdf:RDF>
      <cc:Work
         rdf:about="">
        <dc:format>image/svg+xml</dc:format>
        <dc:type
           rdf:resource="http://purl.org/dc/dcmitype/StillImage" />
        <dc:title></dc:title>
      </cc:Work>
    </rdf:RDF>
  </metadata>
  <g
     inkscape:label="Layer 1"
     inkscape:groupmode="layer"
     id="layer1">
    <g
       id="g43592"
       transform="translate(57,5)">
      <circle
         r="47.071426"
         cy="403.43362"
         cx="159.5"
         id="path38742"
         style="color:#000000;clip-rule:nonzero;display:inline;overflow:visible;visibility:visible;opacity:1;isolation:auto;mix-blend-mode:normal;color-interpolation:sRGB;color-interpolation-filters:linearRGB;solid-color:#000000;solid-opacity:1;fill:#f57900;fill-opacity:1;fill-rule:nonzero;stroke:none;stroke-width:1;stroke-linecap:butt;stroke-linejoin:miter;stroke-miterlimit:4;stroke-dasharray:none;stroke-dashoffset:0;stroke-opacity:1;marker:none;marker-start:none;marker-mid:none;marker-end:none;paint-order:normal;color-rendering:auto;image-rendering:auto;shape-rendering:auto;text-rendering:auto;enable-background:accumulate" />
      <g
         transform="matrix(2,0,0,2,61.952314,-287.61415)"
         inkscape:label="avatar-default"
         id="g6234"
         style="display:inline">
        <rect
           style="color:#bebebe;display:inline;overflow:visible;visibility:visible;fill:none;stroke:none;stroke-width:1;marker:none"
           id="rect20566"
           width="16"
           height="16"
           x="41.000198"
           y="337"
           inkscape:label="a" />
        <g
           transform="translate(-577.9998,-648.3622)"
           id="g3938">
          <path
             style="fill:#ffffff;fill-opacity:1;stroke:none"
             d="m 629.55469,993.45593 c -0.70541,0.62353 -1.53918,0.90625 -2.55469,0.90625 -1.01551,0 -1.85318,-0.29053 -2.55859,-0.91406 -1.10938,0.36328 -2.43603,1.28775 -2.4375,2.90234 L 622,999.36218 c -7.2e-4,0.554 0.446,1.00002 1,1.00002 l 8,0 c 0.554,0 1,-0.44602 1,-1.00002 l 0,-3 c 0,-1.38672 -1.10231,-2.5558 -2.44531,-2.90625 z"
             id="path3940-5"
             inkscape:connector-curvature="0"
             sodipodi:nodetypes="csccsssscc" />
          <circle
             transform="matrix(1.2,0,0,1.2,567.6,579.36217)"
             id="path3942-6"
             style="color:#bebebe;display:inline;overflow:visible;visibility:visible;fill:#ffffff;fill-opacity:1;fill-rule:nonzero;stroke:none;stroke-width:2;marker:none;enable-background:accumulate"
             cx="49.5"
             cy="342.5"
             r="2.5" />
        </g>
      </g>
    </g>
    <g
       id="g43600"
       transform="translate(170,5)">
      <circle
         style="color:#000000;clip-rule:nonzero;display:inline;overflow:visible;visibility:visible;opacity:1;isolation:auto;mix-blend-mode:normal;color-interpolation:sRGB;color-interpolation-filters:linearRGB;solid-color:#000000;solid-opacity:1;fill:#4e9a06;fill-opacity:1;fill-rule:nonzero;stroke:none;stroke-width:1;stroke-linecap:butt;stroke-linejoin:miter;stroke-miterlimit:4;stroke-dasharray:none;stroke-dashoffset:0;stroke-opacity:1;marker:none;marker-start:none;marker-mid:none;marker-end:none;paint-order:normal;color-rendering:auto;image-rendering:auto;shape-rendering:auto;text-rendering:auto;enable-background:accumulate"
         id="circle43602"
         cx="163.5"
         cy="403.43362"
         r="47.071426" />
      <g
         style="display:inline"
         transform="matrix(-2,0,0,2,771.00042,-183.66898)"
         inkscape:label="builder"
         id="g27305">
        <rect
           y="285.01559"
           x="295.50021"
           height="16"
           width="16"
           id="rect27307"
           style="display:inline;opacity:0;fill:#ffffff;fill-opacity:1;stroke:none" />
        <path
           id="path27321"
           style="color:#000000;clip-rule:nonzero;display:inline;overflow:visible;visibility:visible;opacity:1;isolation:auto;mix-blend-mode:normal;color-interpolation:sRGB;color-interpolation-filters:linearRGB;solid-color:#000000;solid-opacity:1;fill:#ffffff;fill-opacity:1;fill-rule:nonzero;stroke:none;stroke-width:1;stroke-linecap:butt;stroke-linejoin:miter;stroke-miterlimit:4;stroke-dasharray:none;stroke-dashoffset:0;stroke-opacity:1;marker:none;marker-start:none;marker-mid:none;marker-end:none;paint-order:normal;color-rendering:auto;image-rendering:auto;shape-rendering:auto;text-rendering:auto;enable-background:accumulate"
           d="m 299.50023,293.01558 1.06629,1.91069 -0.98216,2.08931 -0.53125,0 0.44712,-2.46875 -1.45313,-0.26562 0.0194,1.73011 -0.57544,-0.004 -0.44398,-1.67945 -0.57812,0.1562 0.0157,2.5 -0.5625,0.0312 -0.82813,-2.5625 1.39553,-1.44525 0.006,-0.98548 2.99242,-0.006 z m 3.40623,-6.01019 a 1.5277282,1.5277282 0 0 1 1.52832,1.52734 1.5277282,1.5277282 0 0 1 -0.12305,0.59473 l 1.49902,1.82031 a 2.5,2.5 0 0 1 0.18946,-0.01 2.5,2.5 0 0 1 2.5,2.5 2.5,2.5 0 0 1 -2.5,2.5 2.5,2.5 0 0 1 -2.5,-2.5 2.5,2.5 0 0 1 0.29394,-1.17089 l -0.87793,-2.20704 a 1.5277282,1.5277282 0 0 1 -0.01,9.8e-4 1.5277282,1.5277282 0 0 1 -1.35645,-0.82715 l -1.95019,0.44824 a 1.5277282,1.5277282 0 0 1 -1.51075,1.30664 1.5277282,1.5277282 0 0 1 -1.52734,-1.52733 1.5277282,1.5277282 0 0 1 1.52734,-1.52832 1.5277282,1.5277282 0 0 1 1.36817,0.85351 l 1.94239,-0.49805 a 1.5277282,1.5277282 0 0 1 1.50683,-1.2832 z m 4.10939,9.60003 1.42579,1.41016 0.9082,0.2207 c 0.0884,0.0276 0.15625,0.13433 0.15625,0.25586 l 0,1.52344 -7.00586,0 0,-1.54492 c 0,-0.14377 0.0693,-0.19958 0.19922,-0.23438 l 0.77539,-0.2207 1.54492,-1.40039 a 3.328125,3.328125 0 0 0 0.98047,0.15234 3.328125,3.328125 0 0 0 1.01562,-0.16211 z"
           inkscape:connector-curvature="0" />
      </g>
    </g>
    <g
       id="g47961">
      <g
         id="g43614"
         transform="translate(292,5)">
        <circle
           style="color:#000000;clip-rule:nonzero;display:inline;overflow:visible;visibility:visible;opacity:1;isolation:auto;mix-blend-mode:normal;color-interpolation:sRGB;color-interpolation-filters:linearRGB;solid-color:#000000;solid-opacity:1;fill:#3465a4;fill-opacity:1;fill-rule:nonzero;stroke:none;stroke-width:1;stroke-linecap:butt;stroke-linejoin:miter;stroke-miterlimit:4;stroke-dasharray:none;stroke-dashoffset:0;stroke-opacity:1;marker:none;marker-start:none;marker-mid:none;marker-end:none;paint-order:normal;color-rendering:auto;image-rendering:auto;shape-rendering:auto;text-rendering:auto;enable-background:accumulate"
           id="circle43616"
           cx="159.5"
           cy="403.43362"
           r="47.071426" />
      </g>
      <g
         inkscape:label="media-removable"
         id="g9503"
         transform="matrix(1.9999998,0,0,1.9999998,194.03088,-543.63768)"
         style="display:inline">
        <g
           inkscape:label="input-projector"
           id="g9435"
           transform="translate(19.968586,0)">
          <g
             inkscape:label="insert-headphones"
             id="g9437"
             transform="translate(20.031414,0)">
            <g
               inkscape:label="musicplayer"
               id="g9439"
               transform="translate(20,0)">
              <rect
                 y="467"
                 x="61.000198"
                 height="16"
                 width="16.000002"
                 id="rect9441"
                 style="fill:none;stroke:none" />
            </g>
          </g>
        </g>
        <path
           style="fill:#ffffff;fill-opacity:1;stroke:none"
           d="m 133.0002,473 0,5.06173 c 0,2.7358 -1.784,4.93827 -4,4.93827 -2.216,0 -4,-2.20247 -4,-4.93827 l 0,-5.06173 z"
           id="rect9463"
           inkscape:connector-curvature="0"
           sodipodi:nodetypes="cssscc" />
        <path
           style="fill:#ffffff;fill-opacity:1;stroke:none"
           d="m 126.00022,468 0,4 5.99998,0 0,-4 -5.99998,0 z m 0.99998,1 1.00002,0 0,1 -1.00002,0 0,-1 z m 3,0 1.00002,0 0,1 -1.00002,0 0,-1 z"
           id="rect9466"
           inkscape:connector-curvature="0" />
      </g>
    </g>
  </g>
</svg>
